<?xml version="1.0" standalone="no"?>
<!DOCTYPE svg PUBLIC "-//W3C//DTD SVG 1.1//EN" "http://www.w3.org/Graphics/SVG/1.1/DTD/svg11.dtd" >
<svg>
<metadata>
Created by FontForge 20090914 at Mon Nov 19 18:32:37 2018
 By www-data
Copyright (c) 2015, Cadson Demak (info@cadsondemak.com)
</metadata>
<defs>
<font id="Pridi-Medium" horiz-adv-x="0" >
  <font-face 
    font-family="Pridi Medium"
    font-weight="500"
    font-stretch="normal"
    units-per-em="1000"
    panose-1="0 0 6 0 0 0 0 0 0 0"
    ascent="750"
    descent="-250"
    x-height="479.998"
    cap-height="647"
    bbox="-641 -418 1236 1052"
    underline-thickness="50"
    underline-position="-50"
    unicode-range="U+000D-U+FB02"
  />
<missing-glyph horiz-adv-x="600" 
d="M94 714h411v-714h-411v714zM454 51v612h-309v-612h309z" />
    <glyph glyph-name="fi" unicode="fi" horiz-adv-x="577" 
d="M28 87l26 0.000976562c14 0 24 3.16699 30 9.5s9 16.166 9 29.499v267h-76v87h76v28c0 53.333 18 94.833 54 124.5s87.667 44.5 155 44.5c82 0 146.333 -19.333 193 -58v-83h-124v38c-14.667 12 -37 18 -67 18c-25.333 0 -45 -5.83301 -59 -17.5s-21 -29.167 -21 -52.5
v-42h271v-354c0 -24.667 12.667 -37 38 -37h27v-89h-199v393h-137v-269c0 -12.667 2.83301 -22 8.5 -28s15.167 -9 28.5 -9h26v-87h-259v87z" />
    <glyph glyph-name="fl" unicode="fl" horiz-adv-x="577" 
d="M28 87l26 0.000976562c14 0 24 3.16699 30 9.5s9 16.166 9 29.499v267h-76v87h76v28c0 53.333 18 94.833 54 124.5s87.667 44.5 155 44.5c42 0 79.333 -5.16699 112 -15.5s59.667 -24.5 81 -42.5v-493c0 -24.667 12.667 -37 38 -37h27v-89h-199v393h-137v-269
c0 -12.667 2.83301 -22 8.5 -28s15.167 -9 28.5 -9h26v-87h-259v87zM361 480.001l-0.000976562 96.999c-6 4.66699 -14.167 8.33398 -24.5 11.001s-21.166 4 -32.499 4c-27.333 0 -47.5 -5.66699 -60.5 -17s-19.5 -29 -19.5 -53v-42h137z" />
    <glyph glyph-name="ru_lakkhangyaothai" unicode="&#xe24;&#xe45;" horiz-adv-x="887" 
d="M393 358c0 30.667 -9.82715 54.1621 -29.4941 70.4951s-47.834 24.5 -84.501 24.5c-48.667 0 -90 -12.333 -124 -37v-13l77 -48v-53c-20.667 -7.33301 -34.334 -17 -41.001 -29s-10 -30.333 -10 -55v-40c29.333 0 52.166 -7.66699 68.499 -23s24.5 -38.666 24.5 -69.999
c0 -34.667 -8.33301 -60 -25 -76s-46.334 -24 -89.001 -24s-72.334 8.83301 -89.001 26.5s-25 46.834 -25 87.501v107c0 29.333 4.16699 53.333 12.5 72s23.166 34.334 44.499 47.001l-76 45v78c32 30.667 69.5 54.334 112.5 71.001s89.833 25 140.5 25
c80 0 141.667 -17.333 185 -52c49.333 34.667 105.666 52 168.999 52c76 0 129.333 -17 160 -51s46 -82 46 -144v-550h-135v551c0 36 -6.66699 62.167 -20 78.5s-36.666 24.5 -69.999 24.5c-18 0 -36 -3 -54 -9s-33.667 -14.333 -47 -25
c9.33301 -17.333 14 -39.666 14 -66.999v-553h-135v559zM194.506 54.9951c5.66699 5.33301 8.5 15.666 8.5 30.999c0 14 -2.83301 23.667 -8.5 29s-16.167 8 -31.5 8s-25.833 -2.66699 -31.5 -8s-8.5 -15 -8.5 -29c0 -15.333 2.83301 -25.666 8.5 -30.999s16.167 -8 31.5 -8
s25.833 2.66699 31.5 8z" />
    <glyph glyph-name="lu_lakkhangyaothai" unicode="&#xe26;&#xe45;" horiz-adv-x="927" 
d="M433 358c0 30.667 -9.66699 54.165 -29 70.498s-47.666 24.5 -84.999 24.5c-48.667 0 -90 -12.333 -124 -37v-13l92 -54v-54c-13.333 -8 -21.833 -17.167 -25.5 -27.5s-5.5 -27.833 -5.5 -52.5v-116c0 -40.667 -8.5 -69.834 -25.5 -87.501s-46.833 -26.5 -89.5 -26.5
s-72.334 8 -89.001 24s-25 41.333 -25 76c0 30.667 8.66699 53.834 26 69.501s40.666 23.5 69.999 23.5v52c0 20.667 2.16699 36.834 6.5 48.501s13.5 24.5 27.5 38.5l-90 53v78c32 30.667 69.5 54.334 112.5 71.001s89.833 25 140.5 25c80 0 141.667 -17.333 185 -52
c46.667 34.667 103 52 169 52c76 0 129.333 -17 160 -51s46 -82 46 -144v-550h-135v551c0 36 -6.66699 62.167 -20 78.5s-36.666 24.5 -69.999 24.5c-19.333 0 -37.833 -2.83301 -55.5 -8.5s-33.167 -14.167 -46.5 -25.5c10 -18 15 -40.333 15 -67v-553h-135v559z
M169.5 54.998c5.66699 5.33301 8.5 15.666 8.5 30.999c0 14 -2.83301 23.667 -8.5 29s-16.167 8 -31.5 8s-25.833 -2.66699 -31.5 -8s-8.5 -15 -8.5 -29c0 -15.333 2.83301 -25.666 8.5 -30.999s16.167 -8 31.5 -8s25.833 2.66699 31.5 8z" />
    <glyph glyph-name=".notdef" horiz-adv-x="600" 
d="M94 714h411v-714h-411v714zM454 51v612h-309v-612h309z" />
    <glyph glyph-name="nonmarkingreturn" unicode="&#xd;" horiz-adv-x="325" 
 />
    <glyph glyph-name="space" unicode=" " horiz-adv-x="325" 
 />
    <glyph glyph-name="exclam" unicode="!" horiz-adv-x="218" 
d="M39 647h141l-7 -451h-127zM37 105h144v-105h-144v105z" />
    <glyph glyph-name="quotedbl" unicode="&#x22;" horiz-adv-x="374" 
d="M37 721h120l-12 -205h-95zM216 721h121l-13 -205h-94z" />
    <glyph glyph-name="numbersign" unicode="#" horiz-adv-x="749" 
d="M144 170h-107v88h126l34 149h-132v88h151l33 152h115l-34 -152h167l34 152h114l-34 -152h101v-88h-121l-33 -149h125v-88h-145l-37 -170h-113l36 170h-167l-36 -170h-115zM444 258l33 149h-167l-33 -149h167z" />
    <glyph glyph-name="dollar" unicode="$" horiz-adv-x="561" 
d="M215 -9c-34 4.66699 -66.334 13.333 -97.001 26s-57.667 28 -81 46v107h133v-69c15.333 -8.66699 33.333 -15.5 54 -20.5s42.334 -7.5 65.001 -7.5c34.667 0 61 7.16699 79 21.5s27 35.833 27 64.5c0 19.333 -5.33301 35.5 -16 48.5s-25.167 24.5 -43.5 34.5
s-45.5 22.333 -81.5 37c-49.333 20 -88.833 39 -118.5 57s-52.5 39 -68.5 63s-24 53 -24 87c0 47.333 15.667 85.166 47 113.499s73 46.833 125 55.5v112h121v-109c66 -6.66699 125 -30.667 177 -72v-99h-133v64c-27.333 15.333 -61 23 -101 23
c-33.333 0 -59.5 -6.66699 -78.5 -20s-28.5 -34.666 -28.5 -63.999c0 -18.667 5.5 -34.667 16.5 -48s24.5 -24.333 40.5 -33s37.333 -18.334 64 -29.001l21 -9c56 -24 97.167 -43.333 123.5 -58s47.333 -33.667 63 -57s23.5 -53.666 23.5 -90.999
c0 -46.667 -16.333 -86.167 -49 -118.5s-79 -51.5 -139 -57.5v-109h-121v111z" />
    <glyph glyph-name="percent" unicode="%" horiz-adv-x="769" 
d="M113.5 374.5c-23.667 13.667 -42.334 32.334 -56.001 56.001s-20.5 49.5 -20.5 77.5s6.83301 53.833 20.5 77.5s32.334 42.334 56.001 56.001s49.5 20.5 77.5 20.5s53.833 -6.83301 77.5 -20.5s42.334 -32.334 56.001 -56.001s20.5 -49.5 20.5 -77.5
s-6.83301 -53.833 -20.5 -77.5s-32.334 -42.334 -56.001 -56.001s-49.5 -20.5 -77.5 -20.5s-53.833 6.83301 -77.5 20.5zM510 647h133l-377 -647h-133zM239.5 460c13 13.333 19.5 29.333 19.5 48c0 19.333 -6.5 35.5 -19.5 48.5s-29.167 19.5 -48.5 19.5
c-18.667 0 -34.667 -6.5 -48 -19.5s-20 -29.167 -20 -48.5c0 -18.667 6.66699 -34.667 20 -48s29.333 -20 48 -20c19.333 0 35.5 6.66699 48.5 20zM500.5 5.5c-23.667 13.667 -42.334 32.334 -56.001 56.001s-20.5 49.5 -20.5 77.5s6.83301 53.833 20.5 77.5
s32.334 42.334 56.001 56.001s49.5 20.5 77.5 20.5s53.833 -6.83301 77.5 -20.5s42.334 -32.334 56.001 -56.001s20.5 -49.5 20.5 -77.5s-6.83301 -53.833 -20.5 -77.5s-32.334 -42.334 -56.001 -56.001s-49.5 -20.5 -77.5 -20.5s-53.833 6.83301 -77.5 20.5zM626.5 91
c13 13.333 19.5 29.333 19.5 48c0 19.333 -6.5 35.5 -19.5 48.5s-29.167 19.5 -48.5 19.5s-35.666 -6.66699 -48.999 -20s-20 -29.333 -20 -48s6.66699 -34.667 20 -48s29.666 -20 48.999 -20s35.5 6.66699 48.5 20z" />
    <glyph glyph-name="ampersand" unicode="&#x26;" horiz-adv-x="693" 
d="M103 32.5c-44 31.667 -65.999 75.835 -65.999 132.502c0 44 10.5 81.167 31.5 111.5s53.833 58.166 98.5 83.499c-25.333 24.667 -45.5 49 -60.5 73s-22.5 49.333 -22.5 76c0 49.333 16.333 87.166 49 113.499s77.667 39.5 135 39.5
c60.667 0 106.834 -14.5 138.501 -43.5s47.5 -66.5 47.5 -112.5v-28h-132v41c0 18 -4.66699 32 -14 42s-22.333 15 -39 15c-18 0 -31.833 -5.16699 -41.5 -15.5s-14.5 -27.5 -14.5 -51.5c0 -18 5.16699 -34.5 15.5 -49.5s27.833 -34.833 52.5 -59.5l19 -20l156 -165
c8 21.333 12 49.333 12 84v80h177v-86h-32c-10.667 0 -18 -2.16699 -22 -6.5s-6 -11.833 -6 -22.5c0 -62 -12 -113 -36 -153l107 -111h-148l-39 41c-26.667 -21.333 -54.334 -36 -83.001 -44s-64.334 -12 -107.001 -12c-73.333 0 -132 15.833 -176 47.5zM349.501 79.501
c19 5.66699 37.166 15.5 54.499 29.5l-163 174c-26 -15.333 -44.667 -31.833 -56 -49.5s-17 -40.5 -17 -68.5c0 -30 10.833 -53.167 32.5 -69.5s47.834 -24.5 78.501 -24.5c28 0 51.5 2.83301 70.5 8.5z" />
    <glyph glyph-name="quotesingle" unicode="'" horiz-adv-x="207" 
d="M37 721h133l-13 -205h-107z" />
    <glyph glyph-name="parenleft" unicode="(" horiz-adv-x="367" 
d="M37 316c0 164.667 47.667 295 143 391h150c-55.333 -50 -96.5 -108 -123.5 -174s-40.5 -138.333 -40.5 -217c0 -80.667 13 -153.5 39 -218.5s67.667 -122.5 125 -172.5h-150c-95.333 96 -143 226.333 -143 391z" />
    <glyph glyph-name="parenright" unicode=")" horiz-adv-x="367" 
d="M160.5 99c27 66 40.5 138.333 40.5 217c0 80.667 -13 153.5 -39 218.5s-67.667 122.5 -125 172.5h150c95.333 -96 143 -226.333 143 -391s-47.667 -295 -143 -391h-150c55.333 50 96.5 108 123.5 174z" />
    <glyph glyph-name="asterisk" unicode="*" horiz-adv-x="427" 
d="M72 454l67 84l-102 27l34 97l88 -39l-3 98h116l-5 -98l89 38l34 -96l-103 -27l68 -84l-87 -59l-55 87l-54 -87z" />
    <glyph glyph-name="plus" unicode="+" horiz-adv-x="413" 
d="M152 264h-115v87h115v104h106v-104h118v-87h-118v-104h-106v104z" />
    <glyph glyph-name="comma" unicode="," horiz-adv-x="237" 
d="M71 97h129l-67 -216h-96z" />
    <glyph glyph-name="hyphen" unicode="-" horiz-adv-x="372" 
d="M37 345h298v-87h-298v87z" />
    <glyph glyph-name="period" unicode="." horiz-adv-x="179" 
d="M37 97h105v-97h-105v97z" />
    <glyph glyph-name="slash" unicode="/" horiz-adv-x="458" 
d="M288 676h133l-250 -676h-134z" />
    <glyph glyph-name="zero" unicode="0" horiz-adv-x="625" 
d="M97 69.5c-46.667 56.333 -70 141.166 -70 254.499c0 112.667 23.333 197.167 70 253.5s118.334 84.5 215.001 84.5c97.333 0 169.333 -28.167 216 -84.5s70 -140.833 70 -253.5c0 -113.333 -23.333 -198.166 -70 -254.499s-118.667 -84.5 -216 -84.5
c-96.667 0 -168.334 28.167 -215.001 84.5zM428 132.5c26.667 39 40 102.833 40 191.5c0 88 -13.333 151.5 -40 190.5s-65.334 58.5 -116.001 58.5c-50 0 -88.333 -19.5 -115 -58.5s-40 -102.5 -40 -190.5c0 -88.667 13.333 -152.5 40 -191.5s65 -58.5 115 -58.5
c50.667 0 89.334 19.5 116.001 58.5z" />
    <glyph glyph-name="one" unicode="1" horiz-adv-x="418" 
d="M67 87h56c14.667 0 25 3.16699 31 9.5s9 16.166 9 29.499v394l-87 -53l-49 80l158 100h109v-521c0 -13.333 3.16699 -23.166 9.5 -29.499s16.833 -9.5 31.5 -9.5h56v-87h-324v87z" />
    <glyph glyph-name="two" unicode="2" horiz-adv-x="543" 
d="M37 57c0 60.667 18.5 112.833 55.5 156.5s91.167 83.167 162.5 118.5c42.667 21.333 73.5 42.666 92.5 63.999s28.5 50.333 28.5 87c0 30.667 -9.33301 53.334 -28 68.001s-45 22 -79 22c-35.333 0 -68.333 -6.66699 -99 -20v-60h-129v102c30 20 65 36.167 105 48.5
s80.667 18.5 122 18.5c72.667 0 130.5 -14.833 173.5 -44.5s64.5 -74.5 64.5 -134.5c0 -48.667 -14.5 -89.834 -43.5 -123.501s-77.5 -69.5 -145.5 -107.5c-36 -20 -64 -37 -84 -51s-36 -30.167 -48 -48.5s-18 -40.166 -18 -65.499h331v-87h-461v57z" />
    <glyph glyph-name="three" unicode="3" horiz-adv-x="559" 
d="M140.5 5c-40.333 13.333 -74.834 32.667 -103.501 58v102h131v-63c32.667 -18.667 68.667 -28 108 -28c41.333 0 71.166 8.83301 89.499 26.5s27.5 48.5 27.5 92.5c0 67.333 -35.333 101 -106 101h-84v88h86c64.667 0 97 34 97 102c0 30 -9.66699 52.333 -29 67
s-45.333 22 -78 22c-36 0 -68.667 -6 -98 -18v-62h-131v101c28 20.667 62.333 37.167 103 49.5s82.334 18.5 125.001 18.5c71.333 0 128.833 -14.5 172.5 -43.5s65.5 -72.5 65.5 -130.5c0 -63.333 -28 -113 -84 -149c60 -30 90 -77.333 90 -142
c0 -73.333 -20.167 -127 -60.5 -161s-103.166 -51 -188.499 -51c-48 0 -92.167 6.66699 -132.5 20z" />
    <glyph glyph-name="four" unicode="4" horiz-adv-x="549" 
d="M215 87h44c14.667 0 25 3.16699 31 9.5s9 16.166 9 29.499v45h-282v79l292 397h118v-388h105v-88h-105v-45c0 -13.333 3.16699 -23.166 9.5 -29.499s16.833 -9.5 31.5 -9.5h44v-87h-297v87zM308 259v219l-161 -219h161z" />
    <glyph glyph-name="five" unicode="5" horiz-adv-x="562" 
d="M37 63l0.00195312 102.001h131v-64c31.333 -18 69.666 -27 114.999 -27c39.333 0 68 12.333 86 37s27 60.667 27 108c0 46 -11 78.833 -33 98.5s-56.333 29.5 -103 29.5h-201v62l20 238h426v-87h-305l-11 -123h87c166 0 249 -72.667 249 -218
c0 -74.667 -20.333 -132.334 -61 -173.001s-102.334 -61 -185.001 -61c-97.333 0 -178 26 -242 78z" />
    <glyph glyph-name="six" unicode="6" horiz-adv-x="570" 
d="M105 57c-45.333 48 -68.001 122.667 -68.001 224c0 92.667 13.333 167.334 40 224.001s61.5 97 104.5 121s90.167 36 141.5 36c41.333 0 75.833 -4.66699 103.5 -14s55.5 -24.333 83.5 -45l-48 -77c-34.667 31.333 -77 47 -127 47c-49.333 0 -88 -14.333 -116 -43
s-46.667 -71.667 -56 -129c38.667 38 94.667 57 168 57c148 0 222 -75.667 222 -227c0 -80.667 -22 -141.834 -66 -183.501s-109 -62.5 -195 -62.5c-79.333 0 -141.666 24 -186.999 72zM392.499 109.5c20.333 23.667 30.5 64.167 30.5 121.5
c0 48.667 -10.167 84.667 -30.5 108s-52.833 35 -97.5 35c-36.667 0 -67.167 -11.667 -91.5 -35s-36.5 -56.333 -36.5 -99c0 -59.333 10.833 -101.833 32.5 -127.5s52.5 -38.5 92.5 -38.5c46.667 0 80.167 11.833 100.5 35.5z" />
    <glyph glyph-name="seven" unicode="7" horiz-adv-x="517" 
d="M356 560h-207v-70h-132v157h483v-58l-237 -589h-133z" />
    <glyph glyph-name="eight" unicode="8" horiz-adv-x="587" 
d="M103 33.5c-44 32.333 -66.001 82.166 -66.001 149.499c0 35.333 7.83301 65.833 23.5 91.5s37.834 46.5 66.501 62.5c-27.333 18.667 -47.333 39.834 -60 63.501s-19 50.5 -19 80.5c0 58.667 22.5 103.5 67.5 134.5s104.5 46.5 178.5 46.5
c74.667 0 134.5 -15.5 179.5 -46.5s67.5 -75.833 67.5 -134.5c0 -30 -6.16699 -56.833 -18.5 -80.5s-32.833 -44.834 -61.5 -63.501c28.667 -16 50.667 -36.833 66 -62.5s23 -56.167 23 -91.5c0 -67.333 -22 -117.166 -66 -149.499s-107.333 -48.5 -190 -48.5
c-83.333 0 -147 16.167 -191 48.5zM303.999 380c36.667 0 63.666 7.83301 80.999 23.5s26 41.5 26 77.5c0 31.333 -10.167 54.5 -30.5 69.5s-49.166 22.5 -86.499 22.5c-36.667 0 -65.167 -7.5 -85.5 -22.5s-30.5 -38.167 -30.5 -69.5c0 -36 8.83301 -61.833 26.5 -77.5
s44.5 -23.5 80.5 -23.5h19zM389.498 101.5c20.333 18.333 30.501 47.5 30.501 87.5c0 70 -39 105 -117 105h-17c-38.667 0 -68.167 -9 -88.5 -27s-30.5 -44 -30.5 -78c0 -40 10.333 -69.167 31 -87.5s52.667 -27.5 96 -27.5s75.166 9.16699 95.499 27.5z" />
    <glyph glyph-name="nine" unicode="9" horiz-adv-x="590" 
d="M166.5 -2.5c-31 8.33301 -59.833 21.834 -86.5 40.501l50 81c36.667 -30 78.667 -45 126 -45c48 0 85.167 14.167 111.5 42.5s46.5 72.166 60.5 131.499c-21.333 -21.333 -44.5 -36.5 -69.5 -45.5s-54.833 -13.5 -89.5 -13.5c-75.333 0 -132.833 19.833 -172.5 59.5
s-59.5 96.5 -59.5 170.5c0 79.333 22.667 139.666 68 180.999s110.333 62 195 62c78.667 0 140.5 -24 185.5 -72s67.5 -122.667 67.5 -224c0 -135.333 -26.167 -232.666 -78.5 -291.999s-118.833 -89 -199.5 -89c-41.333 0 -77.5 4.16699 -108.5 12.5zM387.5 308.501
c23 23.667 34.499 57.5 34.499 101.5c0 59.333 -10.333 101.333 -31 126s-51 37 -91 37c-46.667 0 -80.5 -11.833 -101.5 -35.5s-31.5 -64.167 -31.5 -121.5c0 -48.667 10.333 -84.667 31 -108s53.334 -35 98.001 -35c38 0 68.5 11.833 91.5 35.5z" />
    <glyph glyph-name="colon" unicode=":" horiz-adv-x="180" 
d="M37 496h106v-111h-106v111zM37 112h106v-112h-106v112z" />
    <glyph glyph-name="semicolon" unicode=";" horiz-adv-x="230" 
d="M68 496h118v-111h-118v111zM70 97h123l-66 -216h-90z" />
    <glyph glyph-name="less" unicode="&#x3c;" horiz-adv-x="622" 
d="M37 292v66l548 244v-108l-397 -168l397 -170v-108z" />
    <glyph glyph-name="equal" unicode="=" horiz-adv-x="419" 
d="M37 427h345v-88h-345v88zM37 266h345v-89h-345v89z" />
    <glyph glyph-name="greater" unicode="&#x3e;" horiz-adv-x="622" 
d="M37 156l397 170l-397 168v108l548 -244v-66l-548 -244v108z" />
    <glyph glyph-name="question" unicode="?" horiz-adv-x="543" 
d="M166 189c0 42.667 9.16797 78.998 27.501 108.998s49.166 56.667 92.499 80c32 16 55 31.833 69 47.5s21 36.834 21 63.501c0 56.667 -37.333 85 -112 85c-36.667 0 -73 -8.66699 -109 -26v-60h-118v105c28 20.667 62 37.334 102 50.001s83 19 129 19
c75.333 0 133.833 -14.5 175.5 -43.5s62.5 -72.167 62.5 -129.5c0 -28.667 -4.83301 -53 -14.5 -73s-24.167 -37.833 -43.5 -53.5s-46.333 -33.5 -81 -53.5c-20 -10.667 -34.833 -21.5 -44.5 -32.5s-16.167 -23.333 -19.5 -37s-5 -32.5 -5 -56.5v-23h-132v29z
M158.001 107.998h147v-108h-147v108z" />
    <glyph glyph-name="at" unicode="@" horiz-adv-x="862" 
d="M135 -6c-65.333 69.333 -97.999 163.996 -97.999 283.996c0 74.667 16.5 140.334 49.5 197.001s79.667 100.334 140 131.001s130.5 46 210.5 46c128 0 224.667 -30.833 290 -92.5s98 -148.5 98 -260.5c0 -156 -55.667 -234 -167 -234
c-23.333 0 -44.833 6.16699 -64.5 18.5s-32.167 27.5 -37.5 45.5c-15.333 -22 -36.666 -38.833 -63.999 -50.5s-59.333 -17.5 -96 -17.5c-48.667 0 -85.5 10.167 -110.5 30.5s-37.5 48.833 -37.5 85.5c0 38 11.333 67.667 34 89s55 33.333 97 36l119 8v27
c0 20 -4.16699 34.333 -12.5 43s-22.5 13 -42.5 13c-22 0 -40.667 -4 -56 -12v-28h-112v66c45.333 32.667 101.666 49 168.999 49c59.333 0 102.833 -11.667 130.5 -35s41.5 -58.333 41.5 -105v-132c0 -28.667 11 -43 33 -43c20.667 0 36 11.833 46 35.5s15 61.5 15 113.5
c0 84.667 -20.833 146.834 -62.5 186.501s-111.834 59.5 -210.501 59.5c-91.333 0 -161.5 -22.5 -210.5 -67.5s-73.5 -112.5 -73.5 -202.5c0 -100 24 -173 72 -219s118.667 -69 212 -69c39.333 0 79.166 2.83301 119.499 8.5s77.833 14.834 112.5 27.501v-98
c-40.667 -13.333 -78.667 -23 -114 -29s-74.666 -9 -117.999 -9c-136 0 -236.667 34.667 -302 104zM474.501 153.996c15.667 12 23.5 29.998 23.5 53.998v26l-86 -6c-18 -1.33301 -31.5 -5.66602 -40.5 -12.999s-13.5 -19.666 -13.5 -36.999c0 -28 18 -42 54 -42
c26 0 46.833 6 62.5 18z" />
    <glyph glyph-name="A" unicode="A" horiz-adv-x="717" 
d="M27 87h29c16 0 28 2.5 36 7.5s14.333 14.5 19 28.5l185 524h127l182 -524c4.66699 -14 11.167 -23.5 19.5 -28.5s20.833 -7.5 37.5 -7.5h28v-87h-250v87h46l-36 110h-182l-37 -110h46v-87h-250v87zM428 269l-68 207l-70 -207h138z" />
    <glyph glyph-name="B" unicode="B" horiz-adv-x="599" 
d="M27 87l28 -0.000976562c14 0 23.833 3 29.5 9s8.5 16 8.5 30v397c0 12.667 -2.83301 22 -8.5 28s-15.5 9 -29.5 9h-28v87h354c56.667 0 100.834 -15 132.501 -45s47.5 -73 47.5 -129c0 -31.333 -7.83301 -59.666 -23.5 -84.999s-37.834 -45 -66.501 -59
c67.333 -26 101 -75.333 101 -148c0 -54 -16.167 -97.667 -48.5 -131s-75.833 -50 -130.5 -50h-366v87zM335 369.999c29.333 0 52.667 8.16797 70 24.501s26 40.166 26 71.499c0 62.667 -31 94 -93 94h-114v-190h111zM352.001 87c27.333 0 49.168 8.33301 65.501 25
s24.5 41 24.5 73c0 34 -8.83301 58.333 -26.5 73s-42.834 22 -75.501 22h-116v-193h128z" />
    <glyph glyph-name="C" unicode="C" horiz-adv-x="603" 
d="M180 27c-50.667 28 -88.8301 67.165 -114.497 117.498s-38.5 108.5 -38.5 174.5c0 66.667 11.667 125.834 35 177.501s59.166 92.167 107.499 121.5s108.5 44 180.5 44c48.667 0 90 -4.66699 124 -14s67.333 -24.333 100 -45v-114h-131v69
c-12.667 5.33301 -25.334 9.16602 -38.001 11.499s-28.667 3.5 -48 3.5c-64.667 0 -114.167 -22.333 -148.5 -67s-51.5 -107 -51.5 -187c0 -78 18.5 -138.333 55.5 -181s89.833 -64 158.5 -64c30 0 57.333 3.33301 82 10s50 17.334 76 32.001l47 -74
c-32 -21.333 -63.833 -36.166 -95.5 -44.499s-70.167 -12.5 -115.5 -12.5c-72.667 0 -134.334 14 -185.001 42z" />
    <glyph glyph-name="D" unicode="D" horiz-adv-x="631" 
d="M27 87l26 0.000976562c14 0 24 3.16699 30 9.5s9 16.166 9 29.499v397c0 12.667 -3 22 -9 28s-16 9 -30 9h-26v87h300c93.333 0 162.833 -28.167 208.5 -84.5s68.5 -136.833 68.5 -241.5c0 -96 -23.5 -173.5 -70.5 -232.5s-115.833 -88.5 -206.5 -88.5h-300v87z
M308 87.001c60 0 102.833 19.332 128.5 57.999s38.5 97.334 38.5 176.001c0 80.667 -12.667 140.667 -38 180s-68.333 59 -129 59h-88v-473h88z" />
    <glyph glyph-name="E" unicode="E" horiz-adv-x="546" 
d="M27 87l26.001 0.000976562c14 0 24 3.16699 30 9.5s9 16.166 9 29.499v397c0 12.667 -3 22 -9 28s-16 9 -30 9h-26v87h492v-142h-120v18c0 24.667 -13 37 -39 37h-136v-192h154v-88h-154v-193h136c13.333 0 23.166 3 29.499 9s9.5 15.667 9.5 29v18h120v-143h-492v87z
" />
    <glyph glyph-name="F" unicode="F" horiz-adv-x="546" 
d="M27 87l26 0.000976562c14 0 24 3.16699 30 9.5s9 16.166 9 29.499v397c0 12.667 -3 22 -9 28s-16 9 -30 9h-26v87h492v-142h-120v18c0 24.667 -13 37 -39 37h-136v-192h154v-88h-154v-156c0 -12.667 3 -22 9 -28s15.333 -9 28 -9h27v-87h-261v87z" />
    <glyph glyph-name="G" unicode="G" horiz-adv-x="625" 
d="M176.5 27.5c-49 28.333 -86.166 67.5 -111.499 117.5s-38 108 -38 174c0 66.667 11.667 125.834 35 177.501s59.166 92.167 107.499 121.5s108.5 44 180.5 44c48.667 0 90 -4.66699 124 -14s67.333 -24.333 100 -45v-114h-131v69
c-12.667 5.33301 -25.334 9.16602 -38.001 11.499s-28.667 3.5 -48 3.5c-64.667 0 -114.167 -22.333 -148.5 -67s-51.5 -107 -51.5 -187c0 -77.333 17.833 -137.5 53.5 -180.5s85.834 -64.5 150.501 -64.5c40 0 75 5.33301 105 16v171h-131v88h263v-297
c-33.333 -23.333 -69.833 -40.333 -109.5 -51s-84.167 -16 -133.5 -16c-70 0 -129.5 14.167 -178.5 42.5z" />
    <glyph glyph-name="H" unicode="H" horiz-adv-x="685" 
d="M27 87l26 -0.000976562c14 0 23.833 3 29.5 9s8.5 16 8.5 30v397c0 12.667 -2.83301 22 -8.5 28s-15.5 9 -29.5 9h-26v87h254v-87h-20c-13.333 0 -22.833 -3 -28.5 -9s-8.5 -15.333 -8.5 -28v-155h237v154c0 13.333 -2.83301 23 -8.5 29s-15.167 9 -28.5 9h-21v87h255
v-87h-26c-14 0 -24 -3 -30 -9s-9 -15.333 -9 -28v-397c0 -13.333 3 -23.166 9 -29.499s16 -9.5 30 -9.5h26v-87h-255v87h21c12.667 0 22 3.16699 28 9.5s9 16.166 9 29.499v155h-237v-155c0 -13.333 3 -23.166 9 -29.499s15.333 -9.5 28 -9.5h20v-87h-254v87z" />
    <glyph glyph-name="I" unicode="I" horiz-adv-x="313" 
d="M27 87l26 0.000976562c14 0 24 3.16699 30 9.5s9 16.166 9 29.499v397c0 12.667 -3 22 -9 28s-16 9 -30 9h-26v87h259v-87h-26c-13.333 0 -22.833 -3 -28.5 -9s-8.5 -15.333 -8.5 -28v-399c0 -12.667 2.83301 -22 8.5 -28s15.167 -9 28.5 -9h26v-87h-259v87z" />
    <glyph glyph-name="J" unicode="J" horiz-adv-x="503" 
d="M82.5 5.5c-35 13.667 -63.5 33.501 -85.5 59.501v88h118v-50c18.667 -19.333 45.334 -29 80.001 -29c29.333 0 50.666 7.16699 63.999 21.5s20 37.166 20 68.499v359c0 12.667 -3 22 -9 28s-15.667 9 -29 9h-27v87h262v-87h-27c-25.333 0 -38 -12.333 -38 -37v-339
c0 -62.667 -17.833 -111.5 -53.5 -146.5s-87.167 -52.5 -154.5 -52.5c-45.333 0 -85.5 6.83301 -120.5 20.5z" />
    <glyph glyph-name="K" unicode="K" horiz-adv-x="655" 
d="M27 87l26.001 -0.000976562c13.333 0 23 3 29 9s9 15.333 9 28v399c0 12.667 -2.83301 22 -8.5 28s-15.5 9 -29.5 9h-26v87h248v-88h-18c-22 0 -33 -12 -33 -36v-182l204 219h-46v87h237v-87h-36c-12.667 0 -22.334 -2 -29.001 -6s-14.667 -11 -24 -21l-153 -163
l168 -256c6 -9.33301 13 -16.166 21 -20.499s18 -6.5 30 -6.5h32v-87h-250v87h55l-133 204l-76 -81v-86c0 -12 2.5 -21.167 7.5 -27.5s13.5 -9.5 25.5 -9.5h18v-87h-248v87z" />
    <glyph glyph-name="L" unicode="L" horiz-adv-x="516" 
d="M27 87h25.001c14 0 24.167 3 30.5 9s9.5 15.667 9.5 29v398c0 12.667 -3 22 -9 28s-16 9 -30 9h-26v87h262v-87h-26c-14 0 -24 -3 -30 -9s-9 -15.333 -9 -28v-436h136c13.333 0 23.166 3 29.499 9s9.5 15.667 9.5 29v35h120v-160h-492v87z" />
    <glyph glyph-name="M" unicode="M" horiz-adv-x="774" 
d="M27 87h26c14 0 24 3.16699 30 9.5s9 16.166 9 29.499v395c0 13.333 -3 23.166 -9 29.499s-16 9.5 -30 9.5h-26v87h200l161 -371l160 371h199v-87h-27c-12.667 0 -22 -3.16699 -28 -9.5s-9 -16.166 -9 -29.499v-395c0 -13.333 3 -23.166 9 -29.499s15.333 -9.5 28 -9.5h27
v-87h-259v87h27c12.667 0 22 3 28 9s9 15.333 9 28v314l-120 -280h-90l-121 280v-314c0 -24.667 13 -37 39 -37h27v-87h-260v87z" />
    <glyph glyph-name="N" unicode="N" horiz-adv-x="693" 
d="M27 87h26c26 0 39 12.333 39 37v399c0 12.667 -3 22 -9 28s-16 9 -30 9h-26v87h165l279 -433v309c0 24.667 -13 37 -39 37h-27v87h261v-87h-27c-12.667 0 -22 -3 -28 -9s-9 -15.333 -9 -28v-523h-101l-277 431v-307c0 -12.667 2.83301 -22 8.5 -28s15.167 -9 28.5 -9h26
v-87h-260v87z" />
    <glyph glyph-name="O" unicode="O" horiz-adv-x="663" 
d="M102 68.5c-50 55.667 -75 139.834 -75 252.501c0 114 24.333 199.333 73 256s126 85 232 85c104.667 0 181.5 -28.333 230.5 -85s73.5 -142 73.5 -256c0 -112.667 -25 -196.834 -75 -252.501s-126.333 -83.5 -229 -83.5c-103.333 0 -180 27.833 -230 83.5zM464.5 131
c27.667 38 41.498 101.332 41.498 189.999c0 90.667 -13.833 155.334 -41.5 194.001s-71.834 58 -132.501 58c-41.333 0 -74.666 -8.16699 -99.999 -24.5s-44.166 -43 -56.499 -80s-18.5 -86.167 -18.5 -147.5c0 -89.333 13.833 -152.833 41.5 -190.5
s72.167 -56.5 133.5 -56.5c60.667 0 104.834 19 132.501 57z" />
    <glyph glyph-name="P" unicode="P" horiz-adv-x="626" 
d="M27 87l24.999 -0.000976562c26.667 0 40 12.333 40 37v399c0 12.667 -3.16699 22 -9.5 28s-16.5 9 -30.5 9h-25v87h348c70 0 124.833 -17.333 164.5 -52s59.5 -85 59.5 -151c0 -65.333 -20.167 -116.666 -60.5 -153.999s-95.166 -56 -164.499 -56h-154v-110
c0 -24.667 13 -37 39 -37h28v-87h-260v87zM356.999 320.999c38 0 66.333 10.168 85 30.501s28 51.166 28 92.499c0 42.667 -9 72.667 -27 90s-46.667 26 -86 26h-137v-239h137z" />
    <glyph glyph-name="Q" unicode="Q" horiz-adv-x="663" 
d="M335 -108.5c-28.667 24.333 -46.6641 56.166 -53.9971 95.499c-84.667 8.66699 -148.167 41.667 -190.5 99s-63.5 135.666 -63.5 234.999c0 109.333 24.667 193.5 74 252.5s126.333 88.5 231 88.5c103.333 0 179.833 -29.5 229.5 -88.5s74.5 -143.167 74.5 -252.5
c0 -99.333 -21.167 -177.666 -63.5 -234.999s-105.833 -90.333 -190.5 -99c3.33301 -18 11.666 -30.167 24.999 -36.5s29.666 -9.5 48.999 -9.5c22 0 40.667 5.66699 56 17v27h102v-61c-16 -21.333 -37.667 -38.166 -65 -50.499s-59 -18.5 -95 -18.5
c-50.667 0 -90.334 12.167 -119.001 36.5zM463.503 134c28.333 40 42.5 102.333 42.5 187c0 86.667 -14.167 150.334 -42.5 191.001s-72.166 61 -131.499 61c-60.667 0 -105 -20.333 -133 -61s-42 -104.334 -42 -191.001c0 -84.667 14.167 -147 42.5 -187
s72.5 -60 132.5 -60c59.333 0 103.166 20 131.499 60z" />
    <glyph glyph-name="R" unicode="R" horiz-adv-x="629" 
d="M27 87l24.998 0.000976562c26.667 0 40 12.333 40 37v399c0 12.667 -3.16699 22 -9.5 28s-16.5 9 -30.5 9h-25v87h338c70 0 124.667 -16.833 164 -50.5s59 -82.5 59 -146.5c0 -48 -12.5 -88.333 -37.5 -121s-60.833 -55.334 -107.5 -68.001l78 -143
c6.66699 -11.333 14.334 -19.333 23.001 -24s20 -7 34 -7h24v-87h-234v87h40l-84 159h-104v-125c0 -12 2.33301 -20.667 7 -26s13.334 -8 26.001 -8h24v-87h-250v87zM344.998 333.001c76 0 114 39 114 117c0 39.333 -9 67.5 -27 84.5s-47 25.5 -87 25.5h-125v-227h125z" />
    <glyph glyph-name="S" unicode="S" horiz-adv-x="542" 
d="M138 6c-43.333 14 -80.333 32.998 -111 56.998v107h133v-69c32 -18 71.667 -27 119 -27c70.667 0 106 28.333 106 85c0 19.333 -5.33301 35.5 -16 48.5s-25 24.167 -43 33.5s-45.333 21.666 -82 36.999c-49.333 20 -88.833 39 -118.5 57s-52.667 39.167 -69 63.5
s-24.5 53.5 -24.5 87.5c0 58 22.833 101.833 68.5 131.5s104.167 44.5 175.5 44.5c88 0 163.667 -25.333 227 -76v-99h-134v64c-25.333 14.667 -58.666 22 -99.999 22c-71.333 0 -107 -27.667 -107 -83c0 -19.333 6.66699 -36.166 20 -50.499s29.166 -26.166 47.499 -35.499
s43.166 -20.333 74.499 -33c54 -22 94.833 -40.667 122.5 -56s49.334 -34.666 65.001 -57.999s23.5 -54 23.5 -92c0 -34.667 -9.16699 -65.5 -27.5 -92.5s-45.333 -48.333 -81 -64s-78.5 -23.5 -128.5 -23.5s-96.667 7 -140 21z" />
    <glyph glyph-name="T" unicode="T" horiz-adv-x="590" 
d="M165 87h25c14 0 24 3 30 9s9 15.333 9 28v436h-78c-14 0 -24 -2.83301 -30 -8.5s-9 -15.167 -9 -28.5v-37h-95v161h556v-161h-95v37c0 13.333 -3 22.833 -9 28.5s-16 8.5 -30 8.5h-78v-436c0 -12.667 3.16699 -22 9.5 -28s16.5 -9 30.5 -9h25v-87h-261v87z" />
    <glyph glyph-name="U" unicode="U" horiz-adv-x="666" 
d="M141 38.5c-42.667 35.667 -64 84.5 -64 146.5v339c0 12.667 -2.83301 21.834 -8.5 27.501s-15.5 8.5 -29.5 8.5h-22v87h248v-87h-22c-13.333 0 -23 -2.83301 -29 -8.5s-9 -14.834 -9 -27.501v-345c0 -70 42.667 -105 128 -105s128 35 128 105v345
c0 12.667 -2.83301 21.834 -8.5 27.501s-15.5 8.5 -29.5 8.5h-22v87h248v-87h-22c-13.333 0 -23 -2.83301 -29 -8.5s-9 -14.834 -9 -27.501v-339c0 -62 -21.5 -110.833 -64.5 -146.5s-106.833 -53.5 -191.5 -53.5c-85.333 0 -149.333 17.833 -192 53.5z" />
    <glyph glyph-name="V" unicode="V" horiz-adv-x="709" 
d="M110 517c-6 17.333 -13.498 28.833 -22.498 34.5s-23.5 8.5 -43.5 8.5h-17v87h179l149 -476l146 476h181v-87h-17c-20.667 0 -35.334 -2.83301 -44.001 -8.5s-16.334 -17.167 -23.001 -34.5l-179 -517h-127z" />
    <glyph glyph-name="W" unicode="W" horiz-adv-x="863" 
d="M106 516c-4 17.333 -10.3311 29 -18.998 35s-23.334 9 -44.001 9h-16v87h173l87 -416l95 307h98l96 -307l88 416h172v-87h-17c-20.667 0 -35.334 -3 -44.001 -9s-15 -17.667 -19 -35l-114 -516h-107l-104 318l-102 -318h-108z" />
    <glyph glyph-name="X" unicode="X" horiz-adv-x="681" 
d="M27 87h29.001c19.333 0 34.333 2.66699 45 8s21 15.333 31 30l139 199l-137 199c-10 14.667 -20.333 24.5 -31 29.5s-25.667 7.5 -45 7.5h-23v87h246v-87h-40l99 -158l100 158h-41v87h246v-87h-23c-18.667 0 -33.334 -2.66699 -44.001 -8s-21 -15 -31 -29l-138 -199
l140 -199c9.33301 -14.667 19.5 -24.667 30.5 -30s25.833 -8 44.5 -8h30v-87h-253v87h41l-102 159l-101 -159h40v-87h-252v87z" />
    <glyph glyph-name="Y" unicode="Y" horiz-adv-x="669" 
d="M204 87h25c14 0 24 3.16699 30 9.5s9 15.833 9 28.5v114l-152 280c-8.66699 16 -17.5 26.833 -26.5 32.5s-22.167 8.5 -39.5 8.5h-23v87h242v-87h-14c-11.333 0 -17 -3.66699 -17 -11c0 -5.33301 2.66699 -13.333 8 -24l89 -179l88 179c5.33301 10.667 8 18.667 8 24
c0 7.33301 -5.66699 11 -17 11h-14v87h242v-87h-23c-17.333 0 -30.5 -2.83301 -39.5 -8.5s-17.833 -16.5 -26.5 -32.5l-153 -280v-115c0 -12.667 3.16699 -22 9.5 -28s16.5 -9 30.5 -9h25v-87h-261v87z" />
    <glyph glyph-name="Z" unicode="Z" horiz-adv-x="565" 
d="M27 72l345 488h-177c-14 0 -24 -2.83301 -30 -8.5s-9 -15.167 -9 -28.5v-17h-120v141h486v-71l-338 -489h195c14 0 24 3 30 9s9 15.667 9 29v16h120v-141h-511v72z" />
    <glyph glyph-name="bracketleft" unicode="[" horiz-adv-x="309" 
d="M47 750h225v-87h-93v-659h93v-87h-225v833z" />
    <glyph glyph-name="backslash" unicode="\" horiz-adv-x="456" 
d="M37 676h133l249 -676h-132z" />
    <glyph glyph-name="bracketright" unicode="]" horiz-adv-x="309" 
d="M37 4h93v659h-93v87h225v-833h-225v87z" />
    <glyph glyph-name="asciicircum" unicode="^" horiz-adv-x="611" 
d="M252 719h107l215 -358h-136l-132 234l-133 -234h-136z" />
    <glyph glyph-name="underscore" unicode="_" horiz-adv-x="475" 
d="M37 -10h401v-89h-401v89z" />
    <glyph glyph-name="grave" unicode="`" horiz-adv-x="308" 
d="M37 709h148l86 -193h-112z" />
    <glyph glyph-name="a" unicode="a" horiz-adv-x="525" 
d="M59.5 20c-28.333 23.333 -42.502 56.666 -42.502 99.999c0 48.667 15.833 84.834 47.5 108.501s77.5 37.167 137.5 40.5l123 8v59c0 25.333 -5.66699 43.333 -17 54s-30.333 16 -57 16c-30.667 0 -56.667 -6 -78 -18v-39h-113v92c58 36 123 54 195 54
c70 0 121.167 -15.333 153.5 -46s48.5 -72.667 48.5 -126v-199c0 -12.667 2.5 -22 7.5 -28s13.167 -9 24.5 -9h19v-87h-124l-13 60c-23.333 -28 -48.666 -47.5 -75.999 -58.5s-64 -16.5 -110 -16.5c-55.333 0 -97.166 11.667 -125.499 35zM295.998 93
c19.333 15.333 29 38 29 68v41l-111 -8c-28 -2 -47.333 -7.83301 -58 -17.5s-16 -25.5 -16 -47.5c0 -39.333 25 -59 75 -59c34.667 0 61.667 7.66699 81 23z" />
    <glyph glyph-name="b" unicode="b" horiz-adv-x="599" 
d="M250.5 6.5c-27.667 14.333 -51.166 36.832 -70.499 67.499l-8 -74h-100v532c0 14.667 -2.5 25.334 -7.5 32.001s-14.833 10 -29.5 10h-18v88h183v-231c21.333 22.667 45.166 39 71.499 49s56.833 15 91.5 15c68.667 0 120.667 -22 156 -66s53 -107.667 53 -191
c0 -79.333 -20 -141.333 -60 -186s-93.333 -67 -160 -67c-40 0 -73.833 7.16699 -101.5 21.5zM415.501 105.999c18.333 28.667 27.5 73 27.5 133s-9.16699 103.5 -27.5 130.5s-48.833 40.5 -91.5 40.5c-35.333 0 -63.833 -12.667 -85.5 -38s-32.5 -60.333 -32.5 -105v-56
c0 -41.333 11.333 -76.333 34 -105s52 -43 88 -43c40 0 69.167 14.333 87.5 43z" />
    <glyph glyph-name="c" unicode="c" horiz-adv-x="520" 
d="M154.5 13.5c-39.667 19 -70.8311 47.334 -93.498 85.001s-34 83.167 -34 136.5c0 82.667 23.333 146.667 70 192s110.667 68 192 68c45.333 0 83 -5 113 -15s59.333 -26 88 -48v-105h-113v58c-13.333 7.33301 -26.5 12.666 -39.5 15.999s-29.167 5 -48.5 5
c-38.667 0 -70.334 -14.333 -95.001 -43s-37 -71.334 -37 -128.001c0 -54 14.333 -94.333 43 -121s66.667 -40 114 -40c27.333 0 51.833 3.33301 73.5 10s42.167 16.667 61.5 30l44 -72c-30 -21.333 -59.667 -36.166 -89 -44.499s-67.333 -12.5 -114 -12.5
c-50.667 0 -95.834 9.5 -135.501 28.5z" />
    <glyph glyph-name="d" unicode="d" horiz-adv-x="594" 
d="M84 49c-38 42 -57.002 102.332 -57.002 180.999c0 84.667 18.833 150 56.5 196s91.834 69 162.501 69c36.667 0 66.334 -4.66699 89.001 -14s43.667 -25.333 63 -48v99c0 14.667 -2.5 25.334 -7.5 32.001s-14.833 10 -29.5 10h-18v88h184v-541
c0 -14.667 2.5 -24.667 7.5 -30s13.833 -8 26.5 -8h16v-83h-150l-8 67c-21.333 -28 -46 -48.5 -74 -61.5s-62.667 -19.5 -104 -19.5c-66.667 0 -119 21 -157 63zM360.998 107.999c21.333 28.667 32.002 64.668 32.002 108.001v49c0 46 -10 82 -30 108s-49 39 -87 39
c-42 0 -72.5 -14.833 -91.5 -44.5s-28.5 -74.834 -28.5 -135.501c0 -58.667 9.16699 -101.167 27.5 -127.5s48.166 -39.5 89.499 -39.5c37.333 0 66.666 14.333 87.999 43z" />
    <glyph glyph-name="e" unicode="e" horiz-adv-x="541" 
d="M95.5 48.5c-45.667 42.333 -68.499 104.501 -68.499 186.501c0 86.667 21.667 151.667 65 195s105 65 185 65c77.333 0 136.166 -21.5 176.499 -64.5s60.5 -101.167 60.5 -174.5v-47h-357c0 -46.667 11 -80.834 33 -102.501s53.667 -32.5 95 -32.5s74.333 5.33301 99 16
v35h113v-76c-50.667 -42.667 -121.667 -64 -213 -64c-80 0 -142.833 21.167 -188.5 63.5zM384.001 284.001c0 41.333 -9 72 -27 92s-45.333 30 -82 30c-38 0 -67.167 -10.5 -87.5 -31.5s-30.5 -51.167 -30.5 -90.5h227z" />
    <glyph glyph-name="f" unicode="f" horiz-adv-x="428" 
d="M28 87l26 0.000976562c14 0 24 3.16699 30 9.5s9 16.166 9 29.499v267h-76v87h76v32c0 54.667 16.167 97.167 48.5 127.5s79.833 45.5 142.5 45.5c72.667 0 131 -18.333 175 -55v-86h-113v40c-12.667 10.667 -30 16 -52 16s-39.167 -6.66699 -51.5 -20
s-18.5 -33.333 -18.5 -60v-40h137v-87h-137v-269c0 -12.667 2.83301 -22 8.5 -28s15.167 -9 28.5 -9h26v-87h-259v87z" />
    <glyph glyph-name="g" unicode="g" horiz-adv-x="593" 
d="M114 -132l-0.000976562 78.9971h113v-41c11.333 -6.66699 23.5 -11.167 36.5 -13.5s29.167 -3.5 48.5 -3.5c58 0 87 30 87 90v77c-18.667 -21.333 -40 -36.833 -64 -46.5s-53.667 -14.5 -89 -14.5c-69.333 0 -123.166 21.333 -161.499 64s-57.5 105.334 -57.5 188.001
c0 52.667 9.66699 97.667 29 135s46.166 65.5 80.499 84.5s73.833 28.5 118.5 28.5c39.333 0 71.5 -6.5 96.5 -19.5s47.5 -34.167 67.5 -63.5l9 68h148v-84h-17c-12.667 0 -21.167 -3.16699 -25.5 -9.5s-6.5 -17.166 -6.5 -32.499v-353
c0 -61.333 -18.333 -110.166 -55 -146.499s-88.667 -54.5 -156 -54.5c-83.333 0 -150.666 22.667 -201.999 68zM363.499 113.997c19.667 26 29.5 61.999 29.5 107.999v41c0 44.667 -10 81.334 -30 110.001s-49 43 -87 43c-42 0 -72.5 -13.667 -91.5 -41
s-28.5 -70 -28.5 -128c0 -60 9.5 -103.667 28.5 -131s49.833 -41 92.5 -41c38 0 66.833 13 86.5 39z" />
    <glyph glyph-name="h" unicode="h" horiz-adv-x="609" 
d="M27 87l26.001 -0.00195312c14 0 24 3.16699 30 9.5s9 16.166 9 29.499v407c0 14.667 -2.5 25.334 -7.5 32.001s-14.833 10 -29.5 10h-28v87h183v-227c25.333 22.667 50.166 38.334 74.499 47.001s54.5 13 90.5 13c53.333 0 92.333 -14.167 117 -42.5
s37 -69.833 37 -124.5v-204c0 -12.667 2.83301 -22 8.5 -28s15.167 -9 28.5 -9h26v-87h-194v327c0 29.333 -6.16699 50.5 -18.5 63.5s-31.833 19.5 -58.5 19.5c-28.667 0 -52.167 -8.16699 -70.5 -24.5s-27.5 -39.166 -27.5 -68.499v-193c0 -12.667 2.83301 -22 8.5 -28
s15.167 -9 28.5 -9h26v-87h-259v87z" />
    <glyph glyph-name="i" unicode="i" horiz-adv-x="293" 
d="M77 658h138v-106h-138v106zM17 87h26c14 0 24 3.16699 30 9.5s9 16.166 9 29.499v225c0 14.667 -2.5 25.334 -7.5 32.001s-14.833 10 -29.5 10h-28v87h196v-356c0 -12.667 2.83301 -22 8.5 -28s15.167 -9 28.5 -9h26v-87h-259v87z" />
    <glyph glyph-name="j" unicode="j" horiz-adv-x="390" 
d="M205 658h138v-106h-138v106zM-33 -111l0.000976562 91.999h109v-41c15.333 -13.333 36.666 -20 63.999 -20c23.333 0 40.833 5.16699 52.5 15.5s17.5 28.166 17.5 53.499v362c0 14.667 -2.5 25.334 -7.5 32.001s-14.833 10 -29.5 10h-28v87h196v-475
c0 -57.333 -16.333 -100.666 -49 -129.999s-81 -44 -145 -44c-75.333 0 -135.333 19.333 -180 58z" />
    <glyph glyph-name="k" unicode="k" horiz-adv-x="589" 
d="M27 87h26c14 0 24 3.16699 30 9.5s9 16.166 9 29.499v407c0 14.667 -2.5 25.334 -7.5 32.001s-14.833 10 -29.5 10h-28v87h196v-374l120 105h-41v87h249v-87h-50c-10.667 0 -18.667 -1.16699 -24 -3.5s-12 -6.83301 -20 -13.5l-83 -73l112 -192
c6 -10 11.667 -16.5 17 -19.5s14.333 -4.5 27 -4.5h42v-87h-149l-137 234l-63 -55v-55c0 -12.667 2.83301 -22 8.5 -28s15.167 -9 28.5 -9h26v-87h-259v87z" />
    <glyph glyph-name="l" unicode="l" horiz-adv-x="303" 
d="M27 87h26c14 0 24 3.16699 30 9.5s9 16.166 9 29.499v407c0 14.667 -2.5 25.334 -7.5 32.001s-14.833 10 -29.5 10h-28v87h196v-538c0 -12.667 2.83301 -22 8.5 -28s15.167 -9 28.5 -9h26v-87h-259v87z" />
    <glyph glyph-name="m" unicode="m" horiz-adv-x="869" 
d="M27 87l26 0.000976562c14 0 24 3.16699 30 9.5s9 16.166 9 29.499v230c0 12.667 -2.83301 22 -8.5 28s-15.167 9 -28.5 9h-28v87h147l7 -68c37.333 55.333 94.666 83 171.999 83c28.667 0 53.667 -6.33301 75 -19s38.333 -30.334 51 -53.001
c17.333 24.667 38.166 42.834 62.499 54.501s53.5 17.5 87.5 17.5c56.667 0 97.5 -13.833 122.5 -41.5s37.5 -69.167 37.5 -124.5v-205c0 -12.667 2.83301 -22 8.5 -28s15.167 -9 28.5 -9h26v-87h-194v329c0 29.333 -5.66699 50.166 -17 62.499s-29.666 18.5 -54.999 18.5
c-27.333 0 -48.166 -7.33301 -62.499 -22s-21.5 -36.667 -21.5 -66v-198c0 -12.667 2.83301 -22 8.5 -28s15.167 -9 28.5 -9h31v-87h-191v327c0 28.667 -5.66699 49.667 -17 63s-29 20 -53 20c-28.667 0 -50.5 -7.66699 -65.5 -23s-22.5 -38.666 -22.5 -69.999v-193
c0 -12.667 2.83301 -22 8.5 -28s15.167 -9 28.5 -9h28v-87h-259v87z" />
    <glyph glyph-name="n" unicode="n" horiz-adv-x="607" 
d="M27 87l26 0.000976562c14 0 24 3.16699 30 9.5s9 16.166 9 29.499v230c0 12.667 -2.83301 22 -8.5 28s-15.167 9 -28.5 9h-28v87h149l6 -66c22 27.333 47.833 47.666 77.5 60.999s64.834 20 105.501 20c56 0 97 -14.167 123 -42.5s39 -69.833 39 -124.5v-204
c0 -12.667 2.83301 -22 8.5 -28s15.167 -9 28.5 -9h26v-87h-194v327c0 29.333 -6 50.5 -18 63.5s-31.667 19.5 -59 19.5c-28.667 0 -51.834 -8.16699 -69.501 -24.5s-26.5 -39.166 -26.5 -68.499v-193c0 -12.667 2.83301 -22 8.5 -28s15.167 -9 28.5 -9h26v-87h-259v87z" />
    <glyph glyph-name="o" unicode="o" horiz-adv-x="558" 
d="M91.5 51c-43 44 -64.5 106.667 -64.5 188c0 82 21.333 145.167 64 189.5s105.334 66.5 188.001 66.5c83.333 0 146.166 -22.167 188.499 -66.5s63.5 -107.5 63.5 -189.5c0 -81.333 -21.5 -144 -64.5 -188s-105.5 -66 -187.5 -66s-144.5 22 -187.5 66zM371.5 114
c19.667 26.667 29.5 68.334 29.5 125.001c0 57.333 -9.83301 99.5 -29.5 126.5s-50.5 40.5 -92.5 40.5s-72.833 -13.5 -92.5 -40.5s-29.5 -69.167 -29.5 -126.5c0 -56.667 9.83301 -98.334 29.5 -125.001s50.5 -40 92.5 -40s72.833 13.333 92.5 40z" />
    <glyph glyph-name="p" unicode="p" horiz-adv-x="613" 
d="M17 -121l26 0.00195312c14 0 24 3.16699 30 9.5s9 16.166 9 29.499v436c0 13.333 -3 23.166 -9 29.499s-15.667 9.5 -29 9.5h-17v87h157l10 -70c40 56.667 97.667 85 173 85c68 0 121.5 -21.5 160.5 -64.5s58.5 -105.167 58.5 -186.5
c0 -82.667 -18.833 -146.5 -56.5 -191.5s-91.167 -67.5 -160.5 -67.5c-34.667 0 -64 4.66699 -88 14s-46.667 25 -68 47v-130c0 -12.667 2.83301 -22 8.5 -28s15.167 -9 28.5 -9h26v-87h-259v87zM427.5 110.002c19 28.667 28.502 73.333 28.502 134
c0 59.333 -9 102.833 -27 130.5s-48 41.5 -90 41.5c-36.667 0 -66.834 -14.333 -90.501 -43s-35.5 -64 -35.5 -106v-56c0 -44 11.667 -79 35 -105s52.666 -39 87.999 -39c42 0 72.5 14.333 91.5 43z" />
    <glyph glyph-name="q" unicode="q" horiz-adv-x="613" 
d="M400 46c-21.333 -22 -44 -37.6689 -68 -47.002s-53.333 -14 -88 -14c-69.333 0 -122.833 22.5 -160.5 67.5s-56.5 108.833 -56.5 191.5c0 81.333 19.5 143.5 58.5 186.5s92.5 64.5 160.5 64.5c75.333 0 133 -28.333 173 -85l10 70h157v-87h-17
c-13.333 0 -23 -3.16699 -29 -9.5s-9 -16.166 -9 -29.499v-436c0 -13.333 3 -23.166 9 -29.499s16 -9.5 30 -9.5h26v-87h-196v254zM365 105.998c23.333 26 35.002 61.001 35.002 105.001v56c0 42 -11.833 77.333 -35.5 106s-53.834 43 -90.501 43
c-42 0 -72 -13.833 -90 -41.5s-27 -71.167 -27 -130.5c0 -60.667 9.5 -105.334 28.5 -134.001s49.5 -43 91.5 -43c35.333 0 64.666 13 87.999 39z" />
    <glyph glyph-name="r" unicode="r" horiz-adv-x="402" 
d="M27 87h25.998c14 0 24 3.16699 30 9.5s9 16.166 9 29.499v230c0 12.667 -2.66699 22 -8 28s-14.666 9 -27.999 9h-29v87h171l13 -53c22.667 35.333 63.334 53 122.001 53h52v-87h-68c-33.333 0 -57.333 -7.66699 -72 -23s-22 -38.666 -22 -69.999v-176
c0 -12.667 2.83301 -22 8.5 -28s15.167 -9 28.5 -9h26v-87h-259v87z" />
    <glyph glyph-name="s" unicode="s" horiz-adv-x="471" 
d="M123 0c-36.667 10 -68.6689 25.335 -96.002 46.002v84h121v-38c18.667 -12 46.334 -18 83.001 -18c28.667 0 49.667 3.33301 63 10s20 18.667 20 36c0 15.333 -5.5 27 -16.5 35s-32.833 18.333 -65.5 31l-46 18c-35.333 14.667 -63.5 28.167 -84.5 40.5
s-37.833 27.666 -50.5 45.999s-19 40.833 -19 67.5c0 45.333 17.667 79.5 53 102.5s83.666 34.5 144.999 34.5c40 0 77.333 -5 112 -15s65 -25 91 -45v-84h-117v36c-17.333 12.667 -41.666 19 -72.999 19c-25.333 0 -45.166 -3.5 -59.499 -10.5s-21.5 -19.5 -21.5 -37.5
c0 -16.667 8 -29.834 24 -39.501s41.333 -20.834 76 -33.501l32 -12c34 -12.667 61.333 -25.167 82 -37.5s37.167 -27.666 49.5 -45.999s18.5 -41.5 18.5 -69.5c0 -44 -17.5 -77.5 -52.5 -100.5s-86.5 -34.5 -154.5 -34.5c-39.333 0 -77.333 5 -114 15z" />
    <glyph glyph-name="t" unicode="t" horiz-adv-x="448" 
d="M139.5 27.5c-31 28.333 -46.5 69.5 -46.5 123.5v242h-76v87h76v103l131 39v-142h137v-87h-137v-252c0 -24.667 5.16699 -42.667 15.5 -54s25.833 -17 46.5 -17c25.333 0 45 6 59 18v43h106v-84c-41.333 -41.333 -99 -62 -173 -62c-61.333 0 -107.5 14.167 -138.5 42.5z
" />
    <glyph glyph-name="u" unicode="u" horiz-adv-x="597" 
d="M123 28c-28.667 28.667 -42.999 70 -42.999 124v204c0 12.667 -2.83301 22 -8.5 28s-15.167 9 -28.5 9h-26v87h194v-327c0 -29.333 6.5 -50.5 19.5 -63.5s33.167 -19.5 60.5 -19.5c28 0 50.5 8 67.5 24s25.5 39 25.5 69v193c0 12.667 -2.83301 22 -8.5 28
s-15.167 9 -28.5 9h-26v87h259v-87h-26c-14 0 -24 -3.16699 -30 -9.5s-9 -16.166 -9 -29.499v-230c0 -12.667 2.83301 -22 8.5 -28s15.167 -9 28.5 -9h28v-87h-149l-6 66c-22 -28.667 -46 -49.334 -72 -62.001s-60 -19 -102 -19c-56.667 0 -99.334 14.333 -128.001 43z" />
    <glyph glyph-name="v" unicode="v" horiz-adv-x="570" 
d="M89 363c-4 12 -9.5 20 -16.5 24s-19.5 6 -37.5 6h-18v87h159l109 -344l109 344h159v-87h-19c-17.333 0 -29.5 -2 -36.5 -6s-12.833 -12 -17.5 -24l-131 -363h-128z" />
    <glyph glyph-name="w" unicode="w" horiz-adv-x="763" 
d="M87 362c-2.66699 12 -7.5 20.167 -14.5 24.5s-17.5 6.5 -31.5 6.5h-24v87h158l74 -321l86 278h92l86 -278l76 321h157v-87h-24c-14 0 -24.5 -2.16699 -31.5 -6.5s-11.833 -12.5 -14.5 -24.5l-88 -362h-121l-85 274l-87 -274h-120z" />
    <glyph glyph-name="x" unicode="x" horiz-adv-x="552" 
d="M17 87h31c15.333 0 27.333 2.16699 36 6.5s17.334 12.166 26.001 23.499l95 124l-95 122c-8.66699 11.333 -17.334 19.166 -26.001 23.499s-20.667 6.5 -36 6.5h-31v87h219v-87h-25l65 -87l65 87h-25v87h219v-87h-31c-15.333 0 -27.333 -2.16699 -36 -6.5
s-17.334 -12.166 -26.001 -23.499l-96 -122l96 -124c8.66699 -11.333 17.334 -19.166 26.001 -23.499s20.667 -6.5 36 -6.5h31v-87h-219v87h25l-65 88l-65 -88h25v-87h-219v87z" />
    <glyph glyph-name="y" unicode="y" horiz-adv-x="575" 
d="M199 -182c-34.667 12 -64.001 29.332 -88.001 51.999v75h113v-35c10 -9.33301 21.833 -15.833 35.5 -19.5s30.834 -5.5 51.501 -5.5c61.333 0 92 36 92 108v54c-36 -28 -79 -42 -129 -42c-60 0 -107.167 15.167 -141.5 45.5s-51.5 72.833 -51.5 127.5v178
c0 24.667 -12.667 37 -38 37h-26v87h197v-307c0 -55.333 28.333 -83 85 -83c29.333 0 52.5 8.33301 69.5 25s25.5 40.667 25.5 72v169c0 24.667 -12.667 37 -38 37h-26v87h198v-464c0 -65.333 -19.167 -117.666 -57.5 -156.999s-90.166 -59 -155.499 -59
c-42.667 0 -81.334 6 -116.001 18z" />
    <glyph glyph-name="z" unicode="z" horiz-adv-x="502" 
d="M27 64l277 328h-146c-26 0 -39 -12.333 -39 -37v-18h-84v143h430v-65l-276 -327h162c14 0 24.167 3 30.5 9s9.5 15.333 9.5 28v17h84v-142h-448v64z" />
    <glyph glyph-name="braceleft" unicode="{" horiz-adv-x="344" 
d="M127 -39.5c-24.667 29 -37 72.5 -37 130.5v135c0 24 -6.16699 40.833 -18.5 50.5s-30.5 14.5 -54.5 14.5v89c24 0 42.167 4.66699 54.5 14s18.5 26 18.5 50v133c0 58 12.333 101.333 37 130s66.667 43 126 43h54v-87h-21c-22 0 -38.167 -5.5 -48.5 -16.5
s-15.5 -27.833 -15.5 -50.5v-162c0 -20 -5.33301 -38.833 -16 -56.5s-25.334 -32.167 -44.001 -43.5c18.667 -10.667 33.334 -24.667 44.001 -42s16 -36 16 -56v-165c0 -22.667 5.16699 -39.5 15.5 -50.5s26.5 -16.5 48.5 -16.5h21v-87h-54
c-59.333 0 -101.333 14.5 -126 43.5z" />
    <glyph glyph-name="bar" unicode="|" horiz-adv-x="206" 
d="M37 767h132v-887h-132v887z" />
    <glyph glyph-name="braceright" unicode="}" horiz-adv-x="344" 
d="M37 4h21c22 0 38.167 5.5 48.5 16.5s15.5 27.833 15.5 50.5v165c0 20 5.33301 38.667 16 56s25.334 31.333 44.001 42c-18.667 11.333 -33.334 25.833 -44.001 43.5s-16 36.5 -16 56.5v162c0 22.667 -5.16699 39.5 -15.5 50.5s-26.5 16.5 -48.5 16.5h-21v87h54
c59.333 0 101.333 -14.333 126 -43s37 -72 37 -130v-133c0 -24 6.16699 -40.667 18.5 -50s30.5 -14 54.5 -14v-89c-24 0 -42.167 -4.83301 -54.5 -14.5s-18.5 -26.5 -18.5 -50.5v-135c0 -58 -12.333 -101.5 -37 -130.5s-66.667 -43.5 -126 -43.5h-54v87z" />
    <glyph glyph-name="asciitilde" unicode="~" horiz-adv-x="560" 
d="M172 391c20.667 0 38.667 -2.66602 54 -7.99902s33.666 -13.333 54.999 -24c17.333 -8.66699 32.333 -15.334 45 -20.001s26 -7 40 -7c20 0 34.167 5 42.5 15s12.5 24.667 12.5 44h102c0 -54 -10.667 -94.333 -32 -121s-54.666 -40 -99.999 -40
c-23.333 0 -43.666 2.83301 -60.999 8.5s-37 14.167 -59 25.5c-16.667 8.66699 -30.334 15 -41.001 19s-22 6 -34 6c-20 0 -34.333 -5 -43 -15s-13 -24.667 -13 -44h-103c0 107.333 45 161 135 161z" />
    <glyph glyph-name="uni00A0" unicode="&#xa0;" horiz-adv-x="325" 
 />
    <glyph glyph-name="exclamdown" unicode="&#xa1;" horiz-adv-x="218" 
d="M37 495h144v-105h-144v105zM46 299h127l7 -451h-141z" />
    <glyph glyph-name="cent" unicode="&#xa2;" horiz-adv-x="521" 
d="M222 -7c-58.667 10.667 -105.832 37.0029 -141.499 79.0029s-53.5 96.333 -53.5 163c0 71.333 17.167 128.666 51.5 171.999s82.166 70.333 143.499 81v82h120v-79c30.667 -2.66699 58 -8.83398 82 -18.501s47.333 -23.167 70 -40.5v-105h-113v55
c-12.667 7.33301 -25.834 12.5 -39.501 15.5s-30.5 4.5 -50.5 4.5c-39.333 0 -71.333 -13.667 -96 -41s-37 -69.333 -37 -126c0 -53.333 14 -92.666 42 -117.999s66 -38 114 -38c28.667 0 53.834 2.66699 75.501 8s41.5 14.333 59.5 27l44 -72
c-24.667 -16.667 -48.5 -29.334 -71.5 -38.001s-49.5 -14.334 -79.5 -17.001v-77h-120v83z" />
    <glyph glyph-name="sterling" unicode="&#xa3;" horiz-adv-x="510" 
d="M39 87l25.999 0.000976562c16.667 0 29 5.16699 37 15.5s12 26.166 12 47.499v191h-77v87h77v55c0 53.333 18.667 96.5 56 129.5s88.333 49.5 153 49.5c36.667 0 68 -4.66699 94 -14s50 -23 72 -41v-88h-107v39c-15.333 10 -34 15 -56 15
c-25.333 0 -45.166 -7.16699 -59.499 -21.5s-21.5 -36.5 -21.5 -66.5v-57h161v-87h-161v-183c0 -31.333 -7 -55 -21 -71h269v-87h-454v87z" />
    <glyph glyph-name="currency" unicode="&#xa4;" horiz-adv-x="629" 
d="M47 126l84 76.999c-26.667 38.667 -40 81.334 -40 128.001c0 42 10.667 80.333 32 115l-86 79l75 77l87 -80c35.333 22.667 74 34 116 34c40.667 0 79.334 -11.333 116.001 -34l86 80l75 -77l-86 -79c22 -34.667 33 -73 33 -115c0 -47.333 -13.667 -90 -41 -128l86 -77
l-76 -78l-92 84c-28.667 -16.667 -62.334 -25 -101.001 -25c-38 0 -72 8.33301 -102 25l-92 -84zM399 245.999c22.667 23.333 34 51.666 34 84.999s-11.333 61.5 -34 84.5s-50.667 34.5 -84 34.5s-61.166 -11.5 -83.499 -34.5s-33.5 -51.167 -33.5 -84.5
s11.167 -61.666 33.5 -84.999s50.166 -35 83.499 -35s61.333 11.667 84 35z" />
    <glyph glyph-name="yen" unicode="&#xa5;" horiz-adv-x="669" 
d="M204 87h25c14 0 24 3.16699 30 9.5s9 15.833 9 28.5v15h-151v87h151v12l-11 19h-140v87h93l-94 174c-8.66699 16 -17.5 26.833 -26.5 32.5s-22.167 8.5 -39.5 8.5h-23v87h242v-87h-14c-11.333 0 -17 -3.66699 -17 -11c0 -5.33301 2.66699 -13.333 8 -24l89 -182l88 182
c5.33301 10.667 8 18.667 8 24c0 7.33301 -5.66699 11 -17 11h-14v87h242v-87h-23c-17.333 0 -30.5 -2.83301 -39.5 -8.5s-17.833 -16.5 -26.5 -32.5l-95 -174h93v-87h-141l-10 -19v-12h151v-87h-151v-16c0 -12.667 3.16699 -22 9.5 -28s16.5 -9 30.5 -9h25v-87h-261v87z
" />
    <glyph glyph-name="brokenbar" unicode="&#xa6;" horiz-adv-x="205" 
d="M37 767h131v-357h-131v357zM37 236h131v-356h-131v356z" />
    <glyph glyph-name="section" unicode="&#xa7;" horiz-adv-x="521" 
d="M128 -135c-43.333 14 -80.333 32.998 -111 56.998v107h133v-69c32 -18 71.667 -27 119 -27c70.667 0 106 28.667 106 86c0 21.333 -5.33301 38.5 -16 51.5s-24.167 23.5 -40.5 31.5s-44.5 20 -84.5 36c-52 20.667 -92.833 39.834 -122.5 57.501
s-51.834 38.334 -66.501 62.001s-22 52.834 -22 87.501c0 38.667 10.667 70 32 94c-21.333 26 -32 58.333 -32 97c0 58 22.667 101.833 68 131.5s103.666 44.5 174.999 44.5c91.333 0 167 -25.333 227 -76v-99h-133v64c-26.667 14.667 -60.334 22 -101.001 22
c-32 0 -57.833 -6.66699 -77.5 -20s-29.5 -34.333 -29.5 -63c0 -20.667 6.16699 -38 18.5 -52s26.333 -24.667 42 -32s42.834 -19 81.501 -35c53.333 -21.333 93.833 -39.833 121.5 -55.5s49.334 -35.167 65.001 -58.5s23.5 -54 23.5 -92c0 -36 -10 -67 -30 -93
c20 -24.667 30 -57.334 30 -98.001c0 -34.667 -9.16699 -65.5 -27.5 -92.5s-45.166 -48.333 -80.499 -64s-78 -23.5 -128 -23.5s-96.667 7 -140 21zM384 202.498c0.666992 4.33301 1 9.83398 1 16.501c0 18.667 -7.5 34.834 -22.5 48.501s-39.167 27.5 -72.5 41.5
c-12 5.33301 -21 9 -27 11c-51.333 21.333 -89 38.666 -113 51.999c-4.66699 -6.66699 -7 -16.667 -7 -30c0 -20.667 9.16699 -38.5 27.5 -53.5s45.833 -30.833 82.5 -47.5c5.33301 -2.66699 11.5 -5.33398 18.5 -8.00098s14.5 -6 22.5 -10
c41.333 -16.667 69.666 -28.667 84.999 -36c2.66699 6 4.33398 11.167 5.00098 15.5z" />
    <glyph glyph-name="dieresis" unicode="&#xa8;" horiz-adv-x="414" 
d="M37 653h101v-109h-101v109zM274 653h103v-109h-103v109z" />
    <glyph glyph-name="copyright" unicode="&#xa9;" horiz-adv-x="790" 
d="M215 35c-54.667 32 -98 75.333 -130 130s-48 114.334 -48 179.001s16 124.5 48 179.5s75.333 98.5 130 130.5s114.667 48 180 48c64.667 0 124.5 -16 179.5 -48s98.5 -75.5 130.5 -130.5s48 -114.833 48 -179.5s-16 -124.334 -48 -179.001s-75.5 -98 -130.5 -130
s-114.833 -48 -179.5 -48c-65.333 0 -125.333 16 -180 48zM537 101.5c41.333 24.333 73.333 57.833 96 100.5s34 90 34 142s-11.333 99.333 -34 142s-54.667 76.334 -96 101.001s-88.666 37 -141.999 37s-100.5 -12.333 -141.5 -37s-72.833 -58.334 -95.5 -101.001
s-34 -90 -34 -142s11.333 -99.333 34 -142s54.5 -76.167 95.5 -100.5s88.167 -36.5 141.5 -36.5s100.666 12.167 141.999 36.5zM278.5 131c-35 19.333 -62.668 46.6699 -83.001 82.0029s-30.5 76.666 -30.5 123.999c0 76 20.5 135.333 61.5 178s96.5 64 166.5 64
c40.667 0 73.667 -4.33301 99 -13s51 -23.334 77 -44.001v-90h-95v48c-12 7.33301 -24 12.5 -36 15.5s-27 4.5 -45 4.5c-35.333 0 -64 -13.667 -86 -41s-33 -68 -33 -122c0 -50.667 12.333 -89.334 37 -116.001s57.667 -40 99 -40c47.333 0 88 14.667 122 44l37 -60
c-39.333 -42 -97.666 -63 -174.999 -63c-42 0 -80.5 9.66699 -115.5 29z" />
    <glyph glyph-name="ordfeminine" unicode="&#xaa;" horiz-adv-x="391" 
d="M64 358c-18 15.333 -26.998 37.0029 -26.998 65.0029c0 31.333 10.333 55.166 31 71.499s50 26.166 88 29.499l75 5v31c0 15.333 -3.5 26 -10.5 32s-18.5 9 -34.5 9c-10 0 -18.333 -1 -25 -3s-14 -5.66699 -22 -11v-23h-75v63c37.333 23.333 79.333 35 126 35
c44 0 77 -10 99 -30s33 -46.667 33 -80v-126c0 -8.66699 1.5 -14.834 4.5 -18.501s8.16699 -5.5 15.5 -5.5h12v-57h-82l-11 37c-14.667 -17.333 -30.834 -29.5 -48.501 -36.5s-40.834 -10.5 -69.501 -10.5c-34.667 0 -61 7.66699 -79 23zM231.002 450.003v22.999l-64 -5
c-15.333 -1.33301 -26.333 -5.16602 -33 -11.499s-10 -15.833 -10 -28.5c0 -21.333 14.333 -32 43 -32c42.667 0 64 18 64 54z" />
    <glyph glyph-name="guillemotleft" unicode="&#xab;" horiz-adv-x="619" 
d="M37 298v54l305 257v-132l-174 -152l174 -151v-133zM277 298v54l305 257v-132l-175 -152l175 -151v-133z" />
    <glyph glyph-name="logicalnot" unicode="&#xac;" horiz-adv-x="502" 
d="M358 263h-321v88h428v-218h-107v130z" />
    <glyph glyph-name="uni00AD" unicode="&#xad;" horiz-adv-x="372" 
d="M37 345h298v-87h-298v87z" />
    <glyph glyph-name="registered" unicode="&#xae;" horiz-adv-x="790" 
d="M215 35c-54.667 32 -98 75.333 -130 130s-48 114.334 -48 179.001s16 124.5 48 179.5s75.333 98.5 130 130.5s114.667 48 180 48c64.667 0 124.5 -16 179.5 -48s98.5 -75.5 130.5 -130.5s48 -114.833 48 -179.5s-16 -124.334 -48 -179.001s-75.5 -98 -130.5 -130
s-114.833 -48 -179.5 -48c-65.333 0 -125.333 16 -180 48zM537 101.5c41.333 24.333 73.333 57.833 96 100.5s34 90 34 142s-11.333 99.333 -34 142s-54.667 76.334 -96 101.001s-88.666 37 -141.999 37s-100.5 -12.333 -141.5 -37s-72.833 -58.334 -95.5 -101.001
s-34 -90 -34 -142s11.333 -99.333 34 -142s54.5 -76.167 95.5 -100.5s88.167 -36.5 141.5 -36.5s100.666 12.167 141.999 36.5zM215 211l11.001 -0.000976562c12 0 19.333 3 22 9s4 18.333 4 37v195c0 10 -1.83301 17 -5.5 21s-10.5 6 -20.5 6h-11v68h208
c46 0 82 -10.5 108 -31.5s39 -49.5 39 -85.5c0 -29.333 -7.5 -54.166 -22.5 -74.499s-36.833 -33.5 -65.5 -39.5l39 -74c6 -10.667 12.333 -18.5 19 -23.5s14.667 -7.5 24 -7.5h19v-64h-184v64h41l-48 96h-53v-67c0 -10.667 1.66699 -18.167 5 -22.5
s9.66602 -6.5 18.999 -6.5h12v-64h-160v64zM416.001 371.999c38 0 56.999 18.667 56.999 56c0 18 -4.66699 31 -14 39s-23.666 12 -42.999 12h-65v-107h65z" />
    <glyph glyph-name="macron" unicode="&#xaf;" horiz-adv-x="426" 
d="M37 633h352v-81h-352v81z" />
    <glyph glyph-name="degree" unicode="&#xb0;" horiz-adv-x="341" 
d="M103.5 424c-20.333 12 -36.502 28 -48.502 48s-18 42 -18 66c0 24.667 6 47.167 18 67.5s28 36.5 48 48.5s42 18 66 18c24.667 0 47.334 -6 68.001 -18s37 -28.167 49 -48.5s18 -42.833 18 -67.5c0 -24 -6.16699 -46 -18.5 -66s-28.833 -36 -49.5 -48s-43 -18 -67 -18
c-23.333 0 -45.166 6 -65.499 18zM208.998 499.5c10 10.333 15 23.166 15 38.499c0 16 -5 29.333 -15 40s-23 16 -39 16c-15.333 0 -28.166 -5.33301 -38.499 -16s-15.5 -24 -15.5 -40c0 -15.333 5.16699 -28.166 15.5 -38.499s23.166 -15.5 38.499 -15.5
c16 0 29 5.16699 39 15.5z" />
    <glyph glyph-name="plusminus" unicode="&#xb1;" horiz-adv-x="413" 
d="M152 276h-115v87h115v104h106v-104h118v-87h-118v-104h-106v104zM37 111h339v-88h-339v88z" />
    <glyph glyph-name="uni00B2" unicode="&#xb2;" horiz-adv-x="330" 
d="M37 377c0 26.667 7.50195 48.502 22.502 65.502s40.167 35.833 75.5 56.5c26 15.333 43.5 27.333 52.5 36s13.5 20 13.5 34c0 23.333 -14.333 35 -43 35c-16.667 0 -30.334 -3 -41.001 -9v-29h-80v61c14.667 10 34.167 18.333 58.5 25s47.166 10 68.499 10
c40 0 71.167 -7.83301 93.5 -23.5s33.5 -38.167 33.5 -67.5c0 -23.333 -5.66699 -41.833 -17 -55.5s-33.333 -29.834 -66 -48.501c-4.66699 -3.33301 -13.667 -9 -27 -17s-23 -15.333 -29 -22s-9 -13.334 -9 -20.001h150v-63h-256v32z" />
    <glyph glyph-name="uni00B3" unicode="&#xb3;" horiz-adv-x="341" 
d="M92 346.5c-22 7.66699 -40.333 17.833 -55 30.5v58h79v-30c11.333 -8 27 -12 47 -12c18 0 31.333 3.16699 40 9.5s13 17.166 13 32.499s-3.83301 25.833 -11.5 31.5s-20.5 8.5 -38.5 8.5h-35v57h36c16.667 0 28.334 2.5 35.001 7.5s10 14.833 10 29.5
c0 12 -3.66699 20.833 -11 26.5s-19 8.5 -35 8.5c-17.333 0 -32 -3.33301 -44 -10v-28h-79v60c12.667 10 30 18.5 52 25.5s44.667 10.5 68 10.5c45.333 0 79.166 -7.66699 101.499 -23s33.5 -36.666 33.5 -63.999c0 -35.333 -13.333 -59.333 -40 -72
c30.667 -10.667 46 -33 46 -67c0 -67.333 -46.667 -101 -140 -101c-26 0 -50 3.83301 -72 11.5z" />
    <glyph glyph-name="acute" unicode="&#xb4;" horiz-adv-x="309" 
d="M123 709h149l-122 -193h-113z" />
    <glyph glyph-name="paragraph" unicode="&#xb6;" horiz-adv-x="674" 
d="M159 -69l26 -0.000976562c13.333 0 22.833 3 28.5 9s8.5 15.333 8.5 28v331c-58.667 0 -104.167 15.5 -136.5 46.5s-48.5 72.167 -48.5 123.5c0 118.667 71.333 178 214 178h384v-87h-21c-14.667 0 -25 -3.16699 -31 -9.5s-9 -16.166 -9 -29.499v-553
c0 -12.667 2.83301 -22 8.5 -28s15.167 -9 28.5 -9h26v-87h-194v716h-90v-716h-194v87z" />
    <glyph glyph-name="periodcentered" unicode="&#xb7;" horiz-adv-x="179" 
d="M37 356h105v-98h-105v98z" />
    <glyph glyph-name="cedilla" unicode="&#xb8;" horiz-adv-x="306" 
d="M37 -213v73c22.667 -10 46.334 -15 71.001 -15c32.667 0 49 10 49 30c0 16 -6.33301 27.5 -19 34.5s-36.667 10.5 -72 10.5l11 80h120l-6 -43c27.333 -4.66699 47.166 -14.167 59.499 -28.5s18.5 -33.833 18.5 -58.5c0 -65.333 -48.667 -98 -146 -98
c-32 0 -60.667 5 -86 15z" />
    <glyph glyph-name="uni00B9" unicode="&#xb9;" horiz-adv-x="274" 
d="M51 408h32c10 0 16.667 1.66699 20 5s5 9.33301 5 18v145l-47 -31l-34 54l92 58h72v-226c0 -8.66699 1.5 -14.667 4.5 -18s9.5 -5 19.5 -5h32v-63h-196v63z" />
    <glyph glyph-name="ordmasculine" unicode="&#xba;" horiz-adv-x="398" 
d="M79 377.5c-28 28.333 -42.0029 68.5 -42.0029 120.5c0 52.667 13.833 93.167 41.5 121.5s67.834 42.5 120.501 42.5s92.834 -14.167 120.501 -42.5s41.5 -68.833 41.5 -121.5c0 -52 -14.167 -92.167 -42.5 -120.5s-68.166 -42.5 -119.499 -42.5
c-52 0 -92 14.167 -120 42.5zM252.997 423c11.333 16 17 41.001 17 75.001c0 34.667 -5.66699 60 -17 76s-29.333 24 -54 24c-25.333 0 -43.5 -7.83301 -54.5 -23.5s-16.5 -41.167 -16.5 -76.5c0 -34.667 5.5 -59.834 16.5 -75.501s29.167 -23.5 54.5 -23.5
c24.667 0 42.667 8 54 24z" />
    <glyph glyph-name="guillemotright" unicode="&#xbb;" horiz-adv-x="619" 
d="M37 174l174 151l-174 152v132l305 -257v-54l-305 -257v133zM277 174l175 151l-175 152v132l305 -257v-54l-305 -257v133z" />
    <glyph glyph-name="onequarter" unicode="&#xbc;" horiz-adv-x="644" 
d="M61 408h32c10 0 16.667 1.66699 20 5s5 9.33301 5 18v145l-47 -31l-34 54l92 58h72v-226c0 -8.66699 1.5 -14.667 4.5 -18s9.5 -5 19.5 -5h32v-63h-196v63zM475 647h121l-391 -647h-121zM437 52h19c7.33301 0 12.5 1.5 15.5 4.5s4.5 7.83301 4.5 14.5v15h-142v52l135 174
h88v-169h50v-57h-50v-15c0 -6.66699 1.33301 -11.5 4 -14.5s8 -4.5 16 -4.5h19v-52h-159v52zM486 143v89l-70 -89h70z" />
    <glyph glyph-name="onehalf" unicode="&#xbd;" horiz-adv-x="695" 
d="M61 408h32c10 0 16.667 1.66699 20 5s5 9.33301 5 18v145l-47 -31l-34 54l92 58h72v-226c0 -8.66699 1.5 -14.667 4.5 -18s9.5 -5 19.5 -5h32v-63h-196v63zM475 647h121l-391 -647h-121zM402 32c0 26.667 7.49902 48.502 22.499 65.502s39.833 35.833 74.5 56.5
c26 15.333 43.5 27.333 52.5 36s13.5 20 13.5 34c0 12 -3.5 20.833 -10.5 26.5s-17.833 8.5 -32.5 8.5c-16.667 0 -29.667 -3 -39 -9v-29h-81v61c14.667 10 34.334 18.333 59.001 25s47.667 10 69 10c39.333 0 70.166 -7.83301 92.499 -23.5s33.5 -38.167 33.5 -67.5
c0 -22.667 -5.66699 -40.834 -17 -54.501s-33 -30.167 -65 -49.5c-4.66699 -2.66699 -13.667 -8.16699 -27 -16.5s-23.166 -15.833 -29.499 -22.5s-9.5 -13.334 -9.5 -20.001h150v-63h-256v32z" />
    <glyph glyph-name="threequarters" unicode="&#xbe;" horiz-adv-x="655" 
d="M92 346.5c-22 7.66699 -40.333 17.833 -55 30.5v58h79v-30c11.333 -8 27 -12 47 -12c18 0 31.333 3.16699 40 9.5s13 17.166 13 32.499s-3.83301 25.833 -11.5 31.5s-20.5 8.5 -38.5 8.5h-35v57h36c16.667 0 28.334 2.83301 35.001 8.5s10 16.167 10 31.5
c0 21.333 -15.333 32 -46 32c-17.333 0 -32 -3.33301 -44 -10v-28h-79v60c12.667 10 30 18.5 52 25.5s44.667 10.5 68 10.5c45.333 0 79.166 -7.66699 101.499 -23s33.5 -36.666 33.5 -63.999c0 -35.333 -13.333 -59.333 -40 -72c30.667 -10.667 46 -33 46 -67
c0 -67.333 -46.667 -101 -140 -101c-26 0 -50 3.83301 -72 11.5zM485 646.999h122l-391 -647h-121zM447 51.999h20c13.333 0 20 6.33301 20 19v15h-143v52l136 174h88v-169h50v-57h-50v-15c0 -6.66699 1.33301 -11.5 4 -14.5s7.66699 -4.5 15 -4.5h20v-52h-160v52z
M496 142.999v89l-70 -89h70z" />
    <glyph glyph-name="questiondown" unicode="&#xbf;" horiz-adv-x="543" 
d="M238 495h147v-108h-147v108zM99.5 -123.5c-41.667 29 -62.501 72.167 -62.501 129.5c0 29.333 4.83301 54 14.5 74s24.167 37.833 43.5 53.5s46.333 33.167 81 52.5c20 11.333 34.833 22.333 44.5 33s16.167 22.834 19.5 36.501s5 32.5 5 56.5v23h132v-29
c0 -43.333 -9.16699 -80 -27.5 -110s-49.166 -56.333 -92.499 -79c-32 -16.667 -55 -32.667 -69 -48s-21 -36.333 -21 -63c0 -56.667 37.333 -85 112 -85c36.667 0 73 8.66699 109 26v60h118v-105c-28 -20.667 -62 -37.334 -102 -50.001s-83 -19 -129 -19
c-75.333 0 -133.833 14.5 -175.5 43.5z" />
    <glyph glyph-name="Agrave" unicode="&#xc0;" horiz-adv-x="717" 
d="M193 879h149l78 -180h-114zM27 87h29c16 0 28 2.5 36 7.5s14.333 14.5 19 28.5l185 524h127l182 -524c4.66699 -14 11.167 -23.5 19.5 -28.5s20.833 -7.5 37.5 -7.5h28v-87h-250v87h46l-36 110h-182l-37 -110h46v-87h-250v87zM428 269l-68 207l-70 -207h138z" />
    <glyph glyph-name="Aacute" unicode="&#xc1;" horiz-adv-x="717" 
d="M379 879h148l-113 -180h-112zM27 87h29c16 0 28 2.5 36 7.5s14.333 14.5 19 28.5l185 524h127l182 -524c4.66699 -14 11.167 -23.5 19.5 -28.5s20.833 -7.5 37.5 -7.5h28v-87h-250v87h46l-36 110h-182l-37 -110h46v-87h-250v87zM428 269l-68 207l-70 -207h138z" />
    <glyph glyph-name="Acircumflex" unicode="&#xc2;" horiz-adv-x="717" 
d="M301 893h120l130 -193h-121l-70 120l-70 -120h-120zM27 87h29c16 0 28 2.5 36 7.5s14.333 14.5 19 28.5l185 524h127l182 -524c4.66699 -14 11.167 -23.5 19.5 -28.5s20.833 -7.5 37.5 -7.5h28v-87h-250v87h46l-36 110h-182l-37 -110h46v-87h-250v87zM428 269l-68 207
l-70 -207h138z" />
    <glyph glyph-name="Atilde" unicode="&#xc3;" horiz-adv-x="717" 
d="M183.5 815.5c19 25 48.8311 37.5 89.498 37.5c18 0 33.667 -2.5 47 -7.5s29.333 -12.5 48 -22.5c13.333 -7.33301 24.333 -12.833 33 -16.5s17.667 -5.5 27 -5.5c14.667 0 25.667 4.16699 33 12.5s11 21.5 11 39.5h93c0 -53.333 -9 -92.166 -27 -116.499
s-47 -36.5 -87 -36.5c-18 0 -34.167 2.5 -48.5 7.5s-30.166 12.167 -47.499 21.5c-14 7.33301 -25.333 12.666 -34 15.999s-17.667 5 -27 5c-15.333 0 -26.666 -3.83301 -33.999 -11.5s-11 -20.5 -11 -38.5h-94c0 52 9.5 90.5 28.5 115.5zM26.998 87h29c16 0 28 2.5 36 7.5
s14.333 14.5 19 28.5l185 524h127l182 -524c4.66699 -14 11.167 -23.5 19.5 -28.5s20.833 -7.5 37.5 -7.5h28v-87h-250v87h46l-36 110h-182l-37 -110h46v-87h-250v87zM427.998 269l-68 207l-70 -207h138z" />
    <glyph glyph-name="Adieresis" unicode="&#xc4;" horiz-adv-x="717" 
d="M195 828h104v-109h-104v109zM420 828h105v-109h-105v109zM27 87h29c16 0 28 2.5 36 7.5s14.333 14.5 19 28.5l185 524h127l182 -524c4.66699 -14 11.167 -23.5 19.5 -28.5s20.833 -7.5 37.5 -7.5h28v-87h-250v87h46l-36 110h-182l-37 -110h46v-87h-250v87zM428 269
l-68 207l-70 -207h138z" />
    <glyph glyph-name="Aring" unicode="&#xc5;" horiz-adv-x="717" 
d="M690 87l-0.000976562 -87h-250v87h46l-36 110h-182l-37 -110h46v-87h-250v87h29c16 0 28 2.5 36 7.5s14.333 14.5 19 28.5l177 501c-14 10.667 -24.833 24 -32.5 40s-11.5 33.333 -11.5 52c0 32 11.167 59.333 33.5 82s49.833 34 82.5 34s60.334 -11.333 83.001 -34
s34 -50 34 -82c0 -18.667 -4.16699 -36 -12.5 -52s-19.5 -29.333 -33.5 -40l174 -501c4.66699 -14 11.167 -23.5 19.5 -28.5s20.833 -7.5 37.5 -7.5h28zM326.499 750c-9 -9.33301 -13.5 -20.666 -13.5 -33.999s4.5 -24.666 13.5 -33.999s20.167 -14 33.5 -14
s24.5 4.66699 33.5 14s13.5 20.666 13.5 33.999s-4.5 24.666 -13.5 33.999s-20.167 14 -33.5 14s-24.5 -4.66699 -33.5 -14zM427.999 269l-68 207l-70 -207h138z" />
    <glyph glyph-name="AE" unicode="&#xc6;" horiz-adv-x="832" 
d="M27 87l29.001 -0.000976562c16 0 27.833 2.5 35.5 7.5s14.167 14.5 19.5 28.5l193 524h501v-142h-120v17c0 16.667 -4.83301 27.167 -14.5 31.5s-27.167 6.5 -52.5 6.5h-98v-192h144v-88h-144v-193h126c13.333 0 23.166 3 29.499 9s9.5 15.667 9.5 29v18h120v-143h-464
v87h15c13.333 0 22 2.83301 26 8.5s6 15.834 6 30.501v71h-118l-39 -110h46v-87h-250v87zM388.001 275.999v284h-3l-91 -284h94z" />
    <glyph glyph-name="Ccedilla" unicode="&#xc7;" horiz-adv-x="603" 
d="M247 -213l0.00292969 73c22 -10 46 -15 72 -15c32 0 48 10 48 30c0 16 -6.33301 27.5 -19 34.5s-37 10.5 -73 10.5l11 71c-84 14.667 -148.167 51.167 -192.5 109.5s-66.5 131.166 -66.5 218.499c0 66.667 11.667 125.834 35 177.501s59.166 92.167 107.499 121.5
s108.5 44 180.5 44c48.667 0 90 -4.66699 124 -14s67.333 -24.333 100 -45v-114h-131v69c-12.667 5.33301 -25.334 9.16602 -38.001 11.499s-28.667 3.5 -48 3.5c-64.667 0 -114.167 -22.333 -148.5 -67s-51.5 -107 -51.5 -187c0 -78 18.5 -138.333 55.5 -181
s89.833 -64 158.5 -64c30 0 57.333 3.33301 82 10s50 17.334 76 32.001l47 -74c-30.667 -20 -55.667 -33.167 -75 -39.5s-51.333 -11.833 -96 -16.5l-5 -29c27.333 -4.66699 47.333 -14.167 60 -28.5s19 -33.833 19 -58.5c0 -65.333 -48.667 -98 -146 -98
c-32.667 0 -61.334 5 -86.001 15z" />
    <glyph glyph-name="Egrave" unicode="&#xc8;" horiz-adv-x="546" 
d="M128 879h149l78 -180h-114zM27 87l26.001 0.000976562c14 0 24 3.16699 30 9.5s9 16.166 9 29.499v397c0 12.667 -3 22 -9 28s-16 9 -30 9h-26v87h492v-142h-120v18c0 24.667 -13 37 -39 37h-136v-192h154v-88h-154v-193h136c13.333 0 23.166 3 29.499 9
s9.5 15.667 9.5 29v18h120v-143h-492v87z" />
    <glyph glyph-name="Eacute" unicode="&#xc9;" horiz-adv-x="546" 
d="M267 879h148l-113 -180h-112zM27 87l26.001 0.000976562c14 0 24 3.16699 30 9.5s9 16.166 9 29.499v397c0 12.667 -3 22 -9 28s-16 9 -30 9h-26v87h492v-142h-120v18c0 24.667 -13 37 -39 37h-136v-192h154v-88h-154v-193h136c13.333 0 23.166 3 29.499 9
s9.5 15.667 9.5 29v18h120v-143h-492v87z" />
    <glyph glyph-name="Ecircumflex" unicode="&#xca;" horiz-adv-x="546" 
d="M208 893h120l130 -193h-121l-70 120l-70 -120h-120zM27 87l26.001 0.000976562c14 0 24 3.16699 30 9.5s9 16.166 9 29.499v397c0 12.667 -3 22 -9 28s-16 9 -30 9h-26v87h492v-142h-120v18c0 24.667 -13 37 -39 37h-136v-192h154v-88h-154v-193h136
c13.333 0 23.166 3 29.499 9s9.5 15.667 9.5 29v18h120v-143h-492v87z" />
    <glyph glyph-name="Edieresis" unicode="&#xcb;" horiz-adv-x="546" 
d="M113 828h104v-109h-104v109zM338 828h105v-109h-105v109zM27 87l26.001 0.000976562c14 0 24 3.16699 30 9.5s9 16.166 9 29.499v397c0 12.667 -3 22 -9 28s-16 9 -30 9h-26v87h492v-142h-120v18c0 24.667 -13 37 -39 37h-136v-192h154v-88h-154v-193h136
c13.333 0 23.166 3 29.499 9s9.5 15.667 9.5 29v18h120v-143h-492v87z" />
    <glyph glyph-name="Igrave" unicode="&#xcc;" horiz-adv-x="313" 
d="M-7 879h149l78 -180h-114zM27 87l26 0.000976562c14 0 24 3.16699 30 9.5s9 16.166 9 29.499v397c0 12.667 -3 22 -9 28s-16 9 -30 9h-26v87h259v-87h-26c-13.333 0 -22.833 -3 -28.5 -9s-8.5 -15.333 -8.5 -28v-399c0 -12.667 2.83301 -22 8.5 -28s15.167 -9 28.5 -9h26
v-87h-259v87z" />
    <glyph glyph-name="Iacute" unicode="&#xcd;" horiz-adv-x="313" 
d="M165 879h148l-113 -180h-112zM27 87l26 0.000976562c14 0 24 3.16699 30 9.5s9 16.166 9 29.499v397c0 12.667 -3 22 -9 28s-16 9 -30 9h-26v87h259v-87h-26c-13.333 0 -22.833 -3 -28.5 -9s-8.5 -15.333 -8.5 -28v-399c0 -12.667 2.83301 -22 8.5 -28s15.167 -9 28.5 -9
h26v-87h-259v87z" />
    <glyph glyph-name="Icircumflex" unicode="&#xce;" horiz-adv-x="313" 
d="M97 892h120l130 -193h-121l-70 120l-70 -120h-120zM27 87l26 0.000976562c14 0 24 3.16699 30 9.5s9 16.166 9 29.499v397c0 12.667 -3 22 -9 28s-16 9 -30 9h-26v87h259v-87h-26c-13.333 0 -22.833 -3 -28.5 -9s-8.5 -15.333 -8.5 -28v-399
c0 -12.667 2.83301 -22 8.5 -28s15.167 -9 28.5 -9h26v-87h-259v87z" />
    <glyph glyph-name="Idieresis" unicode="&#xcf;" horiz-adv-x="313" 
d="M-9 828h104v-109h-104v109zM216 828h105v-109h-105v109zM27 87l26 0.000976562c14 0 24 3.16699 30 9.5s9 16.166 9 29.499v397c0 12.667 -3 22 -9 28s-16 9 -30 9h-26v87h259v-87h-26c-13.333 0 -22.833 -3 -28.5 -9s-8.5 -15.333 -8.5 -28v-399
c0 -12.667 2.83301 -22 8.5 -28s15.167 -9 28.5 -9h26v-87h-259v87z" />
    <glyph glyph-name="Eth" unicode="&#xd0;" horiz-adv-x="631" 
d="M27 87l26 0.000976562c14 0 24 3.16699 30 9.5s9 16.166 9 29.499v152h-65v89h65v156c0 12.667 -3 22 -9 28s-16 9 -30 9h-26v87h300c93.333 0 162.833 -28.167 208.5 -84.5s68.5 -136.833 68.5 -241.5c0 -96 -23.5 -173.5 -70.5 -232.5s-115.833 -88.5 -206.5 -88.5
h-300v87zM308 87.001c60 0 102.833 19.332 128.5 57.999s38.5 97.334 38.5 176.001c0 80.667 -12.667 140.667 -38 180s-68.333 59 -129 59h-88v-193h126v-89h-126v-191h88z" />
    <glyph glyph-name="Ntilde" unicode="&#xd1;" horiz-adv-x="693" 
d="M161.5 815.5c19 25 48.8311 37.5 89.498 37.5c18 0 33.667 -2.5 47 -7.5s29.333 -12.5 48 -22.5c13.333 -7.33301 24.333 -12.833 33 -16.5s17.667 -5.5 27 -5.5c14.667 0 25.667 4.16699 33 12.5s11 21.5 11 39.5h93c0 -53.333 -9 -92.166 -27 -116.499
s-47 -36.5 -87 -36.5c-18 0 -34.167 2.5 -48.5 7.5s-30.166 12.167 -47.499 21.5c-14 7.33301 -25.333 12.666 -34 15.999s-17.667 5 -27 5c-15.333 0 -26.666 -3.83301 -33.999 -11.5s-11 -20.5 -11 -38.5h-94c0 52 9.5 90.5 28.5 115.5zM26.998 87h26
c26 0 39 12.333 39 37v399c0 12.667 -3 22 -9 28s-16 9 -30 9h-26v87h165l279 -433v309c0 24.667 -13 37 -39 37h-27v87h261v-87h-27c-12.667 0 -22 -3 -28 -9s-9 -15.333 -9 -28v-523h-101l-277 431v-307c0 -12.667 2.83301 -22 8.5 -28s15.167 -9 28.5 -9h26v-87h-260v87z
" />
    <glyph glyph-name="Ograve" unicode="&#xd2;" horiz-adv-x="663" 
d="M178 879h149l78 -180h-114zM102 68.5c-50 55.667 -75 139.834 -75 252.501c0 114 24.333 199.333 73 256s126 85 232 85c104.667 0 181.5 -28.333 230.5 -85s73.5 -142 73.5 -256c0 -112.667 -25 -196.834 -75 -252.501s-126.333 -83.5 -229 -83.5
c-103.333 0 -180 27.833 -230 83.5zM464.5 131c27.667 38 41.498 101.332 41.498 189.999c0 90.667 -13.833 155.334 -41.5 194.001s-71.834 58 -132.501 58c-41.333 0 -74.666 -8.16699 -99.999 -24.5s-44.166 -43 -56.499 -80s-18.5 -86.167 -18.5 -147.5
c0 -89.333 13.833 -152.833 41.5 -190.5s72.167 -56.5 133.5 -56.5c60.667 0 104.834 19 132.501 57z" />
    <glyph glyph-name="Oacute" unicode="&#xd3;" horiz-adv-x="663" 
d="M340 879h148l-113 -180h-112zM102 68.5c-50 55.667 -75 139.834 -75 252.501c0 114 24.333 199.333 73 256s126 85 232 85c104.667 0 181.5 -28.333 230.5 -85s73.5 -142 73.5 -256c0 -112.667 -25 -196.834 -75 -252.501s-126.333 -83.5 -229 -83.5
c-103.333 0 -180 27.833 -230 83.5zM464.5 131c27.667 38 41.498 101.332 41.498 189.999c0 90.667 -13.833 155.334 -41.5 194.001s-71.834 58 -132.501 58c-41.333 0 -74.666 -8.16699 -99.999 -24.5s-44.166 -43 -56.499 -80s-18.5 -86.167 -18.5 -147.5
c0 -89.333 13.833 -152.833 41.5 -190.5s72.167 -56.5 133.5 -56.5c60.667 0 104.834 19 132.501 57z" />
    <glyph glyph-name="Ocircumflex" unicode="&#xd4;" horiz-adv-x="663" 
d="M272 893h120l130 -193h-121l-70 120l-70 -120h-120zM102 68.5c-50 55.667 -75 139.834 -75 252.501c0 114 24.333 199.333 73 256s126 85 232 85c104.667 0 181.5 -28.333 230.5 -85s73.5 -142 73.5 -256c0 -112.667 -25 -196.834 -75 -252.501
s-126.333 -83.5 -229 -83.5c-103.333 0 -180 27.833 -230 83.5zM464.5 131c27.667 38 41.498 101.332 41.498 189.999c0 90.667 -13.833 155.334 -41.5 194.001s-71.834 58 -132.501 58c-41.333 0 -74.666 -8.16699 -99.999 -24.5s-44.166 -43 -56.499 -80
s-18.5 -86.167 -18.5 -147.5c0 -89.333 13.833 -152.833 41.5 -190.5s72.167 -56.5 133.5 -56.5c60.667 0 104.834 19 132.501 57z" />
    <glyph glyph-name="Otilde" unicode="&#xd5;" horiz-adv-x="663" 
d="M154.5 815.5c19 25 48.8311 37.5 89.498 37.5c18 0 33.667 -2.5 47 -7.5s29.333 -12.5 48 -22.5c13.333 -7.33301 24.333 -12.833 33 -16.5s17.667 -5.5 27 -5.5c14.667 0 25.667 4.16699 33 12.5s11 21.5 11 39.5h93c0 -53.333 -9 -92.166 -27 -116.499
s-47 -36.5 -87 -36.5c-18 0 -34.167 2.5 -48.5 7.5s-30.166 12.167 -47.499 21.5c-14 7.33301 -25.333 12.666 -34 15.999s-17.667 5 -27 5c-15.333 0 -26.666 -3.83301 -33.999 -11.5s-11 -20.5 -11 -38.5h-94c0 52 9.5 90.5 28.5 115.5zM101.998 68.5
c-50 55.667 -75 139.834 -75 252.501c0 114 24.333 199.333 73 256s126 85 232 85c104.667 0 181.5 -28.333 230.5 -85s73.5 -142 73.5 -256c0 -112.667 -25 -196.834 -75 -252.501s-126.333 -83.5 -229 -83.5c-103.333 0 -180 27.833 -230 83.5zM464.498 131
c27.667 38 41.498 101.332 41.498 189.999c0 90.667 -13.833 155.334 -41.5 194.001s-71.834 58 -132.501 58c-41.333 0 -74.666 -8.16699 -99.999 -24.5s-44.166 -43 -56.499 -80s-18.5 -86.167 -18.5 -147.5c0 -89.333 13.833 -152.833 41.5 -190.5
s72.167 -56.5 133.5 -56.5c60.667 0 104.834 19 132.501 57z" />
    <glyph glyph-name="Odieresis" unicode="&#xd6;" horiz-adv-x="663" 
d="M166 828h104v-109h-104v109zM391 828h105v-109h-105v109zM102 68.5c-50 55.667 -75 139.834 -75 252.501c0 114 24.333 199.333 73 256s126 85 232 85c104.667 0 181.5 -28.333 230.5 -85s73.5 -142 73.5 -256c0 -112.667 -25 -196.834 -75 -252.501
s-126.333 -83.5 -229 -83.5c-103.333 0 -180 27.833 -230 83.5zM464.5 131c27.667 38 41.498 101.332 41.498 189.999c0 90.667 -13.833 155.334 -41.5 194.001s-71.834 58 -132.501 58c-41.333 0 -74.666 -8.16699 -99.999 -24.5s-44.166 -43 -56.499 -80
s-18.5 -86.167 -18.5 -147.5c0 -89.333 13.833 -152.833 41.5 -190.5s72.167 -56.5 133.5 -56.5c60.667 0 104.834 19 132.501 57z" />
    <glyph glyph-name="multiply" unicode="&#xd7;" horiz-adv-x="375" 
d="M38 228l79 79l-80 82l71 68l79 -80l81 80l70 -68l-80 -82l80 -79l-70 -70l-80 79l-80 -80z" />
    <glyph glyph-name="Oslash" unicode="&#xd8;" horiz-adv-x="663" 
d="M180 13c-102 44 -152.999 146.668 -152.999 308.001c0 114 24.333 199.333 73 256s126 85 232 85c28.667 0 57 -2.66699 85 -8l14 35h56l-19 -49c57.333 -21.333 99.666 -58.5 126.999 -111.5s41 -122.167 41 -207.5c0 -112.667 -25 -196.834 -75 -252.501
s-126.333 -83.5 -229 -83.5c-36.667 0 -70.667 3.66699 -102 11l-14 -39h-56zM386.001 567.001c-16 4 -34.0029 6.00195 -54.0029 6.00195c-41.333 0 -74.666 -8.16699 -99.999 -24.5s-44.166 -43 -56.499 -80s-18.5 -86.167 -18.5 -147.5
c0 -52.667 4.83301 -95.834 14.5 -129.501s24.834 -59.834 45.501 -78.501zM464.498 131.003c27.667 38 41.499 101.333 41.499 190c0 59.333 -6 107.333 -18 144s-30.333 63.667 -55 81l-171 -462c16.667 -6.66699 40 -10 70 -10c60.667 0 104.834 19 132.501 57z" />
    <glyph glyph-name="Ugrave" unicode="&#xd9;" horiz-adv-x="666" 
d="M170 879h149l78 -180h-114zM141 38.5c-42.667 35.667 -64 84.5 -64 146.5v339c0 12.667 -2.83301 21.834 -8.5 27.501s-15.5 8.5 -29.5 8.5h-22v87h248v-87h-22c-13.333 0 -23 -2.83301 -29 -8.5s-9 -14.834 -9 -27.501v-345c0 -70 42.667 -105 128 -105s128 35 128 105
v345c0 12.667 -2.83301 21.834 -8.5 27.501s-15.5 8.5 -29.5 8.5h-22v87h248v-87h-22c-13.333 0 -23 -2.83301 -29 -8.5s-9 -14.834 -9 -27.501v-339c0 -62 -21.5 -110.833 -64.5 -146.5s-106.833 -53.5 -191.5 -53.5c-85.333 0 -149.333 17.833 -192 53.5z" />
    <glyph glyph-name="Uacute" unicode="&#xda;" horiz-adv-x="666" 
d="M328 879h148l-113 -180h-112zM141 38.5c-42.667 35.667 -64 84.5 -64 146.5v339c0 12.667 -2.83301 21.834 -8.5 27.501s-15.5 8.5 -29.5 8.5h-22v87h248v-87h-22c-13.333 0 -23 -2.83301 -29 -8.5s-9 -14.834 -9 -27.501v-345c0 -70 42.667 -105 128 -105
s128 35 128 105v345c0 12.667 -2.83301 21.834 -8.5 27.501s-15.5 8.5 -29.5 8.5h-22v87h248v-87h-22c-13.333 0 -23 -2.83301 -29 -8.5s-9 -14.834 -9 -27.501v-339c0 -62 -21.5 -110.833 -64.5 -146.5s-106.833 -53.5 -191.5 -53.5c-85.333 0 -149.333 17.833 -192 53.5z
" />
    <glyph glyph-name="Ucircumflex" unicode="&#xdb;" horiz-adv-x="666" 
d="M274 893h120l130 -193h-121l-70 120l-70 -120h-120zM141 38.5c-42.667 35.667 -64 84.5 -64 146.5v339c0 12.667 -2.83301 21.834 -8.5 27.501s-15.5 8.5 -29.5 8.5h-22v87h248v-87h-22c-13.333 0 -23 -2.83301 -29 -8.5s-9 -14.834 -9 -27.501v-345
c0 -70 42.667 -105 128 -105s128 35 128 105v345c0 12.667 -2.83301 21.834 -8.5 27.501s-15.5 8.5 -29.5 8.5h-22v87h248v-87h-22c-13.333 0 -23 -2.83301 -29 -8.5s-9 -14.834 -9 -27.501v-339c0 -62 -21.5 -110.833 -64.5 -146.5s-106.833 -53.5 -191.5 -53.5
c-85.333 0 -149.333 17.833 -192 53.5z" />
    <glyph glyph-name="Udieresis" unicode="&#xdc;" horiz-adv-x="666" 
d="M167 828h104v-109h-104v109zM392 828h105v-109h-105v109zM141 38.5c-42.667 35.667 -64 84.5 -64 146.5v339c0 12.667 -2.83301 21.834 -8.5 27.501s-15.5 8.5 -29.5 8.5h-22v87h248v-87h-22c-13.333 0 -23 -2.83301 -29 -8.5s-9 -14.834 -9 -27.501v-345
c0 -70 42.667 -105 128 -105s128 35 128 105v345c0 12.667 -2.83301 21.834 -8.5 27.501s-15.5 8.5 -29.5 8.5h-22v87h248v-87h-22c-13.333 0 -23 -2.83301 -29 -8.5s-9 -14.834 -9 -27.501v-339c0 -62 -21.5 -110.833 -64.5 -146.5s-106.833 -53.5 -191.5 -53.5
c-85.333 0 -149.333 17.833 -192 53.5z" />
    <glyph glyph-name="Yacute" unicode="&#xdd;" horiz-adv-x="669" 
d="M350 879h148l-113 -180h-112zM204 87h25c14 0 24 3.16699 30 9.5s9 15.833 9 28.5v114l-152 280c-8.66699 16 -17.5 26.833 -26.5 32.5s-22.167 8.5 -39.5 8.5h-23v87h242v-87h-14c-11.333 0 -17 -3.66699 -17 -11c0 -5.33301 2.66699 -13.333 8 -24l89 -179l88 179
c5.33301 10.667 8 18.667 8 24c0 7.33301 -5.66699 11 -17 11h-14v87h242v-87h-23c-17.333 0 -30.5 -2.83301 -39.5 -8.5s-17.833 -16.5 -26.5 -32.5l-153 -280v-115c0 -12.667 3.16699 -22 9.5 -28s16.5 -9 30.5 -9h25v-87h-261v87z" />
    <glyph glyph-name="Thorn" unicode="&#xde;" horiz-adv-x="626" 
d="M27 87l24.999 -0.000976562c26.667 0 40 12.333 40 37v399c0 24.667 -13 37 -39 37h-26v87h193v-89h155c70 0 124.833 -17.333 164.5 -52s59.5 -85 59.5 -151c0 -65.333 -20.167 -116.666 -60.5 -153.999s-95.166 -56 -164.499 -56h-154v-21c0 -24.667 13 -37 39 -37h28
v-87h-260v87zM356.999 231.999c38 0 66.333 10.168 85 30.501s28 51.166 28 92.499c0 42.667 -9 72.667 -27 90s-46.667 26 -86 26h-137v-239h137z" />
    <glyph glyph-name="germandbls" unicode="&#xdf;" horiz-adv-x="643" 
d="M334.5 -7c-24.333 5.33301 -45.5 14.001 -63.5 26.001l42 79c25.333 -16 54 -24 86 -24c58 0 87 38.667 87 116c0 40 -8.83301 69.5 -26.5 88.5s-47.5 28.5 -89.5 28.5h-55v90h49c38 0 65.333 9.33301 82 28s25 47.334 25 86.001s-10.5 67 -31.5 85s-51.833 27 -92.5 27
c-82 0 -123 -38.667 -123 -116v-507h-197v87h28c14 0 23.833 3 29.5 9s8.5 16 8.5 30v372c0 65.333 21 117.333 63 156s105 58 189 58c85.333 0 149.5 -18.333 192.5 -55s64.5 -85.334 64.5 -146.001c0 -35.333 -7 -67.833 -21 -97.5s-35 -50.5 -63 -62.5
c35.333 -14.667 60.5 -35.667 75.5 -63s22.5 -60.333 22.5 -99c0 -62.667 -17.333 -112.334 -52 -149.001s-86.667 -55 -156 -55c-24.667 0 -49.167 2.66699 -73.5 8z" />
    <glyph glyph-name="agrave" unicode="&#xe0;" horiz-adv-x="525" 
d="M93 704h149l78 -180h-114zM59.5 20c-28.333 23.333 -42.502 56.666 -42.502 99.999c0 48.667 15.833 84.834 47.5 108.501s77.5 37.167 137.5 40.5l123 8v59c0 25.333 -5.66699 43.333 -17 54s-30.333 16 -57 16c-30.667 0 -56.667 -6 -78 -18v-39h-113v92
c58 36 123 54 195 54c70 0 121.167 -15.333 153.5 -46s48.5 -72.667 48.5 -126v-199c0 -12.667 2.5 -22 7.5 -28s13.167 -9 24.5 -9h19v-87h-124l-13 60c-23.333 -28 -48.666 -47.5 -75.999 -58.5s-64 -16.5 -110 -16.5c-55.333 0 -97.166 11.667 -125.499 35zM295.998 93
c19.333 15.333 29 38 29 68v41l-111 -8c-28 -2 -47.333 -7.83301 -58 -17.5s-16 -25.5 -16 -47.5c0 -39.333 25 -59 75 -59c34.667 0 61.667 7.66699 81 23z" />
    <glyph glyph-name="aacute" unicode="&#xe1;" horiz-adv-x="525" 
d="M273 704h148l-113 -180h-112zM59.5 20c-28.333 23.333 -42.502 56.666 -42.502 99.999c0 48.667 15.833 84.834 47.5 108.501s77.5 37.167 137.5 40.5l123 8v59c0 25.333 -5.66699 43.333 -17 54s-30.333 16 -57 16c-30.667 0 -56.667 -6 -78 -18v-39h-113v92
c58 36 123 54 195 54c70 0 121.167 -15.333 153.5 -46s48.5 -72.667 48.5 -126v-199c0 -12.667 2.5 -22 7.5 -28s13.167 -9 24.5 -9h19v-87h-124l-13 60c-23.333 -28 -48.666 -47.5 -75.999 -58.5s-64 -16.5 -110 -16.5c-55.333 0 -97.166 11.667 -125.499 35zM295.998 93
c19.333 15.333 29 38 29 68v41l-111 -8c-28 -2 -47.333 -7.83301 -58 -17.5s-16 -25.5 -16 -47.5c0 -39.333 25 -59 75 -59c34.667 0 61.667 7.66699 81 23z" />
    <glyph glyph-name="acircumflex" unicode="&#xe2;" horiz-adv-x="525" 
d="M199 716h120l130 -193h-121l-70 120l-70 -120h-120zM59.5 20c-28.333 23.333 -42.502 56.666 -42.502 99.999c0 48.667 15.833 84.834 47.5 108.501s77.5 37.167 137.5 40.5l123 8v59c0 25.333 -5.66699 43.333 -17 54s-30.333 16 -57 16c-30.667 0 -56.667 -6 -78 -18
v-39h-113v92c58 36 123 54 195 54c70 0 121.167 -15.333 153.5 -46s48.5 -72.667 48.5 -126v-199c0 -12.667 2.5 -22 7.5 -28s13.167 -9 24.5 -9h19v-87h-124l-13 60c-23.333 -28 -48.666 -47.5 -75.999 -58.5s-64 -16.5 -110 -16.5c-55.333 0 -97.166 11.667 -125.499 35z
M295.998 93c19.333 15.333 29 38 29 68v41l-111 -8c-28 -2 -47.333 -7.83301 -58 -17.5s-16 -25.5 -16 -47.5c0 -39.333 25 -59 75 -59c34.667 0 61.667 7.66699 81 23z" />
    <glyph glyph-name="atilde" unicode="&#xe3;" horiz-adv-x="525" 
d="M81.5 639.5c19 25 48.8311 37.5 89.498 37.5c18 0 33.667 -2.5 47 -7.5s29.333 -12.5 48 -22.5c13.333 -7.33301 24.333 -12.833 33 -16.5s17.667 -5.5 27 -5.5c14.667 0 25.667 4.16699 33 12.5s11 21.5 11 39.5h93c0 -53.333 -9 -92.166 -27 -116.499
s-47 -36.5 -87 -36.5c-18 0 -34.167 2.5 -48.5 7.5s-30.166 12.167 -47.499 21.5c-14 7.33301 -25.333 12.666 -34 15.999s-17.667 5 -27 5c-15.333 0 -26.666 -3.83301 -33.999 -11.5s-11 -20.5 -11 -38.5h-94c0 52 9.5 90.5 28.5 115.5zM59.498 20
c-28.333 23.333 -42.502 56.666 -42.502 99.999c0 48.667 15.833 84.834 47.5 108.501s77.5 37.167 137.5 40.5l123 8v59c0 25.333 -5.66699 43.333 -17 54s-30.333 16 -57 16c-30.667 0 -56.667 -6 -78 -18v-39h-113v92c58 36 123 54 195 54
c70 0 121.167 -15.333 153.5 -46s48.5 -72.667 48.5 -126v-199c0 -12.667 2.5 -22 7.5 -28s13.167 -9 24.5 -9h19v-87h-124l-13 60c-23.333 -28 -48.666 -47.5 -75.999 -58.5s-64 -16.5 -110 -16.5c-55.333 0 -97.166 11.667 -125.499 35zM295.996 93
c19.333 15.333 29 38 29 68v41l-111 -8c-28 -2 -47.333 -7.83301 -58 -17.5s-16 -25.5 -16 -47.5c0 -39.333 25 -59 75 -59c34.667 0 61.667 7.66699 81 23z" />
    <glyph glyph-name="adieresis" unicode="&#xe4;" horiz-adv-x="525" 
d="M87 653h104v-109h-104v109zM312 653h105v-109h-105v109zM59.5 20c-28.333 23.333 -42.502 56.666 -42.502 99.999c0 48.667 15.833 84.834 47.5 108.501s77.5 37.167 137.5 40.5l123 8v59c0 25.333 -5.66699 43.333 -17 54s-30.333 16 -57 16
c-30.667 0 -56.667 -6 -78 -18v-39h-113v92c58 36 123 54 195 54c70 0 121.167 -15.333 153.5 -46s48.5 -72.667 48.5 -126v-199c0 -12.667 2.5 -22 7.5 -28s13.167 -9 24.5 -9h19v-87h-124l-13 60c-23.333 -28 -48.666 -47.5 -75.999 -58.5s-64 -16.5 -110 -16.5
c-55.333 0 -97.166 11.667 -125.499 35zM295.998 93c19.333 15.333 29 38 29 68v41l-111 -8c-28 -2 -47.333 -7.83301 -58 -17.5s-16 -25.5 -16 -47.5c0 -39.333 25 -59 75 -59c34.667 0 61.667 7.66699 81 23z" />
    <glyph glyph-name="aring" unicode="&#xe5;" horiz-adv-x="525" 
d="M176.5 557.5c-22.333 22.333 -33.5 49.833 -33.5 82.5c0 32 11.167 59.333 33.5 82s49.833 34 82.5 34s60.334 -11.333 83.001 -34s34 -50 34 -82c0 -32.667 -11.333 -60.167 -34 -82.5s-50.334 -33.5 -83.001 -33.5s-60.167 11.167 -82.5 33.5zM292.5 606
c9 9.33301 13.5 20.666 13.5 33.999s-4.5 24.666 -13.5 33.999s-20.167 14 -33.5 14s-24.5 -4.66699 -33.5 -14s-13.5 -20.666 -13.5 -33.999s4.5 -24.666 13.5 -33.999s20.167 -14 33.5 -14s24.5 4.66699 33.5 14zM59.5 20c-28.333 23.333 -42.502 56.666 -42.502 99.999
c0 48.667 15.833 84.834 47.5 108.501s77.5 37.167 137.5 40.5l123 8v59c0 25.333 -5.66699 43.333 -17 54s-30.333 16 -57 16c-30.667 0 -56.667 -6 -78 -18v-39h-113v92c58 36 123 54 195 54c70 0 121.167 -15.333 153.5 -46s48.5 -72.667 48.5 -126v-199
c0 -12.667 2.5 -22 7.5 -28s13.167 -9 24.5 -9h19v-87h-124l-13 60c-23.333 -28 -48.666 -47.5 -75.999 -58.5s-64 -16.5 -110 -16.5c-55.333 0 -97.166 11.667 -125.499 35zM295.998 93c19.333 15.333 29 38 29 68v41l-111 -8c-28 -2 -47.333 -7.83301 -58 -17.5
s-16 -25.5 -16 -47.5c0 -39.333 25 -59 75 -59c34.667 0 61.667 7.66699 81 23z" />
    <glyph glyph-name="ae" unicode="&#xe6;" horiz-adv-x="832" 
d="M59.5 20c-28.333 23.333 -42.5 56.666 -42.5 99.999c0 48.667 15.833 84.834 47.5 108.501s77.5 37.167 137.5 40.5l123 8v59c0 25.333 -5.66699 43.333 -17 54s-30.333 16 -57 16c-30.667 0 -56.667 -6 -78 -18v-39h-113v92c58 36 123 54 195 54
c66 0 114 -18.333 144 -55c19.333 16.667 43.5 30 72.5 40s61.167 15 96.5 15c77.333 0 136.166 -21.5 176.499 -64.5s60.5 -101.167 60.5 -174.5v-47h-348v-7c0.666992 -45.333 10.667 -78 30 -98s49 -30 89 -30c41.333 0 74.333 5.33301 99 16v35h113v-76
c-50.667 -42.667 -121.667 -64 -213 -64c-83.333 0 -142 26 -176 78c-24 -28 -53 -48 -87 -60s-76.333 -18 -127 -18c-55.333 0 -97.166 11.667 -125.499 35zM675 284c0 41.333 -9.00098 72 -27.001 92s-45.333 30 -82 30c-69.333 0 -105.666 -37 -108.999 -111v-11h218z
M295.999 93c19.333 15.333 29 38 29 68v41l-111 -8c-28 -2 -47.333 -7.83301 -58 -17.5s-16 -25.5 -16 -47.5c0 -39.333 25 -59 75 -59c34.667 0 61.667 7.66699 81 23z" />
    <glyph glyph-name="ccedilla" unicode="&#xe7;" horiz-adv-x="520" 
d="M191 -213l0.00195312 73.002c22 -10 46 -15 72 -15c32 0 48 10 48 30c0 16 -6.33301 27.5 -19 34.5s-37 10.5 -73 10.5l11 70c-61.333 10.667 -110.5 37 -147.5 79s-55.5 97.333 -55.5 166c0 82.667 23.333 146.667 70 192s110.667 68 192 68c45.333 0 83 -5 113 -15
s59.333 -26 88 -48v-105h-113v58c-13.333 7.33301 -26.5 12.666 -39.5 15.999s-29.167 5 -48.5 5c-38.667 0 -70.334 -14.333 -95.001 -43s-37 -71.334 -37 -128.001c0 -54 14.333 -94.333 43 -121s66.667 -40 114 -40c27.333 0 51.833 3.33301 73.5 10
s42.167 16.667 61.5 30l44 -72c-23.333 -16.667 -46 -29.167 -68 -37.5s-47.333 -13.833 -76 -16.5l-5 -31c27.333 -4.66699 47.333 -14.167 60 -28.5s19 -33.833 19 -58.5c0 -65.333 -48.667 -98 -146 -98c-32.667 0 -61.334 5 -86.001 15z" />
    <glyph glyph-name="egrave" unicode="&#xe8;" horiz-adv-x="541" 
d="M135 704h149l78 -180h-114zM95.5 48.5c-45.667 42.333 -68.499 104.501 -68.499 186.501c0 86.667 21.667 151.667 65 195s105 65 185 65c77.333 0 136.166 -21.5 176.499 -64.5s60.5 -101.167 60.5 -174.5v-47h-357c0 -46.667 11 -80.834 33 -102.501
s53.667 -32.5 95 -32.5s74.333 5.33301 99 16v35h113v-76c-50.667 -42.667 -121.667 -64 -213 -64c-80 0 -142.833 21.167 -188.5 63.5zM384.001 284.001c0 41.333 -9 72 -27 92s-45.333 30 -82 30c-38 0 -67.167 -10.5 -87.5 -31.5s-30.5 -51.167 -30.5 -90.5h227z" />
    <glyph glyph-name="eacute" unicode="&#xe9;" horiz-adv-x="541" 
d="M298 704h148l-113 -180h-112zM95.5 48.5c-45.667 42.333 -68.499 104.501 -68.499 186.501c0 86.667 21.667 151.667 65 195s105 65 185 65c77.333 0 136.166 -21.5 176.499 -64.5s60.5 -101.167 60.5 -174.5v-47h-357c0 -46.667 11 -80.834 33 -102.501
s53.667 -32.5 95 -32.5s74.333 5.33301 99 16v35h113v-76c-50.667 -42.667 -121.667 -64 -213 -64c-80 0 -142.833 21.167 -188.5 63.5zM384.001 284.001c0 41.333 -9 72 -27 92s-45.333 30 -82 30c-38 0 -67.167 -10.5 -87.5 -31.5s-30.5 -51.167 -30.5 -90.5h227z" />
    <glyph glyph-name="ecircumflex" unicode="&#xea;" horiz-adv-x="541" 
d="M220 716h120l130 -193h-121l-70 120l-70 -120h-120zM95.5 48.5c-45.667 42.333 -68.499 104.501 -68.499 186.501c0 86.667 21.667 151.667 65 195s105 65 185 65c77.333 0 136.166 -21.5 176.499 -64.5s60.5 -101.167 60.5 -174.5v-47h-357
c0 -46.667 11 -80.834 33 -102.501s53.667 -32.5 95 -32.5s74.333 5.33301 99 16v35h113v-76c-50.667 -42.667 -121.667 -64 -213 -64c-80 0 -142.833 21.167 -188.5 63.5zM384.001 284.001c0 41.333 -9 72 -27 92s-45.333 30 -82 30c-38 0 -67.167 -10.5 -87.5 -31.5
s-30.5 -51.167 -30.5 -90.5h227z" />
    <glyph glyph-name="edieresis" unicode="&#xeb;" horiz-adv-x="541" 
d="M116 641h104v-109h-104v109zM341 641h105v-109h-105v109zM95.5 48.5c-45.667 42.333 -68.499 104.501 -68.499 186.501c0 86.667 21.667 151.667 65 195s105 65 185 65c77.333 0 136.166 -21.5 176.499 -64.5s60.5 -101.167 60.5 -174.5v-47h-357
c0 -46.667 11 -80.834 33 -102.501s53.667 -32.5 95 -32.5s74.333 5.33301 99 16v35h113v-76c-50.667 -42.667 -121.667 -64 -213 -64c-80 0 -142.833 21.167 -188.5 63.5zM384.001 284.001c0 41.333 -9 72 -27 92s-45.333 30 -82 30c-38 0 -67.167 -10.5 -87.5 -31.5
s-30.5 -51.167 -30.5 -90.5h227z" />
    <glyph glyph-name="igrave" unicode="&#xec;" horiz-adv-x="293" 
d="M-20 701h149l78 -180h-114zM17 87h26c14 0 24 3.16699 30 9.5s9 16.166 9 29.499v225c0 14.667 -2.5 25.334 -7.5 32.001s-14.833 10 -29.5 10h-28v87h196v-356c0 -12.667 2.83301 -22 8.5 -28s15.167 -9 28.5 -9h26v-87h-259v87z" />
    <glyph glyph-name="iacute" unicode="&#xed;" horiz-adv-x="293" 
d="M144 701h148l-113 -180h-112zM17 87h26c14 0 24 3.16699 30 9.5s9 16.166 9 29.499v225c0 14.667 -2.5 25.334 -7.5 32.001s-14.833 10 -29.5 10h-28v87h196v-356c0 -12.667 2.83301 -22 8.5 -28s15.167 -9 28.5 -9h26v-87h-259v87z" />
    <glyph glyph-name="icircumflex" unicode="&#xee;" horiz-adv-x="293" 
d="M76 701h120l130 -193h-121l-70 120l-70 -120h-120zM17 87h26c14 0 24 3.16699 30 9.5s9 16.166 9 29.499v225c0 14.667 -2.5 25.334 -7.5 32.001s-14.833 10 -29.5 10h-28v87h196v-356c0 -12.667 2.83301 -22 8.5 -28s15.167 -9 28.5 -9h26v-87h-259v87z" />
    <glyph glyph-name="idieresis" unicode="&#xef;" horiz-adv-x="293" 
d="M-37 657h104v-109h-104v109zM188 657h105v-109h-105v109zM17 87h26c14 0 24 3.16699 30 9.5s9 16.166 9 29.499v225c0 14.667 -2.5 25.334 -7.5 32.001s-14.833 10 -29.5 10h-28v87h196v-356c0 -12.667 2.83301 -22 8.5 -28s15.167 -9 28.5 -9h26v-87h-259v87z" />
    <glyph glyph-name="eth" unicode="&#xf0;" horiz-adv-x="583" 
d="M91 38c-42 35.333 -63.001 90.3311 -63.001 164.998c0 55.333 11.167 103.333 33.5 144s53.833 72 94.5 94s88.667 33 144 33c26 0 49.833 -4.16699 71.5 -12.5s39.5 -20.5 53.5 -36.5c-0.666992 28.667 -4.16699 52.334 -10.5 71.001s-16.166 34.334 -29.499 47.001
l-88 -49l-11 44l56 31c-12 2 -25.333 3 -40 3c-56.667 0 -106 -12.333 -148 -37l-27 80c52.667 31.333 117.667 47 195 47c49.333 0 91.333 -10.333 126 -31l77 44l11 -46l-50 -28c46.667 -48 70 -126 70 -234c0 -119.333 -24 -212.833 -72 -280.5
s-121.333 -101.5 -220 -101.5c-73.333 0 -131 17.667 -173 53zM371.499 120.498c25 31.667 38.833 79.5 41.5 143.5c2 42 -6.66699 72.667 -26 92s-46.333 29 -81 29c-99.333 0 -149 -66.667 -149 -200c0 -38 8.33301 -66.167 25 -84.5s45.667 -27.5 87 -27.5
c43.333 0 77.5 15.833 102.5 47.5z" />
    <glyph glyph-name="ntilde" unicode="&#xf1;" horiz-adv-x="607" 
d="M121.5 639.5c19 25 48.8311 37.5 89.498 37.5c18 0 33.667 -2.5 47 -7.5s29.333 -12.5 48 -22.5c13.333 -7.33301 24.333 -12.833 33 -16.5s17.667 -5.5 27 -5.5c14.667 0 25.667 4.16699 33 12.5s11 21.5 11 39.5h93c0 -53.333 -9 -92.166 -27 -116.499
s-47 -36.5 -87 -36.5c-18 0 -34.167 2.5 -48.5 7.5s-30.166 12.167 -47.499 21.5c-14 7.33301 -25.333 12.666 -34 15.999s-17.667 5 -27 5c-15.333 0 -26.666 -3.83301 -33.999 -11.5s-11 -20.5 -11 -38.5h-94c0 52 9.5 90.5 28.5 115.5zM26.998 87l26 0.000976562
c14 0 24 3.16699 30 9.5s9 16.166 9 29.499v230c0 12.667 -2.83301 22 -8.5 28s-15.167 9 -28.5 9h-28v87h149l6 -66c22 27.333 47.833 47.666 77.5 60.999s64.834 20 105.501 20c56 0 97 -14.167 123 -42.5s39 -69.833 39 -124.5v-204c0 -12.667 2.83301 -22 8.5 -28
s15.167 -9 28.5 -9h26v-87h-194v327c0 29.333 -6 50.5 -18 63.5s-31.667 19.5 -59 19.5c-28.667 0 -51.834 -8.16699 -69.501 -24.5s-26.5 -39.166 -26.5 -68.499v-193c0 -12.667 2.83301 -22 8.5 -28s15.167 -9 28.5 -9h26v-87h-259v87z" />
    <glyph glyph-name="ograve" unicode="&#xf2;" horiz-adv-x="558" 
d="M113 704h149l78 -180h-114zM91.5 51c-43 44 -64.5 106.667 -64.5 188c0 82 21.333 145.167 64 189.5s105.334 66.5 188.001 66.5c83.333 0 146.166 -22.167 188.499 -66.5s63.5 -107.5 63.5 -189.5c0 -81.333 -21.5 -144 -64.5 -188s-105.5 -66 -187.5 -66
s-144.5 22 -187.5 66zM371.5 114c19.667 26.667 29.5 68.334 29.5 125.001c0 57.333 -9.83301 99.5 -29.5 126.5s-50.5 40.5 -92.5 40.5s-72.833 -13.5 -92.5 -40.5s-29.5 -69.167 -29.5 -126.5c0 -56.667 9.83301 -98.334 29.5 -125.001s50.5 -40 92.5 -40
s72.833 13.333 92.5 40z" />
    <glyph glyph-name="oacute" unicode="&#xf3;" horiz-adv-x="558" 
d="M278 704h148l-113 -180h-112zM91.5 51c-43 44 -64.5 106.667 -64.5 188c0 82 21.333 145.167 64 189.5s105.334 66.5 188.001 66.5c83.333 0 146.166 -22.167 188.499 -66.5s63.5 -107.5 63.5 -189.5c0 -81.333 -21.5 -144 -64.5 -188s-105.5 -66 -187.5 -66
s-144.5 22 -187.5 66zM371.5 114c19.667 26.667 29.5 68.334 29.5 125.001c0 57.333 -9.83301 99.5 -29.5 126.5s-50.5 40.5 -92.5 40.5s-72.833 -13.5 -92.5 -40.5s-29.5 -69.167 -29.5 -126.5c0 -56.667 9.83301 -98.334 29.5 -125.001s50.5 -40 92.5 -40
s72.833 13.333 92.5 40z" />
    <glyph glyph-name="ocircumflex" unicode="&#xf4;" horiz-adv-x="558" 
d="M220 716h120l130 -193h-121l-70 120l-70 -120h-120zM91.5 51c-43 44 -64.5 106.667 -64.5 188c0 82 21.333 145.167 64 189.5s105.334 66.5 188.001 66.5c83.333 0 146.166 -22.167 188.499 -66.5s63.5 -107.5 63.5 -189.5c0 -81.333 -21.5 -144 -64.5 -188
s-105.5 -66 -187.5 -66s-144.5 22 -187.5 66zM371.5 114c19.667 26.667 29.5 68.334 29.5 125.001c0 57.333 -9.83301 99.5 -29.5 126.5s-50.5 40.5 -92.5 40.5s-72.833 -13.5 -92.5 -40.5s-29.5 -69.167 -29.5 -126.5c0 -56.667 9.83301 -98.334 29.5 -125.001
s50.5 -40 92.5 -40s72.833 13.333 92.5 40z" />
    <glyph glyph-name="otilde" unicode="&#xf5;" horiz-adv-x="558" 
d="M102.5 639.5c19 25 48.8311 37.5 89.498 37.5c18 0 33.667 -2.5 47 -7.5s29.333 -12.5 48 -22.5c13.333 -7.33301 24.333 -12.833 33 -16.5s17.667 -5.5 27 -5.5c14.667 0 25.667 4.16699 33 12.5s11 21.5 11 39.5h93c0 -53.333 -9 -92.166 -27 -116.499
s-47 -36.5 -87 -36.5c-18 0 -34.167 2.5 -48.5 7.5s-30.166 12.167 -47.499 21.5c-14 7.33301 -25.333 12.666 -34 15.999s-17.667 5 -27 5c-15.333 0 -26.666 -3.83301 -33.999 -11.5s-11 -20.5 -11 -38.5h-94c0 52 9.5 90.5 28.5 115.5zM91.498 51
c-43 44 -64.5 106.667 -64.5 188c0 82 21.333 145.167 64 189.5s105.334 66.5 188.001 66.5c83.333 0 146.166 -22.167 188.499 -66.5s63.5 -107.5 63.5 -189.5c0 -81.333 -21.5 -144 -64.5 -188s-105.5 -66 -187.5 -66s-144.5 22 -187.5 66zM371.498 114
c19.667 26.667 29.5 68.334 29.5 125.001c0 57.333 -9.83301 99.5 -29.5 126.5s-50.5 40.5 -92.5 40.5s-72.833 -13.5 -92.5 -40.5s-29.5 -69.167 -29.5 -126.5c0 -56.667 9.83301 -98.334 29.5 -125.001s50.5 -40 92.5 -40s72.833 13.333 92.5 40z" />
    <glyph glyph-name="odieresis" unicode="&#xf6;" horiz-adv-x="558" 
d="M114 653h104v-109h-104v109zM339 653h105v-109h-105v109zM91.5 51c-43 44 -64.5 106.667 -64.5 188c0 82 21.333 145.167 64 189.5s105.334 66.5 188.001 66.5c83.333 0 146.166 -22.167 188.499 -66.5s63.5 -107.5 63.5 -189.5c0 -81.333 -21.5 -144 -64.5 -188
s-105.5 -66 -187.5 -66s-144.5 22 -187.5 66zM371.5 114c19.667 26.667 29.5 68.334 29.5 125.001c0 57.333 -9.83301 99.5 -29.5 126.5s-50.5 40.5 -92.5 40.5s-72.833 -13.5 -92.5 -40.5s-29.5 -69.167 -29.5 -126.5c0 -56.667 9.83301 -98.334 29.5 -125.001
s50.5 -40 92.5 -40s72.833 13.333 92.5 40z" />
    <glyph glyph-name="divide" unicode="&#xf7;" horiz-adv-x="413" 
d="M162 469h88v-84h-88v84zM37 348h339v-81h-339v81zM162 231h88v-85h-88v85z" />
    <glyph glyph-name="oslash" unicode="&#xf8;" horiz-adv-x="558" 
d="M168 2c-46 16.667 -81.002 45.332 -105.002 85.999s-36 91 -36 151c0 82 21.333 145.167 64 189.5s105.334 66.5 188.001 66.5c16.667 0 38.334 -2 65.001 -6l16 46h55l-21 -59c45.333 -17.333 79.5 -46.166 102.5 -86.499s34.5 -90.5 34.5 -150.5
c0 -81.333 -21.5 -144 -64.5 -188s-105.5 -66 -187.5 -66c-18.667 0 -39 1.66699 -61 5l-15 -42h-56zM311.998 401.998c-13.333 2.66699 -24.333 4 -33 4c-42 0 -72.833 -13.5 -92.5 -40.5s-29.5 -69.167 -29.5 -126.5c0 -64 15.333 -109.333 46 -136zM371.498 113.998
c19.667 26.667 29.5 68.333 29.5 125c0 64 -14.667 109 -44 135l-108 -297c8.66699 -2 18.667 -3 30 -3c42 0 72.833 13.333 92.5 40z" />
    <glyph glyph-name="ugrave" unicode="&#xf9;" horiz-adv-x="597" 
d="M133 704h149l78 -180h-114zM123 28c-28.667 28.667 -42.999 70 -42.999 124v204c0 12.667 -2.83301 22 -8.5 28s-15.167 9 -28.5 9h-26v87h194v-327c0 -29.333 6.5 -50.5 19.5 -63.5s33.167 -19.5 60.5 -19.5c28 0 50.5 8 67.5 24s25.5 39 25.5 69v193
c0 12.667 -2.83301 22 -8.5 28s-15.167 9 -28.5 9h-26v87h259v-87h-26c-14 0 -24 -3.16699 -30 -9.5s-9 -16.166 -9 -29.499v-230c0 -12.667 2.83301 -22 8.5 -28s15.167 -9 28.5 -9h28v-87h-149l-6 66c-22 -28.667 -46 -49.334 -72 -62.001s-60 -19 -102 -19
c-56.667 0 -99.334 14.333 -128.001 43z" />
    <glyph glyph-name="uacute" unicode="&#xfa;" horiz-adv-x="597" 
d="M299 704h148l-113 -180h-112zM123 28c-28.667 28.667 -42.999 70 -42.999 124v204c0 12.667 -2.83301 22 -8.5 28s-15.167 9 -28.5 9h-26v87h194v-327c0 -29.333 6.5 -50.5 19.5 -63.5s33.167 -19.5 60.5 -19.5c28 0 50.5 8 67.5 24s25.5 39 25.5 69v193
c0 12.667 -2.83301 22 -8.5 28s-15.167 9 -28.5 9h-26v87h259v-87h-26c-14 0 -24 -3.16699 -30 -9.5s-9 -16.166 -9 -29.499v-230c0 -12.667 2.83301 -22 8.5 -28s15.167 -9 28.5 -9h28v-87h-149l-6 66c-22 -28.667 -46 -49.334 -72 -62.001s-60 -19 -102 -19
c-56.667 0 -99.334 14.333 -128.001 43z" />
    <glyph glyph-name="ucircumflex" unicode="&#xfb;" horiz-adv-x="597" 
d="M232 716h120l130 -193h-121l-70 120l-70 -120h-120zM123 28c-28.667 28.667 -42.999 70 -42.999 124v204c0 12.667 -2.83301 22 -8.5 28s-15.167 9 -28.5 9h-26v87h194v-327c0 -29.333 6.5 -50.5 19.5 -63.5s33.167 -19.5 60.5 -19.5c28 0 50.5 8 67.5 24
s25.5 39 25.5 69v193c0 12.667 -2.83301 22 -8.5 28s-15.167 9 -28.5 9h-26v87h259v-87h-26c-14 0 -24 -3.16699 -30 -9.5s-9 -16.166 -9 -29.499v-230c0 -12.667 2.83301 -22 8.5 -28s15.167 -9 28.5 -9h28v-87h-149l-6 66c-22 -28.667 -46 -49.334 -72 -62.001
s-60 -19 -102 -19c-56.667 0 -99.334 14.333 -128.001 43z" />
    <glyph glyph-name="udieresis" unicode="&#xfc;" horiz-adv-x="597" 
d="M127 653h104v-109h-104v109zM352 653h105v-109h-105v109zM123 28c-28.667 28.667 -42.999 70 -42.999 124v204c0 12.667 -2.83301 22 -8.5 28s-15.167 9 -28.5 9h-26v87h194v-327c0 -29.333 6.5 -50.5 19.5 -63.5s33.167 -19.5 60.5 -19.5c28 0 50.5 8 67.5 24
s25.5 39 25.5 69v193c0 12.667 -2.83301 22 -8.5 28s-15.167 9 -28.5 9h-26v87h259v-87h-26c-14 0 -24 -3.16699 -30 -9.5s-9 -16.166 -9 -29.499v-230c0 -12.667 2.83301 -22 8.5 -28s15.167 -9 28.5 -9h28v-87h-149l-6 66c-22 -28.667 -46 -49.334 -72 -62.001
s-60 -19 -102 -19c-56.667 0 -99.334 14.333 -128.001 43z" />
    <glyph glyph-name="yacute" unicode="&#xfd;" horiz-adv-x="575" 
d="M294 704h148l-113 -180h-112zM199 -182c-34.667 12 -64.001 29.332 -88.001 51.999v75h113v-35c10 -9.33301 21.833 -15.833 35.5 -19.5s30.834 -5.5 51.501 -5.5c61.333 0 92 36 92 108v54c-36 -28 -79 -42 -129 -42c-60 0 -107.167 15.167 -141.5 45.5
s-51.5 72.833 -51.5 127.5v178c0 24.667 -12.667 37 -38 37h-26v87h197v-307c0 -55.333 28.333 -83 85 -83c29.333 0 52.5 8.33301 69.5 25s25.5 40.667 25.5 72v169c0 24.667 -12.667 37 -38 37h-26v87h198v-464c0 -65.333 -19.167 -117.666 -57.5 -156.999
s-90.166 -59 -155.499 -59c-42.667 0 -81.334 6 -116.001 18z" />
    <glyph glyph-name="thorn" unicode="&#xfe;" horiz-adv-x="623" 
d="M27 -121l26 0.00195312c14 0 24 3.16699 30 9.5s9 16.166 9 29.499v618c0 13.333 -3 23.166 -9 29.499s-15.667 9.5 -29 9.5h-17v87h186v-223c20 20.667 41.5 35.167 64.5 43.5s52.833 12.5 89.5 12.5c68 0 121.5 -21.5 160.5 -64.5s58.5 -105.167 58.5 -186.5
c0 -82.667 -18.833 -146.5 -56.5 -191.5s-91.167 -67.5 -160.5 -67.5c-34.667 0 -64 4.66699 -88 14s-46.667 25 -68 47v-130c0 -12.667 2.83301 -22 8.5 -28s15.167 -9 28.5 -9h26v-87h-259v87zM437.5 110.002c19 28.667 28.502 73.333 28.502 134
c0 59.333 -9 102.833 -27 130.5s-48 41.5 -90 41.5c-36.667 0 -66.834 -14.333 -90.501 -43s-35.5 -64 -35.5 -106v-56c0 -44 11.667 -79 35 -105s52.666 -39 87.999 -39c42 0 72.5 14.333 91.5 43z" />
    <glyph glyph-name="ydieresis" unicode="&#xff;" horiz-adv-x="575" 
d="M108 653h104v-109h-104v109zM333 653h105v-109h-105v109zM199 -182c-34.667 12 -64.001 29.332 -88.001 51.999v75h113v-35c10 -9.33301 21.833 -15.833 35.5 -19.5s30.834 -5.5 51.501 -5.5c61.333 0 92 36 92 108v54c-36 -28 -79 -42 -129 -42
c-60 0 -107.167 15.167 -141.5 45.5s-51.5 72.833 -51.5 127.5v178c0 24.667 -12.667 37 -38 37h-26v87h197v-307c0 -55.333 28.333 -83 85 -83c29.333 0 52.5 8.33301 69.5 25s25.5 40.667 25.5 72v169c0 24.667 -12.667 37 -38 37h-26v87h198v-464
c0 -65.333 -19.167 -117.666 -57.5 -156.999s-90.166 -59 -155.499 -59c-42.667 0 -81.334 6 -116.001 18z" />
    <glyph glyph-name="Amacron" unicode="&#x100;" horiz-adv-x="717" 
d="M211 801h299v-81h-299v81zM27 87h29c16 0 28 2.5 36 7.5s14.333 14.5 19 28.5l185 524h127l182 -524c4.66699 -14 11.167 -23.5 19.5 -28.5s20.833 -7.5 37.5 -7.5h28v-87h-250v87h46l-36 110h-182l-37 -110h46v-87h-250v87zM428 269l-68 207l-70 -207h138z" />
    <glyph glyph-name="amacron" unicode="&#x101;" horiz-adv-x="525" 
d="M114 625h299v-81h-299v81zM59.5 20c-28.333 23.333 -42.502 56.666 -42.502 99.999c0 48.667 15.833 84.834 47.5 108.501s77.5 37.167 137.5 40.5l123 8v59c0 25.333 -5.66699 43.333 -17 54s-30.333 16 -57 16c-30.667 0 -56.667 -6 -78 -18v-39h-113v92
c58 36 123 54 195 54c70 0 121.167 -15.333 153.5 -46s48.5 -72.667 48.5 -126v-199c0 -12.667 2.5 -22 7.5 -28s13.167 -9 24.5 -9h19v-87h-124l-13 60c-23.333 -28 -48.666 -47.5 -75.999 -58.5s-64 -16.5 -110 -16.5c-55.333 0 -97.166 11.667 -125.499 35zM295.998 93
c19.333 15.333 29 38 29 68v41l-111 -8c-28 -2 -47.333 -7.83301 -58 -17.5s-16 -25.5 -16 -47.5c0 -39.333 25 -59 75 -59c34.667 0 61.667 7.66699 81 23z" />
    <glyph glyph-name="Abreve" unicode="&#x102;" horiz-adv-x="717" 
d="M236 740c-30 27.333 -44.999 63.666 -44.999 108.999h109c0 -22 5.16699 -39 15.5 -51s25.166 -18 44.499 -18c40 0 60 23 60 69h109c0 -45.333 -15 -81.666 -45 -108.999s-71.333 -41 -124 -41s-94 13.667 -124 41zM27.001 87h29c16 0 28 2.5 36 7.5
s14.333 14.5 19 28.5l185 524h127l182 -524c4.66699 -14 11.167 -23.5 19.5 -28.5s20.833 -7.5 37.5 -7.5h28v-87h-250v87h46l-36 110h-182l-37 -110h46v-87h-250v87zM428.001 269l-68 207l-70 -207h138z" />
    <glyph glyph-name="abreve" unicode="&#x103;" horiz-adv-x="525" 
d="M138 565c-30 27.333 -44.999 63.666 -44.999 108.999h109c0 -22 5.16699 -39 15.5 -51s25.166 -18 44.499 -18c40 0 60 23 60 69h109c0 -45.333 -15 -81.666 -45 -108.999s-71.333 -41 -124 -41s-94 13.667 -124 41zM59.501 20
c-28.333 23.333 -42.502 56.666 -42.502 99.999c0 48.667 15.833 84.834 47.5 108.501s77.5 37.167 137.5 40.5l123 8v59c0 25.333 -5.66699 43.333 -17 54s-30.333 16 -57 16c-30.667 0 -56.667 -6 -78 -18v-39h-113v92c58 36 123 54 195 54
c70 0 121.167 -15.333 153.5 -46s48.5 -72.667 48.5 -126v-199c0 -12.667 2.5 -22 7.5 -28s13.167 -9 24.5 -9h19v-87h-124l-13 60c-23.333 -28 -48.666 -47.5 -75.999 -58.5s-64 -16.5 -110 -16.5c-55.333 0 -97.166 11.667 -125.499 35zM295.999 93
c19.333 15.333 29 38 29 68v41l-111 -8c-28 -2 -47.333 -7.83301 -58 -17.5s-16 -25.5 -16 -47.5c0 -39.333 25 -59 75 -59c34.667 0 61.667 7.66699 81 23z" />
    <glyph glyph-name="Aogonek" unicode="&#x104;" horiz-adv-x="717" 
d="M565 -39.5c-8 -13 -11.998 -27.5 -11.998 -43.5c0 -28 11.333 -42 34 -42c12 0 25 2.66699 39 8v-74c-20.667 -14.667 -47.334 -22 -80.001 -22c-30.667 0 -55.834 8.33301 -75.501 25s-29.5 41.667 -29.5 75c0 22 4.66699 43 14 63s22 36.667 38 50h-53v87h46l-36 110
h-182l-37 -110h46v-87h-250v87h29c16 0 28 2.5 36 7.5s14.333 14.5 19 28.5l185 524h127l182 -524c4.66699 -14 11.167 -23.5 19.5 -28.5s20.833 -7.5 37.5 -7.5h28v-87h-88c-16.667 -13.333 -29 -26.5 -37 -39.5zM428.002 269l-68 207l-70 -207h138z" />
    <glyph glyph-name="aogonek" unicode="&#x105;" horiz-adv-x="525" 
d="M518 -117v-74c-20.667 -14.667 -47.334 -22 -80.001 -22c-30.667 0 -55.834 8.33301 -75.501 25s-29.5 41.667 -29.5 75c0 22 4.66699 43 14 63s22 36.667 38 50h-1l-13 60c-23.333 -28 -48.666 -47.5 -75.999 -58.5s-64 -16.5 -110 -16.5
c-55.333 0 -97.166 11.667 -125.499 35s-42.5 56.666 -42.5 99.999c0 48.667 15.833 84.834 47.5 108.501s77.5 37.167 137.5 40.5l123 8v59c0 25.333 -5.66699 43.333 -17 54s-30.333 16 -57 16c-30.667 0 -56.667 -6 -78 -18v-39h-113v92c58 36 123 54 195 54
c70 0 121.167 -15.333 153.5 -46s48.5 -72.667 48.5 -126v-199c0 -12.667 2.5 -22 7.5 -28s13.167 -9 24.5 -9h19v-87h-14c-16.667 -13.333 -29 -26.5 -37 -39.5s-12 -27.5 -12 -43.5c0 -28 11.333 -42 34 -42c12 0 25 2.66699 39 8zM325 202l-111 -8
c-28 -2 -47.333 -7.83301 -58 -17.5s-16 -25.5 -16 -47.5c0 -39.333 25 -59 75 -59c34.667 0 61.667 7.66699 81 23s29 38 29 68v41z" />
    <glyph glyph-name="Cacute" unicode="&#x106;" horiz-adv-x="603" 
d="M374 879h148l-113 -180h-112zM180 27c-50.667 28 -88.8301 67.165 -114.497 117.498s-38.5 108.5 -38.5 174.5c0 66.667 11.667 125.834 35 177.501s59.166 92.167 107.499 121.5s108.5 44 180.5 44c48.667 0 90 -4.66699 124 -14s67.333 -24.333 100 -45v-114h-131v69
c-12.667 5.33301 -25.334 9.16602 -38.001 11.499s-28.667 3.5 -48 3.5c-64.667 0 -114.167 -22.333 -148.5 -67s-51.5 -107 -51.5 -187c0 -78 18.5 -138.333 55.5 -181s89.833 -64 158.5 -64c30 0 57.333 3.33301 82 10s50 17.334 76 32.001l47 -74
c-32 -21.333 -63.833 -36.166 -95.5 -44.499s-70.167 -12.5 -115.5 -12.5c-72.667 0 -134.334 14 -185.001 42z" />
    <glyph glyph-name="cacute" unicode="&#x107;" horiz-adv-x="520" 
d="M305 704h148l-113 -180h-112zM154.5 13.5c-39.667 19 -70.8311 47.334 -93.498 85.001s-34 83.167 -34 136.5c0 82.667 23.333 146.667 70 192s110.667 68 192 68c45.333 0 83 -5 113 -15s59.333 -26 88 -48v-105h-113v58c-13.333 7.33301 -26.5 12.666 -39.5 15.999
s-29.167 5 -48.5 5c-38.667 0 -70.334 -14.333 -95.001 -43s-37 -71.334 -37 -128.001c0 -54 14.333 -94.333 43 -121s66.667 -40 114 -40c27.333 0 51.833 3.33301 73.5 10s42.167 16.667 61.5 30l44 -72c-30 -21.333 -59.667 -36.166 -89 -44.499
s-67.333 -12.5 -114 -12.5c-50.667 0 -95.834 9.5 -135.501 28.5z" />
    <glyph glyph-name="Ccircumflex" unicode="&#x108;" horiz-adv-x="603" 
d="M293 893h120l130 -193h-121l-70 120l-70 -120h-120zM180 27c-50.667 28 -88.8301 67.165 -114.497 117.498s-38.5 108.5 -38.5 174.5c0 66.667 11.667 125.834 35 177.501s59.166 92.167 107.499 121.5s108.5 44 180.5 44c48.667 0 90 -4.66699 124 -14
s67.333 -24.333 100 -45v-114h-131v69c-12.667 5.33301 -25.334 9.16602 -38.001 11.499s-28.667 3.5 -48 3.5c-64.667 0 -114.167 -22.333 -148.5 -67s-51.5 -107 -51.5 -187c0 -78 18.5 -138.333 55.5 -181s89.833 -64 158.5 -64c30 0 57.333 3.33301 82 10
s50 17.334 76 32.001l47 -74c-32 -21.333 -63.833 -36.166 -95.5 -44.499s-70.167 -12.5 -115.5 -12.5c-72.667 0 -134.334 14 -185.001 42z" />
    <glyph glyph-name="ccircumflex" unicode="&#x109;" horiz-adv-x="520" 
d="M216 716h120l130 -193h-121l-70 120l-70 -120h-120zM154.5 13.5c-39.667 19 -70.8311 47.334 -93.498 85.001s-34 83.167 -34 136.5c0 82.667 23.333 146.667 70 192s110.667 68 192 68c45.333 0 83 -5 113 -15s59.333 -26 88 -48v-105h-113v58
c-13.333 7.33301 -26.5 12.666 -39.5 15.999s-29.167 5 -48.5 5c-38.667 0 -70.334 -14.333 -95.001 -43s-37 -71.334 -37 -128.001c0 -54 14.333 -94.333 43 -121s66.667 -40 114 -40c27.333 0 51.833 3.33301 73.5 10s42.167 16.667 61.5 30l44 -72
c-30 -21.333 -59.667 -36.166 -89 -44.499s-67.333 -12.5 -114 -12.5c-50.667 0 -95.834 9.5 -135.501 28.5z" />
    <glyph glyph-name="Cdotaccent" unicode="&#x10a;" horiz-adv-x="603" 
d="M291 828h104v-109h-104v109zM180 27c-50.667 28 -88.8301 67.165 -114.497 117.498s-38.5 108.5 -38.5 174.5c0 66.667 11.667 125.834 35 177.501s59.166 92.167 107.499 121.5s108.5 44 180.5 44c48.667 0 90 -4.66699 124 -14s67.333 -24.333 100 -45v-114h-131v69
c-12.667 5.33301 -25.334 9.16602 -38.001 11.499s-28.667 3.5 -48 3.5c-64.667 0 -114.167 -22.333 -148.5 -67s-51.5 -107 -51.5 -187c0 -78 18.5 -138.333 55.5 -181s89.833 -64 158.5 -64c30 0 57.333 3.33301 82 10s50 17.334 76 32.001l47 -74
c-32 -21.333 -63.833 -36.166 -95.5 -44.499s-70.167 -12.5 -115.5 -12.5c-72.667 0 -134.334 14 -185.001 42z" />
    <glyph glyph-name="cdotaccent" unicode="&#x10b;" horiz-adv-x="520" 
d="M223 651h104v-109h-104v109zM154.5 13.5c-39.667 19 -70.8311 47.334 -93.498 85.001s-34 83.167 -34 136.5c0 82.667 23.333 146.667 70 192s110.667 68 192 68c45.333 0 83 -5 113 -15s59.333 -26 88 -48v-105h-113v58c-13.333 7.33301 -26.5 12.666 -39.5 15.999
s-29.167 5 -48.5 5c-38.667 0 -70.334 -14.333 -95.001 -43s-37 -71.334 -37 -128.001c0 -54 14.333 -94.333 43 -121s66.667 -40 114 -40c27.333 0 51.833 3.33301 73.5 10s42.167 16.667 61.5 30l44 -72c-30 -21.333 -59.667 -36.166 -89 -44.499
s-67.333 -12.5 -114 -12.5c-50.667 0 -95.834 9.5 -135.501 28.5z" />
    <glyph glyph-name="Ccaron" unicode="&#x10c;" horiz-adv-x="603" 
d="M156 893h120l70 -120l70 120h121l-130 -193h-120zM180 27c-50.667 28 -88.8301 67.165 -114.497 117.498s-38.5 108.5 -38.5 174.5c0 66.667 11.667 125.834 35 177.501s59.166 92.167 107.499 121.5s108.5 44 180.5 44c48.667 0 90 -4.66699 124 -14
s67.333 -24.333 100 -45v-114h-131v69c-12.667 5.33301 -25.334 9.16602 -38.001 11.499s-28.667 3.5 -48 3.5c-64.667 0 -114.167 -22.333 -148.5 -67s-51.5 -107 -51.5 -187c0 -78 18.5 -138.333 55.5 -181s89.833 -64 158.5 -64c30 0 57.333 3.33301 82 10
s50 17.334 76 32.001l47 -74c-32 -21.333 -63.833 -36.166 -95.5 -44.499s-70.167 -12.5 -115.5 -12.5c-72.667 0 -134.334 14 -185.001 42z" />
    <glyph glyph-name="ccaron" unicode="&#x10d;" horiz-adv-x="520" 
d="M96 716h120l70 -120l70 120h121l-130 -193h-120zM154.5 13.5c-39.667 19 -70.8311 47.334 -93.498 85.001s-34 83.167 -34 136.5c0 82.667 23.333 146.667 70 192s110.667 68 192 68c45.333 0 83 -5 113 -15s59.333 -26 88 -48v-105h-113v58
c-13.333 7.33301 -26.5 12.666 -39.5 15.999s-29.167 5 -48.5 5c-38.667 0 -70.334 -14.333 -95.001 -43s-37 -71.334 -37 -128.001c0 -54 14.333 -94.333 43 -121s66.667 -40 114 -40c27.333 0 51.833 3.33301 73.5 10s42.167 16.667 61.5 30l44 -72
c-30 -21.333 -59.667 -36.166 -89 -44.499s-67.333 -12.5 -114 -12.5c-50.667 0 -95.834 9.5 -135.501 28.5z" />
    <glyph glyph-name="Dcaron" unicode="&#x10e;" horiz-adv-x="631" 
d="M100 893h120l70 -120l70 120h121l-130 -193h-120zM27 87l26 0.000976562c14 0 24 3.16699 30 9.5s9 16.166 9 29.499v397c0 12.667 -3 22 -9 28s-16 9 -30 9h-26v87h300c93.333 0 162.833 -28.167 208.5 -84.5s68.5 -136.833 68.5 -241.5
c0 -96 -23.5 -173.5 -70.5 -232.5s-115.833 -88.5 -206.5 -88.5h-300v87zM308 87.001c60 0 102.833 19.332 128.5 57.999s38.5 97.334 38.5 176.001c0 80.667 -12.667 140.667 -38 180s-68.333 59 -129 59h-88v-473h88z" />
    <glyph glyph-name="dcaron" unicode="&#x10f;" horiz-adv-x="758" 
d="M606 721h145l-77 -211h-111zM84 49c-38 42 -57.002 102.332 -57.002 180.999c0 84.667 18.833 150 56.5 196s91.834 69 162.501 69c36.667 0 66.334 -4.66699 89.001 -14s43.667 -25.333 63 -48v99c0 14.667 -2.5 25.334 -7.5 32.001s-14.833 10 -29.5 10h-18v88h184
v-541c0 -14.667 2.5 -24.667 7.5 -30s13.833 -8 26.5 -8h16v-83h-150l-8 67c-21.333 -28 -46 -48.5 -74 -61.5s-62.667 -19.5 -104 -19.5c-66.667 0 -119 21 -157 63zM360.998 107.999c21.333 28.667 32.002 64.668 32.002 108.001v49c0 46 -10 82 -30 108s-49 39 -87 39
c-42 0 -72.5 -14.833 -91.5 -44.5s-28.5 -74.834 -28.5 -135.501c0 -58.667 9.16699 -101.167 27.5 -127.5s48.166 -39.5 89.499 -39.5c37.333 0 66.666 14.333 87.999 43z" />
    <glyph glyph-name="Dcroat" unicode="&#x110;" horiz-adv-x="631" 
d="M27 87l26 0.000976562c14 0 24 3.16699 30 9.5s9 16.166 9 29.499v152h-65v89h65v156c0 12.667 -3 22 -9 28s-16 9 -30 9h-26v87h300c93.333 0 162.833 -28.167 208.5 -84.5s68.5 -136.833 68.5 -241.5c0 -96 -23.5 -173.5 -70.5 -232.5s-115.833 -88.5 -206.5 -88.5
h-300v87zM308 87.001c60 0 102.833 19.332 128.5 57.999s38.5 97.334 38.5 176.001c0 80.667 -12.667 140.667 -38 180s-68.333 59 -129 59h-88v-193h126v-89h-126v-191h88z" />
    <glyph glyph-name="dcroat" unicode="&#x111;" horiz-adv-x="594" 
d="M84.5 49c-38.333 42 -57.5 102.333 -57.5 181c0 84.667 18.833 150 56.5 196s92.167 69 163.5 69c36.667 0 66.334 -4.66699 89.001 -14s43.667 -25.333 63 -48v83h-140v85h140c-1.33301 6.66699 -3.83301 11.5 -7.5 14.5s-9.83398 4.5 -18.501 4.5l-11 10v58h164v-87h50
v-85h-50v-395c0 -14.667 2.5 -24.667 7.5 -30s13.833 -8 26.5 -8h16v-83h-148l-8 67c-21.333 -28 -46 -48.5 -74 -61.5s-62.667 -19.5 -104 -19.5c-66.667 0 -119.167 21 -157.5 63zM362 108c21.333 28.667 32.001 64.668 32.001 108.001v49c0 46 -10 82 -30 108
s-49 39 -87 39c-42 0 -72.333 -14.833 -91 -44.5s-28 -74.834 -28 -135.501c0 -58.667 9 -101.167 27 -127.5s47.667 -39.5 89 -39.5c37.333 0 66.666 14.333 87.999 43z" />
    <glyph glyph-name="Emacron" unicode="&#x112;" horiz-adv-x="546" 
d="M132 801h299v-81h-299v81zM27 87l26.001 0.000976562c14 0 24 3.16699 30 9.5s9 16.166 9 29.499v397c0 12.667 -3 22 -9 28s-16 9 -30 9h-26v87h492v-142h-120v18c0 24.667 -13 37 -39 37h-136v-192h154v-88h-154v-193h136c13.333 0 23.166 3 29.499 9
s9.5 15.667 9.5 29v18h120v-143h-492v87z" />
    <glyph glyph-name="emacron" unicode="&#x113;" horiz-adv-x="541" 
d="M129 625h299v-81h-299v81zM95.5 48.5c-45.667 42.333 -68.499 104.501 -68.499 186.501c0 86.667 21.667 151.667 65 195s105 65 185 65c77.333 0 136.166 -21.5 176.499 -64.5s60.5 -101.167 60.5 -174.5v-47h-357c0 -46.667 11 -80.834 33 -102.501
s53.667 -32.5 95 -32.5s74.333 5.33301 99 16v35h113v-76c-50.667 -42.667 -121.667 -64 -213 -64c-80 0 -142.833 21.167 -188.5 63.5zM384.001 284.001c0 41.333 -9 72 -27 92s-45.333 30 -82 30c-38 0 -67.167 -10.5 -87.5 -31.5s-30.5 -51.167 -30.5 -90.5h227z" />
    <glyph glyph-name="Ebreve" unicode="&#x114;" horiz-adv-x="546" 
d="M156 740c-30 27.333 -44.999 63.666 -44.999 108.999h109c0 -22 5.16699 -39 15.5 -51s25.166 -18 44.499 -18c40 0 60 23 60 69h109c0 -45.333 -15 -81.666 -45 -108.999s-71.333 -41 -124 -41s-94 13.667 -124 41zM27.001 87l26.001 0.000976562
c14 0 24 3.16699 30 9.5s9 16.166 9 29.499v397c0 12.667 -3 22 -9 28s-16 9 -30 9h-26v87h492v-142h-120v18c0 24.667 -13 37 -39 37h-136v-192h154v-88h-154v-193h136c13.333 0 23.166 3 29.499 9s9.5 15.667 9.5 29v18h120v-143h-492v87z" />
    <glyph glyph-name="ebreve" unicode="&#x115;" horiz-adv-x="541" 
d="M150 565c-30 27.333 -44.999 63.666 -44.999 108.999h109c0 -22 5.16699 -39 15.5 -51s25.166 -18 44.499 -18c40 0 60 23 60 69h109c0 -45.333 -15 -81.666 -45 -108.999s-71.333 -41 -124 -41s-94 13.667 -124 41zM95.501 48.5
c-45.667 42.333 -68.499 104.501 -68.499 186.501c0 86.667 21.667 151.667 65 195s105 65 185 65c77.333 0 136.166 -21.5 176.499 -64.5s60.5 -101.167 60.5 -174.5v-47h-357c0 -46.667 11 -80.834 33 -102.501s53.667 -32.5 95 -32.5s74.333 5.33301 99 16v35h113v-76
c-50.667 -42.667 -121.667 -64 -213 -64c-80 0 -142.833 21.167 -188.5 63.5zM384.002 284.001c0 41.333 -9 72 -27 92s-45.333 30 -82 30c-38 0 -67.167 -10.5 -87.5 -31.5s-30.5 -51.167 -30.5 -90.5h227z" />
    <glyph glyph-name="Edotaccent" unicode="&#x116;" horiz-adv-x="546" 
d="M218 828h104v-109h-104v109zM27 87l26.001 0.000976562c14 0 24 3.16699 30 9.5s9 16.166 9 29.499v397c0 12.667 -3 22 -9 28s-16 9 -30 9h-26v87h492v-142h-120v18c0 24.667 -13 37 -39 37h-136v-192h154v-88h-154v-193h136c13.333 0 23.166 3 29.499 9
s9.5 15.667 9.5 29v18h120v-143h-492v87z" />
    <glyph glyph-name="edotaccent" unicode="&#x117;" horiz-adv-x="541" 
d="M223 653h104v-109h-104v109zM95.5 48.5c-45.667 42.333 -68.499 104.501 -68.499 186.501c0 86.667 21.667 151.667 65 195s105 65 185 65c77.333 0 136.166 -21.5 176.499 -64.5s60.5 -101.167 60.5 -174.5v-47h-357c0 -46.667 11 -80.834 33 -102.501
s53.667 -32.5 95 -32.5s74.333 5.33301 99 16v35h113v-76c-50.667 -42.667 -121.667 -64 -213 -64c-80 0 -142.833 21.167 -188.5 63.5zM384.001 284.001c0 41.333 -9 72 -27 92s-45.333 30 -82 30c-38 0 -67.167 -10.5 -87.5 -31.5s-30.5 -51.167 -30.5 -90.5h227z" />
    <glyph glyph-name="Eogonek" unicode="&#x118;" horiz-adv-x="546" 
d="M399 505l0.00292969 18.001c0 24.667 -13 37 -39 37h-136v-192h154v-88h-154v-193h136c13.333 0 23.166 3 29.499 9s9.5 15.667 9.5 29v18h120v-143h-24c-16.667 -13.333 -29 -26.5 -37 -39.5s-12 -27.5 -12 -43.5c0 -28 11.333 -42 34 -42c12 0 25 2.66699 39 8v-74
c-20.667 -14.667 -47.334 -22 -80.001 -22c-30.667 0 -55.834 8.33301 -75.501 25s-29.5 41.667 -29.5 75c0 22 4.66699 43 14 63s22 36.667 38 50h-359v87h26c14 0 24 3.16699 30 9.5s9 16.166 9 29.499v397c0 12.667 -3 22 -9 28s-16 9 -30 9h-26v87h492v-142h-120z" />
    <glyph glyph-name="eogonek" unicode="&#x119;" horiz-adv-x="541" 
d="M270.5 -186.5c-18.333 17 -27.499 41.502 -27.499 73.502c0 18 3.16699 35.5 9.5 52.5s15.5 32.167 27.5 45.5c-78.667 0.666992 -140.5 22 -185.5 64s-67.5 104 -67.5 186c0 86.667 21.667 151.667 65 195s105 65 185 65c77.333 0 136.166 -21.5 176.499 -64.5
s60.5 -101.167 60.5 -174.5v-47h-357c0 -46.667 11 -80.834 33 -102.501s53.667 -32.5 95 -32.5s74.333 5.33301 99 16v35h113v-76c-25.333 -21.333 -55 -37.333 -89 -48l-3 -1c-17.333 -13.333 -30 -26.5 -38 -39.5s-12 -27.5 -12 -43.5c0 -28 11.333 -42 34 -42
c12.667 0 26 2.66699 40 8v-74c-13.333 -8.66699 -26.5 -14.334 -39.5 -17.001s-29.167 -4 -48.5 -4c-28.667 0 -52.167 8.5 -70.5 25.5zM384.001 284.002c0 41.333 -9 72 -27 92s-45.333 30 -82 30c-38 0 -67.167 -10.5 -87.5 -31.5s-30.5 -51.167 -30.5 -90.5h227z" />
    <glyph glyph-name="Ecaron" unicode="&#x11a;" horiz-adv-x="546" 
d="M86 893h120l70 -120l70 120h121l-130 -193h-120zM27 87l26.001 0.000976562c14 0 24 3.16699 30 9.5s9 16.166 9 29.499v397c0 12.667 -3 22 -9 28s-16 9 -30 9h-26v87h492v-142h-120v18c0 24.667 -13 37 -39 37h-136v-192h154v-88h-154v-193h136
c13.333 0 23.166 3 29.499 9s9.5 15.667 9.5 29v18h120v-143h-492v87z" />
    <glyph glyph-name="ecaron" unicode="&#x11b;" horiz-adv-x="541" 
d="M85 716h120l70 -120l70 120h121l-130 -193h-120zM95.5 48.5c-45.667 42.333 -68.499 104.501 -68.499 186.501c0 86.667 21.667 151.667 65 195s105 65 185 65c77.333 0 136.166 -21.5 176.499 -64.5s60.5 -101.167 60.5 -174.5v-47h-357
c0 -46.667 11 -80.834 33 -102.501s53.667 -32.5 95 -32.5s74.333 5.33301 99 16v35h113v-76c-50.667 -42.667 -121.667 -64 -213 -64c-80 0 -142.833 21.167 -188.5 63.5zM384.001 284.001c0 41.333 -9 72 -27 92s-45.333 30 -82 30c-38 0 -67.167 -10.5 -87.5 -31.5
s-30.5 -51.167 -30.5 -90.5h227z" />
    <glyph glyph-name="Gcircumflex" unicode="&#x11c;" horiz-adv-x="625" 
d="M278 893h120l130 -193h-121l-70 120l-70 -120h-120zM176.5 27.5c-49 28.333 -86.166 67.5 -111.499 117.5s-38 108 -38 174c0 66.667 11.667 125.834 35 177.501s59.166 92.167 107.499 121.5s108.5 44 180.5 44c48.667 0 90 -4.66699 124 -14s67.333 -24.333 100 -45
v-114h-131v69c-12.667 5.33301 -25.334 9.16602 -38.001 11.499s-28.667 3.5 -48 3.5c-64.667 0 -114.167 -22.333 -148.5 -67s-51.5 -107 -51.5 -187c0 -77.333 17.833 -137.5 53.5 -180.5s85.834 -64.5 150.501 -64.5c40 0 75 5.33301 105 16v171h-131v88h263v-297
c-33.333 -23.333 -69.833 -40.333 -109.5 -51s-84.167 -16 -133.5 -16c-70 0 -129.5 14.167 -178.5 42.5z" />
    <glyph glyph-name="gcircumflex" unicode="&#x11d;" horiz-adv-x="593" 
d="M215 716h120l130 -193h-121l-70 120l-70 -120h-120zM114 -132l-0.000976562 78.9971h113v-41c11.333 -6.66699 23.5 -11.167 36.5 -13.5s29.167 -3.5 48.5 -3.5c58 0 87 30 87 90v77c-18.667 -21.333 -40 -36.833 -64 -46.5s-53.667 -14.5 -89 -14.5
c-69.333 0 -123.166 21.333 -161.499 64s-57.5 105.334 -57.5 188.001c0 52.667 9.66699 97.667 29 135s46.166 65.5 80.499 84.5s73.833 28.5 118.5 28.5c39.333 0 71.5 -6.5 96.5 -19.5s47.5 -34.167 67.5 -63.5l9 68h148v-84h-17c-12.667 0 -21.167 -3.16699 -25.5 -9.5
s-6.5 -17.166 -6.5 -32.499v-353c0 -61.333 -18.333 -110.166 -55 -146.499s-88.667 -54.5 -156 -54.5c-83.333 0 -150.666 22.667 -201.999 68zM363.499 113.997c19.667 26 29.5 61.999 29.5 107.999v41c0 44.667 -10 81.334 -30 110.001s-49 43 -87 43
c-42 0 -72.5 -13.667 -91.5 -41s-28.5 -70 -28.5 -128c0 -60 9.5 -103.667 28.5 -131s49.833 -41 92.5 -41c38 0 66.833 13 86.5 39z" />
    <glyph glyph-name="Gbreve" unicode="&#x11e;" horiz-adv-x="625" 
d="M218 740c-30 27.333 -44.999 63.666 -44.999 108.999h109c0 -22 5.16699 -39 15.5 -51s25.166 -18 44.499 -18c40 0 60 23 60 69h109c0 -45.333 -15 -81.666 -45 -108.999s-71.333 -41 -124 -41s-94 13.667 -124 41zM176.501 27.5
c-49 28.333 -86.166 67.5 -111.499 117.5s-38 108 -38 174c0 66.667 11.667 125.834 35 177.501s59.166 92.167 107.499 121.5s108.5 44 180.5 44c48.667 0 90 -4.66699 124 -14s67.333 -24.333 100 -45v-114h-131v69c-12.667 5.33301 -25.334 9.16602 -38.001 11.499
s-28.667 3.5 -48 3.5c-64.667 0 -114.167 -22.333 -148.5 -67s-51.5 -107 -51.5 -187c0 -77.333 17.833 -137.5 53.5 -180.5s85.834 -64.5 150.501 -64.5c40 0 75 5.33301 105 16v171h-131v88h263v-297c-33.333 -23.333 -69.833 -40.333 -109.5 -51s-84.167 -16 -133.5 -16
c-70 0 -129.5 14.167 -178.5 42.5z" />
    <glyph glyph-name="gbreve" unicode="&#x11f;" horiz-adv-x="593" 
d="M169 565c-30 27.333 -44.999 63.666 -44.999 108.999h109c0 -22 5.16699 -39 15.5 -51s25.166 -18 44.499 -18c40 0 60 23 60 69h109c0 -45.333 -15 -81.666 -45 -108.999s-71.333 -41 -124 -41s-94 13.667 -124 41zM114.001 -132l-0.000976562 78.9971h113v-41
c11.333 -6.66699 23.5 -11.167 36.5 -13.5s29.167 -3.5 48.5 -3.5c58 0 87 30 87 90v77c-18.667 -21.333 -40 -36.833 -64 -46.5s-53.667 -14.5 -89 -14.5c-69.333 0 -123.166 21.333 -161.499 64s-57.5 105.334 -57.5 188.001c0 52.667 9.66699 97.667 29 135
s46.166 65.5 80.499 84.5s73.833 28.5 118.5 28.5c39.333 0 71.5 -6.5 96.5 -19.5s47.5 -34.167 67.5 -63.5l9 68h148v-84h-17c-12.667 0 -21.167 -3.16699 -25.5 -9.5s-6.5 -17.166 -6.5 -32.499v-353c0 -61.333 -18.333 -110.166 -55 -146.499s-88.667 -54.5 -156 -54.5
c-83.333 0 -150.666 22.667 -201.999 68zM363.5 113.997c19.667 26 29.5 61.999 29.5 107.999v41c0 44.667 -10 81.334 -30 110.001s-49 43 -87 43c-42 0 -72.5 -13.667 -91.5 -41s-28.5 -70 -28.5 -128c0 -60 9.5 -103.667 28.5 -131s49.833 -41 92.5 -41
c38 0 66.833 13 86.5 39z" />
    <glyph glyph-name="Gdotaccent" unicode="&#x120;" horiz-adv-x="625" 
d="M293 820h104v-109h-104v109zM176.5 27.5c-49 28.333 -86.166 67.5 -111.499 117.5s-38 108 -38 174c0 66.667 11.667 125.834 35 177.501s59.166 92.167 107.499 121.5s108.5 44 180.5 44c48.667 0 90 -4.66699 124 -14s67.333 -24.333 100 -45v-114h-131v69
c-12.667 5.33301 -25.334 9.16602 -38.001 11.499s-28.667 3.5 -48 3.5c-64.667 0 -114.167 -22.333 -148.5 -67s-51.5 -107 -51.5 -187c0 -77.333 17.833 -137.5 53.5 -180.5s85.834 -64.5 150.501 -64.5c40 0 75 5.33301 105 16v171h-131v88h263v-297
c-33.333 -23.333 -69.833 -40.333 -109.5 -51s-84.167 -16 -133.5 -16c-70 0 -129.5 14.167 -178.5 42.5z" />
    <glyph glyph-name="gdotaccent" unicode="&#x121;" horiz-adv-x="593" 
d="M229 641h104v-109h-104v109zM114 -132l-0.000976562 78.9971h113v-41c11.333 -6.66699 23.5 -11.167 36.5 -13.5s29.167 -3.5 48.5 -3.5c58 0 87 30 87 90v77c-18.667 -21.333 -40 -36.833 -64 -46.5s-53.667 -14.5 -89 -14.5c-69.333 0 -123.166 21.333 -161.499 64
s-57.5 105.334 -57.5 188.001c0 52.667 9.66699 97.667 29 135s46.166 65.5 80.499 84.5s73.833 28.5 118.5 28.5c39.333 0 71.5 -6.5 96.5 -19.5s47.5 -34.167 67.5 -63.5l9 68h148v-84h-17c-12.667 0 -21.167 -3.16699 -25.5 -9.5s-6.5 -17.166 -6.5 -32.499v-353
c0 -61.333 -18.333 -110.166 -55 -146.499s-88.667 -54.5 -156 -54.5c-83.333 0 -150.666 22.667 -201.999 68zM363.499 113.997c19.667 26 29.5 61.999 29.5 107.999v41c0 44.667 -10 81.334 -30 110.001s-49 43 -87 43c-42 0 -72.5 -13.667 -91.5 -41
s-28.5 -70 -28.5 -128c0 -60 9.5 -103.667 28.5 -131s49.833 -41 92.5 -41c38 0 66.833 13 86.5 39z" />
    <glyph glyph-name="Gcommaaccent" unicode="&#x122;" horiz-adv-x="625" 
d="M176.5 27.5c-49 28.333 -86.166 67.5 -111.499 117.5s-38 108 -38 174c0 66.667 11.667 125.834 35 177.501s59.166 92.167 107.499 121.5s108.5 44 180.5 44c48.667 0 90 -4.66699 124 -14s67.333 -24.333 100 -45v-114h-131v69
c-12.667 5.33301 -25.334 9.16602 -38.001 11.499s-28.667 3.5 -48 3.5c-64.667 0 -114.167 -22.333 -148.5 -67s-51.5 -107 -51.5 -187c0 -77.333 17.833 -137.5 53.5 -180.5s85.834 -64.5 150.501 -64.5c40 0 75 5.33301 105 16v171h-131v88h263v-297
c-33.333 -23.333 -69.833 -40.333 -109.5 -51s-84.167 -16 -133.5 -16c-70 0 -129.5 14.167 -178.5 42.5zM305.001 -49h141l-65 -214h-108z" />
    <glyph glyph-name="gcommaaccent" unicode="&#x123;" horiz-adv-x="593" 
d="M257 759h108l-32 -214h-141zM114 -132l-0.000976562 78.9971h113v-41c11.333 -6.66699 23.5 -11.167 36.5 -13.5s29.167 -3.5 48.5 -3.5c58 0 87 30 87 90v77c-18.667 -21.333 -40 -36.833 -64 -46.5s-53.667 -14.5 -89 -14.5c-69.333 0 -123.166 21.333 -161.499 64
s-57.5 105.334 -57.5 188.001c0 52.667 9.66699 97.667 29 135s46.166 65.5 80.499 84.5s73.833 28.5 118.5 28.5c39.333 0 71.5 -6.5 96.5 -19.5s47.5 -34.167 67.5 -63.5l9 68h148v-84h-17c-12.667 0 -21.167 -3.16699 -25.5 -9.5s-6.5 -17.166 -6.5 -32.499v-353
c0 -61.333 -18.333 -110.166 -55 -146.499s-88.667 -54.5 -156 -54.5c-83.333 0 -150.666 22.667 -201.999 68zM363.499 113.997c19.667 26 29.5 61.999 29.5 107.999v41c0 44.667 -10 81.334 -30 110.001s-49 43 -87 43c-42 0 -72.5 -13.667 -91.5 -41
s-28.5 -70 -28.5 -128c0 -60 9.5 -103.667 28.5 -131s49.833 -41 92.5 -41c38 0 66.833 13 86.5 39z" />
    <glyph glyph-name="Hcircumflex" unicode="&#x124;" horiz-adv-x="685" 
d="M283 893h120l130 -193h-121l-70 120l-70 -120h-120zM27 87l26 -0.000976562c14 0 23.833 3 29.5 9s8.5 16 8.5 30v397c0 12.667 -2.83301 22 -8.5 28s-15.5 9 -29.5 9h-26v87h254v-87h-20c-13.333 0 -22.833 -3 -28.5 -9s-8.5 -15.333 -8.5 -28v-155h237v154
c0 13.333 -2.83301 23 -8.5 29s-15.167 9 -28.5 9h-21v87h255v-87h-26c-14 0 -24 -3 -30 -9s-9 -15.333 -9 -28v-397c0 -13.333 3 -23.166 9 -29.499s16 -9.5 30 -9.5h26v-87h-255v87h21c12.667 0 22 3.16699 28 9.5s9 16.166 9 29.499v155h-237v-155
c0 -13.333 3 -23.166 9 -29.499s15.333 -9.5 28 -9.5h20v-87h-254v87z" />
    <glyph glyph-name="hcircumflex" unicode="&#x125;" horiz-adv-x="609" 
d="M159 893h120l130 -193h-121l-70 120l-70 -120h-120zM27 87l26.001 -0.00195312c14 0 24 3.16699 30 9.5s9 16.166 9 29.499v407c0 14.667 -2.5 25.334 -7.5 32.001s-14.833 10 -29.5 10h-28v87h183v-227c25.333 22.667 50.166 38.334 74.499 47.001s54.5 13 90.5 13
c53.333 0 92.333 -14.167 117 -42.5s37 -69.833 37 -124.5v-204c0 -12.667 2.83301 -22 8.5 -28s15.167 -9 28.5 -9h26v-87h-194v327c0 29.333 -6.16699 50.5 -18.5 63.5s-31.833 19.5 -58.5 19.5c-28.667 0 -52.167 -8.16699 -70.5 -24.5s-27.5 -39.166 -27.5 -68.499v-193
c0 -12.667 2.83301 -22 8.5 -28s15.167 -9 28.5 -9h26v-87h-259v87z" />
    <glyph glyph-name="Hbar" unicode="&#x126;" horiz-adv-x="685" 
d="M27 87l26 -0.000976562c14 0 23.833 3 29.5 9s8.5 16 8.5 30v290h-64v80h64v27c0 12.667 -2.83301 22 -8.5 28s-15.5 9 -29.5 9h-26v87h254v-87h-20c-13.333 0 -22.833 -3 -28.5 -9s-8.5 -15.333 -8.5 -28v-27h237v26c0 13.333 -2.83301 23 -8.5 29s-15.167 9 -28.5 9
h-21v87h255v-87h-26c-14 0 -24 -3 -30 -9s-9 -15.333 -9 -28v-27h65v-80h-65v-290c0 -13.333 3 -23.166 9 -29.499s16 -9.5 30 -9.5h26v-87h-255v87h21c12.667 0 22 3.16699 28 9.5s9 16.166 9 29.499v155h-237v-155c0 -13.333 3 -23.166 9 -29.499s15.333 -9.5 28 -9.5h20
v-87h-254v87zM461 367.999v48h-237v-48h237z" />
    <glyph glyph-name="hbar" unicode="&#x127;" horiz-adv-x="609" 
d="M27 87l26.001 -0.00195312c14 0 24 3.16699 30 9.5s9 16.166 9 29.499v397h-65v88h65v12c0 14.667 -2.5 25.334 -7.5 32.001s-14.833 10 -29.5 10h-28v57h183v-111h124v-88h-124v-88c25.333 22.667 50.166 38.334 74.499 47.001s54.5 13 90.5 13
c53.333 0 92.333 -14.167 117 -42.5s37 -69.833 37 -124.5v-204c0 -12.667 2.83301 -22 8.5 -28s15.167 -9 28.5 -9h26v-87h-194v327c0 29.333 -6.16699 50.5 -18.5 63.5s-31.833 19.5 -58.5 19.5c-28.667 0 -52.167 -8.16699 -70.5 -24.5s-27.5 -39.166 -27.5 -68.499v-193
c0 -12.667 2.83301 -22 8.5 -28s15.167 -9 28.5 -9h26v-87h-259v87z" />
    <glyph glyph-name="Itilde" unicode="&#x128;" horiz-adv-x="313" 
d="M-18.5 815.5c19 25 48.8311 37.5 89.498 37.5c18 0 33.667 -2.5 47 -7.5s29.333 -12.5 48 -22.5c13.333 -7.33301 24.333 -12.833 33 -16.5s17.667 -5.5 27 -5.5c14.667 0 25.667 4.16699 33 12.5s11 21.5 11 39.5h93c0 -53.333 -9 -92.166 -27 -116.499
s-47 -36.5 -87 -36.5c-18 0 -34.167 2.5 -48.5 7.5s-30.166 12.167 -47.499 21.5c-14 7.33301 -25.333 12.666 -34 15.999s-17.667 5 -27 5c-15.333 0 -26.666 -3.83301 -33.999 -11.5s-11 -20.5 -11 -38.5h-94c0 52 9.5 90.5 28.5 115.5zM26.998 87l26 0.000976562
c14 0 24 3.16699 30 9.5s9 16.166 9 29.499v397c0 12.667 -3 22 -9 28s-16 9 -30 9h-26v87h259v-87h-26c-13.333 0 -22.833 -3 -28.5 -9s-8.5 -15.333 -8.5 -28v-399c0 -12.667 2.83301 -22 8.5 -28s15.167 -9 28.5 -9h26v-87h-259v87z" />
    <glyph glyph-name="itilde" unicode="&#x129;" horiz-adv-x="293" 
d="M-38.5 650.5c19 25 48.8311 37.5 89.498 37.5c18 0 33.667 -2.5 47 -7.5s29.333 -12.5 48 -22.5c13.333 -7.33301 24.333 -12.833 33 -16.5s17.667 -5.5 27 -5.5c14.667 0 25.667 4.16699 33 12.5s11 21.5 11 39.5h93c0 -53.333 -9 -92.166 -27 -116.499
s-47 -36.5 -87 -36.5c-18 0 -34.167 2.5 -48.5 7.5s-30.166 12.167 -47.499 21.5c-14 7.33301 -25.333 12.666 -34 15.999s-17.667 5 -27 5c-15.333 0 -26.666 -3.83301 -33.999 -11.5s-11 -20.5 -11 -38.5h-94c0 52 9.5 90.5 28.5 115.5zM16.998 87h26
c14 0 24 3.16699 30 9.5s9 16.166 9 29.499v225c0 14.667 -2.5 25.334 -7.5 32.001s-14.833 10 -29.5 10h-28v87h196v-356c0 -12.667 2.83301 -22 8.5 -28s15.167 -9 28.5 -9h26v-87h-259v87z" />
    <glyph glyph-name="Imacron" unicode="&#x12a;" horiz-adv-x="313" 
d="M7 801h299v-81h-299v81zM27 87l26 0.000976562c14 0 24 3.16699 30 9.5s9 16.166 9 29.499v397c0 12.667 -3 22 -9 28s-16 9 -30 9h-26v87h259v-87h-26c-13.333 0 -22.833 -3 -28.5 -9s-8.5 -15.333 -8.5 -28v-399c0 -12.667 2.83301 -22 8.5 -28s15.167 -9 28.5 -9h26
v-87h-259v87z" />
    <glyph glyph-name="imacron" unicode="&#x12b;" horiz-adv-x="293" 
d="M-18 625h299v-81h-299v81zM17 87h26c14 0 24 3.16699 30 9.5s9 16.166 9 29.499v225c0 14.667 -2.5 25.334 -7.5 32.001s-14.833 10 -29.5 10h-28v87h196v-356c0 -12.667 2.83301 -22 8.5 -28s15.167 -9 28.5 -9h26v-87h-259v87z" />
    <glyph glyph-name="Ibreve" unicode="&#x12c;" horiz-adv-x="313" 
d="M32 741c-30 27.333 -44.999 63.666 -44.999 108.999h109c0 -22 5.16699 -39 15.5 -51s25.166 -18 44.499 -18c40 0 60 23 60 69h109c0 -45.333 -15 -81.666 -45 -108.999s-71.333 -41 -124 -41s-94 13.667 -124 41zM27.001 87l26 0.000976562c14 0 24 3.16699 30 9.5
s9 16.166 9 29.499v397c0 12.667 -3 22 -9 28s-16 9 -30 9h-26v87h259v-87h-26c-13.333 0 -22.833 -3 -28.5 -9s-8.5 -15.333 -8.5 -28v-399c0 -12.667 2.83301 -22 8.5 -28s15.167 -9 28.5 -9h26v-87h-259v87z" />
    <glyph glyph-name="ibreve" unicode="&#x12d;" horiz-adv-x="293" 
d="M11 576c-30 27.333 -44.999 63.666 -44.999 108.999h109c0 -22 5.16699 -39 15.5 -51s25.166 -18 44.499 -18c40 0 60 23 60 69h109c0 -45.333 -15 -81.666 -45 -108.999s-71.333 -41 -124 -41s-94 13.667 -124 41zM17.001 87h26c14 0 24 3.16699 30 9.5
s9 16.166 9 29.499v225c0 14.667 -2.5 25.334 -7.5 32.001s-14.833 10 -29.5 10h-28v87h196v-356c0 -12.667 2.83301 -22 8.5 -28s15.167 -9 28.5 -9h26v-87h-259v87z" />
    <glyph glyph-name="Iogonek" unicode="&#x12e;" horiz-adv-x="313" 
d="M231.5 551c-5.66699 -6 -8.49805 -15.332 -8.49805 -27.999v-399c0 -12.667 2.83301 -22 8.5 -28s15.167 -9 28.5 -9h26v-87h-63c-16.667 -13.333 -29 -26.5 -37 -39.5s-12 -27.5 -12 -43.5c0 -28 11.333 -42 34 -42c12 0 25 2.66699 39 8v-74
c-20.667 -14.667 -47.334 -22 -80.001 -22c-30.667 0 -55.834 8.33301 -75.501 25s-29.5 41.667 -29.5 75c0 22 4.66699 43 14 63s22 36.667 38 50h-87v87h26c14 0 24 3.16699 30 9.5s9 16.166 9 29.499v397c0 12.667 -3 22 -9 28s-16 9 -30 9h-26v87h259v-87h-26
c-13.333 0 -22.833 -3 -28.5 -9z" />
    <glyph glyph-name="iogonek" unicode="&#x12f;" horiz-adv-x="293" 
d="M215 552h-138v106h138v-106zM178 -39.5c-8 -13 -11.998 -27.5 -11.998 -43.5c0 -28 11.333 -42 34 -42c12 0 25 2.66699 39 8v-74c-20.667 -14.667 -47.334 -22 -80.001 -22c-30.667 0 -55.834 8.33301 -75.501 25s-29.5 41.667 -29.5 75c0 22 4.66699 43 14 63
s22 36.667 38 50h-89v87h26c14 0 24 3.16699 30 9.5s9 16.166 9 29.499v225c0 14.667 -2.5 25.334 -7.5 32.001s-14.833 10 -29.5 10h-28v87h196v-356c0 -12.667 2.83301 -22 8.5 -28s15.167 -9 28.5 -9h26v-87h-61c-16.667 -13.333 -29 -26.5 -37 -39.5z" />
    <glyph glyph-name="Idotaccent" unicode="&#x130;" horiz-adv-x="313" 
d="M104 828h104v-109h-104v109zM27 87l26 0.000976562c14 0 24 3.16699 30 9.5s9 16.166 9 29.499v397c0 12.667 -3 22 -9 28s-16 9 -30 9h-26v87h259v-87h-26c-13.333 0 -22.833 -3 -28.5 -9s-8.5 -15.333 -8.5 -28v-399c0 -12.667 2.83301 -22 8.5 -28s15.167 -9 28.5 -9
h26v-87h-259v87z" />
    <glyph glyph-name="dotlessi" unicode="&#x131;" horiz-adv-x="293" 
d="M17 87h26c14 0 24 3.16699 30 9.5s9 16.166 9 29.499v225c0 14.667 -2.5 25.334 -7.5 32.001s-14.833 10 -29.5 10h-28v87h196v-356c0 -12.667 2.83301 -22 8.5 -28s15.167 -9 28.5 -9h26v-87h-259v87z" />
    <glyph glyph-name="IJ" unicode="&#x132;" horiz-adv-x="783" 
d="M27 87l26 0.000976562c14 0 24 3.16699 30 9.5s9 16.166 9 29.499v397c0 12.667 -3 22 -9 28s-16 9 -30 9h-26v87h259v-87h-26c-13.333 0 -22.833 -3 -28.5 -9s-8.5 -15.333 -8.5 -28v-399c0 -12.667 2.83301 -22 8.5 -28s15.167 -9 28.5 -9h26v-87h-259v87z
M372.5 5.50098c-35 13.667 -63.5 33.501 -85.5 59.501v88h118v-50c18.667 -19.333 45.334 -29 80.001 -29c29.333 0 50.666 7.16699 63.999 21.5s20 37.166 20 68.499v359c0 12.667 -3 22 -9 28s-15.667 9 -29 9h-27v87h262v-87h-27c-25.333 0 -38 -12.333 -38 -37v-339
c0 -62.667 -17.833 -111.5 -53.5 -146.5s-87.167 -52.5 -154.5 -52.5c-45.333 0 -85.5 6.83301 -120.5 20.5z" />
    <glyph glyph-name="ij" unicode="&#x133;" horiz-adv-x="576" 
d="M77 658h138v-106h-138v106zM391 658h138v-106h-138v106zM17 87h26c14 0 24 3.16699 30 9.5s9 16.166 9 29.499v225c0 14.667 -2.5 25.334 -7.5 32.001s-14.833 10 -29.5 10h-28v87h196v-356c0 -12.667 2.83301 -22 8.5 -28s15.167 -9 28.5 -9h26v-87h-259v87zM153 -111
l0.000976562 91.999h109v-41c15.333 -13.333 36.666 -20 63.999 -20c23.333 0 40.833 5.16699 52.5 15.5s17.5 28.166 17.5 53.499v362c0 14.667 -2.5 25.334 -7.5 32.001s-14.833 10 -29.5 10h-28v87h196v-475c0 -57.333 -16.333 -100.666 -49 -129.999s-81 -44 -145 -44
c-75.333 0 -135.333 19.333 -180 58z" />
    <glyph glyph-name="Jcircumflex" unicode="&#x134;" horiz-adv-x="503" 
d="M273 892h120l130 -193h-121l-70 120l-70 -120h-120zM82.5 5.5c-35 13.667 -63.5 33.501 -85.5 59.501v88h118v-50c18.667 -19.333 45.334 -29 80.001 -29c29.333 0 50.666 7.16699 63.999 21.5s20 37.166 20 68.499v359c0 12.667 -3 22 -9 28s-15.667 9 -29 9h-27v87h262
v-87h-27c-25.333 0 -38 -12.333 -38 -37v-339c0 -62.667 -17.833 -111.5 -53.5 -146.5s-87.167 -52.5 -154.5 -52.5c-45.333 0 -85.5 6.83301 -120.5 20.5z" />
    <glyph glyph-name="jcircumflex" unicode="&#x135;" horiz-adv-x="388" 
d="M145 716h120l130 -193h-121l-70 120l-70 -120h-120zM-33 -111l0.000976562 91.999h109v-41c15.333 -13.333 36.666 -20 63.999 -20c23.333 0 40.833 5.16699 52.5 15.5s17.5 28.166 17.5 53.499v362c0 14.667 -2.5 25.334 -7.5 32.001s-14.833 10 -29.5 10h-28v87h196
v-475c0 -57.333 -16.333 -100.666 -49 -129.999s-81 -44 -145 -44c-75.333 0 -135.333 19.333 -180 58z" />
    <glyph glyph-name="Kcommaaccent" unicode="&#x136;" horiz-adv-x="655" 
d="M27 87l26.001 -0.000976562c13.333 0 23 3 29 9s9 15.333 9 28v399c0 12.667 -2.83301 22 -8.5 28s-15.5 9 -29.5 9h-26v87h248v-88h-18c-22 0 -33 -12 -33 -36v-182l204 219h-46v87h237v-87h-36c-12.667 0 -22.334 -2 -29.001 -6s-14.667 -11 -24 -21l-153 -163
l168 -256c6 -9.33301 13 -16.166 21 -20.499s18 -6.5 30 -6.5h32v-87h-250v87h55l-133 204l-76 -81v-86c0 -12 2.5 -21.167 7.5 -27.5s13.5 -9.5 25.5 -9.5h18v-87h-248v87zM263.001 -49.001h141l-65 -214h-108z" />
    <glyph glyph-name="kcommaaccent" unicode="&#x137;" horiz-adv-x="589" 
d="M27 87h26c14 0 24 3.16699 30 9.5s9 16.166 9 29.499v407c0 14.667 -2.5 25.334 -7.5 32.001s-14.833 10 -29.5 10h-28v87h196v-374l120 105h-41v87h249v-87h-50c-10.667 0 -18.667 -1.16699 -24 -3.5s-12 -6.83301 -20 -13.5l-83 -73l112 -192
c6 -10 11.667 -16.5 17 -19.5s14.333 -4.5 27 -4.5h42v-87h-149l-137 234l-63 -55v-55c0 -12.667 2.83301 -22 8.5 -28s15.167 -9 28.5 -9h26v-87h-259v87zM240 -49h141l-65 -214h-108z" />
    <glyph glyph-name="kgreenlandic" unicode="&#x138;" horiz-adv-x="588" 
d="M27 84h24.998c14.667 0 23.834 3.33301 27.501 10s5.5 19.334 5.5 38.001v233c0 12 -2.33301 20.5 -7 25.5s-13 7.5 -25 7.5h-22v82h225v-82h-17c-14 0 -22.833 -3.16699 -26.5 -9.5s-5.5 -18.5 -5.5 -36.5v-79l130 125h-34v82h240v-82h-49
c-10.667 0 -19.167 -1.66699 -25.5 -5s-12.666 -8 -18.999 -14s-10.833 -10 -13.5 -12l-79 -71l113 -188c5.33301 -8.66699 11.333 -14.834 18 -18.501s16 -5.5 28 -5.5h45v-84h-247v84h47l-86 142l-68 -61v-48c0 -12 2.33301 -20.5 7 -25.5s13.667 -7.5 27 -7.5h31v-84
h-245v84z" />
    <glyph glyph-name="Lacute" unicode="&#x139;" horiz-adv-x="516" 
d="M139 879h148l-113 -180h-112zM27 87h25.001c14 0 24.167 3 30.5 9s9.5 15.667 9.5 29v398c0 12.667 -3 22 -9 28s-16 9 -30 9h-26v87h262v-87h-26c-14 0 -24 -3 -30 -9s-9 -15.333 -9 -28v-436h136c13.333 0 23.166 3 29.499 9s9.5 15.667 9.5 29v35h120v-160h-492v87z
" />
    <glyph glyph-name="lacute" unicode="&#x13a;" horiz-adv-x="303" 
d="M114 879h148l-113 -180h-112zM27 87h26c14 0 24 3.16699 30 9.5s9 16.166 9 29.499v407c0 14.667 -2.5 25.334 -7.5 32.001s-14.833 10 -29.5 10h-28v87h196v-538c0 -12.667 2.83301 -22 8.5 -28s15.167 -9 28.5 -9h26v-87h-259v87z" />
    <glyph glyph-name="Lcommaaccent" unicode="&#x13b;" horiz-adv-x="516" 
d="M27 87h25.001c14 0 24.167 3 30.5 9s9.5 15.667 9.5 29v398c0 12.667 -3 22 -9 28s-16 9 -30 9h-26v87h262v-87h-26c-14 0 -24 -3 -30 -9s-9 -15.333 -9 -28v-436h136c13.333 0 23.166 3 29.499 9s9.5 15.667 9.5 29v35h120v-160h-492v87zM238.001 -49h141l-65 -214h-108
z" />
    <glyph glyph-name="lcommaaccent" unicode="&#x13c;" horiz-adv-x="313" 
d="M27 87h26c14 0 24 3.16699 30 9.5s9 16.166 9 29.499v407c0 14.667 -2.5 25.334 -7.5 32.001s-14.833 10 -29.5 10h-28v87h196v-538c0 -12.667 2.83301 -22 8.5 -28s15.167 -9 28.5 -9h26v-87h-259v87zM94 -49h141l-65 -214h-108z" />
    <glyph glyph-name="Lcaron" unicode="&#x13d;" horiz-adv-x="535" 
d="M403 714h141l-65 -214h-108zM27 87h25.001c14 0 24.167 3 30.5 9s9.5 15.667 9.5 29v398c0 12.667 -3 22 -9 28s-16 9 -30 9h-26v87h262v-87h-26c-14 0 -24 -3 -30 -9s-9 -15.333 -9 -28v-436h136c13.333 0 23.166 3 29.499 9s9.5 15.667 9.5 29v35h120v-160h-492v87z
" />
    <glyph glyph-name="lcaron" unicode="&#x13e;" horiz-adv-x="426" 
d="M316 760h141l-65 -214h-108zM27 87h26c14 0 24 3.16699 30 9.5s9 16.166 9 29.499v407c0 14.667 -2.5 25.334 -7.5 32.001s-14.833 10 -29.5 10h-28v87h196v-538c0 -12.667 2.83301 -22 8.5 -28s15.167 -9 28.5 -9h26v-87h-259v87z" />
    <glyph glyph-name="Ldot" unicode="&#x13f;" horiz-adv-x="516" 
d="M27 87h25.001c14 0 24.167 3 30.5 9s9.5 15.667 9.5 29v398c0 12.667 -3 22 -9 28s-16 9 -30 9h-26v87h262v-87h-26c-14 0 -24 -3 -30 -9s-9 -15.333 -9 -28v-436h136c13.333 0 23.166 3 29.499 9s9.5 15.667 9.5 29v35h120v-160h-492v87zM313.001 404h105v-109h-105v109
z" />
    <glyph glyph-name="ldot" unicode="&#x140;" horiz-adv-x="394" 
d="M27 87h26c14 0 24 3.16699 30 9.5s9 16.166 9 29.499v407c0 14.667 -2.5 25.334 -7.5 32.001s-14.833 10 -29.5 10h-28v87h196v-538c0 -12.667 2.83301 -22 8.5 -28s15.167 -9 28.5 -9h26v-87h-259v87zM302 395h105v-109h-105v109z" />
    <glyph glyph-name="Lslash" unicode="&#x141;" horiz-adv-x="516" 
d="M27 87h25.001c14 0 24.167 3 30.5 9s9.5 15.667 9.5 29v100l-59 -34v94l59 34v204c0 12.667 -3 22 -9 28s-16 9 -30 9h-26v87h262v-87h-26c-14 0 -24 -3 -30 -9s-9 -15.333 -9 -28v-128l95 55v-94l-95 -55v-214h136c13.333 0 23.166 3 29.499 9s9.5 15.667 9.5 29v35h120
v-160h-492v87z" />
    <glyph glyph-name="lslash" unicode="&#x142;" horiz-adv-x="303" 
d="M27 87h26c14 0 24 3.16699 30 9.5s9 16.166 9 29.499v142l-65 -37v94l65 37v171c0 14.667 -2.5 25.334 -7.5 32.001s-14.833 10 -29.5 10h-28v87h196v-224l63 37v-94l-63 -37v-220c0 -12.667 2.83301 -22 8.5 -28s15.167 -9 28.5 -9h26v-87h-259v87z" />
    <glyph glyph-name="Nacute" unicode="&#x143;" horiz-adv-x="693" 
d="M338 879h148l-113 -180h-112zM27 87h26c26 0 39 12.333 39 37v399c0 12.667 -3 22 -9 28s-16 9 -30 9h-26v87h165l279 -433v309c0 24.667 -13 37 -39 37h-27v87h261v-87h-27c-12.667 0 -22 -3 -28 -9s-9 -15.333 -9 -28v-523h-101l-277 431v-307
c0 -12.667 2.83301 -22 8.5 -28s15.167 -9 28.5 -9h26v-87h-260v87z" />
    <glyph glyph-name="nacute" unicode="&#x144;" horiz-adv-x="607" 
d="M278 704h148l-113 -180h-112zM27 87l26 0.000976562c14 0 24 3.16699 30 9.5s9 16.166 9 29.499v230c0 12.667 -2.83301 22 -8.5 28s-15.167 9 -28.5 9h-28v87h149l6 -66c22 27.333 47.833 47.666 77.5 60.999s64.834 20 105.501 20c56 0 97 -14.167 123 -42.5
s39 -69.833 39 -124.5v-204c0 -12.667 2.83301 -22 8.5 -28s15.167 -9 28.5 -9h26v-87h-194v327c0 29.333 -6 50.5 -18 63.5s-31.667 19.5 -59 19.5c-28.667 0 -51.834 -8.16699 -69.501 -24.5s-26.5 -39.166 -26.5 -68.499v-193c0 -12.667 2.83301 -22 8.5 -28
s15.167 -9 28.5 -9h26v-87h-259v87z" />
    <glyph glyph-name="Ncommaaccent" unicode="&#x145;" horiz-adv-x="693" 
d="M27 87h26c26 0 39 12.333 39 37v399c0 12.667 -3 22 -9 28s-16 9 -30 9h-26v87h165l279 -433v309c0 24.667 -13 37 -39 37h-27v87h261v-87h-27c-12.667 0 -22 -3 -28 -9s-9 -15.333 -9 -28v-523h-101l-277 431v-307c0 -12.667 2.83301 -22 8.5 -28s15.167 -9 28.5 -9h26
v-87h-260v87zM295 -49h141l-65 -214h-108z" />
    <glyph glyph-name="ncommaaccent" unicode="&#x146;" horiz-adv-x="607" 
d="M27 87l26 0.000976562c14 0 24 3.16699 30 9.5s9 16.166 9 29.499v230c0 12.667 -2.83301 22 -8.5 28s-15.167 9 -28.5 9h-28v87h149l6 -66c22 27.333 47.833 47.666 77.5 60.999s64.834 20 105.501 20c56 0 97 -14.167 123 -42.5s39 -69.833 39 -124.5v-204
c0 -12.667 2.83301 -22 8.5 -28s15.167 -9 28.5 -9h26v-87h-194v327c0 29.333 -6 50.5 -18 63.5s-31.667 19.5 -59 19.5c-28.667 0 -51.834 -8.16699 -69.501 -24.5s-26.5 -39.166 -26.5 -68.499v-193c0 -12.667 2.83301 -22 8.5 -28s15.167 -9 28.5 -9h26v-87h-259v87z
M276 -48.999h141l-65 -214h-108z" />
    <glyph glyph-name="Ncaron" unicode="&#x147;" horiz-adv-x="693" 
d="M138 893h120l70 -120l70 120h121l-130 -193h-120zM27 87h26c26 0 39 12.333 39 37v399c0 12.667 -3 22 -9 28s-16 9 -30 9h-26v87h165l279 -433v309c0 24.667 -13 37 -39 37h-27v87h261v-87h-27c-12.667 0 -22 -3 -28 -9s-9 -15.333 -9 -28v-523h-101l-277 431v-307
c0 -12.667 2.83301 -22 8.5 -28s15.167 -9 28.5 -9h26v-87h-260v87z" />
    <glyph glyph-name="ncaron" unicode="&#x148;" horiz-adv-x="607" 
d="M95 716h120l70 -120l70 120h121l-130 -193h-120zM27 87l26 0.000976562c14 0 24 3.16699 30 9.5s9 16.166 9 29.499v230c0 12.667 -2.83301 22 -8.5 28s-15.167 9 -28.5 9h-28v87h149l6 -66c22 27.333 47.833 47.666 77.5 60.999s64.834 20 105.501 20
c56 0 97 -14.167 123 -42.5s39 -69.833 39 -124.5v-204c0 -12.667 2.83301 -22 8.5 -28s15.167 -9 28.5 -9h26v-87h-194v327c0 29.333 -6 50.5 -18 63.5s-31.667 19.5 -59 19.5c-28.667 0 -51.834 -8.16699 -69.501 -24.5s-26.5 -39.166 -26.5 -68.499v-193
c0 -12.667 2.83301 -22 8.5 -28s15.167 -9 28.5 -9h26v-87h-259v87z" />
    <glyph glyph-name="napostrophe" unicode="&#x149;" horiz-adv-x="760" 
d="M77 714h141l-65 -214h-108zM180 87l26 0.000976562c14 0 24 3.16699 30 9.5s9 16.166 9 29.499v230c0 12.667 -2.83301 22 -8.5 28s-15.167 9 -28.5 9h-28v87h149l6 -66c22 27.333 47.833 47.666 77.5 60.999s64.834 20 105.501 20c56 0 97 -14.167 123 -42.5
s39 -69.833 39 -124.5v-204c0 -12.667 2.83301 -22 8.5 -28s15.167 -9 28.5 -9h26v-87h-194v327c0 29.333 -6 50.5 -18 63.5s-31.667 19.5 -59 19.5c-28.667 0 -51.834 -8.16699 -69.501 -24.5s-26.5 -39.166 -26.5 -68.499v-193c0 -12.667 2.83301 -22 8.5 -28
s15.167 -9 28.5 -9h26v-87h-259v87z" />
    <glyph glyph-name="Eng" unicode="&#x14a;" horiz-adv-x="693" 
d="M228 -227l0.000976562 92h109v-41c15.333 -13.333 36.666 -20 63.999 -20c23.333 0 40.833 5.16699 52.5 15.5s17.5 28.166 17.5 53.499v173l-247 385v-307c0 -12.667 2.83301 -22 8.5 -28s15.167 -9 28.5 -9h26v-87h-260v87h26c26 0 39 12.333 39 37v399
c0 12.667 -3 22 -9 28s-16 9 -30 9h-26v87h165l279 -433v309c0 24.667 -13 37 -39 37h-27v87h261v-87h-27c-12.667 0 -22 -3 -28 -9s-9 -15.333 -9 -28v-634c0 -57.333 -16.333 -100.666 -49 -129.999s-81 -44 -145 -44c-75.333 0 -135.333 19.333 -180 58z" />
    <glyph glyph-name="eng" unicode="&#x14b;" horiz-adv-x="584" 
d="M153 -202l0.000976562 92.001h109v-41c15.333 -13.333 36.666 -20 63.999 -20c23.333 0 40.833 5.16699 52.5 15.5s17.5 28.166 17.5 53.499v429c0 29.333 -6 50.5 -18 63.5s-31.667 19.5 -59 19.5c-28.667 0 -51.834 -8.16699 -69.501 -24.5
s-26.5 -39.166 -26.5 -68.499v-193c0 -12.667 2.83301 -22 8.5 -28s15.167 -9 28.5 -9h26v-87h-259v87h26c14 0 24 3.16699 30 9.5s9 16.166 9 29.499v230c0 12.667 -2.83301 22 -8.5 28s-15.167 9 -28.5 9h-28v87h149l6 -66c22 27.333 47.833 47.666 77.5 60.999
s64.834 20 105.501 20c56 0 97 -14.167 123 -42.5s39 -69.833 39 -124.5v-414c0 -57.333 -16.333 -100.666 -49 -129.999s-81 -44 -145 -44c-75.333 0 -135.333 19.333 -180 58z" />
    <glyph glyph-name="Omacron" unicode="&#x14c;" horiz-adv-x="663" 
d="M182 801h299v-81h-299v81zM102 68.5c-50 55.667 -75 139.834 -75 252.501c0 114 24.333 199.333 73 256s126 85 232 85c104.667 0 181.5 -28.333 230.5 -85s73.5 -142 73.5 -256c0 -112.667 -25 -196.834 -75 -252.501s-126.333 -83.5 -229 -83.5
c-103.333 0 -180 27.833 -230 83.5zM464.5 131c27.667 38 41.498 101.332 41.498 189.999c0 90.667 -13.833 155.334 -41.5 194.001s-71.834 58 -132.501 58c-41.333 0 -74.666 -8.16699 -99.999 -24.5s-44.166 -43 -56.499 -80s-18.5 -86.167 -18.5 -147.5
c0 -89.333 13.833 -152.833 41.5 -190.5s72.167 -56.5 133.5 -56.5c60.667 0 104.834 19 132.501 57z" />
    <glyph glyph-name="omacron" unicode="&#x14d;" horiz-adv-x="558" 
d="M130 625h299v-81h-299v81zM91.5 51c-43 44 -64.5 106.667 -64.5 188c0 82 21.333 145.167 64 189.5s105.334 66.5 188.001 66.5c83.333 0 146.166 -22.167 188.499 -66.5s63.5 -107.5 63.5 -189.5c0 -81.333 -21.5 -144 -64.5 -188s-105.5 -66 -187.5 -66
s-144.5 22 -187.5 66zM371.5 114c19.667 26.667 29.5 68.334 29.5 125.001c0 57.333 -9.83301 99.5 -29.5 126.5s-50.5 40.5 -92.5 40.5s-72.833 -13.5 -92.5 -40.5s-29.5 -69.167 -29.5 -126.5c0 -56.667 9.83301 -98.334 29.5 -125.001s50.5 -40 92.5 -40
s72.833 13.333 92.5 40z" />
    <glyph glyph-name="Obreve" unicode="&#x14e;" horiz-adv-x="663" 
d="M207 740c-30 27.333 -44.999 63.666 -44.999 108.999h109c0 -22 5.16699 -39 15.5 -51s25.166 -18 44.499 -18c40 0 60 23 60 69h109c0 -45.333 -15 -81.666 -45 -108.999s-71.333 -41 -124 -41s-94 13.667 -124 41zM102.001 68.5c-50 55.667 -75 139.834 -75 252.501
c0 114 24.333 199.333 73 256s126 85 232 85c104.667 0 181.5 -28.333 230.5 -85s73.5 -142 73.5 -256c0 -112.667 -25 -196.834 -75 -252.501s-126.333 -83.5 -229 -83.5c-103.333 0 -180 27.833 -230 83.5zM464.501 131c27.667 38 41.498 101.332 41.498 189.999
c0 90.667 -13.833 155.334 -41.5 194.001s-71.834 58 -132.501 58c-41.333 0 -74.666 -8.16699 -99.999 -24.5s-44.166 -43 -56.499 -80s-18.5 -86.167 -18.5 -147.5c0 -89.333 13.833 -152.833 41.5 -190.5s72.167 -56.5 133.5 -56.5c60.667 0 104.834 19 132.501 57z" />
    <glyph glyph-name="obreve" unicode="&#x14f;" horiz-adv-x="558" 
d="M155 565c-30 27.333 -44.999 63.666 -44.999 108.999h109c0 -22 5.16699 -39 15.5 -51s25.166 -18 44.499 -18c40 0 60 23 60 69h109c0 -45.333 -15 -81.666 -45 -108.999s-71.333 -41 -124 -41s-94 13.667 -124 41zM91.501 51c-43 44 -64.5 106.667 -64.5 188
c0 82 21.333 145.167 64 189.5s105.334 66.5 188.001 66.5c83.333 0 146.166 -22.167 188.499 -66.5s63.5 -107.5 63.5 -189.5c0 -81.333 -21.5 -144 -64.5 -188s-105.5 -66 -187.5 -66s-144.5 22 -187.5 66zM371.501 114c19.667 26.667 29.5 68.334 29.5 125.001
c0 57.333 -9.83301 99.5 -29.5 126.5s-50.5 40.5 -92.5 40.5s-72.833 -13.5 -92.5 -40.5s-29.5 -69.167 -29.5 -126.5c0 -56.667 9.83301 -98.334 29.5 -125.001s50.5 -40 92.5 -40s72.833 13.333 92.5 40z" />
    <glyph glyph-name="Ohungarumlaut" unicode="&#x150;" horiz-adv-x="663" 
d="M222 892h152l-122 -193h-118zM437 892h154l-124 -193h-117zM102 68.5c-50 55.667 -75 139.834 -75 252.501c0 114 24.333 199.333 73 256s126 85 232 85c104.667 0 181.5 -28.333 230.5 -85s73.5 -142 73.5 -256c0 -112.667 -25 -196.834 -75 -252.501
s-126.333 -83.5 -229 -83.5c-103.333 0 -180 27.833 -230 83.5zM464.5 131c27.667 38 41.498 101.332 41.498 189.999c0 90.667 -13.833 155.334 -41.5 194.001s-71.834 58 -132.501 58c-41.333 0 -74.666 -8.16699 -99.999 -24.5s-44.166 -43 -56.499 -80
s-18.5 -86.167 -18.5 -147.5c0 -89.333 13.833 -152.833 41.5 -190.5s72.167 -56.5 133.5 -56.5c60.667 0 104.834 19 132.501 57z" />
    <glyph glyph-name="ohungarumlaut" unicode="&#x151;" horiz-adv-x="560" 
d="M164 716h152l-122 -193h-118zM379 716h154l-124 -193h-117zM91.5 51c-43 44 -64.5 106.667 -64.5 188c0 82 21.333 145.167 64 189.5s105.334 66.5 188.001 66.5c83.333 0 146.166 -22.167 188.499 -66.5s63.5 -107.5 63.5 -189.5c0 -81.333 -21.5 -144 -64.5 -188
s-105.5 -66 -187.5 -66s-144.5 22 -187.5 66zM371.5 114c19.667 26.667 29.5 68.334 29.5 125.001c0 57.333 -9.83301 99.5 -29.5 126.5s-50.5 40.5 -92.5 40.5s-72.833 -13.5 -92.5 -40.5s-29.5 -69.167 -29.5 -126.5c0 -56.667 9.83301 -98.334 29.5 -125.001
s50.5 -40 92.5 -40s72.833 13.333 92.5 40z" />
    <glyph glyph-name="OE" unicode="&#x152;" horiz-adv-x="805" 
d="M109 78c-54.667 52 -81.999 133 -81.999 243c0 111.333 26.833 193.5 80.5 246.5s134.834 79.5 243.501 79.5h427v-142h-120v18c0 24.667 -13 37 -39 37h-136v-192h154v-88h-154v-193h136c13.333 0 23.166 3 29.499 9s9.5 15.667 9.5 29v18h120v-143h-427
c-106.667 0 -187.334 26 -242.001 78zM364.001 87v473.001h-43c-50 0 -89.833 -19.833 -119.5 -59.5s-44.5 -99.5 -44.5 -179.5c0 -78.667 14.5 -137.334 43.5 -176.001s68.5 -58 118.5 -58h45z" />
    <glyph glyph-name="oe" unicode="&#x153;" horiz-adv-x="915" 
d="M91.5 51c-43 44 -64.498 106.668 -64.498 188.001c0 82 21.333 145.167 64 189.5s105.334 66.5 188.001 66.5c79.333 0 141.666 -22.667 186.999 -68c44 45.333 105.667 68 185 68c77.333 0 136.166 -21.5 176.499 -64.5s60.5 -101.167 60.5 -174.5v-47h-357
c0 -46.667 11 -80.834 33 -102.501s53.667 -32.5 95 -32.5s74.333 5.33301 99 16v35h113v-76c-50.667 -42.667 -121.667 -64 -213 -64c-40 0 -76.333 6 -109 18s-60.334 29 -83.001 51c-21.333 -22 -47.833 -39 -79.5 -51s-67.5 -18 -107.5 -18c-82 0 -144.5 22 -187.5 66z
M371.502 114.001c19.667 26.667 29.5 68.334 29.5 125.001c0 57.333 -9.83301 99.5 -29.5 126.5s-50.5 40.5 -92.5 40.5s-72.833 -13.5 -92.5 -40.5s-29.5 -69.167 -29.5 -126.5c0 -56.667 9.83301 -98.334 29.5 -125.001s50.5 -40 92.5 -40s72.833 13.333 92.5 40z
M758.002 284.001c0 41.333 -9 72 -27 92s-45.333 30 -82 30c-38 0 -67.167 -10.5 -87.5 -31.5s-30.5 -51.167 -30.5 -90.5h227z" />
    <glyph glyph-name="Racute" unicode="&#x154;" horiz-adv-x="629" 
d="M286 879h148l-113 -180h-112zM27 87l24.998 0.000976562c26.667 0 40 12.333 40 37v399c0 12.667 -3.16699 22 -9.5 28s-16.5 9 -30.5 9h-25v87h338c70 0 124.667 -16.833 164 -50.5s59 -82.5 59 -146.5c0 -48 -12.5 -88.333 -37.5 -121s-60.833 -55.334 -107.5 -68.001
l78 -143c6.66699 -11.333 14.334 -19.333 23.001 -24s20 -7 34 -7h24v-87h-234v87h40l-84 159h-104v-125c0 -12 2.33301 -20.667 7 -26s13.334 -8 26.001 -8h24v-87h-250v87zM344.998 333.001c76 0 114 39 114 117c0 39.333 -9 67.5 -27 84.5s-47 25.5 -87 25.5h-125v-227
h125z" />
    <glyph glyph-name="racute" unicode="&#x155;" horiz-adv-x="402" 
d="M171 704h148l-113 -180h-112zM27 87h25.998c14 0 24 3.16699 30 9.5s9 16.166 9 29.499v230c0 12.667 -2.66699 22 -8 28s-14.666 9 -27.999 9h-29v87h171l13 -53c22.667 35.333 63.334 53 122.001 53h52v-87h-68c-33.333 0 -57.333 -7.66699 -72 -23
s-22 -38.666 -22 -69.999v-176c0 -12.667 2.83301 -22 8.5 -28s15.167 -9 28.5 -9h26v-87h-259v87z" />
    <glyph glyph-name="Rcommaaccent" unicode="&#x156;" horiz-adv-x="629" 
d="M27 87l24.998 0.000976562c26.667 0 40 12.333 40 37v399c0 12.667 -3.16699 22 -9.5 28s-16.5 9 -30.5 9h-25v87h338c70 0 124.667 -16.833 164 -50.5s59 -82.5 59 -146.5c0 -48 -12.5 -88.333 -37.5 -121s-60.833 -55.334 -107.5 -68.001l78 -143
c6.66699 -11.333 14.334 -19.333 23.001 -24s20 -7 34 -7h24v-87h-234v87h40l-84 159h-104v-125c0 -12 2.33301 -20.667 7 -26s13.334 -8 26.001 -8h24v-87h-250v87zM344.998 333.001c76 0 114 39 114 117c0 39.333 -9 67.5 -27 84.5s-47 25.5 -87 25.5h-125v-227h125z
M263.998 -48.999h141l-65 -214h-108z" />
    <glyph glyph-name="rcommaaccent" unicode="&#x157;" horiz-adv-x="402" 
d="M27 87h25.998c14 0 24 3.16699 30 9.5s9 16.166 9 29.499v230c0 12.667 -2.66699 22 -8 28s-14.666 9 -27.999 9h-29v87h171l13 -53c22.667 35.333 63.334 53 122.001 53h52v-87h-68c-33.333 0 -57.333 -7.66699 -72 -23s-22 -38.666 -22 -69.999v-176
c0 -12.667 2.83301 -22 8.5 -28s15.167 -9 28.5 -9h26v-87h-259v87zM99.998 -49h141l-65 -214h-108z" />
    <glyph glyph-name="Rcaron" unicode="&#x158;" horiz-adv-x="629" 
d="M105 893h120l70 -120l70 120h121l-130 -193h-120zM27 87l24.998 0.000976562c26.667 0 40 12.333 40 37v399c0 12.667 -3.16699 22 -9.5 28s-16.5 9 -30.5 9h-25v87h338c70 0 124.667 -16.833 164 -50.5s59 -82.5 59 -146.5c0 -48 -12.5 -88.333 -37.5 -121
s-60.833 -55.334 -107.5 -68.001l78 -143c6.66699 -11.333 14.334 -19.333 23.001 -24s20 -7 34 -7h24v-87h-234v87h40l-84 159h-104v-125c0 -12 2.33301 -20.667 7 -26s13.334 -8 26.001 -8h24v-87h-250v87zM344.998 333.001c76 0 114 39 114 117
c0 39.333 -9 67.5 -27 84.5s-47 25.5 -87 25.5h-125v-227h125z" />
    <glyph glyph-name="rcaron" unicode="&#x159;" horiz-adv-x="402" 
d="M13 716h120l70 -120l70 120h121l-130 -193h-120zM27 87h25.998c14 0 24 3.16699 30 9.5s9 16.166 9 29.499v230c0 12.667 -2.66699 22 -8 28s-14.666 9 -27.999 9h-29v87h171l13 -53c22.667 35.333 63.334 53 122.001 53h52v-87h-68c-33.333 0 -57.333 -7.66699 -72 -23
s-22 -38.666 -22 -69.999v-176c0 -12.667 2.83301 -22 8.5 -28s15.167 -9 28.5 -9h26v-87h-259v87z" />
    <glyph glyph-name="Sacute" unicode="&#x15a;" horiz-adv-x="542" 
d="M280 879h148l-113 -180h-112zM138 6c-43.333 14 -80.333 32.998 -111 56.998v107h133v-69c32 -18 71.667 -27 119 -27c70.667 0 106 28.333 106 85c0 19.333 -5.33301 35.5 -16 48.5s-25 24.167 -43 33.5s-45.333 21.666 -82 36.999c-49.333 20 -88.833 39 -118.5 57
s-52.667 39.167 -69 63.5s-24.5 53.5 -24.5 87.5c0 58 22.833 101.833 68.5 131.5s104.167 44.5 175.5 44.5c88 0 163.667 -25.333 227 -76v-99h-134v64c-25.333 14.667 -58.666 22 -99.999 22c-71.333 0 -107 -27.667 -107 -83c0 -19.333 6.66699 -36.166 20 -50.499
s29.166 -26.166 47.499 -35.499s43.166 -20.333 74.499 -33c54 -22 94.833 -40.667 122.5 -56s49.334 -34.666 65.001 -57.999s23.5 -54 23.5 -92c0 -34.667 -9.16699 -65.5 -27.5 -92.5s-45.333 -48.333 -81 -64s-78.5 -23.5 -128.5 -23.5s-96.667 7 -140 21z" />
    <glyph glyph-name="sacute" unicode="&#x15b;" horiz-adv-x="471" 
d="M235 704h148l-113 -180h-112zM123 0c-36.667 10 -68.6689 25.335 -96.002 46.002v84h121v-38c18.667 -12 46.334 -18 83.001 -18c28.667 0 49.667 3.33301 63 10s20 18.667 20 36c0 15.333 -5.5 27 -16.5 35s-32.833 18.333 -65.5 31l-46 18
c-35.333 14.667 -63.5 28.167 -84.5 40.5s-37.833 27.666 -50.5 45.999s-19 40.833 -19 67.5c0 45.333 17.667 79.5 53 102.5s83.666 34.5 144.999 34.5c40 0 77.333 -5 112 -15s65 -25 91 -45v-84h-117v36c-17.333 12.667 -41.666 19 -72.999 19
c-25.333 0 -45.166 -3.5 -59.499 -10.5s-21.5 -19.5 -21.5 -37.5c0 -16.667 8 -29.834 24 -39.501s41.333 -20.834 76 -33.501l32 -12c34 -12.667 61.333 -25.167 82 -37.5s37.167 -27.666 49.5 -45.999s18.5 -41.5 18.5 -69.5c0 -44 -17.5 -77.5 -52.5 -100.5
s-86.5 -34.5 -154.5 -34.5c-39.333 0 -77.333 5 -114 15z" />
    <glyph glyph-name="Scircumflex" unicode="&#x15c;" horiz-adv-x="542" 
d="M209 893h120l130 -193h-121l-70 120l-70 -120h-120zM138 6c-43.333 14 -80.333 32.998 -111 56.998v107h133v-69c32 -18 71.667 -27 119 -27c70.667 0 106 28.333 106 85c0 19.333 -5.33301 35.5 -16 48.5s-25 24.167 -43 33.5s-45.333 21.666 -82 36.999
c-49.333 20 -88.833 39 -118.5 57s-52.667 39.167 -69 63.5s-24.5 53.5 -24.5 87.5c0 58 22.833 101.833 68.5 131.5s104.167 44.5 175.5 44.5c88 0 163.667 -25.333 227 -76v-99h-134v64c-25.333 14.667 -58.666 22 -99.999 22c-71.333 0 -107 -27.667 -107 -83
c0 -19.333 6.66699 -36.166 20 -50.499s29.166 -26.166 47.499 -35.499s43.166 -20.333 74.499 -33c54 -22 94.833 -40.667 122.5 -56s49.334 -34.666 65.001 -57.999s23.5 -54 23.5 -92c0 -34.667 -9.16699 -65.5 -27.5 -92.5s-45.333 -48.333 -81 -64
s-78.5 -23.5 -128.5 -23.5s-96.667 7 -140 21z" />
    <glyph glyph-name="scircumflex" unicode="&#x15d;" horiz-adv-x="471" 
d="M162 716h120l130 -193h-121l-70 120l-70 -120h-120zM123 0c-36.667 10 -68.6689 25.335 -96.002 46.002v84h121v-38c18.667 -12 46.334 -18 83.001 -18c28.667 0 49.667 3.33301 63 10s20 18.667 20 36c0 15.333 -5.5 27 -16.5 35s-32.833 18.333 -65.5 31l-46 18
c-35.333 14.667 -63.5 28.167 -84.5 40.5s-37.833 27.666 -50.5 45.999s-19 40.833 -19 67.5c0 45.333 17.667 79.5 53 102.5s83.666 34.5 144.999 34.5c40 0 77.333 -5 112 -15s65 -25 91 -45v-84h-117v36c-17.333 12.667 -41.666 19 -72.999 19
c-25.333 0 -45.166 -3.5 -59.499 -10.5s-21.5 -19.5 -21.5 -37.5c0 -16.667 8 -29.834 24 -39.501s41.333 -20.834 76 -33.501l32 -12c34 -12.667 61.333 -25.167 82 -37.5s37.167 -27.666 49.5 -45.999s18.5 -41.5 18.5 -69.5c0 -44 -17.5 -77.5 -52.5 -100.5
s-86.5 -34.5 -154.5 -34.5c-39.333 0 -77.333 5 -114 15z" />
    <glyph glyph-name="Scedilla" unicode="&#x15e;" horiz-adv-x="541" 
d="M171 -213l0.00195312 72.998c22 -10 46 -15 72 -15c31.333 0 47 10 47 30c0 16 -6.16699 27.5 -18.5 34.5s-36.5 10.5 -72.5 10.5l10 70c-72 10 -132.667 34.333 -182 73v107h133v-69c15.333 -8.66699 33.333 -15.5 54 -20.5s42.334 -7.5 65.001 -7.5
c34.667 0 61 7.16699 79 21.5s27 35.833 27 64.5c0 19.333 -5.33301 35.5 -16 48.5s-25.167 24.5 -43.5 34.5s-45.5 22.333 -81.5 37c-49.333 20 -88.833 39 -118.5 57s-52.5 39 -68.5 63s-24 53 -24 87c0 58 22.667 101.833 68 131.5s103.666 44.5 174.999 44.5
c88 0 163.667 -25.333 227 -76v-99h-134v64c-26.667 15.333 -60 23 -100 23c-33.333 0 -59.5 -6.66699 -78.5 -20s-28.5 -34.666 -28.5 -63.999c0 -20.667 6.66699 -38.167 20 -52.5s28.166 -25.5 44.499 -33.5s42.166 -19 77.499 -33
c53.333 -21.333 93.833 -39.833 121.5 -55.5s49.334 -35.167 65.001 -58.5s23.5 -54 23.5 -92c0 -46 -16.167 -85.167 -48.5 -117.5s-77.833 -52.166 -136.5 -59.499l-5 -31c27.333 -4.66699 47.166 -14.167 59.499 -28.5s18.5 -33.833 18.5 -58.5
c0 -65.333 -48.667 -98 -146 -98c-32 0 -60.333 5 -85 15z" />
    <glyph glyph-name="scedilla" unicode="&#x15f;" horiz-adv-x="471" 
d="M143 -213l-0.000976562 73.002c23.333 -10 47 -15 71 -15c32.667 0 49 10 49 30c0 16 -6.33301 27.5 -19 34.5s-36.667 10.5 -72 10.5l9 68c-62.667 8.66699 -114 28 -154 58v84h121v-38c18.667 -12 46.334 -18 83.001 -18c28.667 0 49.667 3.33301 63 10
s20 18.667 20 36c0 15.333 -5.5 27 -16.5 35s-32.833 18.333 -65.5 31l-46 18c-35.333 14.667 -63.5 28.167 -84.5 40.5s-37.833 27.666 -50.5 45.999s-19 40.833 -19 67.5c0 45.333 17.667 79.5 53 102.5s83.666 34.5 144.999 34.5c40 0 77.333 -5 112 -15s65 -25 91 -45
v-84h-117v36c-17.333 12.667 -41.666 19 -72.999 19c-25.333 0 -45.166 -3.5 -59.499 -10.5s-21.5 -19.5 -21.5 -37.5c0 -16.667 8 -29.834 24 -39.501s41.333 -20.834 76 -33.501l32 -12c34 -12.667 61.333 -25.167 82 -37.5s37.167 -27.666 49.5 -45.999
s18.5 -41.5 18.5 -69.5c0 -36 -12 -65.167 -36 -87.5s-59.667 -36.833 -107 -43.5l-4 -32c27.333 -4.66699 47.166 -14.167 59.499 -28.5s18.5 -33.833 18.5 -58.5c0 -65.333 -48.667 -98 -146 -98c-32 0 -60.667 5 -86 15z" />
    <glyph glyph-name="Scaron" unicode="&#x160;" horiz-adv-x="542" 
d="M81 893h120l70 -120l70 120h121l-130 -193h-120zM138 6c-43.333 14 -80.333 32.998 -111 56.998v107h133v-69c32 -18 71.667 -27 119 -27c70.667 0 106 28.333 106 85c0 19.333 -5.33301 35.5 -16 48.5s-25 24.167 -43 33.5s-45.333 21.666 -82 36.999
c-49.333 20 -88.833 39 -118.5 57s-52.667 39.167 -69 63.5s-24.5 53.5 -24.5 87.5c0 58 22.833 101.833 68.5 131.5s104.167 44.5 175.5 44.5c88 0 163.667 -25.333 227 -76v-99h-134v64c-25.333 14.667 -58.666 22 -99.999 22c-71.333 0 -107 -27.667 -107 -83
c0 -19.333 6.66699 -36.166 20 -50.499s29.166 -26.166 47.499 -35.499s43.166 -20.333 74.499 -33c54 -22 94.833 -40.667 122.5 -56s49.334 -34.666 65.001 -57.999s23.5 -54 23.5 -92c0 -34.667 -9.16699 -65.5 -27.5 -92.5s-45.333 -48.333 -81 -64
s-78.5 -23.5 -128.5 -23.5s-96.667 7 -140 21z" />
    <glyph glyph-name="scaron" unicode="&#x161;" horiz-adv-x="471" 
d="M37 716h120l70 -120l70 120h121l-130 -193h-120zM123 0c-36.667 10 -68.6689 25.335 -96.002 46.002v84h121v-38c18.667 -12 46.334 -18 83.001 -18c28.667 0 49.667 3.33301 63 10s20 18.667 20 36c0 15.333 -5.5 27 -16.5 35s-32.833 18.333 -65.5 31l-46 18
c-35.333 14.667 -63.5 28.167 -84.5 40.5s-37.833 27.666 -50.5 45.999s-19 40.833 -19 67.5c0 45.333 17.667 79.5 53 102.5s83.666 34.5 144.999 34.5c40 0 77.333 -5 112 -15s65 -25 91 -45v-84h-117v36c-17.333 12.667 -41.666 19 -72.999 19
c-25.333 0 -45.166 -3.5 -59.499 -10.5s-21.5 -19.5 -21.5 -37.5c0 -16.667 8 -29.834 24 -39.501s41.333 -20.834 76 -33.501l32 -12c34 -12.667 61.333 -25.167 82 -37.5s37.167 -27.666 49.5 -45.999s18.5 -41.5 18.5 -69.5c0 -44 -17.5 -77.5 -52.5 -100.5
s-86.5 -34.5 -154.5 -34.5c-39.333 0 -77.333 5 -114 15z" />
    <glyph glyph-name="uni0162" unicode="&#x162;" horiz-adv-x="590" 
d="M573 647v-161h-95v37c0 13.333 -3 22.833 -9 28.5s-16 8.5 -30 8.5h-78v-436c0 -12.667 3.16699 -22 9.5 -28s16.5 -9 30.5 -9h25v-87h-69l-7 -43c27.333 -4.66699 47.333 -14.167 60 -28.5s19 -33.833 19 -58.5c0 -31.333 -12 -55.5 -36 -72.5s-60.667 -25.5 -110 -25.5
c-32.667 0 -61.667 5 -87 15v73c23.333 -10 47.333 -15 72 -15c32.667 0 49 10 49 30c0 16 -6.33301 27.5 -19 34.5s-37 10.5 -73 10.5l12 80h-72v87h25c14 0 24 3 30 9s9 15.333 9 28v436h-78c-14 0 -24 -2.83301 -30 -8.5s-9 -15.167 -9 -28.5v-37h-95v161h556z" />
    <glyph glyph-name="uni0163" unicode="&#x163;" horiz-adv-x="453" 
d="M165 -213l-0.000976562 73c23.333 -10 47.333 -15 72 -15c32.667 0 49 10 49 30c0 16 -6.33301 27.5 -19 34.5s-37 10.5 -73 10.5l11 74c-74.667 18.667 -112 71 -112 157v244h-76v85h76v103l133 39v-142h137v-85h-137v-254c0 -25.333 4.83301 -43.5 14.5 -54.5
s24.834 -16.5 45.501 -16.5c25.333 0 45 6 59 18v43h111v-84c-38 -32 -82 -51.667 -132 -59l-5 -31c27.333 -4.66699 47.333 -14.167 60 -28.5s19 -33.833 19 -58.5c0 -31.333 -12 -55.5 -36 -72.5s-60.667 -25.5 -110 -25.5c-32.667 0 -61.667 5 -87 15z" />
    <glyph glyph-name="Tcaron" unicode="&#x164;" horiz-adv-x="590" 
d="M105 893h120l70 -120l70 120h121l-130 -193h-120zM165 87h25c14 0 24 3 30 9s9 15.333 9 28v436h-78c-14 0 -24 -2.83301 -30 -8.5s-9 -15.167 -9 -28.5v-37h-95v161h556v-161h-95v37c0 13.333 -3 22.833 -9 28.5s-16 8.5 -30 8.5h-78v-436
c0 -12.667 3.16699 -22 9.5 -28s16.5 -9 30.5 -9h25v-87h-261v87z" />
    <glyph glyph-name="tcaron" unicode="&#x165;" horiz-adv-x="453" 
d="M330 756h141l-65 -214h-108zM139.5 27.5c-31 28.333 -46.5 69.5 -46.5 123.5v242h-76v87h76v103l131 39v-142h137v-87h-137v-252c0 -24.667 5.16699 -42.667 15.5 -54s25.833 -17 46.5 -17c25.333 0 45 6 59 18v43h106v-84c-41.333 -41.333 -99 -62 -173 -62
c-61.333 0 -107.5 14.167 -138.5 42.5z" />
    <glyph glyph-name="Tbar" unicode="&#x166;" horiz-adv-x="590" 
d="M573 647v-161h-95v37c0 13.333 -3 22.833 -9 28.5s-16 8.5 -30 8.5h-78v-200h110v-81h-110v-155c0 -12.667 3.16699 -22 9.5 -28s16.5 -9 30.5 -9h25v-87h-261v87h25c14 0 24 3 30 9s9 15.333 9 28v155h-110v81h110v200h-78c-14 0 -24 -2.83301 -30 -8.5
s-9 -15.167 -9 -28.5v-37h-95v161h556z" />
    <glyph glyph-name="tbar" unicode="&#x167;" horiz-adv-x="453" 
d="M139.5 27.5c-31 28.333 -46.502 69.5 -46.502 123.5v66h-76v81h76v97h-76v85h76v103l133 39v-142h138v-85h-138v-97h138v-81h-138v-76c0 -25.333 4.83301 -43.5 14.5 -54.5s24.834 -16.5 45.501 -16.5c25.333 0 45 6 59 18v43h111v-84
c-49.333 -41.333 -108.666 -62 -177.999 -62c-61.333 0 -107.5 14.167 -138.5 42.5z" />
    <glyph glyph-name="Utilde" unicode="&#x168;" horiz-adv-x="666" 
d="M156.5 815.5c19 25 48.8311 37.5 89.498 37.5c18 0 33.667 -2.5 47 -7.5s29.333 -12.5 48 -22.5c13.333 -7.33301 24.333 -12.833 33 -16.5s17.667 -5.5 27 -5.5c14.667 0 25.667 4.16699 33 12.5s11 21.5 11 39.5h93c0 -53.333 -9 -92.166 -27 -116.499
s-47 -36.5 -87 -36.5c-18 0 -34.167 2.5 -48.5 7.5s-30.166 12.167 -47.499 21.5c-14 7.33301 -25.333 12.666 -34 15.999s-17.667 5 -27 5c-15.333 0 -26.666 -3.83301 -33.999 -11.5s-11 -20.5 -11 -38.5h-94c0 52 9.5 90.5 28.5 115.5zM140.998 38.5
c-42.667 35.667 -64 84.5 -64 146.5v339c0 12.667 -2.83301 21.834 -8.5 27.501s-15.5 8.5 -29.5 8.5h-22v87h248v-87h-22c-13.333 0 -23 -2.83301 -29 -8.5s-9 -14.834 -9 -27.501v-345c0 -70 42.667 -105 128 -105s128 35 128 105v345
c0 12.667 -2.83301 21.834 -8.5 27.501s-15.5 8.5 -29.5 8.5h-22v87h248v-87h-22c-13.333 0 -23 -2.83301 -29 -8.5s-9 -14.834 -9 -27.501v-339c0 -62 -21.5 -110.833 -64.5 -146.5s-106.833 -53.5 -191.5 -53.5c-85.333 0 -149.333 17.833 -192 53.5z" />
    <glyph glyph-name="utilde" unicode="&#x169;" horiz-adv-x="597" 
d="M116.5 639.5c19 25 48.8311 37.5 89.498 37.5c18 0 33.667 -2.5 47 -7.5s29.333 -12.5 48 -22.5c13.333 -7.33301 24.333 -12.833 33 -16.5s17.667 -5.5 27 -5.5c14.667 0 25.667 4.16699 33 12.5s11 21.5 11 39.5h93c0 -53.333 -9 -92.166 -27 -116.499
s-47 -36.5 -87 -36.5c-18 0 -34.167 2.5 -48.5 7.5s-30.166 12.167 -47.499 21.5c-14 7.33301 -25.333 12.666 -34 15.999s-17.667 5 -27 5c-15.333 0 -26.666 -3.83301 -33.999 -11.5s-11 -20.5 -11 -38.5h-94c0 52 9.5 90.5 28.5 115.5zM122.998 28
c-28.667 28.667 -42.999 70 -42.999 124v204c0 12.667 -2.83301 22 -8.5 28s-15.167 9 -28.5 9h-26v87h194v-327c0 -29.333 6.5 -50.5 19.5 -63.5s33.167 -19.5 60.5 -19.5c28 0 50.5 8 67.5 24s25.5 39 25.5 69v193c0 12.667 -2.83301 22 -8.5 28s-15.167 9 -28.5 9h-26v87
h259v-87h-26c-14 0 -24 -3.16699 -30 -9.5s-9 -16.166 -9 -29.499v-230c0 -12.667 2.83301 -22 8.5 -28s15.167 -9 28.5 -9h28v-87h-149l-6 66c-22 -28.667 -46 -49.334 -72 -62.001s-60 -19 -102 -19c-56.667 0 -99.334 14.333 -128.001 43z" />
    <glyph glyph-name="Umacron" unicode="&#x16a;" horiz-adv-x="666" 
d="M184 801h299v-81h-299v81zM141 38.5c-42.667 35.667 -64 84.5 -64 146.5v339c0 12.667 -2.83301 21.834 -8.5 27.501s-15.5 8.5 -29.5 8.5h-22v87h248v-87h-22c-13.333 0 -23 -2.83301 -29 -8.5s-9 -14.834 -9 -27.501v-345c0 -70 42.667 -105 128 -105s128 35 128 105
v345c0 12.667 -2.83301 21.834 -8.5 27.501s-15.5 8.5 -29.5 8.5h-22v87h248v-87h-22c-13.333 0 -23 -2.83301 -29 -8.5s-9 -14.834 -9 -27.501v-339c0 -62 -21.5 -110.833 -64.5 -146.5s-106.833 -53.5 -191.5 -53.5c-85.333 0 -149.333 17.833 -192 53.5z" />
    <glyph glyph-name="umacron" unicode="&#x16b;" horiz-adv-x="597" 
d="M128 625h299v-81h-299v81zM123 28c-28.667 28.667 -42.999 70 -42.999 124v204c0 12.667 -2.83301 22 -8.5 28s-15.167 9 -28.5 9h-26v87h194v-327c0 -29.333 6.5 -50.5 19.5 -63.5s33.167 -19.5 60.5 -19.5c28 0 50.5 8 67.5 24s25.5 39 25.5 69v193
c0 12.667 -2.83301 22 -8.5 28s-15.167 9 -28.5 9h-26v87h259v-87h-26c-14 0 -24 -3.16699 -30 -9.5s-9 -16.166 -9 -29.499v-230c0 -12.667 2.83301 -22 8.5 -28s15.167 -9 28.5 -9h28v-87h-149l-6 66c-22 -28.667 -46 -49.334 -72 -62.001s-60 -19 -102 -19
c-56.667 0 -99.334 14.333 -128.001 43z" />
    <glyph glyph-name="Ubreve" unicode="&#x16c;" horiz-adv-x="666" 
d="M209 740c-30 27.333 -44.999 63.666 -44.999 108.999h109c0 -22 5.16699 -39 15.5 -51s25.166 -18 44.499 -18c40 0 60 23 60 69h109c0 -45.333 -15 -81.666 -45 -108.999s-71.333 -41 -124 -41s-94 13.667 -124 41zM141.001 38.5c-42.667 35.667 -64 84.5 -64 146.5v339
c0 12.667 -2.83301 21.834 -8.5 27.501s-15.5 8.5 -29.5 8.5h-22v87h248v-87h-22c-13.333 0 -23 -2.83301 -29 -8.5s-9 -14.834 -9 -27.501v-345c0 -70 42.667 -105 128 -105s128 35 128 105v345c0 12.667 -2.83301 21.834 -8.5 27.501s-15.5 8.5 -29.5 8.5h-22v87h248v-87
h-22c-13.333 0 -23 -2.83301 -29 -8.5s-9 -14.834 -9 -27.501v-339c0 -62 -21.5 -110.833 -64.5 -146.5s-106.833 -53.5 -191.5 -53.5c-85.333 0 -149.333 17.833 -192 53.5z" />
    <glyph glyph-name="ubreve" unicode="&#x16d;" horiz-adv-x="597" 
d="M156 577c-30 27.333 -44.999 63.666 -44.999 108.999h109c0 -22 5.16699 -39 15.5 -51s25.166 -18 44.499 -18c40 0 60 23 60 69h109c0 -45.333 -15 -81.666 -45 -108.999s-71.333 -41 -124 -41s-94 13.667 -124 41zM123.001 28c-28.667 28.667 -42.999 70 -42.999 124
v204c0 12.667 -2.83301 22 -8.5 28s-15.167 9 -28.5 9h-26v87h194v-327c0 -29.333 6.5 -50.5 19.5 -63.5s33.167 -19.5 60.5 -19.5c28 0 50.5 8 67.5 24s25.5 39 25.5 69v193c0 12.667 -2.83301 22 -8.5 28s-15.167 9 -28.5 9h-26v87h259v-87h-26
c-14 0 -24 -3.16699 -30 -9.5s-9 -16.166 -9 -29.499v-230c0 -12.667 2.83301 -22 8.5 -28s15.167 -9 28.5 -9h28v-87h-149l-6 66c-22 -28.667 -46 -49.334 -72 -62.001s-60 -19 -102 -19c-56.667 0 -99.334 14.333 -128.001 43z" />
    <glyph glyph-name="Uring" unicode="&#x16e;" horiz-adv-x="666" 
d="M250.5 732.5c-22.333 22.333 -33.5 49.833 -33.5 82.5c0 32 11.167 59.333 33.5 82s49.833 34 82.5 34s60.334 -11.333 83.001 -34s34 -50 34 -82c0 -32.667 -11.333 -60.167 -34 -82.5s-50.334 -33.5 -83.001 -33.5s-60.167 11.167 -82.5 33.5zM366.5 781
c9 9.33301 13.5 20.666 13.5 33.999s-4.5 24.666 -13.5 33.999s-20.167 14 -33.5 14s-24.5 -4.66699 -33.5 -14s-13.5 -20.666 -13.5 -33.999s4.5 -24.666 13.5 -33.999s20.167 -14 33.5 -14s24.5 4.66699 33.5 14zM141 38.5c-42.667 35.667 -64 84.5 -64 146.5v339
c0 12.667 -2.83301 21.834 -8.5 27.501s-15.5 8.5 -29.5 8.5h-22v87h248v-87h-22c-13.333 0 -23 -2.83301 -29 -8.5s-9 -14.834 -9 -27.501v-345c0 -70 42.667 -105 128 -105s128 35 128 105v345c0 12.667 -2.83301 21.834 -8.5 27.501s-15.5 8.5 -29.5 8.5h-22v87h248v-87
h-22c-13.333 0 -23 -2.83301 -29 -8.5s-9 -14.834 -9 -27.501v-339c0 -62 -21.5 -110.833 -64.5 -146.5s-106.833 -53.5 -191.5 -53.5c-85.333 0 -149.333 17.833 -192 53.5z" />
    <glyph glyph-name="uring" unicode="&#x16f;" horiz-adv-x="597" 
d="M190.5 557.5c-22.333 22.333 -33.5 49.833 -33.5 82.5c0 32 11.167 59.333 33.5 82s49.833 34 82.5 34s60.334 -11.333 83.001 -34s34 -50 34 -82c0 -32.667 -11.333 -60.167 -34 -82.5s-50.334 -33.5 -83.001 -33.5s-60.167 11.167 -82.5 33.5zM306.5 606
c9 9.33301 13.5 20.666 13.5 33.999s-4.5 24.666 -13.5 33.999s-20.167 14 -33.5 14s-24.5 -4.66699 -33.5 -14s-13.5 -20.666 -13.5 -33.999s4.5 -24.666 13.5 -33.999s20.167 -14 33.5 -14s24.5 4.66699 33.5 14zM123 28c-28.667 28.667 -42.999 70 -42.999 124v204
c0 12.667 -2.83301 22 -8.5 28s-15.167 9 -28.5 9h-26v87h194v-327c0 -29.333 6.5 -50.5 19.5 -63.5s33.167 -19.5 60.5 -19.5c28 0 50.5 8 67.5 24s25.5 39 25.5 69v193c0 12.667 -2.83301 22 -8.5 28s-15.167 9 -28.5 9h-26v87h259v-87h-26c-14 0 -24 -3.16699 -30 -9.5
s-9 -16.166 -9 -29.499v-230c0 -12.667 2.83301 -22 8.5 -28s15.167 -9 28.5 -9h28v-87h-149l-6 66c-22 -28.667 -46 -49.334 -72 -62.001s-60 -19 -102 -19c-56.667 0 -99.334 14.333 -128.001 43z" />
    <glyph glyph-name="Uhungarumlaut" unicode="&#x170;" horiz-adv-x="666" 
d="M229 892h152l-122 -193h-118zM444 892h154l-124 -193h-117zM141 38.5c-42.667 35.667 -64 84.5 -64 146.5v339c0 12.667 -2.83301 21.834 -8.5 27.501s-15.5 8.5 -29.5 8.5h-22v87h248v-87h-22c-13.333 0 -23 -2.83301 -29 -8.5s-9 -14.834 -9 -27.501v-345
c0 -70 42.667 -105 128 -105s128 35 128 105v345c0 12.667 -2.83301 21.834 -8.5 27.501s-15.5 8.5 -29.5 8.5h-22v87h248v-87h-22c-13.333 0 -23 -2.83301 -29 -8.5s-9 -14.834 -9 -27.501v-339c0 -62 -21.5 -110.833 -64.5 -146.5s-106.833 -53.5 -191.5 -53.5
c-85.333 0 -149.333 17.833 -192 53.5z" />
    <glyph glyph-name="uhungarumlaut" unicode="&#x171;" horiz-adv-x="597" 
d="M201 716h152l-122 -193h-118zM416 716h154l-124 -193h-117zM123 28c-28.667 28.667 -42.999 70 -42.999 124v204c0 12.667 -2.83301 22 -8.5 28s-15.167 9 -28.5 9h-26v87h194v-327c0 -29.333 6.5 -50.5 19.5 -63.5s33.167 -19.5 60.5 -19.5c28 0 50.5 8 67.5 24
s25.5 39 25.5 69v193c0 12.667 -2.83301 22 -8.5 28s-15.167 9 -28.5 9h-26v87h259v-87h-26c-14 0 -24 -3.16699 -30 -9.5s-9 -16.166 -9 -29.499v-230c0 -12.667 2.83301 -22 8.5 -28s15.167 -9 28.5 -9h28v-87h-149l-6 66c-22 -28.667 -46 -49.334 -72 -62.001
s-60 -19 -102 -19c-56.667 0 -99.334 14.333 -128.001 43z" />
    <glyph glyph-name="Uogonek" unicode="&#x172;" horiz-adv-x="667" 
d="M273.5 -186.5c-18.333 17 -27.499 41.5029 -27.499 73.5029c0 18.667 3.33301 36.667 10 54s16 32.666 28 45.999c-68.667 6.66699 -120.334 27.5 -155.001 62.5s-52 80.167 -52 135.5v339c0 12.667 -2.83301 21.834 -8.5 27.501s-15.5 8.5 -29.5 8.5h-22v87h248v-87h-22
c-13.333 0 -23 -2.83301 -29 -8.5s-9 -14.834 -9 -27.501v-345c0 -70 42.667 -105 128 -105s128 35 128 105v345c0 12.667 -2.83301 21.834 -8.5 27.501s-15.5 8.5 -29.5 8.5h-22v87h248v-87h-22c-13.333 0 -23 -2.83301 -29 -8.5s-9 -14.834 -9 -27.501v-339
c0 -54 -16.5 -98.333 -49.5 -133s-82.167 -56 -147.5 -64c-22.667 -20.667 -34 -44.334 -34 -71.001c0 -28 11.333 -42 34 -42c12.667 0 26 2.66699 40 8v-74c-13.333 -8.66699 -26.333 -14.334 -39 -17.001s-29 -4 -49 -4c-28.667 0 -52.167 8.5 -70.5 25.5z" />
    <glyph glyph-name="uogonek" unicode="&#x173;" horiz-adv-x="597" 
d="M524 383.5c-6 -6.33301 -8.99707 -16.166 -8.99707 -29.499v-230c0 -12.667 2.83301 -22 8.5 -28s15.167 -9 28.5 -9h28v-87h-40c-16.667 -13.333 -29 -26.5 -37 -39.5s-12 -27.5 -12 -43.5c0 -28 11.333 -42 34 -42c12 0 25 2.66699 39 8v-74
c-20.667 -14.667 -47.334 -22 -80.001 -22c-30.667 0 -55.834 8.33301 -75.501 25s-29.5 41.667 -29.5 75c0 22 4.66699 43 14 63s22 36.667 38 50l-6 66c-22 -28.667 -46 -49.334 -72 -62.001s-60 -19 -102 -19c-56.667 0 -99.334 14.333 -128.001 43s-43 70 -43 124v204
c0 12.667 -2.83301 22 -8.5 28s-15.167 9 -28.5 9h-26v87h194v-327c0 -29.333 6.5 -50.5 19.5 -63.5s33.167 -19.5 60.5 -19.5c28 0 50.5 8 67.5 24s25.5 39 25.5 69v193c0 12.667 -2.83301 22 -8.5 28s-15.167 9 -28.5 9h-26v87h259v-87h-26c-14 0 -24 -3.16699 -30 -9.5z
" />
    <glyph glyph-name="Wcircumflex" unicode="&#x174;" horiz-adv-x="863" 
d="M372 893h120l130 -193h-121l-70 120l-70 -120h-120zM106 516c-4 17.333 -10.3311 29 -18.998 35s-23.334 9 -44.001 9h-16v87h173l87 -416l95 307h98l96 -307l88 416h172v-87h-17c-20.667 0 -35.334 -3 -44.001 -9s-15 -17.667 -19 -35l-114 -516h-107l-104 318
l-102 -318h-108z" />
    <glyph glyph-name="wcircumflex" unicode="&#x175;" horiz-adv-x="763" 
d="M323 716h120l130 -193h-121l-70 120l-70 -120h-120zM87 362c-2.66699 12 -7.5 20.167 -14.5 24.5s-17.5 6.5 -31.5 6.5h-24v87h158l74 -321l86 278h92l86 -278l76 321h157v-87h-24c-14 0 -24.5 -2.16699 -31.5 -6.5s-11.833 -12.5 -14.5 -24.5l-88 -362h-121l-85 274
l-87 -274h-120z" />
    <glyph glyph-name="Ycircumflex" unicode="&#x176;" horiz-adv-x="669" 
d="M276 893h120l130 -193h-121l-70 120l-70 -120h-120zM204 87h25c14 0 24 3.16699 30 9.5s9 15.833 9 28.5v114l-152 280c-8.66699 16 -17.5 26.833 -26.5 32.5s-22.167 8.5 -39.5 8.5h-23v87h242v-87h-14c-11.333 0 -17 -3.66699 -17 -11
c0 -5.33301 2.66699 -13.333 8 -24l89 -179l88 179c5.33301 10.667 8 18.667 8 24c0 7.33301 -5.66699 11 -17 11h-14v87h242v-87h-23c-17.333 0 -30.5 -2.83301 -39.5 -8.5s-17.833 -16.5 -26.5 -32.5l-153 -280v-115c0 -12.667 3.16699 -22 9.5 -28s16.5 -9 30.5 -9h25
v-87h-261v87z" />
    <glyph glyph-name="ycircumflex" unicode="&#x177;" horiz-adv-x="575" 
d="M227 716h120l130 -193h-121l-70 120l-70 -120h-120zM199 -182c-34.667 12 -64.001 29.332 -88.001 51.999v75h113v-35c10 -9.33301 21.833 -15.833 35.5 -19.5s30.834 -5.5 51.501 -5.5c61.333 0 92 36 92 108v54c-36 -28 -79 -42 -129 -42
c-60 0 -107.167 15.167 -141.5 45.5s-51.5 72.833 -51.5 127.5v178c0 24.667 -12.667 37 -38 37h-26v87h197v-307c0 -55.333 28.333 -83 85 -83c29.333 0 52.5 8.33301 69.5 25s25.5 40.667 25.5 72v169c0 24.667 -12.667 37 -38 37h-26v87h198v-464
c0 -65.333 -19.167 -117.666 -57.5 -156.999s-90.166 -59 -155.499 -59c-42.667 0 -81.334 6 -116.001 18z" />
    <glyph glyph-name="Ydieresis" unicode="&#x178;" horiz-adv-x="669" 
d="M170 828h104v-109h-104v109zM395 828h105v-109h-105v109zM204 87h25c14 0 24 3.16699 30 9.5s9 15.833 9 28.5v114l-152 280c-8.66699 16 -17.5 26.833 -26.5 32.5s-22.167 8.5 -39.5 8.5h-23v87h242v-87h-14c-11.333 0 -17 -3.66699 -17 -11
c0 -5.33301 2.66699 -13.333 8 -24l89 -179l88 179c5.33301 10.667 8 18.667 8 24c0 7.33301 -5.66699 11 -17 11h-14v87h242v-87h-23c-17.333 0 -30.5 -2.83301 -39.5 -8.5s-17.833 -16.5 -26.5 -32.5l-153 -280v-115c0 -12.667 3.16699 -22 9.5 -28s16.5 -9 30.5 -9h25
v-87h-261v87z" />
    <glyph glyph-name="Zacute" unicode="&#x179;" horiz-adv-x="565" 
d="M293 879h148l-113 -180h-112zM27 72l345 488h-177c-14 0 -24 -2.83301 -30 -8.5s-9 -15.167 -9 -28.5v-17h-120v141h486v-71l-338 -489h195c14 0 24 3 30 9s9 15.667 9 29v16h120v-141h-511v72z" />
    <glyph glyph-name="zacute" unicode="&#x17a;" horiz-adv-x="502" 
d="M268 704h148l-113 -180h-112zM27 64l277 328h-146c-26 0 -39 -12.333 -39 -37v-18h-84v143h430v-65l-276 -327h162c14 0 24.167 3 30.5 9s9.5 15.333 9.5 28v17h84v-142h-448v64z" />
    <glyph glyph-name="Zdotaccent" unicode="&#x17b;" horiz-adv-x="565" 
d="M244 816h104v-109h-104v109zM27 72l345 488h-177c-14 0 -24 -2.83301 -30 -8.5s-9 -15.167 -9 -28.5v-17h-120v141h486v-71l-338 -489h195c14 0 24 3 30 9s9 15.667 9 29v16h120v-141h-511v72z" />
    <glyph glyph-name="zdotaccent" unicode="&#x17c;" horiz-adv-x="502" 
d="M210 653h104v-109h-104v109zM27 64l277 328h-146c-26 0 -39 -12.333 -39 -37v-18h-84v143h430v-65l-276 -327h162c14 0 24.167 3 30.5 9s9.5 15.333 9.5 28v17h84v-142h-448v64z" />
    <glyph glyph-name="Zcaron" unicode="&#x17d;" horiz-adv-x="565" 
d="M103 893h120l70 -120l70 120h121l-130 -193h-120zM27 72l345 488h-177c-14 0 -24 -2.83301 -30 -8.5s-9 -15.167 -9 -28.5v-17h-120v141h486v-71l-338 -489h195c14 0 24 3 30 9s9 15.667 9 29v16h120v-141h-511v72z" />
    <glyph glyph-name="zcaron" unicode="&#x17e;" horiz-adv-x="502" 
d="M72 716h120l70 -120l70 120h121l-130 -193h-120zM27 64l277 328h-146c-26 0 -39 -12.333 -39 -37v-18h-84v143h430v-65l-276 -327h162c14 0 24.167 3 30.5 9s9.5 15.333 9.5 28v17h84v-142h-448v64z" />
    <glyph glyph-name="uni018F" unicode="&#x18f;" horiz-adv-x="679" 
d="M165 25.5c-46.667 27 -81.3311 64.332 -103.998 111.999s-34 102.167 -34 163.5v71h495c0 134.667 -64 202 -192 202c-61.333 0 -110.333 -8.66699 -147 -26v-68h-135v101c37.333 28 79.166 48.5 125.499 61.5s98.5 19.5 156.5 19.5c96.667 0 174.5 -27.167 233.5 -81.5
s88.5 -136.166 88.5 -245.499c0 -114.667 -26.333 -201.667 -79 -261s-131 -89 -235 -89c-68.667 0 -126.334 13.5 -173.001 40.5zM477.503 130.499c29.667 38.333 44.5 88.833 44.5 151.5h-359c0 -66.667 14.667 -118.167 44 -154.5s73 -54.5 131 -54.5
c63.333 0 109.833 19.167 139.5 57.5z" />
    <glyph glyph-name="florin" unicode="&#x192;" horiz-adv-x="614" 
d="M-98.5 -144.5c-28.333 9.66699 -51.1689 23.167 -68.502 40.5l19 87h106l-9 -41c10 -10.667 28 -16 54 -16c22 0 39 5.66699 51 17s20.667 29 26 53l85 397h-76l19 87h75l5 28c10 56.667 33.333 99 70 127s88.334 42 155.001 42c36 0 67.833 -4.83301 95.5 -14.5
s50.5 -23.167 68.5 -40.5l-19 -87h-107l9 40c-13.333 11.333 -30.666 17 -51.999 17c-48 0 -76 -23.333 -84 -70l-7 -42h138l-19 -87h-138l-82 -383c-12 -56 -34.333 -98.167 -67 -126.5s-83 -42.5 -151 -42.5c-36 0 -68.167 4.83301 -96.5 14.5z" />
    <glyph glyph-name="Ohorn" unicode="&#x1a0;" horiz-adv-x="720" 
d="M102 68.5c-50 55.667 -74.999 139.834 -74.999 252.501c0 114 24.333 199.333 73 256s126 85 232 85c98.667 0 173 -26.333 223 -79c19.333 6 31.666 13.833 36.999 23.5s8 24.5 8 44.5v38h128v-39c0 -40 -9.66699 -72.5 -29 -97.5s-50.333 -41.833 -93 -50.5
c20 -48.667 30 -109 30 -181c0 -112.667 -25 -196.834 -75 -252.501s-126.333 -83.5 -229 -83.5c-103.333 0 -180 27.833 -230 83.5zM464.001 130.5c27.333 37.667 40.998 101.168 40.998 190.501c0 91.333 -13.667 156.166 -41 194.499s-71.333 57.5 -132 57.5
c-41.333 0 -74.666 -8.16699 -99.999 -24.5s-44.166 -43 -56.499 -80s-18.5 -86.167 -18.5 -147.5c0 -89.333 13.833 -152.833 41.5 -190.5s72.167 -56.5 133.5 -56.5c60.667 0 104.667 18.833 132 56.5z" />
    <glyph glyph-name="ohorn" unicode="&#x1a1;" horiz-adv-x="625" 
d="M91.5 51c-43 44 -64.5029 106.668 -64.5029 188.001c0 82 21.333 145.167 64 189.5s105.334 66.5 188.001 66.5c78.667 0 139.334 -20.333 182.001 -61c16.667 3.33301 28.334 10.166 35.001 20.499s10 25.5 10 45.5v38h127v-39c0 -39.333 -9.5 -71.5 -28.5 -96.5
s-49.167 -41.833 -90.5 -50.5c11.333 -31.333 17 -69 17 -113c0 -81.333 -21.5 -144 -64.5 -188s-105.5 -66 -187.5 -66s-144.5 22 -187.5 66zM371.497 114.001c19.667 26.667 29.5 68.334 29.5 125.001c0 57.333 -9.83301 99.5 -29.5 126.5s-50.5 40.5 -92.5 40.5
s-72.833 -13.5 -92.5 -40.5s-29.5 -69.167 -29.5 -126.5c0 -56.667 9.83301 -98.334 29.5 -125.001s50.5 -40 92.5 -40s72.833 13.333 92.5 40z" />
    <glyph glyph-name="Uhorn" unicode="&#x1af;" horiz-adv-x="755" 
d="M141 38.5c-42.667 35.667 -64 84.499 -64 146.499v339c0 12.667 -2.83301 21.834 -8.5 27.501s-15.5 8.5 -29.5 8.5h-22v87h248v-87h-22c-13.333 0 -23 -2.83301 -29 -8.5s-9 -14.834 -9 -27.501v-345c0 -70 42.667 -105 128 -105c84.667 0 127 35 127 105v345
c0 12.667 -2.83301 21.834 -8.5 27.501s-15.5 8.5 -29.5 8.5h-22v87h188v-61c18.667 2 31.334 8 38.001 18s10 25.667 10 47v38h127v-39c0 -47.333 -13.667 -84.333 -41 -111s-72 -42 -134 -46v-308c0 -62 -21.333 -110.833 -64 -146.5s-106.334 -53.5 -191.001 -53.5
c-85.333 0 -149.333 17.833 -192 53.5z" />
    <glyph glyph-name="uhorn" unicode="&#x1b0;" horiz-adv-x="676" 
d="M123 28c-28.667 28.667 -42.999 70.0029 -42.999 124.003v204c0 12.667 -2.83301 22 -8.5 28s-15.167 9 -28.5 9h-26v87h194v-327c0 -29.333 6.5 -50.5 19.5 -63.5s33.167 -19.5 60.5 -19.5c28 0 50.5 8 67.5 24s25.5 39 25.5 69v193c0 12.667 -2.83301 22 -8.5 28
s-15.167 9 -28.5 9h-26v87h194v-45c17.333 2.66699 28.833 9 34.5 19s8.5 25.333 8.5 46v38h126v-39c0 -46.667 -13.167 -83.334 -39.5 -110.001s-69.5 -42.334 -129.5 -47.001v-218c0 -12.667 2.83301 -22 8.5 -28s15.167 -9 28.5 -9h28v-87h-149l-6 66
c-22 -28.667 -46 -49.334 -72 -62.001s-60 -19 -102 -19c-56.667 0 -99.334 14.333 -128.001 43z" />
    <glyph glyph-name="uni01CD" unicode="&#x1cd;" horiz-adv-x="717" 
d="M170 892h120l70 -120l70 120h121l-130 -193h-120zM27 87h29c16 0 28 2.5 36 7.5s14.333 14.5 19 28.5l185 524h127l182 -524c4.66699 -14 11.167 -23.5 19.5 -28.5s20.833 -7.5 37.5 -7.5h28v-87h-250v87h46l-36 110h-182l-37 -110h46v-87h-250v87zM428 269l-68 207
l-70 -207h138z" />
    <glyph glyph-name="uni01CE" unicode="&#x1ce;" horiz-adv-x="525" 
d="M71 716h120l70 -120l70 120h121l-130 -193h-120zM59.5 20c-28.333 23.333 -42.502 56.666 -42.502 99.999c0 48.667 15.833 84.834 47.5 108.501s77.5 37.167 137.5 40.5l123 8v59c0 25.333 -5.66699 43.333 -17 54s-30.333 16 -57 16c-30.667 0 -56.667 -6 -78 -18v-39
h-113v92c58 36 123 54 195 54c70 0 121.167 -15.333 153.5 -46s48.5 -72.667 48.5 -126v-199c0 -12.667 2.5 -22 7.5 -28s13.167 -9 24.5 -9h19v-87h-124l-13 60c-23.333 -28 -48.666 -47.5 -75.999 -58.5s-64 -16.5 -110 -16.5c-55.333 0 -97.166 11.667 -125.499 35z
M295.998 93c19.333 15.333 29 38 29 68v41l-111 -8c-28 -2 -47.333 -7.83301 -58 -17.5s-16 -25.5 -16 -47.5c0 -39.333 25 -59 75 -59c34.667 0 61.667 7.66699 81 23z" />
    <glyph glyph-name="uni01CF" unicode="&#x1cf;" horiz-adv-x="313" 
d="M-37 893h120l70 -120l70 120h121l-130 -193h-120zM27 87l26 0.000976562c14 0 24 3.16699 30 9.5s9 16.166 9 29.499v397c0 12.667 -3 22 -9 28s-16 9 -30 9h-26v87h259v-87h-26c-13.333 0 -22.833 -3 -28.5 -9s-8.5 -15.333 -8.5 -28v-399
c0 -12.667 2.83301 -22 8.5 -28s15.167 -9 28.5 -9h26v-87h-259v87z" />
    <glyph glyph-name="uni01D0" unicode="&#x1d0;" horiz-adv-x="293" 
d="M-57 707h120l70 -120l70 120h121l-130 -193h-120zM17 87h26c14 0 24 3.16699 30 9.5s9 16.166 9 29.499v225c0 14.667 -2.5 25.334 -7.5 32.001s-14.833 10 -29.5 10h-28v87h196v-356c0 -12.667 2.83301 -22 8.5 -28s15.167 -9 28.5 -9h26v-87h-259v87z" />
    <glyph glyph-name="uni01D1" unicode="&#x1d1;" horiz-adv-x="663" 
d="M141 893h120l70 -120l70 120h121l-130 -193h-120zM102 68.5c-50 55.667 -75 139.834 -75 252.501c0 114 24.333 199.333 73 256s126 85 232 85c104.667 0 181.5 -28.333 230.5 -85s73.5 -142 73.5 -256c0 -112.667 -25 -196.834 -75 -252.501s-126.333 -83.5 -229 -83.5
c-103.333 0 -180 27.833 -230 83.5zM464.5 131c27.667 38 41.498 101.332 41.498 189.999c0 90.667 -13.833 155.334 -41.5 194.001s-71.834 58 -132.501 58c-41.333 0 -74.666 -8.16699 -99.999 -24.5s-44.166 -43 -56.499 -80s-18.5 -86.167 -18.5 -147.5
c0 -89.333 13.833 -152.833 41.5 -190.5s72.167 -56.5 133.5 -56.5c60.667 0 104.834 19 132.501 57z" />
    <glyph glyph-name="uni01D2" unicode="&#x1d2;" horiz-adv-x="558" 
d="M89 716h120l70 -120l70 120h121l-130 -193h-120zM91.5 51c-43 44 -64.5 106.667 -64.5 188c0 82 21.333 145.167 64 189.5s105.334 66.5 188.001 66.5c83.333 0 146.166 -22.167 188.499 -66.5s63.5 -107.5 63.5 -189.5c0 -81.333 -21.5 -144 -64.5 -188
s-105.5 -66 -187.5 -66s-144.5 22 -187.5 66zM371.5 114c19.667 26.667 29.5 68.334 29.5 125.001c0 57.333 -9.83301 99.5 -29.5 126.5s-50.5 40.5 -92.5 40.5s-72.833 -13.5 -92.5 -40.5s-29.5 -69.167 -29.5 -126.5c0 -56.667 9.83301 -98.334 29.5 -125.001
s50.5 -40 92.5 -40s72.833 13.333 92.5 40z" />
    <glyph glyph-name="uni01D3" unicode="&#x1d3;" horiz-adv-x="666" 
d="M143 893h120l70 -120l70 120h121l-130 -193h-120zM141 38.5c-42.667 35.667 -64 84.5 -64 146.5v339c0 12.667 -2.83301 21.834 -8.5 27.501s-15.5 8.5 -29.5 8.5h-22v87h248v-87h-22c-13.333 0 -23 -2.83301 -29 -8.5s-9 -14.834 -9 -27.501v-345
c0 -70 42.667 -105 128 -105s128 35 128 105v345c0 12.667 -2.83301 21.834 -8.5 27.501s-15.5 8.5 -29.5 8.5h-22v87h248v-87h-22c-13.333 0 -23 -2.83301 -29 -8.5s-9 -14.834 -9 -27.501v-339c0 -62 -21.5 -110.833 -64.5 -146.5s-106.833 -53.5 -191.5 -53.5
c-85.333 0 -149.333 17.833 -192 53.5z" />
    <glyph glyph-name="uni01D4" unicode="&#x1d4;" horiz-adv-x="597" 
d="M91 716h120l70 -120l70 120h121l-130 -193h-120zM123 28c-28.667 28.667 -42.999 70 -42.999 124v204c0 12.667 -2.83301 22 -8.5 28s-15.167 9 -28.5 9h-26v87h194v-327c0 -29.333 6.5 -50.5 19.5 -63.5s33.167 -19.5 60.5 -19.5c28 0 50.5 8 67.5 24s25.5 39 25.5 69
v193c0 12.667 -2.83301 22 -8.5 28s-15.167 9 -28.5 9h-26v87h259v-87h-26c-14 0 -24 -3.16699 -30 -9.5s-9 -16.166 -9 -29.499v-230c0 -12.667 2.83301 -22 8.5 -28s15.167 -9 28.5 -9h28v-87h-149l-6 66c-22 -28.667 -46 -49.334 -72 -62.001s-60 -19 -102 -19
c-56.667 0 -99.334 14.333 -128.001 43z" />
    <glyph glyph-name="uni01D5" unicode="&#x1d5;" horiz-adv-x="666" 
d="M184 957h299v-81h-299v81zM168 821h104v-109h-104v109zM393 821h105v-109h-105v109zM141 38.5c-42.667 35.667 -64 84.5 -64 146.5v339c0 12.667 -2.83301 21.834 -8.5 27.501s-15.5 8.5 -29.5 8.5h-22v87h248v-87h-22c-13.333 0 -23 -2.83301 -29 -8.5
s-9 -14.834 -9 -27.501v-345c0 -70 42.667 -105 128 -105s128 35 128 105v345c0 12.667 -2.83301 21.834 -8.5 27.501s-15.5 8.5 -29.5 8.5h-22v87h248v-87h-22c-13.333 0 -23 -2.83301 -29 -8.5s-9 -14.834 -9 -27.501v-339c0 -62 -21.5 -110.833 -64.5 -146.5
s-106.833 -53.5 -191.5 -53.5c-85.333 0 -149.333 17.833 -192 53.5z" />
    <glyph glyph-name="uni01D6" unicode="&#x1d6;" horiz-adv-x="597" 
d="M134 785h299v-81h-299v81zM118 648h104v-109h-104v109zM343 648h105v-109h-105v109zM123 28c-28.667 28.667 -42.999 70 -42.999 124v204c0 12.667 -2.83301 22 -8.5 28s-15.167 9 -28.5 9h-26v87h194v-327c0 -29.333 6.5 -50.5 19.5 -63.5s33.167 -19.5 60.5 -19.5
c28 0 50.5 8 67.5 24s25.5 39 25.5 69v193c0 12.667 -2.83301 22 -8.5 28s-15.167 9 -28.5 9h-26v87h259v-87h-26c-14 0 -24 -3.16699 -30 -9.5s-9 -16.166 -9 -29.499v-230c0 -12.667 2.83301 -22 8.5 -28s15.167 -9 28.5 -9h28v-87h-149l-6 66
c-22 -28.667 -46 -49.334 -72 -62.001s-60 -19 -102 -19c-56.667 0 -99.334 14.333 -128.001 43z" />
    <glyph glyph-name="uni01D7" unicode="&#x1d7;" horiz-adv-x="666" 
d="M346 1015h125l-100 -142h-87zM162 825h101v-109h-101v109zM389 825h103v-109h-103v109zM141 38.5c-42.667 35.667 -64 84.5 -64 146.5v339c0 12.667 -2.83301 21.834 -8.5 27.501s-15.5 8.5 -29.5 8.5h-22v87h248v-87h-22c-13.333 0 -23 -2.83301 -29 -8.5
s-9 -14.834 -9 -27.501v-345c0 -70 42.667 -105 128 -105s128 35 128 105v345c0 12.667 -2.83301 21.834 -8.5 27.501s-15.5 8.5 -29.5 8.5h-22v87h248v-87h-22c-13.333 0 -23 -2.83301 -29 -8.5s-9 -14.834 -9 -27.501v-339c0 -62 -21.5 -110.833 -64.5 -146.5
s-106.833 -53.5 -191.5 -53.5c-85.333 0 -149.333 17.833 -192 53.5z" />
    <glyph glyph-name="uni01D8" unicode="&#x1d8;" horiz-adv-x="597" 
d="M297 840h125l-100 -142h-87zM113 650h101v-109h-101v109zM340 650h103v-109h-103v109zM123 28c-28.667 28.667 -42.999 70 -42.999 124v204c0 12.667 -2.83301 22 -8.5 28s-15.167 9 -28.5 9h-26v87h194v-327c0 -29.333 6.5 -50.5 19.5 -63.5s33.167 -19.5 60.5 -19.5
c28 0 50.5 8 67.5 24s25.5 39 25.5 69v193c0 12.667 -2.83301 22 -8.5 28s-15.167 9 -28.5 9h-26v87h259v-87h-26c-14 0 -24 -3.16699 -30 -9.5s-9 -16.166 -9 -29.499v-230c0 -12.667 2.83301 -22 8.5 -28s15.167 -9 28.5 -9h28v-87h-149l-6 66
c-22 -28.667 -46 -49.334 -72 -62.001s-60 -19 -102 -19c-56.667 0 -99.334 14.333 -128.001 43z" />
    <glyph glyph-name="uni01D9" unicode="&#x1d9;" horiz-adv-x="666" 
d="M165 996h113l55 -78l58 78h111l-111 -138h-116zM167 825h103v-109h-103v109zM396 825h101v-109h-101v109zM141 38.5c-42.667 35.667 -64 84.5 -64 146.5v339c0 12.667 -2.83301 21.834 -8.5 27.501s-15.5 8.5 -29.5 8.5h-22v87h248v-87h-22
c-13.333 0 -23 -2.83301 -29 -8.5s-9 -14.834 -9 -27.501v-345c0 -70 42.667 -105 128 -105s128 35 128 105v345c0 12.667 -2.83301 21.834 -8.5 27.501s-15.5 8.5 -29.5 8.5h-22v87h248v-87h-22c-13.333 0 -23 -2.83301 -29 -8.5s-9 -14.834 -9 -27.501v-339
c0 -62 -21.5 -110.833 -64.5 -146.5s-106.833 -53.5 -191.5 -53.5c-85.333 0 -149.333 17.833 -192 53.5z" />
    <glyph glyph-name="uni01DA" unicode="&#x1da;" horiz-adv-x="597" 
d="M114 821h113l55 -78l58 78h111l-111 -138h-116zM116 650h103v-109h-103v109zM345 650h101v-109h-101v109zM123 28c-28.667 28.667 -42.999 70 -42.999 124v204c0 12.667 -2.83301 22 -8.5 28s-15.167 9 -28.5 9h-26v87h194v-327c0 -29.333 6.5 -50.5 19.5 -63.5
s33.167 -19.5 60.5 -19.5c28 0 50.5 8 67.5 24s25.5 39 25.5 69v193c0 12.667 -2.83301 22 -8.5 28s-15.167 9 -28.5 9h-26v87h259v-87h-26c-14 0 -24 -3.16699 -30 -9.5s-9 -16.166 -9 -29.499v-230c0 -12.667 2.83301 -22 8.5 -28s15.167 -9 28.5 -9h28v-87h-149l-6 66
c-22 -28.667 -46 -49.334 -72 -62.001s-60 -19 -102 -19c-56.667 0 -99.334 14.333 -128.001 43z" />
    <glyph glyph-name="uni01DB" unicode="&#x1db;" horiz-adv-x="666" 
d="M190 1015h125l62 -142h-87zM169 825h103v-109h-103v109zM398 825h101v-109h-101v109zM141 38.5c-42.667 35.667 -64 84.5 -64 146.5v339c0 12.667 -2.83301 21.834 -8.5 27.501s-15.5 8.5 -29.5 8.5h-22v87h248v-87h-22c-13.333 0 -23 -2.83301 -29 -8.5
s-9 -14.834 -9 -27.501v-345c0 -70 42.667 -105 128 -105s128 35 128 105v345c0 12.667 -2.83301 21.834 -8.5 27.501s-15.5 8.5 -29.5 8.5h-22v87h248v-87h-22c-13.333 0 -23 -2.83301 -29 -8.5s-9 -14.834 -9 -27.501v-339c0 -62 -21.5 -110.833 -64.5 -146.5
s-106.833 -53.5 -191.5 -53.5c-85.333 0 -149.333 17.833 -192 53.5z" />
    <glyph glyph-name="uni01DC" unicode="&#x1dc;" horiz-adv-x="597" 
d="M134 840h125l62 -142h-87zM113 650h103v-109h-103v109zM342 650h101v-109h-101v109zM123 28c-28.667 28.667 -42.999 70 -42.999 124v204c0 12.667 -2.83301 22 -8.5 28s-15.167 9 -28.5 9h-26v87h194v-327c0 -29.333 6.5 -50.5 19.5 -63.5s33.167 -19.5 60.5 -19.5
c28 0 50.5 8 67.5 24s25.5 39 25.5 69v193c0 12.667 -2.83301 22 -8.5 28s-15.167 9 -28.5 9h-26v87h259v-87h-26c-14 0 -24 -3.16699 -30 -9.5s-9 -16.166 -9 -29.499v-230c0 -12.667 2.83301 -22 8.5 -28s15.167 -9 28.5 -9h28v-87h-149l-6 66
c-22 -28.667 -46 -49.334 -72 -62.001s-60 -19 -102 -19c-56.667 0 -99.334 14.333 -128.001 43z" />
    <glyph glyph-name="Gcaron" unicode="&#x1e6;" horiz-adv-x="625" 
d="M150 893h120l70 -120l70 120h121l-130 -193h-120zM176.5 27.5c-49 28.333 -86.166 67.5 -111.499 117.5s-38 108 -38 174c0 66.667 11.667 125.834 35 177.501s59.166 92.167 107.499 121.5s108.5 44 180.5 44c48.667 0 90 -4.66699 124 -14s67.333 -24.333 100 -45v-114
h-131v69c-12.667 5.33301 -25.334 9.16602 -38.001 11.499s-28.667 3.5 -48 3.5c-64.667 0 -114.167 -22.333 -148.5 -67s-51.5 -107 -51.5 -187c0 -77.333 17.833 -137.5 53.5 -180.5s85.834 -64.5 150.501 -64.5c40 0 75 5.33301 105 16v171h-131v88h263v-297
c-33.333 -23.333 -69.833 -40.333 -109.5 -51s-84.167 -16 -133.5 -16c-70 0 -129.5 14.167 -178.5 42.5z" />
    <glyph glyph-name="gcaron" unicode="&#x1e7;" horiz-adv-x="593" 
d="M105 716h120l70 -120l70 120h121l-130 -193h-120zM114 -132l-0.000976562 78.9971h113v-41c11.333 -6.66699 23.5 -11.167 36.5 -13.5s29.167 -3.5 48.5 -3.5c58 0 87 30 87 90v77c-18.667 -21.333 -40 -36.833 -64 -46.5s-53.667 -14.5 -89 -14.5
c-69.333 0 -123.166 21.333 -161.499 64s-57.5 105.334 -57.5 188.001c0 52.667 9.66699 97.667 29 135s46.166 65.5 80.499 84.5s73.833 28.5 118.5 28.5c39.333 0 71.5 -6.5 96.5 -19.5s47.5 -34.167 67.5 -63.5l9 68h148v-84h-17c-12.667 0 -21.167 -3.16699 -25.5 -9.5
s-6.5 -17.166 -6.5 -32.499v-353c0 -61.333 -18.333 -110.166 -55 -146.499s-88.667 -54.5 -156 -54.5c-83.333 0 -150.666 22.667 -201.999 68zM363.499 113.997c19.667 26 29.5 61.999 29.5 107.999v41c0 44.667 -10 81.334 -30 110.001s-49 43 -87 43
c-42 0 -72.5 -13.667 -91.5 -41s-28.5 -70 -28.5 -128c0 -60 9.5 -103.667 28.5 -131s49.833 -41 92.5 -41c38 0 66.833 13 86.5 39z" />
    <glyph glyph-name="Aringacute" unicode="&#x1fa;" horiz-adv-x="717" 
d="M403 861h-112l77 180h148zM690 87l-0.000976562 -87h-250v87h46l-36 110h-182l-37 -110h46v-87h-250v87h29c16 0 28 2.5 36 7.5s14.333 14.5 19 28.5l178 504c-14 10.667 -25 24 -33 40s-12 33.333 -12 52c0 32 11.167 59.333 33.5 82s49.833 34 82.5 34
s60.334 -11.333 83.001 -34s34 -50 34 -82c0 -19.333 -4.16699 -37 -12.5 -53s-19.833 -29.333 -34.5 -40l175 -503c4.66699 -14 11.167 -23.5 19.5 -28.5s20.833 -7.5 37.5 -7.5h28zM326.499 753c-9 -9.33301 -13.5 -20.666 -13.5 -33.999s4.5 -24.666 13.5 -33.999
s20.167 -14 33.5 -14s24.5 4.66699 33.5 14s13.5 20.666 13.5 33.999s-4.5 24.666 -13.5 33.999s-20.167 14 -33.5 14s-24.5 -4.66699 -33.5 -14zM427.999 269l-68 207l-70 -207h138z" />
    <glyph glyph-name="aringacute" unicode="&#x1fb;" horiz-adv-x="525" 
d="M255 922h148l-113 -144h-112zM168.5 555.5c-22.333 22.333 -33.5 49.833 -33.5 82.5c0 32 11.167 59.333 33.5 82s49.833 34 82.5 34s60.334 -11.333 83.001 -34s34 -50 34 -82c0 -32.667 -11.333 -60.167 -34 -82.5s-50.334 -33.5 -83.001 -33.5
s-60.167 11.167 -82.5 33.5zM284.5 604c9 9.33301 13.5 20.666 13.5 33.999s-4.5 24.666 -13.5 33.999s-20.167 14 -33.5 14s-24.5 -4.66699 -33.5 -14s-13.5 -20.666 -13.5 -33.999s4.5 -24.666 13.5 -33.999s20.167 -14 33.5 -14s24.5 4.66699 33.5 14zM59.5 20
c-28.333 23.333 -42.502 56.666 -42.502 99.999c0 48.667 15.833 84.834 47.5 108.501s77.5 37.167 137.5 40.5l123 8v59c0 25.333 -5.66699 43.333 -17 54s-30.333 16 -57 16c-30.667 0 -56.667 -6 -78 -18v-39h-113v92c58 36 123 54 195 54
c70 0 121.167 -15.333 153.5 -46s48.5 -72.667 48.5 -126v-199c0 -12.667 2.5 -22 7.5 -28s13.167 -9 24.5 -9h19v-87h-124l-13 60c-23.333 -28 -48.666 -47.5 -75.999 -58.5s-64 -16.5 -110 -16.5c-55.333 0 -97.166 11.667 -125.499 35zM295.998 93
c19.333 15.333 29 38 29 68v41l-111 -8c-28 -2 -47.333 -7.83301 -58 -17.5s-16 -25.5 -16 -47.5c0 -39.333 25 -59 75 -59c34.667 0 61.667 7.66699 81 23z" />
    <glyph glyph-name="AEacute" unicode="&#x1fc;" horiz-adv-x="832" 
d="M472 879h148l-113 -180h-112zM27 87l29.001 -0.000976562c16 0 27.833 2.5 35.5 7.5s14.167 14.5 19.5 28.5l193 524h501v-142h-120v17c0 16.667 -4.83301 27.167 -14.5 31.5s-27.167 6.5 -52.5 6.5h-98v-192h144v-88h-144v-193h126c13.333 0 23.166 3 29.499 9
s9.5 15.667 9.5 29v18h120v-143h-464v87h15c13.333 0 22 2.83301 26 8.5s6 15.834 6 30.501v71h-118l-39 -110h46v-87h-250v87zM388.001 275.999v284h-3l-91 -284h94z" />
    <glyph glyph-name="aeacute" unicode="&#x1fd;" horiz-adv-x="832" 
d="M419 704h148l-113 -180h-112zM59.5 20c-28.333 23.333 -42.5 56.666 -42.5 99.999c0 48.667 15.833 84.834 47.5 108.501s77.5 37.167 137.5 40.5l123 8v59c0 25.333 -5.66699 43.333 -17 54s-30.333 16 -57 16c-30.667 0 -56.667 -6 -78 -18v-39h-113v92
c58 36 123 54 195 54c66 0 114 -18.333 144 -55c19.333 16.667 43.5 30 72.5 40s61.167 15 96.5 15c77.333 0 136.166 -21.5 176.499 -64.5s60.5 -101.167 60.5 -174.5v-47h-348v-7c0.666992 -45.333 10.667 -78 30 -98s49 -30 89 -30c41.333 0 74.333 5.33301 99 16v35h113
v-76c-50.667 -42.667 -121.667 -64 -213 -64c-83.333 0 -142 26 -176 78c-24 -28 -53 -48 -87 -60s-76.333 -18 -127 -18c-55.333 0 -97.166 11.667 -125.499 35zM675 284c0 41.333 -9.00098 72 -27.001 92s-45.333 30 -82 30c-69.333 0 -105.666 -37 -108.999 -111v-11h218
zM295.999 93c19.333 15.333 29 38 29 68v41l-111 -8c-28 -2 -47.333 -7.83301 -58 -17.5s-16 -25.5 -16 -47.5c0 -39.333 25 -59 75 -59c34.667 0 61.667 7.66699 81 23z" />
    <glyph glyph-name="Oslashacute" unicode="&#x1fe;" horiz-adv-x="663" 
d="M343 878h149l-114 -180h-112zM180 13c-102 44 -152.999 146.668 -152.999 308.001c0 114 24.333 199.333 73 256s126 85 232 85c28.667 0 57 -2.66699 85 -8l14 35h56l-19 -49c57.333 -21.333 99.666 -58.5 126.999 -111.5s41 -122.167 41 -207.5
c0 -112.667 -25 -196.834 -75 -252.501s-126.333 -83.5 -229 -83.5c-36.667 0 -70.667 3.66699 -102 11l-14 -39h-56zM386.001 567.001c-16 4 -34.0029 6.00195 -54.0029 6.00195c-41.333 0 -74.666 -8.16699 -99.999 -24.5s-44.166 -43 -56.499 -80
s-18.5 -86.167 -18.5 -147.5c0 -52.667 4.83301 -95.834 14.5 -129.501s24.834 -59.834 45.501 -78.501zM464.498 131.003c27.667 38 41.499 101.333 41.499 190c0 59.333 -6 107.333 -18 144s-30.333 63.667 -55 81l-171 -462c16.667 -6.66699 40 -10 70 -10
c60.667 0 104.834 19 132.501 57z" />
    <glyph glyph-name="oslashacute" unicode="&#x1ff;" horiz-adv-x="558" 
d="M277 701h149l-113 -180h-112zM168 2c-46 16.667 -81.002 45.332 -105.002 85.999s-36 91 -36 151c0 82 21.333 145.167 64 189.5s105.334 66.5 188.001 66.5c16.667 0 38.334 -2 65.001 -6l16 46h55l-21 -59c45.333 -17.333 79.5 -46.166 102.5 -86.499
s34.5 -90.5 34.5 -150.5c0 -81.333 -21.5 -144 -64.5 -188s-105.5 -66 -187.5 -66c-18.667 0 -39 1.66699 -61 5l-15 -42h-56zM311.998 401.998c-13.333 2.66699 -24.333 4 -33 4c-42 0 -72.833 -13.5 -92.5 -40.5s-29.5 -69.167 -29.5 -126.5
c0 -64 15.333 -109.333 46 -136zM371.498 113.998c19.667 26.667 29.5 68.333 29.5 125c0 64 -14.667 109 -44 135l-108 -297c8.66699 -2 18.667 -3 30 -3c42 0 72.833 13.333 92.5 40z" />
    <glyph glyph-name="Scommaaccent" unicode="&#x218;" horiz-adv-x="542" 
d="M138 6c-43.333 14 -80.333 32.998 -111 56.998v107h133v-69c32 -18 71.667 -27 119 -27c70.667 0 106 28.333 106 85c0 19.333 -5.33301 35.5 -16 48.5s-25 24.167 -43 33.5s-45.333 21.666 -82 36.999c-49.333 20 -88.833 39 -118.5 57s-52.667 39.167 -69 63.5
s-24.5 53.5 -24.5 87.5c0 58 22.833 101.833 68.5 131.5s104.167 44.5 175.5 44.5c88 0 163.667 -25.333 227 -76v-99h-134v64c-25.333 14.667 -58.666 22 -99.999 22c-71.333 0 -107 -27.667 -107 -83c0 -19.333 6.66699 -36.166 20 -50.499s29.166 -26.166 47.499 -35.499
s43.166 -20.333 74.499 -33c54 -22 94.833 -40.667 122.5 -56s49.334 -34.666 65.001 -57.999s23.5 -54 23.5 -92c0 -34.667 -9.16699 -65.5 -27.5 -92.5s-45.333 -48.333 -81 -64s-78.5 -23.5 -128.5 -23.5s-96.667 7 -140 21zM204 -49.002h160l-100 -204h-124z" />
    <glyph glyph-name="scommaaccent" unicode="&#x219;" horiz-adv-x="471" 
d="M123 0c-36.667 10 -68.6689 25.335 -96.002 46.002v84h121v-38c18.667 -12 46.334 -18 83.001 -18c28.667 0 49.667 3.33301 63 10s20 18.667 20 36c0 15.333 -5.5 27 -16.5 35s-32.833 18.333 -65.5 31l-46 18c-35.333 14.667 -63.5 28.167 -84.5 40.5
s-37.833 27.666 -50.5 45.999s-19 40.833 -19 67.5c0 45.333 17.667 79.5 53 102.5s83.666 34.5 144.999 34.5c40 0 77.333 -5 112 -15s65 -25 91 -45v-84h-117v36c-17.333 12.667 -41.666 19 -72.999 19c-25.333 0 -45.166 -3.5 -59.499 -10.5s-21.5 -19.5 -21.5 -37.5
c0 -16.667 8 -29.834 24 -39.501s41.333 -20.834 76 -33.501l32 -12c34 -12.667 61.333 -25.167 82 -37.5s37.167 -27.666 49.5 -45.999s18.5 -41.5 18.5 -69.5c0 -44 -17.5 -77.5 -52.5 -100.5s-86.5 -34.5 -154.5 -34.5c-39.333 0 -77.333 5 -114 15zM164.998 -48.998h160
l-100 -204h-124z" />
    <glyph glyph-name="uni021A" unicode="&#x21a;" horiz-adv-x="590" 
d="M165 87h25c14 0 24 3 30 9s9 15.333 9 28v436h-78c-14 0 -24 -2.83301 -30 -8.5s-9 -15.167 -9 -28.5v-37h-95v161h556v-161h-95v37c0 13.333 -3 22.833 -9 28.5s-16 8.5 -30 8.5h-78v-436c0 -12.667 3.16699 -22 9.5 -28s16.5 -9 30.5 -9h25v-87h-261v87zM229 -49h141
l-65 -214h-108z" />
    <glyph glyph-name="uni021B" unicode="&#x21b;" horiz-adv-x="448" 
d="M139.5 27.5c-31 28.333 -46.5 69.5 -46.5 123.5v242h-76v87h76v103l131 39v-142h137v-87h-137v-252c0 -24.667 5.16699 -42.667 15.5 -54s25.833 -17 46.5 -17c25.333 0 45 6 59 18v43h106v-84c-41.333 -41.333 -99 -62 -173 -62c-61.333 0 -107.5 14.167 -138.5 42.5z
M212 -49h141l-65 -214h-108z" />
    <glyph glyph-name="uni0237" unicode="&#x237;" horiz-adv-x="388" 
d="M-33 -111l0.000976562 91.999h109v-41c15.333 -13.333 36.666 -20 63.999 -20c23.333 0 40.833 5.16699 52.5 15.5s17.5 28.166 17.5 53.499v362c0 14.667 -2.5 25.334 -7.5 32.001s-14.833 10 -29.5 10h-28v87h196v-475c0 -57.333 -16.333 -100.666 -49 -129.999
s-81 -44 -145 -44c-75.333 0 -135.333 19.333 -180 58z" />
    <glyph glyph-name="uni0251" unicode="&#x251;" horiz-adv-x="594" 
d="M84 49c-38 42 -57 102.333 -57 181c0 84.667 18.833 150 56.5 196s91.834 69 162.501 69c39.333 0 71.666 -5 96.999 -15s47 -25.667 65 -47l10 47h109v-359c0 -14.667 2.5 -24.667 7.5 -30s13.833 -8 26.5 -8h16v-83h-150l-8 67c-21.333 -28 -46 -48.5 -74 -61.5
s-62.667 -19.5 -104 -19.5c-66.667 0 -119 21 -157 63zM361 108c21.333 28.667 32.002 64.668 32.002 108.001v49c0 46 -10 82 -30 108s-49 39 -87 39c-42 0 -72.5 -14.833 -91.5 -44.5s-28.5 -74.834 -28.5 -135.501c0 -58.667 9.16699 -101.167 27.5 -127.5
s48.166 -39.5 89.499 -39.5c37.333 0 66.666 14.333 87.999 43z" />
    <glyph glyph-name="uni0259" unicode="&#x259;" horiz-adv-x="541" 
d="M87.5 49.5c-40.333 43 -60.501 101.166 -60.501 174.499v47h357c0 46.667 -11 80.834 -33 102.501s-53.667 32.5 -95 32.5s-74.333 -5.33301 -99 -16v-35h-113v76c50.667 42.667 121.667 64 213 64c80 0 142.833 -21.167 188.5 -63.5s68.5 -104.5 68.5 -186.5
c0 -86.667 -21.667 -151.667 -65 -195s-105 -65 -185 -65c-77.333 0 -136.166 21.5 -176.499 64.5zM353.499 105.499c20.333 21 30.5 51.167 30.5 90.5h-227c0 -41.333 9 -72 27 -92s45.333 -30 82 -30c38 0 67.167 10.5 87.5 31.5z" />
    <glyph glyph-name="uni02BB" unicode="&#x2bb;" horiz-adv-x="309" 
d="M146 646h126l-74 -231h-161z" />
    <glyph glyph-name="uni02BC" unicode="&#x2bc;" horiz-adv-x="309" 
d="M111 646h161l-109 -231h-126z" />
    <glyph glyph-name="uni02BE" unicode="&#x2be;" 
d="M-104 546c26 0 44.333 4.16699 55 12.5s16 23.166 16 44.499c0 20.667 -5.33301 35.334 -16 44.001s-29 13 -55 13v76c113.333 0 170 -44.333 170 -133s-56.667 -133 -170 -133v76z" />
    <glyph glyph-name="uni02BF" unicode="&#x2bf;" 
d="M-104 603c0 88.667 56.667 133 170 133v-76c-26 0 -44.333 -4.33301 -55 -13s-16 -23.334 -16 -44.001c0 -21.333 5.33301 -36.166 16 -44.499s29 -12.5 55 -12.5v-76c-113.333 0 -170 44.333 -170 133z" />
    <glyph glyph-name="circumflex" unicode="&#x2c6;" horiz-adv-x="482" 
d="M176 733h131l138 -207h-144l-61 102l-61 -102h-142z" />
    <glyph glyph-name="caron" unicode="&#x2c7;" horiz-adv-x="454" 
d="M37 715h119l71 -120l69 120h121l-130 -193h-120z" />
    <glyph glyph-name="uni02C8" unicode="&#x2c8;" 
d="M-66 727h131v-187h-131v187z" />
    <glyph glyph-name="uni02C9" unicode="&#x2c9;" horiz-adv-x="586" 
d="M144 625h299v-81h-299v81z" />
    <glyph glyph-name="uni02CA" unicode="&#x2ca;" 
d="M5 701h149l-113 -180h-113z" />
    <glyph glyph-name="uni02CB" unicode="&#x2cb;" 
d="M-93 701h149l77 -180h-113z" />
    <glyph glyph-name="uni02CC" unicode="&#x2cc;" 
d="M-66 -38h131v-186h-131v186z" />
    <glyph glyph-name="breve" unicode="&#x2d8;" horiz-adv-x="411" 
d="M82 584c-30 27.333 -44.999 63.666 -44.999 108.999h109c0 -22 5.16699 -39 15.5 -51s25.166 -18 44.499 -18c39.333 0 59 23 59 69h109c0 -45.333 -15 -81.666 -45 -108.999s-71 -41 -123 -41c-52.667 0 -94 13.667 -124 41z" />
    <glyph glyph-name="dotaccent" unicode="&#x2d9;" horiz-adv-x="179" 
d="M37 653h105v-109h-105v109z" />
    <glyph glyph-name="ring" unicode="&#x2da;" horiz-adv-x="307" 
d="M70.5 538.5c-22.333 22.333 -33.5 49.833 -33.5 82.5c0 32 11.167 59.333 33.5 82s49.833 34 82.5 34s60.334 -11.333 83.001 -34s34 -50 34 -82c0 -32.667 -11.333 -60.167 -34 -82.5s-50.334 -33.5 -83.001 -33.5s-60.167 11.167 -82.5 33.5zM186.5 587
c9 9.33301 13.5 20.666 13.5 33.999s-4.5 24.666 -13.5 33.999s-20.167 14 -33.5 14s-24.5 -4.66699 -33.5 -14s-13.5 -20.666 -13.5 -33.999s4.5 -24.666 13.5 -33.999s20.167 -14 33.5 -14s24.5 4.66699 33.5 14z" />
    <glyph glyph-name="ogonek" unicode="&#x2db;" horiz-adv-x="259" 
d="M66.5 -188c-19.667 16.667 -29.498 41.667 -29.498 75c0 22 4.66699 43 14 63s22 36.667 38 50h109c-16.667 -13.333 -29 -26.833 -37 -40.5s-12 -28.5 -12 -44.5c0 -26.667 11.333 -40 34 -40c12 0 25 2.66699 39 8v-74c-20.667 -14.667 -47.334 -22 -80.001 -22
c-30.667 0 -55.834 8.33301 -75.501 25z" />
    <glyph glyph-name="tilde" unicode="&#x2dc;" horiz-adv-x="485" 
d="M65.5 658.5c19 25 48.501 37.499 88.501 37.499c17.333 0 33 -2.5 47 -7.5s30 -12.5 48 -22.5c12.667 -7.33301 23.667 -12.833 33 -16.5s18.666 -5.5 27.999 -5.5c15.333 0 26.333 4 33 12s10 21.333 10 40h95c0 -53.333 -9.16699 -92.166 -27.5 -116.499
s-47.833 -36.5 -88.5 -36.5c-17.333 0 -32.833 2.5 -46.5 7.5s-29.167 11.833 -46.5 20.5c-14 7.33301 -25.5 12.833 -34.5 16.5s-18.833 5.5 -29.5 5.5c-14.667 0 -25.667 -3.83301 -33 -11.5s-11 -20.5 -11 -38.5h-94c0 52 9.5 90.5 28.5 115.5z" />
    <glyph glyph-name="hungarumlaut" unicode="&#x2dd;" horiz-adv-x="530" 
d="M125 721h153l-124 -193h-117zM341 721h152l-122 -193h-117z" />
    <glyph glyph-name="gravecomb" unicode="&#x300;" 
d="M-441 701h149l78 -180h-114z" />
    <glyph glyph-name="acutecomb" unicode="&#x301;" 
d="M-343 701h148l-113 -180h-112z" />
    <glyph glyph-name="uni0302" unicode="&#x302;" 
d="M-59 701h120l130 -193h-121l-70 120l-70 -120h-120z" />
    <glyph glyph-name="tildecomb" unicode="&#x303;" 
d="M-486.5 650.5c19 25 48.8311 37.5 89.498 37.5c18 0 33.667 -2.5 47 -7.5s29.333 -12.5 48 -22.5c13.333 -7.33301 24.333 -12.833 33 -16.5s17.667 -5.5 27 -5.5c14.667 0 25.667 4.16699 33 12.5s11 21.5 11 39.5h93c0 -53.333 -9 -92.166 -27 -116.499
s-47 -36.5 -87 -36.5c-18 0 -34.167 2.5 -48.5 7.5s-30.166 12.167 -47.499 21.5c-14 7.33301 -25.333 12.666 -34 15.999s-17.667 5 -27 5c-15.333 0 -26.666 -3.83301 -33.999 -11.5s-11 -20.5 -11 -38.5h-94c0 52 9.5 90.5 28.5 115.5z" />
    <glyph glyph-name="uni0304" unicode="&#x304;" 
d="M-148 625h299v-81h-299v81z" />
    <glyph glyph-name="uni0306" unicode="&#x306;" 
d="M-124 576c-30 27.333 -44.999 63.666 -44.999 108.999h109c0 -22 5.16699 -39 15.5 -51s25.166 -18 44.499 -18c40 0 60 23 60 69h109c0 -45.333 -15 -81.666 -45 -108.999s-71.333 -41 -124 -41s-94 13.667 -124 41z" />
    <glyph glyph-name="uni0307" unicode="&#x307;" 
d="M-52 645h104v-109h-104v109z" />
    <glyph glyph-name="uni0308" unicode="&#x308;" 
d="M-164 657h104v-109h-104v109zM61 657h105v-109h-105v109z" />
    <glyph glyph-name="hookabovecomb" unicode="&#x309;" 
d="M-361 577c38 0 57.001 13 57.001 39c0 11.333 -3.33301 19.5 -10 24.5s-18 7.5 -34 7.5c-18.667 0 -34.334 -3 -47.001 -9v68c20.667 8 47.667 12 81 12c81.333 0 122 -28.333 122 -85c0 -41.333 -20.667 -68.333 -62 -81v-41h-107v65z" />
    <glyph glyph-name="uni030A" unicode="&#x30a;" 
d="M-82.5 542.5c-22.333 22.333 -33.5 49.833 -33.5 82.5c0 32 11.167 59.333 33.5 82s49.833 34 82.5 34s60.334 -11.333 83.001 -34s34 -50 34 -82c0 -32.667 -11.333 -60.167 -34 -82.5s-50.334 -33.5 -83.001 -33.5s-60.167 11.167 -82.5 33.5zM33.5 591
c9 9.33301 13.5 20.666 13.5 33.999s-4.5 24.666 -13.5 33.999s-20.167 14 -33.5 14s-24.5 -4.66699 -33.5 -14s-13.5 -20.666 -13.5 -33.999s4.5 -24.666 13.5 -33.999s20.167 -14 33.5 -14s24.5 4.66699 33.5 14z" />
    <glyph glyph-name="uni030B" unicode="&#x30b;" 
d="M-170 713h152l-122 -193h-118zM45 713h154l-124 -193h-117z" />
    <glyph glyph-name="uni030C" unicode="&#x30c;" 
d="M-190 707h120l70 -120l70 120h121l-130 -193h-120z" />
    <glyph glyph-name="uni031B" unicode="&#x31b;" 
d="M-139 567c30.667 0 51.833 6 63.5 18s17.5 31.333 17.5 58v38h132v-39c0 -50.667 -16.5 -89.5 -49.5 -116.5s-87.5 -40.5 -163.5 -40.5v82z" />
    <glyph glyph-name="dotbelowcomb" unicode="&#x323;" 
d="M-357 -61h104v-110h-104v110z" />
    <glyph glyph-name="uni0324" unicode="&#x324;" 
d="M-163 -61h104v-110h-104v110zM61 -61h105v-110h-105v110z" />
    <glyph glyph-name="uni0326" unicode="&#x326;" 
d="M-47 -49h160l-100 -204h-124z" />
    </font>
</defs>
</svg>
