<?xml version="1.0" standalone="no"?>
<!DOCTYPE svg PUBLIC "-//W3C//DTD SVG 20010904//EN"
 "http://www.w3.org/TR/2001/REC-SVG-20010904/DTD/svg10.dtd">
<svg version="1.0" xmlns="http://www.w3.org/2000/svg"
 width="264.000000pt" height="264.000000pt" viewBox="0 0 264.000000 264.000000"
 preserveAspectRatio="xMidYMid meet">
<metadata>
Created by potrace 1.11, written by Peter Selinger 2001-2013
</metadata>
<g transform="translate(0.000000,264.000000) scale(0.100000,-0.100000)"
fill="#000000" stroke="none">
<path d="M858 2617 c-162 -54 -260 -257 -222 -464 29 -163 168 -302 305 -305
215 -6 361 217 314 482 -18 102 -107 225 -196 270 -52 27 -148 35 -201 17z"/>
<path d="M1660 2621 c-158 -52 -267 -236 -253 -427 12 -156 107 -295 228 -335
163 -53 340 68 395 271 18 64 16 176 -5 245 -30 104 -82 173 -167 224 -41 24
-154 37 -198 22z"/>
<path d="M2233 2049 c-78 -24 -152 -93 -191 -176 -35 -78 -38 -195 -4 -263 52
-106 127 -154 237 -154 56 0 80 5 121 26 65 34 118 89 152 158 36 76 38 201 4
272 -62 125 -185 178 -319 137z"/>
<path d="M248 2005 c-169 -43 -245 -226 -165 -397 107 -229 411 -259 517 -52
36 71 36 186 -1 264 -66 139 -218 219 -351 185z"/>
<path d="M1208 1770 c-225 -59 -423 -221 -530 -435 -14 -27 -49 -111 -78 -185
-30 -74 -89 -214 -133 -310 -43 -96 -87 -200 -96 -230 -52 -164 31 -416 167
-509 51 -35 175 -71 263 -78 109 -8 165 8 257 74 142 102 217 136 382 173 185
41 368 44 519 9 70 -16 240 -20 286 -7 131 38 276 210 292 346 11 98 -49 251
-156 395 -50 67 -107 132 -306 346 -236 256 -382 364 -545 406 -93 25 -239 27
-322 5z m653 -527 c2 -36 -4 -59 -28 -108 -31 -59 -108 -176 -172 -260 -26
-33 -73 -98 -105 -145 -156 -225 -268 -332 -330 -316 -38 9 -138 111 -232 236
-120 159 -164 234 -164 281 0 26 43 25 117 -2 62 -22 77 -29 196 -83 42 -20
80 -36 85 -36 4 0 21 13 37 28 47 43 323 262 397 316 76 54 167 106 186 106 6
0 13 -8 13 -17z"/>
</g>
</svg>
