<?xml version="1.0" standalone="no"?>
<!DOCTYPE svg PUBLIC "-//W3C//DTD SVG 1.1//EN" "http://www.w3.org/Graphics/SVG/1.1/DTD/svg11.dtd" >
<svg>
<metadata>
Created by FontForge 20090914 at Mon Nov 19 18:29:02 2018
 By www-data
Copyright (c) 2015, Cadson Demak (info@cadsondemak.com)
</metadata>
<defs>
<font id="Prompt-Medium" horiz-adv-x="0" >
  <font-face 
    font-family="Prompt Medium"
    font-weight="500"
    font-stretch="normal"
    units-per-em="1000"
    panose-1="0 0 6 0 0 0 0 0 0 0"
    ascent="750"
    descent="-250"
    x-height="480"
    cap-height="699"
    bbox="-628 -385 1274 1064"
    underline-thickness="50"
    underline-position="-50"
    unicode-range="U+000D-U+FB02"
  />
<missing-glyph horiz-adv-x="504" 
d="M40 714h424v-714h-424v714zM392 66v582h-280v-582h280z" />
    <glyph glyph-name="fi" unicode="fi" horiz-adv-x="620" 
d="M91 384l-71 -0.000976562v96h71v79c0 39.333 8.83301 72.833 26.5 100.5s41.5 48.667 71.5 63s63.667 21.5 101 21.5c32 0 60 -4.66699 84 -14v-102c-18 8 -37.667 12 -59 12c-32 0 -56.333 -7.66699 -73 -23s-25 -37.666 -25 -66.999v-70h336v-480h-126v384h-210v-384
h-126v384zM438.5 583.999c-13.667 13.333 -20.5 30 -20.5 50c0 19.333 6.83301 35.833 20.5 49.5s30.5 20.5 50.5 20.5c19.333 0 36 -6.83301 50 -20.5s21 -30.167 21 -49.5c0 -20 -6.83301 -36.667 -20.5 -50s-30.5 -20 -50.5 -20s-36.833 6.66699 -50.5 20z" />
    <glyph glyph-name="fl" unicode="fl" horiz-adv-x="615" 
d="M91 384h-71v96h71v83c0 58 18.833 102.667 56.5 134s85.167 47 142.5 47c32 0 60 -4.66699 84 -14v-102c-18 8 -37.667 12 -59 12c-30.667 0 -54.667 -7.33301 -72 -22s-26 -36 -26 -64v-74h212v227h126v-707h-126v384h-212v-384h-126v384z" />
    <glyph glyph-name="ru_lakkhangyaothai" unicode="&#xe24;&#xe45;" horiz-adv-x="890" 
d="M463 329c0 41.333 -11.001 71.9971 -33.001 91.9971s-54.667 30 -98 30c-32.667 0 -61.5 -4.66699 -86.5 -14s-48.167 -24.666 -69.5 -45.999l41 -66v-172c0 -17.333 3.83301 -29.5 11.5 -36.5s20.5 -10.5 38.5 -10.5h54v-106h-122c-35.333 0 -62.333 10 -81 30
s-28 47.333 -28 82v214l-50 83c36.667 46 78.834 81 126.501 105s102.834 36 165.501 36c58.667 0 108.334 -9.66699 149.001 -29c16 8 37.167 14.833 63.5 20.5s52.166 8.5 77.499 8.5c68.667 0 120.5 -18.667 155.5 -56s52.5 -90.666 52.5 -159.999v-530h-127v538
c0 39.333 -7.83301 67.333 -23.5 84s-43.834 25 -84.501 25c-10.667 0 -21.667 -1 -33 -3c18.667 -31.333 28 -67.666 28 -108.999v-535h-127v525z" />
    <glyph glyph-name="lu_lakkhangyaothai" unicode="&#xe26;&#xe45;" horiz-adv-x="904" 
d="M477 329c0 41.333 -10.998 71.998 -32.998 91.998s-54.667 30 -98 30c-32 0 -60.167 -4.66699 -84.5 -14s-47.166 -23.333 -68.499 -42l58 -69v-213c0 -35.333 -9.5 -63 -28.5 -83s-45.833 -30 -80.5 -30h-102v106h39c17.333 0 29.166 3.33301 35.499 10s9.5 19 9.5 37
v173l-70 83c71.333 94 169 141 293 141c58 0 107.333 -9.66699 148 -29c16 8 37.167 14.833 63.5 20.5s52.166 8.5 77.499 8.5c68.667 0 120.5 -18.667 155.5 -56s52.5 -90.666 52.5 -159.999v-530h-127v538c0 39.333 -7.83301 67.333 -23.5 84s-43.834 25 -84.501 25
c-10.667 0 -21.667 -1 -33 -3c18.667 -31.333 28 -67.666 28 -108.999v-535h-127v525z" />
    <glyph glyph-name=".notdef" horiz-adv-x="504" 
d="M40 714h424v-714h-424v714zM392 66v582h-280v-582h280z" />
    <glyph glyph-name="nonmarkingreturn" unicode="&#xd;" horiz-adv-x="260" 
 />
    <glyph glyph-name="space" unicode=" " horiz-adv-x="360" 
 />
    <glyph glyph-name="exclam" unicode="!" horiz-adv-x="222" 
d="M51 699h121v-490h-121v490zM60.5 5.5c-13.667 13.667 -20.5 30.167 -20.5 49.5c0 20 6.83301 36.667 20.5 50s30.5 20 50.5 20s36.833 -6.66699 50.5 -20s20.5 -30 20.5 -50c0 -19.333 -7 -35.833 -21 -49.5s-30.667 -20.5 -50 -20.5c-20 0 -36.833 6.83301 -50.5 20.5z
" />
    <glyph glyph-name="quotedbl" unicode="&#x22;" horiz-adv-x="349" 
d="M40 699h95v-193h-95v193zM214 699h95v-193h-95v193z" />
    <glyph glyph-name="numbersign" unicode="#" horiz-adv-x="771" 
d="M134 161h-94v93h120l49 172h-127v93h153l51 180h110l-51 -180h191l51 180h111l-51 -180h84v-93h-110l-49 -172h117v-93h-143l-45 -161h-111l45 161h-191l-45 -161h-110zM461 254l49 172h-191l-49 -172h191z" />
    <glyph glyph-name="dollar" unicode="$" horiz-adv-x="567" 
d="M232 -14c-37.333 1.33301 -73.168 5.66504 -107.501 12.998s-62.5 16.666 -84.5 27.999v109c59.333 -28.667 123.333 -44.667 192 -48v222c-65.333 26.667 -112.666 56.334 -141.999 89.001s-44 73.334 -44 122.001s16.667 89.834 50 123.501s78.666 55.167 135.999 64.5
v93h108v-90c54 -4 104.333 -16.333 151 -37v-106c-50.667 24.667 -101 38.334 -151 41.001v-217c44.667 -19.333 80.334 -38.333 107.001 -57s46.667 -40.334 60 -65.001s20 -54.667 20 -90c0 -52 -15.667 -94.333 -47 -127s-78 -53.667 -140 -63v-94h-108v89z
M231.998 595.999c-34 -14.667 -51 -39.667 -51 -75c0 -18.667 4 -34.167 12 -46.5s21 -23.5 39 -33.5v155zM389.998 181.999c0 18 -4 33.167 -12 45.5s-20.667 23.5 -38 33.5v-157c33.333 16 50 42 50 78z" />
    <glyph glyph-name="percent" unicode="%" horiz-adv-x="891" 
d="M137 371.5c-28 16.333 -50.167 38.5 -66.5 66.5s-24.5 58.667 -24.5 92s8.16699 64.166 24.5 92.499s38.5 50.666 66.5 66.999s58.667 24.5 92 24.5s64.166 -8.16699 92.499 -24.5s50.666 -38.666 66.999 -66.999s24.5 -59.166 24.5 -92.499s-8.16699 -64 -24.5 -92
s-38.666 -50.167 -66.999 -66.5s-59.166 -24.5 -92.499 -24.5s-64 8.16699 -92 24.5zM581 699h123l-387 -699h-123zM295.5 462.5c17.667 17.667 26.5 39.5 26.5 65.5c0 26.667 -8.83301 48.834 -26.5 66.501s-39.834 26.5 -66.501 26.5c-26 0 -47.833 -8.83301 -65.5 -26.5
s-26.5 -39.834 -26.5 -66.501c0 -26 8.83301 -47.833 26.5 -65.5s39.5 -26.5 65.5 -26.5c26.667 0 48.834 8.83301 66.501 26.5zM575 9.5c-28 16.333 -50.167 38.5 -66.5 66.5s-24.5 58.667 -24.5 92s8.16699 64.166 24.5 92.499s38.5 50.666 66.5 66.999
s58.667 24.5 92 24.5s64.166 -8.16699 92.499 -24.5s50.666 -38.666 66.999 -66.999s24.5 -59.166 24.5 -92.499s-8.16699 -64 -24.5 -92s-38.666 -50.167 -66.999 -66.5s-59.166 -24.5 -92.499 -24.5s-64 8.16699 -92 24.5zM732.5 100.5c17.667 17.667 26.5 39.5 26.5 65.5
c0 26.667 -8.83301 48.834 -26.5 66.501s-39.834 26.5 -66.501 26.5c-26 0 -47.833 -8.83301 -65.5 -26.5s-26.5 -39.834 -26.5 -66.501c0 -26 8.83301 -47.833 26.5 -65.5s39.5 -26.5 65.5 -26.5c26.667 0 48.834 8.83301 66.501 26.5z" />
    <glyph glyph-name="ampersand" unicode="&#x26;" horiz-adv-x="782" 
d="M110 35c-46.667 33.333 -69.9971 80.0029 -69.9971 140.003c0 44.667 12.167 82.5 36.5 113.5s63.5 62.5 117.5 94.5c-31.333 29.333 -54.833 56.666 -70.5 81.999s-23.5 53.333 -23.5 84c0 32 8.16699 60.5 24.5 85.5s39.166 44.5 68.499 58.5s63.666 21 102.999 21
c38 0 71.5 -7.16699 100.5 -21.5s51.5 -34 67.5 -59s24 -53.167 24 -84.5c0 -38 -9.5 -70.833 -28.5 -98.5s-50.833 -55.834 -95.5 -84.501l171 -161c18 30.667 27 83 27 157h103c0 -52 -3.83301 -95.333 -11.5 -130s-21.167 -68.334 -40.5 -101.001l139 -131h-148l-65 60
c-30.667 -26 -66.5 -45 -107.5 -57s-87.5 -18 -139.5 -18c-74.667 0 -135.334 16.667 -182.001 50zM362.003 481.003c15.333 18 23 38 23 60c0 25.333 -8 46 -24 62s-37.667 24 -65 24c-26.667 0 -48 -8 -64 -24s-24 -36.667 -24 -62c0 -18.667 6.16699 -36.167 18.5 -52.5
s32.833 -37.833 61.5 -64.5c34 20 58.667 39 74 57zM392.003 85.0029c30 10.667 55.001 25.334 75.001 44.001l-192 186c-40 -18.667 -69.5 -39.334 -88.5 -62.001s-28.5 -48.667 -28.5 -78c0 -34.667 13.167 -61 39.5 -79s58.166 -27 95.499 -27c36 0 69 5.33301 99 16z
" />
    <glyph glyph-name="quotesingle" unicode="'" horiz-adv-x="175" 
d="M40 699h95v-193h-95v193z" />
    <glyph glyph-name="parenleft" unicode="(" horiz-adv-x="340" 
d="M40 270c0 173.333 50 321.333 150 444h130c-101.333 -130 -152 -278 -152 -444s50.667 -314 152 -444h-130c-100 122.667 -150 270.667 -150 444z" />
    <glyph glyph-name="parenright" unicode=")" horiz-adv-x="340" 
d="M172 270c0 166 -50.667 314 -152 444h130c100 -122.667 150 -270.667 150 -444s-50 -321.333 -150 -444h-130c101.333 130 152 278 152 444z" />
    <glyph glyph-name="asterisk" unicode="*" horiz-adv-x="441" 
d="M81 417l78 108l-119 42l30 68l107 -39v103h87v-103l107 40l30 -69l-119 -41l79 -108l-68 -44l-72 101l-72 -102z" />
    <glyph glyph-name="plus" unicode="+" horiz-adv-x="412" 
d="M155 249h-115v101h115v115h101v-115h116v-101h-116v-116h-101v116z" />
    <glyph glyph-name="comma" unicode="," horiz-adv-x="293" 
d="M122 56h131l-98 -204h-115z" />
    <glyph glyph-name="hyphen" unicode="-" horiz-adv-x="412" 
d="M40 350h332v-101h-332v101z" />
    <glyph glyph-name="period" unicode="." horiz-adv-x="182" 
d="M55 14.5c-10 9.66699 -15 21.5 -15 35.5c0 14.667 5 27 15 37s22 15 36 15s26 -5 36 -15s15 -22.333 15 -37c0 -14 -5 -25.833 -15 -35.5s-22 -14.5 -36 -14.5s-26 4.83301 -36 14.5z" />
    <glyph glyph-name="slash" unicode="/" horiz-adv-x="488" 
d="M325 714h123l-285 -714h-123z" />
    <glyph glyph-name="zero" unicode="0" horiz-adv-x="682" 
d="M181 29c-45.333 29.333 -80.168 71.333 -104.501 126s-36.5 119.334 -36.5 194.001s12 139.5 36 194.5s58.5 97.167 103.5 126.5s98.833 44 161.5 44c62 0 115.667 -14.667 161 -44s80 -71.5 104 -126.5s36 -119.833 36 -194.5s-12 -139.334 -36 -194.001
s-58.667 -96.667 -104 -126s-99 -44 -161 -44c-61.333 0 -114.666 14.667 -159.999 44zM469.498 165.5c30.333 44.333 45.5 105.166 45.5 182.499s-15 138.333 -45 183s-72.667 67 -128 67s-98.166 -22.333 -128.499 -67s-45.5 -105.667 -45.5 -183
s15.167 -138.166 45.5 -182.499s72.833 -66.5 127.5 -66.5c55.333 0 98.166 22.167 128.499 66.5z" />
    <glyph glyph-name="one" unicode="1" horiz-adv-x="374" 
d="M188 565l-148 -107v118l168 123h106v-699h-126v565z" />
    <glyph glyph-name="two" unicode="2" horiz-adv-x="585" 
d="M40 82l137.999 127.002l66 59c36.667 32 64.5 57.667 83.5 77s34.5 40.166 46.5 62.499s18 46.5 18 72.5c0 38 -11.167 67.167 -33.5 87.5s-54.166 30.5 -95.499 30.5c-32 0 -65.167 -5.83301 -99.5 -17.5s-65.5 -28.167 -93.5 -49.5v121c58 41.333 129.333 62 214 62
c74.667 0 132.667 -20 174 -60s62 -94.667 62 -164c0 -32.667 -6.33301 -63.167 -19 -91.5s-30.667 -55.833 -54 -82.5s-55 -58.334 -95 -95.001l-125 -116h318v-105h-505v82z" />
    <glyph glyph-name="three" unicode="3" horiz-adv-x="580" 
d="M139.5 -5c-38.333 6.66699 -71.501 16.6689 -99.501 30.002v97c63.333 -28.667 130.666 -43 201.999 -43c56.667 0 99.167 10.167 127.5 30.5s42.5 49.5 42.5 87.5c0 39.333 -13.833 67.166 -41.5 83.499s-70.5 24.5 -128.5 24.5h-87v98h84
c46.667 0 83.667 8.83301 111 26.5s41 44.5 41 80.5s-12.167 63.333 -36.5 82s-58.5 28 -102.5 28c-38 0 -72.167 -4.5 -102.5 -13.5s-61.166 -23.167 -92.499 -42.5v98c60 34.667 130.667 52 212 52c82.667 0 145 -17.5 187 -52.5s63 -83.833 63 -146.5
c0 -34.667 -9.16699 -66 -27.5 -94s-45.5 -50 -81.5 -66c42.667 -12.667 75 -32.834 97 -60.501s33 -62.167 33 -103.5c0 -64.667 -22.333 -115.167 -67 -151.5s-116 -54.5 -214 -54.5c-41.333 0 -81.166 3.33301 -119.499 10z" />
    <glyph glyph-name="four" unicode="4" horiz-adv-x="609" 
d="M354 166h-334v75l337 458h124v-438h108v-95h-108v-166h-127v166zM372 261v291l-213 -291h213z" />
    <glyph glyph-name="five" unicode="5" horiz-adv-x="577" 
d="M131 -3c-36 8 -66.335 19 -91.002 33v107c28 -17.333 59.667 -30.833 95 -40.5s69 -14.5 101 -14.5c115.333 0 173 45.667 173 137c0 44 -14.167 77.667 -42.5 101s-68.166 35 -119.499 35c-23.333 0 -48 -2.33301 -74 -7s-49 -11 -69 -19l-53 30l27 340h410v-105h-295
l-13 -160c36.667 8 77.334 12 122.001 12c74 0 131.667 -20.333 173 -61s62 -96 62 -166c0 -76 -24.667 -134 -74 -174s-123.333 -60 -222 -60c-37.333 0 -74 4 -110 12z" />
    <glyph glyph-name="six" unicode="6" horiz-adv-x="619" 
d="M173 21c-41.333 24 -73.833 59 -97.5 105s-35.5 101 -35.5 165c0 90 13.5 166.667 40.5 230s66 111.333 117 144s111.5 49 181.5 49c40.667 0 76.667 -4.66699 108 -14v-102c-26 12 -58.667 18 -98 18c-65.333 0 -117 -19.5 -155 -58.5s-60.667 -95.5 -68 -169.5
c22 23.333 49 40.5 81 51.5s67 16.5 105 16.5c45.333 0 85.166 -9.33301 119.499 -28s60.833 -45.167 79.5 -79.5s28 -75.166 28 -122.499c0 -46 -10.333 -87.333 -31 -124s-51.167 -65.334 -91.5 -86.001s-88.166 -31 -143.499 -31c-52 0 -98.667 12 -140 36zM415.5 117
c25.667 26 38.5 60.333 38.5 103c0 43.333 -12.833 78 -38.5 104s-59.834 39 -102.501 39c-40 0 -73.333 -13.5 -100 -40.5s-40 -61.167 -40 -102.5c0 -25.333 5.83301 -48.833 17.5 -70.5s28 -39 49 -52s45.5 -19.5 73.5 -19.5c42.667 0 76.834 13 102.501 39z" />
    <glyph glyph-name="seven" unicode="7" horiz-adv-x="545" 
d="M385 594h-355v105h485v-88l-276 -611h-123z" />
    <glyph glyph-name="eight" unicode="8" horiz-adv-x="612" 
d="M112 39.5c-48 36.333 -72 87.833 -72 154.5c0 43.333 10.833 79.666 32.5 108.999s50.5 49.666 86.5 60.999c-30 14.667 -53.333 35.5 -70 62.5s-25 57.833 -25 92.5c0 60.667 22 108.334 66 143.001s102.667 52 176 52c74 0 132.833 -17.333 176.5 -52
s65.5 -82.334 65.5 -143.001c0 -34.667 -8.33301 -65.5 -25 -92.5s-40 -47.833 -70 -62.5c36 -11.333 64.833 -31.666 86.5 -60.999s32.5 -65.666 32.5 -108.999c0 -66.667 -23.833 -118.167 -71.5 -154.5s-112.5 -54.5 -194.5 -54.5c-81.333 0 -146 18.167 -194 54.5z
M396 429.5c22.667 19.667 34 46.167 34 79.5s-11.5 60.333 -34.5 81s-52.833 31 -89.5 31s-66.334 -10.333 -89.001 -31s-34 -47.667 -34 -81s11.333 -59.833 34 -79.5s52.334 -29.5 89.001 -29.5c37.333 0 67.333 9.83301 90 29.5zM409 109.5
c25.333 22.333 38 53.166 38 92.499c0 38 -13 68 -39 90s-60 33 -102 33s-76 -11 -102 -33s-39 -52 -39 -90c0 -39.333 12.833 -70.166 38.5 -92.499s59.834 -33.5 102.501 -33.5c43.333 0 77.666 11.167 102.999 33.5z" />
    <glyph glyph-name="nine" unicode="9" horiz-adv-x="619" 
d="M132 -1l0.000976562 101.997c26 -12 58.667 -18 98 -18c65.333 0 117 19.5 155 58.5s60.667 95.5 68 169.5c-42.667 -45.333 -103 -68 -181 -68c-45.333 0 -85.5 9.33301 -120.5 28s-62.333 45.334 -82 80.001s-29.5 75.334 -29.5 122.001c0 46 10.333 87.333 31 124
s51.167 65.334 91.5 86.001s88.166 31 143.499 31c52 0 98.667 -12 140 -36s73.833 -59 97.5 -105s35.5 -101 35.5 -165c0 -90 -13.5 -166.667 -40.5 -230s-66 -111.333 -117 -144s-111.5 -49 -181.5 -49c-40.667 0 -76.667 4.66699 -108 14zM406.001 376.497
c26.667 27 40 61.167 40 102.5c0 25.333 -5.83301 48.833 -17.5 70.5s-28 39 -49 52s-45.5 19.5 -73.5 19.5c-42.667 0 -76.834 -13 -102.501 -39s-38.5 -60.333 -38.5 -103c0 -43.333 12.833 -78 38.5 -104s59.834 -39 102.501 -39c40 0 73.333 13.5 100 40.5z" />
    <glyph glyph-name="colon" unicode=":" horiz-adv-x="212" 
d="M59.5 375.5c-13 13 -19.5 28.5 -19.5 46.5s6.5 33.5 19.5 46.5s28.5 19.5 46.5 19.5s33.5 -6.5 46.5 -19.5s19.5 -28.5 19.5 -46.5s-6.5 -33.5 -19.5 -46.5s-28.5 -19.5 -46.5 -19.5s-33.5 6.5 -46.5 19.5zM59.5 35.5c-13 13 -19.5 28.5 -19.5 46.5s6.5 33.5 19.5 46.5
s28.5 19.5 46.5 19.5s33.5 -6.5 46.5 -19.5s19.5 -28.5 19.5 -46.5s-6.5 -33.5 -19.5 -46.5s-28.5 -19.5 -46.5 -19.5s-33.5 6.5 -46.5 19.5z" />
    <glyph glyph-name="semicolon" unicode=";" horiz-adv-x="293" 
d="M134.5 375.5c-13 13 -19.5 28.5 -19.5 46.5s6.5 33.5 19.5 46.5s28.5 19.5 46.5 19.5s33.5 -6.5 46.5 -19.5s19.5 -28.5 19.5 -46.5s-6.5 -33.5 -19.5 -46.5s-28.5 -19.5 -46.5 -19.5s-33.5 6.5 -46.5 19.5zM122 56h131l-98 -204h-115z" />
    <glyph glyph-name="less" unicode="&#x3c;" horiz-adv-x="543" 
d="M40 280v89l463 227v-125l-309 -147l309 -147v-125z" />
    <glyph glyph-name="equal" unicode="=" horiz-adv-x="534" 
d="M40 502h454v-99h-454v99zM40 282h454v-99h-454v99z" />
    <glyph glyph-name="greater" unicode="&#x3e;" horiz-adv-x="543" 
d="M40 177l309 147l-309 147v125l463 -227v-89l-463 -228v125z" />
    <glyph glyph-name="question" unicode="?" horiz-adv-x="520" 
d="M159 232c0 39.333 7.33203 72.3379 21.999 99.0049s38.667 52 72 76l26 18c28 19.333 47.833 35.333 59.5 48s17.5 29.667 17.5 51c0 27.333 -10.5 48.666 -31.5 63.999s-52.833 23 -95.5 23c-32 0 -64.667 -3.66699 -98 -11s-63.666 -17.333 -90.999 -30v105
c26 11.333 55.667 20.666 89 27.999s66.666 11 99.999 11c77.333 0 138.5 -16.667 183.5 -50s67.5 -80 67.5 -140c0 -24.667 -4.5 -45.834 -13.5 -63.501s-20.333 -32.834 -34 -45.501s-34.5 -29.667 -62.5 -51c-28.667 -22 -48.167 -37.833 -58.5 -47.5
s-18.166 -20.834 -23.499 -33.501s-8 -30 -8 -52v-22h-121v23zM167.499 5.50488c-13.667 13.667 -20.5 30.167 -20.5 49.5c0 20 6.83301 36.667 20.5 50s30.5 20 50.5 20s36.833 -6.66699 50.5 -20s20.5 -30 20.5 -50c0 -19.333 -7 -35.833 -21 -49.5
s-30.667 -20.5 -50 -20.5c-20 0 -36.833 6.83301 -50.5 20.5z" />
    <glyph glyph-name="at" unicode="@" horiz-adv-x="911" 
d="M235 -34.5c-62 27.667 -110.001 68.502 -144.001 122.502s-51 119.333 -51 196c0 84 18.333 158.5 55 223.5s88.334 115.667 155.001 152s144 54.5 232 54.5c80 0 149.167 -13.5 207.5 -40.5s103.166 -66.167 134.499 -117.5s47 -113.333 47 -186
c0 -76.667 -16.167 -139.334 -48.5 -188.001s-77.833 -73 -136.5 -73c-24.667 0 -47.334 6 -68.001 18s-34.667 28.333 -42 49c-15.333 -22 -35.833 -38.667 -61.5 -50s-53.834 -17 -84.501 -17c-52.667 0 -95.167 15 -127.5 45s-48.5 74 -48.5 132
c0 45.333 9.33301 86 28 122s45.167 64.333 79.5 85s74.5 31 120.5 31c28 0 56.5 -3.16699 85.5 -9.5s54.167 -14.833 75.5 -25.5l-13 -224c-1.33301 -22.667 3 -40.334 13 -53.001s23.333 -19 40 -19c28.667 0 49.167 15.167 61.5 45.5s18.5 74.166 18.5 131.499
c0 84.667 -23 147.334 -69 188.001s-116.667 61 -212 61c-67.333 0 -126.166 -13.167 -176.499 -39.5s-89.166 -64.666 -116.499 -114.999s-41 -110.5 -41 -180.5c0 -88.667 25.833 -155.334 77.5 -200.001s126.834 -67 225.501 -67c67.333 0 129 9.33301 185 28v-90
c-54 -20.667 -115.667 -31 -185 -31c-82 0 -154 13.833 -216 41.5zM508.999 220.002c16 16 24.667 36 26 60l9 147c-16.667 7.33301 -38 11 -64 11c-34.667 0 -63 -13.333 -85 -40s-33 -61 -33 -103c0 -66 26.333 -99 79 -99c29.333 0 52 8 68 24z" />
    <glyph glyph-name="A" unicode="A" horiz-adv-x="762" 
d="M320 699h123l279 -699h-129l-64 161h-296l-63 -161h-130zM494 266l-113 297l-113 -297h226z" />
    <glyph glyph-name="B" unicode="B" horiz-adv-x="658" 
d="M60 699l332.002 -0.000976562c64 0 113.833 -16 149.5 -48s53.5 -78.667 53.5 -140c0 -32.667 -7.83301 -62.167 -23.5 -88.5s-36.5 -46.5 -62.5 -60.5c72.667 -24 109 -77.667 109 -161c0 -41.333 -9.33301 -77.166 -28 -107.499s-43.834 -53.5 -75.501 -69.5
s-66.834 -24 -105.501 -24h-349v699zM372.002 407.999c28.667 0 51.667 7.83203 69 23.499s26 39.5 26 71.5c0 36.667 -8.5 61.834 -25.5 75.501s-42.167 20.5 -75.5 20.5h-180v-191h186zM380.002 99.998c35.333 0 62.5 7.33301 81.5 22s28.5 40.667 28.5 78
s-10 64.333 -30 81s-49 25 -87 25h-187v-206h194z" />
    <glyph glyph-name="C" unicode="C" horiz-adv-x="704" 
d="M219 29.5c-56.667 29.667 -100.672 71.999 -132.005 126.999s-47 119.167 -47 192.5s15.667 137.5 47 192.5s75.333 97.5 132 127.5s121.667 45 195 45c96.667 0 177.334 -23 242.001 -69v-121c-58 49.333 -135 74 -231 74c-51.333 0 -96.333 -10.167 -135 -30.5
s-68.667 -49.166 -90 -86.499s-32 -81.333 -32 -132s10.833 -94.667 32.5 -132s51.834 -66.166 90.501 -86.499s83.334 -30.5 134.001 -30.5c49.333 0 93.333 6.16699 132 18.5s74.334 32.166 107.001 59.499v-121c-61.333 -48 -144.666 -72 -249.999 -72
c-73.333 0 -138.333 14.833 -195 44.5z" />
    <glyph glyph-name="D" unicode="D" horiz-adv-x="706" 
d="M60 699h234c76 0 142 -14 198 -42s99 -68 129 -120s45 -113.333 45 -184c0 -116 -33.667 -203.833 -101 -263.5s-161.333 -89.5 -282 -89.5h-223v699zM285 105c81.333 0 143.833 21.835 187.5 65.502s65.5 104.5 65.5 182.5c0 47.333 -9.66699 89.166 -29 125.499
s-47 64.666 -83 84.999s-78.667 30.5 -128 30.5h-111v-489h98z" />
    <glyph glyph-name="E" unicode="E" horiz-adv-x="563" 
d="M60 699h473v-105h-346v-192h257v-105h-257v-192h346v-105h-473v699z" />
    <glyph glyph-name="F" unicode="F" horiz-adv-x="553" 
d="M60 699h473v-106h-346v-196h257v-95h-257v-302h-127v699z" />
    <glyph glyph-name="G" unicode="G" horiz-adv-x="713" 
d="M219 29.5c-56.667 29.667 -100.666 72.002 -131.999 127.002s-47 119.167 -47 192.5s15.667 137.5 47 192.5s75.333 97.5 132 127.5s121.667 45 195 45c50 0 94.667 -5.33301 134 -16s75 -27.667 107 -51v-121c-29.333 25.333 -63 43.666 -101 54.999s-81 17 -129 17
s-91.5 -10.167 -130.5 -30.5s-69.833 -49.333 -92.5 -87s-34 -81.5 -34 -131.5c0 -50.667 10.667 -94.834 32 -132.501s51 -66.667 89 -87s81.333 -30.5 130 -30.5c51.333 0 93.666 8.66699 126.999 26v157h-118v101h245v-326c-62 -48 -148.333 -72 -259 -72
c-73.333 0 -138.333 14.833 -195 44.5z" />
    <glyph glyph-name="H" unicode="H" horiz-adv-x="709" 
d="M60 699h127v-290h336v290h126v-699h-126v304h-336v-304h-127v699z" />
    <glyph glyph-name="I" unicode="I" horiz-adv-x="247" 
d="M60 699h127v-699h-127v699z" />
    <glyph glyph-name="J" unicode="J" horiz-adv-x="386" 
d="M69.5 -9.5c-21.667 3.66699 -38.167 8.16699 -49.5 13.5v106c22 -9.33301 49 -14 81 -14c65.333 0 98 31 98 93v510h127v-517c0 -61.333 -17 -109.5 -51 -144.5s-81.667 -52.5 -143 -52.5c-20 0 -40.833 1.83301 -62.5 5.5z" />
    <glyph glyph-name="K" unicode="K" horiz-adv-x="686" 
d="M60 699h127v-317l287 317h152l-310 -342l330 -357h-152l-307 332v-332h-127v699z" />
    <glyph glyph-name="L" unicode="L" horiz-adv-x="543" 
d="M60 699h127v-594h336v-105h-463v699z" />
    <glyph glyph-name="M" unicode="M" horiz-adv-x="836" 
d="M60 699h124l234 -512l234 512h124v-699h-120v454l-208 -454h-60l-208 454v-454h-120v699z" />
    <glyph glyph-name="N" unicode="N" horiz-adv-x="694" 
d="M60 699h120l327 -487v487h127v-699h-120l-327 488v-488h-127v699z" />
    <glyph glyph-name="O" unicode="O" horiz-adv-x="821" 
d="M221.5 30.5c-56.333 30.333 -100.666 73.168 -132.999 128.501s-48.5 118.666 -48.5 189.999s16.167 134.666 48.5 189.999s76.666 98.333 132.999 129s119.5 46 189.5 46c69.333 0 132.166 -15.333 188.499 -46s100.666 -73.667 132.999 -129
s48.5 -118.666 48.5 -189.999s-16.167 -134.5 -48.5 -189.5s-76.666 -97.833 -132.999 -128.5s-119.166 -46 -188.499 -46c-70 0 -133.167 15.167 -189.5 45.5zM533 130.502c36.667 20.333 65.832 49.333 87.499 87s32.5 81.5 32.5 131.5c0 49.333 -10.667 92.833 -32 130.5
s-50.333 66.834 -87 87.501s-77.667 31 -123 31s-86.5 -10.333 -123.5 -31s-66.167 -49.834 -87.5 -87.501s-32 -81.167 -32 -130.5c0 -50 10.833 -93.833 32.5 -131.5s51 -66.667 88 -87s77.833 -30.5 122.5 -30.5s85.334 10.167 122.001 30.5z" />
    <glyph glyph-name="P" unicode="P" horiz-adv-x="614" 
d="M60 699h280c76.667 0 138.167 -20.333 184.5 -61s69.5 -96.334 69.5 -167.001c0 -73.333 -23 -129.166 -69 -167.499s-108 -57.5 -186 -57.5h-152v-246h-127v699zM324 351c95.333 0 143 40 143 120c0 82 -47.667 123 -143 123h-137v-243h137z" />
    <glyph glyph-name="Q" unicode="Q" horiz-adv-x="814" 
d="M222.5 43c-58.333 28.667 -103.33 69.667 -134.997 123s-47.5 115.333 -47.5 186c0 71.333 16.167 134.5 48.5 189.5s76.666 97.5 132.999 127.5s119.5 45 189.5 45c69.333 0 132.166 -15 188.499 -45s100.666 -72.5 132.999 -127.5s48.5 -118.167 48.5 -189.5
c0 -48 -10.667 -93.833 -32 -137.5s-49 -78.167 -83 -103.5h128v-111h-367c-78 -0 -146.167 14.333 -204.5 43zM587.503 177c43.667 41.333 65.499 99.667 65.499 175c0 49.333 -10.667 92.666 -32 129.999s-50.333 66 -87 86s-77.667 30 -123 30s-86.5 -10 -123.5 -30
s-66.167 -48.667 -87.5 -86s-32 -80.666 -32 -129.999c0 -76 21.833 -134.5 65.5 -175.5s102.834 -61.5 177.501 -61.5c74 0 132.833 20.667 176.5 62z" />
    <glyph glyph-name="R" unicode="R" horiz-adv-x="634" 
d="M60 699h292c77.333 0 137 -19 179 -57s63 -93 63 -165c0 -51.333 -12.667 -95 -38 -131s-61.333 -61.667 -108 -77l142 -269h-130l-135 256h-138v-256h-127v699zM329 361c41.333 0 74.667 9.66699 100 29s38 48.333 38 87c0 78 -46 117 -138 117h-142v-233h142z" />
    <glyph glyph-name="S" unicode="S" horiz-adv-x="567" 
d="M139.5 -3.5c-40.333 7.66699 -73.501 17.8301 -99.501 30.4971v109c33.333 -16 68.333 -28 105 -36s72.667 -12 108 -12c44.667 0 78.667 8.33301 102 25s35 39.667 35 69c0 20.667 -5.33301 37.834 -16 51.501s-26.334 25.667 -47.001 36s-52.334 23.833 -95.001 40.5
c-65.333 26.667 -112.666 56.334 -141.999 89.001s-44 73.334 -44 122.001c0 38 10.333 71.667 31 101s49.667 52 87 68s80.333 24 129 24c40 0 75.5 -3.16699 106.5 -9.5s61.5 -16.166 91.5 -29.499v-106c-58 28 -116.667 42 -176 42c-42.667 0 -75.667 -7.83301 -99 -23.5
s-35 -37.834 -35 -66.501c0 -20.667 5.33301 -37.5 16 -50.5s24.834 -24 42.501 -33s49.5 -23.167 95.5 -42.5c46.667 -19.333 83.5 -38.333 110.5 -57s47.333 -40.5 61 -65.5s20.5 -55.5 20.5 -91.5c0 -62 -22.333 -110.167 -67 -144.5s-110.667 -51.5 -198 -51.5
c-41.333 0 -82.166 3.83301 -122.499 11.5z" />
    <glyph glyph-name="T" unicode="T" horiz-adv-x="589" 
d="M231 594h-211v105h549v-105h-211v-594h-127v594z" />
    <glyph glyph-name="U" unicode="U" horiz-adv-x="707" 
d="M130.5 62.5c-50.333 51.667 -75.5 121.5 -75.5 209.5v427h127v-429c0 -55.333 15.5 -97.5 46.5 -126.5s72.833 -43.5 125.5 -43.5c52 0 93.5 14.5 124.5 43.5s46.5 71.167 46.5 126.5v429h127v-427c0 -88 -25 -157.833 -75 -209.5s-124.333 -77.5 -223 -77.5
s-173.167 25.833 -223.5 77.5z" />
    <glyph glyph-name="V" unicode="V" horiz-adv-x="762" 
d="M40 699h135l206 -529l207 529h134l-279 -699h-123z" />
    <glyph glyph-name="W" unicode="W" horiz-adv-x="994" 
d="M40 699h132l139 -494l137 494h98l137 -494l139 494h132l-199 -699h-118l-140 486l-140 -486h-118z" />
    <glyph glyph-name="X" unicode="X" horiz-adv-x="742" 
d="M299 353l-253 346h145l180 -247l181 247h145l-253 -346l258 -353h-145l-186 254l-186 -254h-145z" />
    <glyph glyph-name="Y" unicode="Y" horiz-adv-x="714" 
d="M294 266l-254 433h135l180 -311l185 311h134l-259 -433v-266h-121v266z" />
    <glyph glyph-name="Z" unicode="Z" horiz-adv-x="619" 
d="M40 83l366 511h-357v105h512v-83l-365 -511h383v-105h-539v83z" />
    <glyph glyph-name="bracketleft" unicode="[" horiz-adv-x="319" 
d="M40 787h249v-105h-122v-673h122v-105h-249v883z" />
    <glyph glyph-name="backslash" unicode="\" horiz-adv-x="488" 
d="M40 714h123l285 -714h-123z" />
    <glyph glyph-name="bracketright" unicode="]" horiz-adv-x="319" 
d="M30 9h122v673h-122v105h249v-883h-249v105z" />
    <glyph glyph-name="asciicircum" unicode="^" horiz-adv-x="564" 
d="M232 719h100l192 -332h-121l-121 214l-121 -214h-121z" />
    <glyph glyph-name="underscore" unicode="_" horiz-adv-x="488" 
d="M40 0h408v-111h-408v111z" />
    <glyph glyph-name="grave" unicode="`" horiz-adv-x="282" 
d="M40 743h133l69 -174h-116z" />
    <glyph glyph-name="a" unicode="a" horiz-adv-x="577" 
d="M95 30.5c-36.667 30.333 -55.001 71.167 -55.001 122.5c0 53.333 17.333 95 52 125s83.334 45 146.001 45c60.667 0 113 -12.333 157 -37v13c0 34 -10.5 58.667 -31.5 74s-54.833 23 -101.5 23c-29.333 0 -58.333 -2.83301 -87 -8.5s-54 -13.5 -76 -23.5v99
c20 9.33301 46.833 17 80.5 23s66.167 9 97.5 9c83.333 0 145 -17.833 185 -53.5s60 -85.167 60 -148.5v-293h-119v47c-20.667 -20 -44.167 -35.333 -70.5 -46s-58.5 -16 -96.5 -16c-57.333 0 -104.333 15.167 -141 45.5zM342.999 93.501c22.667 11 40 26.167 52 45.5v53
c-36.667 26 -78.667 39 -126 39c-67.333 0 -101 -26 -101 -78c0 -25.333 8.5 -44.333 25.5 -57s41.5 -19 73.5 -19c28 0 53.333 5.5 76 16.5z" />
    <glyph glyph-name="b" unicode="b" horiz-adv-x="665" 
d="M267 1.5c-29.333 11 -57.667 29.168 -85 54.501v-56h-122v739h126v-306c22.667 20.667 50.167 36.167 82.5 46.5s66.833 15.5 103.5 15.5c48.667 0 92.167 -10.833 130.5 -32.5s68.333 -51.834 90 -90.501s32.5 -83 32.5 -133c0 -50.667 -10.833 -95.167 -32.5 -133.5
s-51.667 -68 -90 -89s-81.833 -31.5 -130.5 -31.5c-40.667 0 -75.667 5.5 -105 16.5zM452.999 127.001c29.333 28.667 44 66.001 44 112.001s-14.667 83.667 -44 113s-66.666 44 -111.999 44c-36 0 -68.167 -9.83301 -96.5 -29.5s-47.833 -45.834 -58.5 -78.501v-97
c11.333 -32.667 31 -58.667 59 -78s60 -29 96 -29c45.333 0 82.666 14.333 111.999 43z" />
    <glyph glyph-name="c" unicode="c" horiz-adv-x="548" 
d="M173.5 15c-42.333 20 -75.1699 49.002 -98.5029 87.002s-35 83.667 -35 137s11.833 99.166 35.5 137.499s56.667 67.666 99 87.999s91.833 30.5 148.5 30.5c74.667 0 134.334 -14.667 179.001 -44v-101c-43.333 30.667 -98.666 46 -165.999 46
c-51.333 0 -92.166 -12.833 -122.499 -38.5s-45.5 -65.167 -45.5 -118.5c0 -52.667 15.167 -91.667 45.5 -117s70.5 -38 120.5 -38c67.333 0 125.333 16 174 48v-100c-24 -16 -51.167 -27.833 -81.5 -35.5s-65.5 -11.5 -105.5 -11.5c-56 0 -105.167 10 -147.5 30z" />
    <glyph glyph-name="d" unicode="d" horiz-adv-x="665" 
d="M162.5 16.5c-38.333 21 -68.334 50.666 -90.001 88.999s-32.5 82.833 -32.5 133.5c0 50 10.833 94.333 32.5 133s51.667 68.834 90 90.501s81.833 32.5 130.5 32.5c78.667 0 140.667 -20.667 186 -62v306h126v-739h-122v56c-27.333 -25.333 -55.666 -43.5 -84.999 -54.5
s-64.333 -16.5 -105 -16.5c-48.667 0 -92.167 10.5 -130.5 31.5zM419.999 112.999c28 19.333 47.667 45.332 59 77.999v97c-10.667 32.667 -30.167 58.834 -58.5 78.501s-60.5 29.5 -96.5 29.5c-45.333 0 -82.666 -14.667 -111.999 -44s-44 -67 -44 -113
s14.667 -83.333 44 -112s66.666 -43 111.999 -43c36 0 68 9.66699 96 29z" />
    <glyph glyph-name="e" unicode="e" horiz-adv-x="609" 
d="M118 52c-52 44.667 -77.999 107.001 -77.999 187.001c0 78.667 23 141 69 187s111.667 69 197 69c56 0 103.833 -10.667 143.5 -32s69.5 -50.5 89.5 -87.5s30 -79.167 30 -126.5v-58h-409c8.66699 -71.333 70.667 -107 186 -107c30.667 0 62 2.66699 94 8
s60 12.666 84 21.999v-97c-22.667 -9.33301 -51.834 -17 -87.501 -23s-71.167 -9 -106.5 -9c-89.333 0 -160 22.333 -212 67zM450.001 277.001c-1.33301 38 -14.833 67.333 -40.5 88s-60.834 31 -105.501 31c-44 0 -78.667 -10.667 -104 -32s-38.666 -50.333 -39.999 -87
h290z" />
    <glyph glyph-name="f" unicode="f" horiz-adv-x="364" 
d="M91 384h-71.001v96h71v83c0 58.667 17.333 103.5 52 134.5s80.334 46.5 137.001 46.5c32 0 60 -4.66699 84 -14v-102c-18 8 -37.667 12 -59 12c-30 0 -52.167 -6.66699 -66.5 -20s-21.5 -35.333 -21.5 -66v-74h117v-96h-117v-384h-126v384z" />
    <glyph glyph-name="g" unicode="g" horiz-adv-x="665" 
d="M218 -221c-32 6 -58.666 13.998 -79.999 23.998v100c52 -22.667 110.667 -34 176 -34c58.667 0 100.834 12.333 126.501 37s38.5 61.334 38.5 110.001v31c-22.667 -20.667 -49.667 -36.167 -81 -46.5s-65 -15.5 -101 -15.5c-48.667 0 -92.667 10.833 -132 32.5
s-70 51.834 -92 90.501s-33 83 -33 133c0 50.667 10.833 95.167 32.5 133.5s51.667 68 90 89s81.833 31.5 130.5 31.5c40.667 0 75.667 -5.5 105 -16.5s57.666 -29.167 84.999 -54.5v56h122v-451c0 -82.667 -23.833 -146.5 -71.5 -191.5s-120.834 -67.5 -219.501 -67.5
c-32 0 -64 3 -96 9zM420.501 113.498c28.333 19.667 47.833 45.833 58.5 78.5v97c-11.333 32.667 -31 58.667 -59 78s-60 29 -96 29c-45.333 0 -82.666 -14.333 -111.999 -43s-44 -66 -44 -112s14.667 -83.667 44 -113s66.666 -44 111.999 -44
c36 0 68.167 9.83301 96.5 29.5z" />
    <glyph glyph-name="h" unicode="h" horiz-adv-x="610" 
d="M60 739h125.999v-320c45.333 50.667 104 76 176 76c64.667 0 113 -17.5 145 -52.5s48 -81.5 48 -139.5v-303h-126v291c0 70 -32.667 105 -98 105c-28.667 0 -55.667 -6.83301 -81 -20.5s-46.666 -34.167 -63.999 -61.5v-314h-126v739z" />
    <glyph glyph-name="i" unicode="i" horiz-adv-x="263" 
d="M80.5 584c-13.667 13.333 -20.5 30 -20.5 50s6.83301 36.833 20.5 50.5s30.5 20.5 50.5 20.5s37 -6.83301 51 -20.5s21 -30.5 21 -50.5s-7 -36.667 -21 -50s-31 -20 -51 -20s-36.833 6.66699 -50.5 20zM67 480h128v-480h-128v480z" />
    <glyph glyph-name="j" unicode="j" horiz-adv-x="257" 
d="M75.5 584c-13.667 13.333 -20.5 30 -20.5 50c0 19.333 6.83301 35.833 20.5 49.5s30.5 20.5 50.5 20.5c19.333 0 36 -6.83301 50 -20.5s21 -30.167 21 -49.5c0 -20 -6.83301 -36.667 -20.5 -50s-30.5 -20 -50.5 -20s-36.833 6.66699 -50.5 20zM-80 -218l0.000976562 102
c18 -8 38.667 -12 62 -12c27.333 0 47.666 6.83301 60.999 20.5s20 35.167 20 64.5v523h126v-536c0 -58 -16.667 -101.667 -50 -131s-78.333 -44 -135 -44c-32 0 -60 4.33301 -84 13z" />
    <glyph glyph-name="k" unicode="k" horiz-adv-x="589" 
d="M60 739h126v-470l191 211h148l-214 -235l238 -245h-148l-215 222v-222h-126v739z" />
    <glyph glyph-name="l" unicode="l" horiz-adv-x="246" 
d="M60 739h126v-739h-126v739z" />
    <glyph glyph-name="m" unicode="m" horiz-adv-x="872" 
d="M60 480l118.002 -0.000976562v-63c21.333 25.333 46.333 44.666 75 57.999s57.667 20 87 20c37.333 0 67.333 -6.16699 90 -18.5s39.667 -30.833 51 -55.5c21.333 24 47.166 42.333 77.499 55s60.5 19 90.5 19c60 0 103 -15 129 -45s39 -74 39 -132v-318h-121v301
c0 34 -6.83301 58.333 -20.5 73s-35.5 22 -65.5 22c-21.333 0 -40.833 -4.16699 -58.5 -12.5s-33.834 -22.5 -48.501 -42.5c1.33301 -21.333 2 -38.666 2 -51.999v-289h-122v303c0 34.667 -5.66699 58.834 -17 72.501s-32 20.5 -62 20.5c-45.333 0 -86 -25.667 -122 -77
v-319h-122v480z" />
    <glyph glyph-name="n" unicode="n" horiz-adv-x="610" 
d="M60 480h121.999v-65c22.667 27.333 49.667 47.5 81 60.5s64.333 19.5 99 19.5c64.667 0 113 -17.5 145 -52.5s48 -81.5 48 -139.5v-303h-126v291c0 70 -32.667 105 -98 105c-28.667 0 -55.667 -6.83301 -81 -20.5s-46.666 -34.167 -63.999 -61.5v-314h-126v480z" />
    <glyph glyph-name="o" unicode="o" horiz-adv-x="642" 
d="M173.5 15.5c-42.333 20.333 -75.167 49.666 -98.5 87.999s-35 83.833 -35 136.5c0 51.333 11.5 96.166 34.5 134.499s55.833 68 98.5 89s92 31.5 148 31.5s105.167 -10.5 147.5 -31.5s75.166 -50.667 98.499 -89s35 -83.166 35 -134.499
c0 -52.667 -11.667 -98.167 -35 -136.5s-56.166 -67.666 -98.499 -87.999s-91.5 -30.5 -147.5 -30.5s-105.167 10.167 -147.5 30.5zM430.999 127.5c27.333 29 41 66.5 41 112.5c0 48.667 -13.5 86.834 -40.5 114.501s-63.833 41.5 -110.5 41.5s-83.5 -13.833 -110.5 -41.5
s-40.5 -65.834 -40.5 -114.501c0 -46 13.667 -83.5 41 -112.5s64 -43.5 110 -43.5s82.667 14.5 110 43.5z" />
    <glyph glyph-name="p" unicode="p" horiz-adv-x="665" 
d="M60 480l122 0.000976562v-58c26 24.667 54.333 43 85 55s65.667 18 105 18c48.667 0 92.167 -10.5 130.5 -31.5s68.333 -50.667 90 -89s32.5 -82.833 32.5 -133.5c0 -50 -10.833 -94.333 -32.5 -133s-51.667 -68.834 -90 -90.501s-81.833 -32.5 -130.5 -32.5
c-36.667 0 -71.167 5.16699 -103.5 15.5s-59.833 25.833 -82.5 46.5v-266h-126v699zM453 128.001c29.333 29.333 44 67.001 44 113.001s-14.667 83.333 -44 112s-66.666 43 -111.999 43c-36 0 -68 -9.66699 -96 -29s-47.667 -45.333 -59 -78v-97
c10.667 -32.667 30.167 -58.834 58.5 -78.501s60.5 -29.5 96.5 -29.5c45.333 0 82.666 14.667 111.999 44z" />
    <glyph glyph-name="q" unicode="q" horiz-adv-x="665" 
d="M479 47c-22.667 -20.667 -50.167 -36.168 -82.5 -46.501s-66.833 -15.5 -103.5 -15.5c-48.667 0 -92.167 10.833 -130.5 32.5s-68.333 51.834 -90 90.501s-32.5 83 -32.5 133c0 50.667 10.833 95.167 32.5 133.5s51.667 68 90 89s81.833 31.5 130.5 31.5
c39.333 0 74.333 -6 105 -18s59 -30.333 85 -55v58h122v-699h-126v266zM420.5 113.499c28.333 19.667 47.833 45.833 58.5 78.5v97c-11.333 32.667 -31 58.667 -59 78s-60 29 -96 29c-45.333 0 -82.666 -14.333 -111.999 -43s-44 -66 -44 -112s14.667 -83.667 44 -113
s66.666 -44 111.999 -44c36 0 68.167 9.83301 96.5 29.5z" />
    <glyph glyph-name="r" unicode="r" horiz-adv-x="407" 
d="M60 480h122.001v-77c19.333 26 46.833 45.333 82.5 58s76.5 19 122.5 19v-96c-48.667 0 -90.834 -7.5 -126.501 -22.5s-60.5 -38.5 -74.5 -70.5v-291h-126v480z" />
    <glyph glyph-name="s" unicode="s" horiz-adv-x="499" 
d="M136 -3c-39.333 8 -69.999 19.001 -91.999 33.001v107c26 -16 57 -28.833 93 -38.5s70 -14.5 102 -14.5s55.333 2.83301 70 8.5s22 16.167 22 31.5c0 12 -3.83301 21.833 -11.5 29.5s-20 14.667 -37 21s-43.167 14.166 -78.5 23.499c-40 11.333 -71.5 23 -94.5 35
s-40.333 27.167 -52 45.5s-17.5 42.166 -17.5 71.499c0 48 19 84.167 57 108.5s89.333 36.5 154 36.5c33.333 0 66.5 -3.16699 99.5 -9.5s58.833 -15.166 77.5 -26.499v-103c-20 12 -44.333 21.667 -73 29s-58 11 -88 11c-32.667 0 -57.334 -3.16699 -74.001 -9.5
s-25 -18.5 -25 -36.5c0 -12 4.5 -21.5 13.5 -28.5s20.833 -13 35.5 -18s41.334 -12.5 80.001 -22.5c41.333 -11.333 73.666 -23.666 96.999 -36.999s40 -29.333 50 -48s15 -42 15 -70c0 -42.667 -18.167 -76.834 -54.5 -102.501s-88.833 -38.5 -157.5 -38.5
c-34.667 0 -71.667 4 -111 12z" />
    <glyph glyph-name="t" unicode="t" horiz-adv-x="388" 
d="M133 29c-27.333 29.333 -41 70.667 -41 124v231h-72v96h72v144h126v-144h115v-96h-115v-215c0 -30.667 5.66699 -52.5 17 -65.5s32 -19.5 62 -19.5c20.667 0 41 4.66699 61 14v-96c-28.667 -11.333 -63.667 -17 -105 -17c-52.667 0 -92.667 14.667 -120 44z" />
    <glyph glyph-name="u" unicode="u" horiz-adv-x="610" 
d="M103 37.5c-32 35 -47.999 81.5 -47.999 139.5v303h126v-291c0 -70 32.667 -105 98 -105c28.667 0 55.667 6.83301 81 20.5s46.666 34.167 63.999 61.5v314h126v-480h-122v65c-22.667 -27.333 -49.667 -47.5 -81 -60.5s-64.333 -19.5 -99 -19.5
c-64.667 0 -113 17.5 -145 52.5z" />
    <glyph glyph-name="v" unicode="v" horiz-adv-x="594" 
d="M40 480h127l130 -332l130 332h127l-198 -480h-118z" />
    <glyph glyph-name="w" unicode="w" horiz-adv-x="830" 
d="M40 480h126l98 -325l96 325h110l96 -325l98 325h126l-157 -480h-116l-102 326l-102 -326h-116z" />
    <glyph glyph-name="x" unicode="x" horiz-adv-x="630" 
d="M245 249l-191 231h140l121 -147l121 147h140l-191 -231l205 -249h-139l-136 164l-136 -164h-139z" />
    <glyph glyph-name="y" unicode="y" horiz-adv-x="600" 
d="M120.5 -194.5c-19 2.33301 -33.835 5.5 -44.502 9.5v96c16.667 -6.66699 37.334 -10 62.001 -10c25.333 0 44.333 5.66699 57 17s23.667 29.333 33 54l19 50l-207 458h127l148 -350l139 350h126l-210 -523c-21.333 -52.667 -47.166 -91.667 -77.499 -117
s-69.5 -38 -117.5 -38c-17.333 0 -35.5 1.16699 -54.5 3.5z" />
    <glyph glyph-name="z" unicode="z" horiz-adv-x="501" 
d="M40 79l255 305h-248v96h406v-79l-254 -305h262v-96h-421v79z" />
    <glyph glyph-name="braceleft" unicode="{" horiz-adv-x="344" 
d="M128.5 -71.5c-15.667 17 -23.5 42.498 -23.5 76.498v214c0 22.667 -5.16699 40.167 -15.5 52.5s-25.833 18.5 -46.5 18.5h-23v111h23c20.667 0 36.167 6 46.5 18s15.5 29.333 15.5 52v214c0 34 7.83301 59.5 23.5 76.5s37.834 25.5 66.501 25.5h109v-106h-36
c-14 0 -23.667 -3.16699 -29 -9.5s-8 -17.166 -8 -32.499v-187c0 -56 -22.333 -91.333 -67 -106v-2c44.667 -12.667 67 -48 67 -106v-187c0 -15.333 2.66699 -26.166 8 -32.499s15 -9.5 29 -9.5h36v-106h-109c-28.667 0 -50.834 8.5 -66.501 25.5z" />
    <glyph glyph-name="bar" unicode="|" horiz-adv-x="207" 
d="M40 812h127v-956h-127v956z" />
    <glyph glyph-name="braceright" unicode="}" horiz-adv-x="344" 
d="M40 9l36 0.00195312c14 0 23.667 3.16699 29 9.5s8 17.166 8 32.499v187c0 58 22.333 93.333 67 106v2c-44.667 14.667 -67 50 -67 106v187c0 15.333 -2.66699 26.166 -8 32.499s-15 9.5 -29 9.5h-36v106h109c28.667 0 50.834 -8.5 66.501 -25.5s23.5 -42.5 23.5 -76.5
v-214c0 -22.667 5.16699 -40 15.5 -52s25.833 -18 46.5 -18h23v-111h-23c-20.667 0 -36.167 -6.16699 -46.5 -18.5s-15.5 -29.833 -15.5 -52.5v-214c0 -34 -7.83301 -59.5 -23.5 -76.5s-37.834 -25.5 -66.501 -25.5h-109v106z" />
    <glyph glyph-name="asciitilde" unicode="~" horiz-adv-x="541" 
d="M332.5 271c-18.333 5.33301 -39.834 13 -64.501 23c-27.333 10 -49 17.333 -65 22s-32.667 7 -50 7c-46.667 0 -84.334 -19.667 -113.001 -59v113c10.667 16 25.834 28.333 45.501 37s42.167 13 67.5 13c18.667 0 36.834 -2.5 54.501 -7.5s40.5 -12.833 68.5 -23.5
c24 -9.33301 44.5 -16.5 61.5 -21.5s33.833 -7.5 50.5 -7.5c46.667 0 84.334 19.667 113.001 59v-113c-10.667 -16 -25.834 -28.333 -45.501 -37s-42.167 -13 -67.5 -13c-18.667 0 -37.167 2.66699 -55.5 8z" />
    <glyph glyph-name="uni00A0" unicode="&#xa0;" horiz-adv-x="360" 
 />
    <glyph glyph-name="exclamdown" unicode="&#xa1;" horiz-adv-x="222" 
d="M60.5 430c-13.667 13.333 -20.5 30 -20.5 50c0 19.333 6.83301 35.833 20.5 49.5s30.5 20.5 50.5 20.5c19.333 0 36 -6.83301 50 -20.5s21 -30.167 21 -49.5c0 -20 -6.83301 -36.667 -20.5 -50s-30.5 -20 -50.5 -20s-36.833 6.66699 -50.5 20zM51 321h121v-490h-121v490z
" />
    <glyph glyph-name="cent" unicode="&#xa2;" horiz-adv-x="548" 
d="M269 -12c-70.667 8.66699 -126.501 34.834 -167.501 78.501s-61.5 101.167 -61.5 172.5c0 70.667 20.5 128 61.5 172s96.833 70.667 167.5 80v90h108v-89c48.667 -4.66699 90.334 -18.334 125.001 -41.001v-101c-33.333 24 -75 38.667 -125 44v-308
c50 6 93.667 21.333 131 46v-100c-35.333 -23.333 -79 -38 -131 -44v-89h-108v89zM268.999 387c-32 -9.33301 -56.833 -26.334 -74.5 -51.001s-26.5 -57 -26.5 -97s9 -72.167 27 -96.5s42.667 -41.166 74 -50.499v295z" />
    <glyph glyph-name="sterling" unicode="&#xa3;" horiz-adv-x="492" 
d="M40 105l77.998 -0.000976562v215h-73v105h73v98c0 40.667 9.33301 75.334 28 104.001s43.834 50.334 75.501 65.001s66.834 22 105.501 22c32 0 60 -4.66699 84 -14v-102c-18 8 -37.667 12 -59 12c-32.667 0 -58.667 -8.33301 -78 -25s-29 -40.334 -29 -71.001v-89h164
v-105h-164v-215h207v-105h-412v105z" />
    <glyph glyph-name="currency" unicode="&#xa4;" horiz-adv-x="598" 
d="M40 112l85 63c-20 29.333 -30 62.666 -30 99.999s10 71 30 101l-84 63l53 66l88 -70c34 25.333 73 38 117 38s83 -12.667 117 -38l88 70l53 -66l-84 -63c20 -30 30 -63.667 30 -101s-10 -70.666 -30 -99.999l85 -63l-54 -67l-89 69c-34 -24.667 -72.667 -37 -116 -37
s-82 12.333 -116 37l-89 -69zM372.5 200.5c20.333 20.333 30.5 45.166 30.5 74.499s-10.167 54.333 -30.5 75s-44.833 31 -73.5 31s-53.167 -10.333 -73.5 -31s-30.5 -45.667 -30.5 -75s10.167 -54.166 30.5 -74.499s44.833 -30.5 73.5 -30.5s53.167 10.167 73.5 30.5z" />
    <glyph glyph-name="yen" unicode="&#xa5;" horiz-adv-x="714" 
d="M294 95h-137v84h137v64h-137v83h102l-219 373h135l180 -311l185 311h134l-223 -373h101v-83h-137v-64h137v-84h-137v-95h-121v95z" />
    <glyph glyph-name="brokenbar" unicode="&#xa6;" horiz-adv-x="207" 
d="M40 812h127v-389h-127v389zM40 245h127v-389h-127v389z" />
    <glyph glyph-name="section" unicode="&#xa7;" horiz-adv-x="567" 
d="M139.5 -158.5c-40.333 7.66699 -73.5029 17.833 -99.5029 30.5v109c33.333 -16 68.333 -28 105 -36s72.667 -12 108 -12c44.667 0 78.667 8.33301 102 25s35 39.667 35 69c0 20.667 -5.16699 37.5 -15.5 50.5s-25.5 24.667 -45.5 35s-52.333 24.833 -97 43.5
c-65.333 27.333 -112.666 57 -141.999 89s-44 72.333 -44 121c0 28.667 6.66699 53.667 20 75c-13.333 22 -20 48.667 -20 80c0 38 10.333 71.667 31 101s49.667 52 87 68s80.333 24 129 24c40 0 75.5 -3.16699 106.5 -9.5s61.5 -16.166 91.5 -29.499v-106
c-58 28 -116.667 42 -176 42c-39.333 0 -71.5 -8.83301 -96.5 -26.5s-37.5 -39.834 -37.5 -66.501c0 -24 11.667 -45 35 -63s63 -39.333 119 -64c50.667 -22.667 88.834 -42 114.501 -58s45 -35.833 58 -59.5s19.5 -54.5 19.5 -92.5c0 -26 -6 -51 -18 -75
c12 -24 18 -50.667 18 -80c0 -62 -22.333 -110.167 -67 -144.5s-110.667 -51.5 -198 -51.5c-41.333 0 -82.166 3.83301 -122.499 11.5zM423.997 191.999c0 18.667 -5.16992 34.334 -15.5029 47.001s-24.666 24 -42.999 34s-46.5 23 -84.5 39
c-25.333 10.667 -49.5 22.5 -72.5 35.5s-39.5 24.5 -49.5 34.5c-3.33301 -11.333 -5 -22 -5 -32c0 -23.333 10.667 -43.333 32 -60s56 -35.334 104 -56.001c34.667 -15.333 62.334 -28.333 83.001 -39s36.334 -22 47.001 -34c2.66699 12 4 22.333 4 31z" />
    <glyph glyph-name="dieresis" unicode="&#xa8;" horiz-adv-x="450" 
d="M60 597.5c-13.333 13 -20 28.501 -20 46.501c0 18.667 6.66699 34.5 20 47.5s29 19.5 47 19.5s33.5 -6.5 46.5 -19.5s19.5 -28.833 19.5 -47.5s-6.5 -34.334 -19.5 -47.001s-28.5 -19 -46.5 -19s-33.667 6.5 -47 19.5zM297 597.501c-13.333 13 -20 28.501 -20 46.501
c0 18.667 6.66699 34.5 20 47.5s29 19.5 47 19.5s33.5 -6.5 46.5 -19.5s19.5 -28.833 19.5 -47.5s-6.5 -34.334 -19.5 -47.001s-28.5 -19 -46.5 -19s-33.667 6.5 -47 19.5z" />
    <glyph glyph-name="copyright" unicode="&#xa9;" horiz-adv-x="817" 
d="M222.5 31c-56.333 30.667 -100.833 73.5 -133.5 128.5s-49 118.167 -49 189.5s16.333 134.666 49 189.999s77.167 98.333 133.5 129s118.5 46 186.5 46s130 -15.333 186 -46s100.333 -73.667 133 -129s49 -118.666 49 -189.999s-16.333 -134.5 -49 -189.5
s-77 -97.833 -133 -128.5s-118 -46 -186 -46s-130.167 15.333 -186.5 46zM540 121.5c38.667 20.333 69.165 50 91.498 89s33.5 85.167 33.5 138.5c0 52.667 -11 98.5 -33 137.5s-52.5 68.833 -91.5 89.5s-82.833 31 -131.5 31c-49.333 0 -93.333 -10.333 -132 -31
s-69 -50.5 -91 -89.5s-33 -84.833 -33 -137.5c0 -53.333 11.167 -99.5 33.5 -138.5s52.833 -68.667 91.5 -89s82.334 -30.5 131.001 -30.5s92.334 10.167 131.001 30.5zM246.998 187c-40.667 38.667 -61.0039 92.3359 -61.0039 161.003c0 45.333 9.33301 84.666 28 117.999
s44.834 58.666 78.501 75.999s72.167 26 115.5 26c64.667 0 116.334 -12.667 155.001 -38v-91c-18.667 13.333 -40.167 23.166 -64.5 29.499s-50.166 9.5 -77.499 9.5c-86.667 0 -130 -43.333 -130 -130c0 -86 42.667 -129 128 -129c58 0 108 14 150 42v-91
c-41.333 -27.333 -95.666 -41 -162.999 -41c-65.333 0 -118.333 19.333 -159 58z" />
    <glyph glyph-name="ordfeminine" unicode="&#xaa;" horiz-adv-x="425" 
d="M79 381.5c-26 21.667 -39 50.833 -39 87.5c0 38 12.5 67.833 37.5 89.5s59.833 32.5 104.5 32.5c44 0 81.333 -9 112 -27v10c0 24 -7.5 41.5 -22.5 52.5s-39.167 16.5 -72.5 16.5c-45.333 0 -84.333 -7.66699 -117 -23v71c14.667 6.66699 34.167 12.167 58.5 16.5
s47.5 6.5 69.5 6.5c59.333 0 103.333 -12.833 132 -38.5s43 -61.167 43 -106.5v-209h-85v33c-14.667 -14 -31.5 -24.833 -50.5 -32.5s-42.167 -11.5 -69.5 -11.5c-41.333 0 -75 10.833 -101 32.5zM256.5 426.499c16.333 7.66699 28.833 18.5 37.5 32.5v38
c-25.333 18.667 -55.333 28 -90 28c-48 0 -72 -18.667 -72 -56c0 -18 6 -31.5 18 -40.5s29.333 -13.5 52 -13.5c20 0 38.167 3.83301 54.5 11.5z" />
    <glyph glyph-name="guillemotleft" unicode="&#xab;" horiz-adv-x="628" 
d="M40 308v32l237 206l63 -79l-169 -143l169 -142l-63 -79zM288 308v32l237 206l63 -79l-169 -143l169 -142l-63 -79z" />
    <glyph glyph-name="logicalnot" unicode="&#xac;" horiz-adv-x="446" 
d="M280 254h-240v96h366v-218h-126v122z" />
    <glyph glyph-name="uni00AD" unicode="&#xad;" horiz-adv-x="412" 
d="M40 350h332v-101h-332v101z" />
    <glyph glyph-name="registered" unicode="&#xae;" horiz-adv-x="817" 
d="M222.5 31c-56.333 30.667 -100.833 73.5 -133.5 128.5s-49 118.167 -49 189.5s16.333 134.666 49 189.999s77.167 98.333 133.5 129s118.5 46 186.5 46s130 -15.333 186 -46s100.333 -73.667 133 -129s49 -118.666 49 -189.999s-16.333 -134.5 -49 -189.5
s-77 -97.833 -133 -128.5s-118 -46 -186 -46s-130.167 15.333 -186.5 46zM540 121.5c38.667 20.333 69.165 50 91.498 89s33.5 85.167 33.5 138.5c0 52.667 -11 98.5 -33 137.5s-52.5 68.833 -91.5 89.5s-82.833 31 -131.5 31c-49.333 0 -93.333 -10.333 -132 -31
s-69 -50.5 -91 -89.5s-33 -84.833 -33 -137.5c0 -53.333 11.167 -99.5 33.5 -138.5s52.833 -68.667 91.5 -89s82.334 -30.5 131.001 -30.5s92.334 10.167 131.001 30.5zM259.998 557h169c46 0 83 -11.333 111 -34s42 -54.667 42 -96c0 -30 -8.66699 -55.333 -26 -76
s-41.333 -35 -72 -43l81 -162h-98l-79 156h-31v-156h-97v411zM424.998 376c24.667 0 42.5 4 53.5 12s16.5 21 16.5 39c0 20.667 -5.33301 35 -16 43s-28.667 12 -54 12h-68v-106h68z" />
    <glyph glyph-name="macron" unicode="&#xaf;" horiz-adv-x="403" 
d="M40 678h323v-84h-323v84z" />
    <glyph glyph-name="degree" unicode="&#xb0;" horiz-adv-x="368" 
d="M112 458.5c-22 13 -39.5 30.5 -52.5 52.5s-19.5 46 -19.5 72s6.5 50 19.5 72s30.5 39.5 52.5 52.5s46 19.5 72 19.5s50 -6.5 72 -19.5s39.5 -30.5 52.5 -52.5s19.5 -46 19.5 -72s-6.5 -50 -19.5 -72s-30.5 -39.5 -52.5 -52.5s-46 -19.5 -72 -19.5s-50 6.5 -72 19.5z
M230.5 536c13 13.333 19.501 29 19.501 47s-6.5 33.5 -19.5 46.5s-28.5 19.5 -46.5 19.5s-33.5 -6.5 -46.5 -19.5s-19.5 -28.5 -19.5 -46.5s6.66699 -33.667 20 -47s28.666 -20 45.999 -20c18 0 33.5 6.66699 46.5 20z" />
    <glyph glyph-name="plusminus" unicode="&#xb1;" horiz-adv-x="412" 
d="M155 269h-115v101h115v115h101v-115h116v-101h-116v-116h-101v116zM40 101h332v-101h-332v101z" />
    <glyph glyph-name="uni00B2" unicode="&#xb2;" horiz-adv-x="342" 
d="M40 429l66.001 55.0029c38 31.333 63.833 54.166 77.5 68.499s20.5 28.833 20.5 43.5c0 23.333 -15 35 -45 35c-16 0 -34.333 -3.16699 -55 -9.5s-37.334 -13.833 -50.001 -22.5v81c12.667 8 29.667 14.833 51 20.5s41.333 8.5 60 8.5c44 0 77.167 -10.333 99.5 -31
s33.5 -46.334 33.5 -77.001c0 -16 -2.83301 -30 -8.5 -42s-13.5 -22.833 -23.5 -32.5s-26 -23.834 -48 -42.501l-50 -42h134v-72h-262v59z" />
    <glyph glyph-name="uni00B3" unicode="&#xb3;" horiz-adv-x="347" 
d="M40 379v71.0029c14 -6.66699 30.667 -11.834 50 -15.501s37 -5.5 53 -5.5c20.667 0 36.834 2.66699 48.501 8s17.5 15 17.5 29c0 12.667 -5 21.834 -15 27.501s-26.667 8.5 -50 8.5h-49v68h48c38 0 57 11 57 33c0 11.333 -5.33301 20.166 -16 26.499s-26 9.5 -46 9.5
c-30 0 -60.333 -8.66699 -91 -26v71c31.333 16.667 71 25 119 25c41.333 0 73.666 -8.5 96.999 -25.5s35 -40.5 35 -70.5c0 -35.333 -16.667 -61 -50 -77c39.333 -10.667 59 -36.334 59 -77.001c0 -30.667 -12.5 -54.834 -37.5 -72.501s-60.5 -26.5 -106.5 -26.5
c-52 0 -93 6.33301 -123 19z" />
    <glyph glyph-name="acute" unicode="&#xb4;" horiz-adv-x="282" 
d="M110 743h132l-86 -174h-116z" />
    <glyph glyph-name="paragraph" unicode="&#xb6;" horiz-adv-x="758" 
d="M341 261h-59c-73.333 0 -132 21.5 -176 64.5s-66 104.167 -66 183.5c0 81.333 24.167 143.833 72.5 187.5s112.5 65.5 192.5 65.5h413v-896h-127v791h-123v-791h-127v395z" />
    <glyph glyph-name="periodcentered" unicode="&#xb7;" horiz-adv-x="182" 
d="M55 260c-10 10 -15 22 -15 36s5 26 15 36s22 15 36 15s26 -5 36 -15s15 -22 15 -36s-5 -26 -15 -36s-22 -15 -36 -15s-26 5 -36 15z" />
    <glyph glyph-name="cedilla" unicode="&#xb8;" horiz-adv-x="315" 
d="M79 -244.5c-16.667 2.33301 -29.667 5.16699 -39 8.5l1 69c7.33301 -3.33301 16.333 -6.16602 27 -8.49902s21 -3.5 31 -3.5c39.333 0 59 13.667 59 41c0 16 -7.83301 28.833 -23.5 38.5s-40.834 14.5 -75.501 14.5l33 85h113l-20 -52
c28.667 -3.33301 50.834 -13.833 66.501 -31.5s23.5 -39.834 23.5 -66.501c0 -31.333 -13 -55.5 -39 -72.5s-61 -25.5 -105 -25.5c-18 0 -35.333 1.16699 -52 3.5z" />
    <glyph glyph-name="uni00B9" unicode="&#xb9;" horiz-adv-x="236" 
d="M122 605l-82 -59v86l91 67h85v-329h-94v235z" />
    <glyph glyph-name="ordmasculine" unicode="&#xba;" horiz-adv-x="483" 
d="M95 397c-36.667 32.667 -55.002 77.334 -55.002 134.001c0 55.333 18.333 99.666 55 132.999s85.667 50 147 50c60.667 0 109.334 -16.667 146.001 -50s55 -77.666 55 -132.999c0 -56.667 -18.167 -101.334 -54.5 -134.001s-85.166 -49 -146.499 -49
s-110.333 16.333 -147 49zM318.998 451.5c19.333 20.333 29 46.833 29 79.5c0 34 -9.5 60.833 -28.5 80.5s-44.833 29.5 -77.5 29.5c-33.333 0 -59.5 -9.66699 -78.5 -29s-28.5 -46.333 -28.5 -81c0 -32.667 9.66699 -59.167 29 -79.5s45.333 -30.5 78 -30.5
c32 0 57.667 10.167 77 30.5z" />
    <glyph glyph-name="guillemotright" unicode="&#xbb;" horiz-adv-x="628" 
d="M40 182l169 142l-169 143l63 79l237 -206v-32l-237 -205zM288 182l169 142l-169 143l63 79l237 -206v-32l-237 -205z" />
    <glyph glyph-name="onequarter" unicode="&#xbc;" horiz-adv-x="733" 
d="M122 605l-82 -59v86l91 67h85v-329h-94v235zM488 699h129l-387 -699h-129zM553 68h-154v64l147 197h101v-193h46v-68h-46v-68h-94v68zM567 136v105l-80 -105h80z" />
    <glyph glyph-name="onehalf" unicode="&#xbd;" horiz-adv-x="749" 
d="M122 605l-82 -59v86l91 67h85v-329h-94v235zM488 699h129l-387 -699h-129zM447 59l66.001 55.0029c38 31.333 63.833 54.166 77.5 68.499s20.5 28.833 20.5 43.5c0 23.333 -15 35 -45 35c-16 0 -34.333 -3.16699 -55 -9.5s-37.334 -13.833 -50.001 -22.5v81
c12.667 8 29.667 14.833 51 20.5s41.333 8.5 60 8.5c44 0 77.167 -10.333 99.5 -31s33.5 -46.334 33.5 -77.001c0 -16 -2.83301 -30 -8.5 -42s-13.5 -22.833 -23.5 -32.5s-26 -23.834 -48 -42.501l-50 -42h134v-72h-262v59z" />
    <glyph glyph-name="threequarters" unicode="&#xbe;" horiz-adv-x="745" 
d="M40 379v71.0029c14 -6.66699 30.667 -11.834 50 -15.501s37 -5.5 53 -5.5c20.667 0 36.834 2.66699 48.501 8s17.5 15 17.5 29c0 12.667 -5 21.834 -15 27.501s-26.667 8.5 -50 8.5h-49v68h48c38 0 57 11 57 33c0 11.333 -5.33301 20.166 -16 26.499s-26 9.5 -46 9.5
c-30 0 -60.333 -8.66699 -91 -26v71c31.333 16.667 71 25 119 25c41.333 0 73.666 -8.5 96.999 -25.5s35 -40.5 35 -70.5c0 -35.333 -16.667 -61 -50 -77c39.333 -10.667 59 -36.334 59 -77.001c0 -30.667 -12.5 -54.834 -37.5 -72.501s-60.5 -26.5 -106.5 -26.5
c-52 0 -93 6.33301 -123 19zM500 699.003h129l-387 -699h-129zM565 68.0029h-154v64l147 197h101v-193h46v-68h-46v-68h-94v68zM579 136.003v105l-80 -105h80z" />
    <glyph glyph-name="questiondown" unicode="&#xbf;" horiz-adv-x="520" 
d="M251.5 430c-13.667 13.333 -20.5 30 -20.5 50c0 19.333 7 35.833 21 49.5s30.667 20.5 50 20.5c20 0 36.833 -6.83301 50.5 -20.5s20.5 -30.167 20.5 -49.5c0 -20 -6.83301 -36.667 -20.5 -50s-30.5 -20 -50.5 -20s-36.833 6.66699 -50.5 20zM107.5 -129
c-45 33.333 -67.499 79.9951 -67.499 139.995c0 24.667 4.5 45.834 13.5 63.501s20.333 32.834 34 45.501s34.5 29.667 62.5 51c28.667 22 48.167 37.833 58.5 47.5s18.166 20.834 23.499 33.501s8 30 8 52v22h121v-23c0 -39.333 -7.33301 -72.333 -22 -99
s-38.667 -52 -72 -76l-26 -18c-28 -19.333 -47.833 -35.333 -59.5 -48s-17.5 -29.667 -17.5 -51c0 -27.333 10.5 -48.666 31.5 -63.999s52.833 -23 95.5 -23c32 0 64.667 3.66699 98 11s63.666 17.333 90.999 30v-105c-26 -11.333 -55.667 -20.666 -89 -27.999
s-66.666 -11 -99.999 -11c-77.333 0 -138.5 16.667 -183.5 50z" />
    <glyph glyph-name="Agrave" unicode="&#xc0;" horiz-adv-x="762" 
d="M234 916h133l69 -174h-116zM320 699h123l279 -699h-129l-64 161h-296l-63 -161h-130zM494 266l-113 297l-113 -297h226z" />
    <glyph glyph-name="Aacute" unicode="&#xc1;" horiz-adv-x="762" 
d="M398 916h133l-86 -174h-116zM320 699h123l279 -699h-129l-64 161h-296l-63 -161h-130zM494 266l-113 297l-113 -297h226z" />
    <glyph glyph-name="Acircumflex" unicode="&#xc2;" horiz-adv-x="762" 
d="M326 913h112l146 -171h-126l-76 99l-76 -99h-127zM320 699h123l279 -699h-129l-64 161h-296l-63 -161h-130zM494 266l-113 297l-113 -297h226z" />
    <glyph glyph-name="Atilde" unicode="&#xc3;" horiz-adv-x="762" 
d="M187 845c21.333 28.667 54.667 43 100 43c14.667 0 29 -2 43 -6s32 -10.333 54 -19c18.667 -8 35 -14.167 49 -18.5s28.333 -6.5 43 -6.5c41.333 0 74.666 17 99.999 51v-103c-20.667 -28 -54 -42 -100 -42c-16.667 0 -32.667 2.16699 -48 6.5s-33 10.833 -53 19.5
c-20 8 -36.167 14 -48.5 18s-25.5 6 -39.5 6c-19.333 0 -37.166 -4 -53.499 -12s-31.833 -21.333 -46.5 -40v103zM320.001 699h123l279 -699h-129l-64 161h-296l-63 -161h-130zM494.001 266l-113 297l-113 -297h226z" />
    <glyph glyph-name="Adieresis" unicode="&#xc4;" horiz-adv-x="762" 
d="M216 771.5c-13.333 13 -20 28.501 -20 46.501c0 18.667 6.66699 34.5 20 47.5s29 19.5 47 19.5s33.5 -6.5 46.5 -19.5s19.5 -28.833 19.5 -47.5s-6.5 -34.334 -19.5 -47.001s-28.5 -19 -46.5 -19s-33.667 6.5 -47 19.5zM453 771.501c-13.333 13 -20 28.501 -20 46.501
c0 18.667 6.66699 34.5 20 47.5s29 19.5 47 19.5s33.5 -6.5 46.5 -19.5s19.5 -28.833 19.5 -47.5s-6.5 -34.334 -19.5 -47.001s-28.5 -19 -46.5 -19s-33.667 6.5 -47 19.5zM320 699.002h123l279 -699h-129l-64 161h-296l-63 -161h-130zM494 266.002l-113 297l-113 -297h226z
" />
    <glyph glyph-name="Aring" unicode="&#xc5;" horiz-adv-x="762" 
d="M722 0h-128.998l-64 161h-296l-63 -161h-130l271 676c-16.667 11.333 -29.834 25.833 -39.501 43.5s-14.5 37.167 -14.5 58.5c0 34.667 12 64.167 36 88.5s53.333 36.5 88 36.5s64.167 -12.167 88.5 -36.5s36.5 -53.833 36.5 -88.5
c0 -21.333 -4.83301 -40.833 -14.5 -58.5s-22.834 -32.167 -39.501 -43.5zM345.002 814c-10 -10 -15 -22 -15 -36s5 -26 15 -36s22 -15 36 -15s26 5 36 15s15 22 15 36s-5 26 -15 36s-22 15 -36 15s-26 -5 -36 -15zM494.002 266l-113 297l-113 -297h226z" />
    <glyph glyph-name="AE" unicode="&#xc6;" horiz-adv-x="924" 
d="M371 699h513v-105h-311v-192h222v-105h-222v-192h311v-105h-438v171h-191l-79 -171h-136zM446 266v316h-3l-140 -316h143z" />
    <glyph glyph-name="Ccedilla" unicode="&#xc7;" horiz-adv-x="704" 
d="M480 -12l-16.0039 -39.999c28.667 -3.33301 50.834 -13.833 66.501 -31.5s23.5 -39.834 23.5 -66.501c0 -31.333 -13 -55.5 -39 -72.5s-61 -25.5 -105 -25.5c-18 0 -35.333 1.16699 -52 3.5s-29.667 5.16602 -39 8.49902l1 69
c7.33301 -3.33301 16.333 -6.16602 27 -8.49902s21 -3.5 31 -3.5c39.333 0 59 13.667 59 41c0 16 -7.83301 28.833 -23.5 38.5s-40.834 14.5 -75.501 14.5l28 72c-64.667 6 -121.667 24.667 -171 56s-87.5 73.166 -114.5 125.499s-40.5 112.5 -40.5 180.5
c0 73.333 15.667 137.5 47 192.5s75.333 97.5 132 127.5s121.667 45 195 45c96.667 0 177.334 -23 242.001 -69v-121c-58 49.333 -135 74 -231 74c-51.333 0 -96.333 -10.167 -135 -30.5s-68.667 -49.166 -90 -86.499s-32 -81.333 -32 -132s10.833 -94.667 32.5 -132
s51.834 -66.166 90.501 -86.499s83.334 -30.5 134.001 -30.5c49.333 0 93.333 6.16699 132 18.5s74.334 32.166 107.001 59.499v-121c-48 -37.333 -109.333 -60.333 -184 -69z" />
    <glyph glyph-name="Egrave" unicode="&#xc8;" horiz-adv-x="573" 
d="M153 916h133l69 -174h-116zM60 699h473v-105h-346v-192h257v-105h-257v-192h346v-105h-473v699z" />
    <glyph glyph-name="Eacute" unicode="&#xc9;" horiz-adv-x="563" 
d="M287 916h133l-86 -174h-116zM60 699h473v-105h-346v-192h257v-105h-257v-192h346v-105h-473v699z" />
    <glyph glyph-name="Ecircumflex" unicode="&#xca;" horiz-adv-x="573" 
d="M226 913h112l146 -171h-126l-76 99l-76 -99h-127zM60 699h473v-105h-346v-192h257v-105h-257v-192h346v-105h-473v699z" />
    <glyph glyph-name="Edieresis" unicode="&#xcb;" horiz-adv-x="573" 
d="M124 771.5c-13.333 13 -20 28.501 -20 46.501c0 18.667 6.66699 34.5 20 47.5s29 19.5 47 19.5s33.5 -6.5 46.5 -19.5s19.5 -28.833 19.5 -47.5s-6.5 -34.334 -19.5 -47.001s-28.5 -19 -46.5 -19s-33.667 6.5 -47 19.5zM361 771.501c-13.333 13 -20 28.501 -20 46.501
c0 18.667 6.66699 34.5 20 47.5s29 19.5 47 19.5s33.5 -6.5 46.5 -19.5s19.5 -28.833 19.5 -47.5s-6.5 -34.334 -19.5 -47.001s-28.5 -19 -46.5 -19s-33.667 6.5 -47 19.5zM60 699.002h473v-105h-346v-192h257v-105h-257v-192h346v-105h-473v699z" />
    <glyph glyph-name="Igrave" unicode="&#xcc;" horiz-adv-x="253" 
d="M-19 916h133l69 -174h-116zM63 699h127v-699h-127v699z" />
    <glyph glyph-name="Iacute" unicode="&#xcd;" horiz-adv-x="253" 
d="M138 916h133l-86 -174h-116zM63 699h127v-699h-127v699z" />
    <glyph glyph-name="Icircumflex" unicode="&#xce;" horiz-adv-x="253" 
d="M71 913h112l146 -171h-126l-76 99l-76 -99h-127zM63 699h127v-699h-127v699z" />
    <glyph glyph-name="Idieresis" unicode="&#xcf;" horiz-adv-x="253" 
d="M-39 771.5c-13.333 13 -20 28.501 -20 46.501c0 18.667 6.66699 34.5 20 47.5s29 19.5 47 19.5s33.5 -6.5 46.5 -19.5s19.5 -28.833 19.5 -47.5s-6.5 -34.334 -19.5 -47.001s-28.5 -19 -46.5 -19s-33.667 6.5 -47 19.5zM198 771.501c-13.333 13 -20 28.501 -20 46.501
c0 18.667 6.66699 34.5 20 47.5s29 19.5 47 19.5s33.5 -6.5 46.5 -19.5s19.5 -28.833 19.5 -47.5s-6.5 -34.334 -19.5 -47.001s-28.5 -19 -46.5 -19s-33.667 6.5 -47 19.5zM63 699.002h127v-699h-127v699z" />
    <glyph glyph-name="Eth" unicode="&#xd0;" horiz-adv-x="725" 
d="M79 301h-59v96h59v302h234c76 0 142 -14 198 -42s99 -68 129 -120s45 -113.333 45 -184c0 -116 -33.667 -203.833 -101 -263.5s-161.333 -89.5 -282 -89.5h-223v301zM304 105c81.333 0 143.833 21.835 187.5 65.502s65.5 104.5 65.5 182.5
c0 47.333 -9.66699 89.166 -29 125.499s-47 64.666 -83 84.999s-78.667 30.5 -128 30.5h-111v-197h172v-96h-172v-196h98z" />
    <glyph glyph-name="Ntilde" unicode="&#xd1;" horiz-adv-x="694" 
d="M160 845c21.333 28.667 54.667 43 100 43c14.667 0 29 -2 43 -6s32 -10.333 54 -19c18.667 -8 35 -14.167 49 -18.5s28.333 -6.5 43 -6.5c41.333 0 74.666 17 99.999 51v-103c-20.667 -28 -54 -42 -100 -42c-16.667 0 -32.667 2.16699 -48 6.5s-33 10.833 -53 19.5
c-20 8 -36.167 14 -48.5 18s-25.5 6 -39.5 6c-19.333 0 -37.166 -4 -53.499 -12s-31.833 -21.333 -46.5 -40v103zM60.001 699h120l327 -487v487h127v-699h-120l-327 488v-488h-127v699z" />
    <glyph glyph-name="Ograve" unicode="&#xd2;" horiz-adv-x="821" 
d="M275 916h133l69 -174h-116zM221.5 30.5c-56.333 30.333 -100.666 73.168 -132.999 128.501s-48.5 118.666 -48.5 189.999s16.167 134.666 48.5 189.999s76.666 98.333 132.999 129s119.5 46 189.5 46c69.333 0 132.166 -15.333 188.499 -46s100.666 -73.667 132.999 -129
s48.5 -118.666 48.5 -189.999s-16.167 -134.5 -48.5 -189.5s-76.666 -97.833 -132.999 -128.5s-119.166 -46 -188.499 -46c-70 0 -133.167 15.167 -189.5 45.5zM533 130.502c36.667 20.333 65.832 49.333 87.499 87s32.5 81.5 32.5 131.5c0 49.333 -10.667 92.833 -32 130.5
s-50.333 66.834 -87 87.501s-77.667 31 -123 31s-86.5 -10.333 -123.5 -31s-66.167 -49.834 -87.5 -87.501s-32 -81.167 -32 -130.5c0 -50 10.833 -93.833 32.5 -131.5s51 -66.667 88 -87s77.833 -30.5 122.5 -30.5s85.334 10.167 122.001 30.5z" />
    <glyph glyph-name="Oacute" unicode="&#xd3;" horiz-adv-x="821" 
d="M420 916h133l-86 -174h-116zM221.5 30.5c-56.333 30.333 -100.666 73.168 -132.999 128.501s-48.5 118.666 -48.5 189.999s16.167 134.666 48.5 189.999s76.666 98.333 132.999 129s119.5 46 189.5 46c69.333 0 132.166 -15.333 188.499 -46
s100.666 -73.667 132.999 -129s48.5 -118.666 48.5 -189.999s-16.167 -134.5 -48.5 -189.5s-76.666 -97.833 -132.999 -128.5s-119.166 -46 -188.499 -46c-70 0 -133.167 15.167 -189.5 45.5zM533 130.502c36.667 20.333 65.832 49.333 87.499 87s32.5 81.5 32.5 131.5
c0 49.333 -10.667 92.833 -32 130.5s-50.333 66.834 -87 87.501s-77.667 31 -123 31s-86.5 -10.333 -123.5 -31s-66.167 -49.834 -87.5 -87.501s-32 -81.167 -32 -130.5c0 -50 10.833 -93.833 32.5 -131.5s51 -66.667 88 -87s77.833 -30.5 122.5 -30.5
s85.334 10.167 122.001 30.5z" />
    <glyph glyph-name="Ocircumflex" unicode="&#xd4;" horiz-adv-x="821" 
d="M355 913h112l146 -171h-126l-76 99l-76 -99h-127zM221.5 30.5c-56.333 30.333 -100.666 73.168 -132.999 128.501s-48.5 118.666 -48.5 189.999s16.167 134.666 48.5 189.999s76.666 98.333 132.999 129s119.5 46 189.5 46c69.333 0 132.166 -15.333 188.499 -46
s100.666 -73.667 132.999 -129s48.5 -118.666 48.5 -189.999s-16.167 -134.5 -48.5 -189.5s-76.666 -97.833 -132.999 -128.5s-119.166 -46 -188.499 -46c-70 0 -133.167 15.167 -189.5 45.5zM533 130.502c36.667 20.333 65.832 49.333 87.499 87s32.5 81.5 32.5 131.5
c0 49.333 -10.667 92.833 -32 130.5s-50.333 66.834 -87 87.501s-77.667 31 -123 31s-86.5 -10.333 -123.5 -31s-66.167 -49.834 -87.5 -87.501s-32 -81.167 -32 -130.5c0 -50 10.833 -93.833 32.5 -131.5s51 -66.667 88 -87s77.833 -30.5 122.5 -30.5
s85.334 10.167 122.001 30.5z" />
    <glyph glyph-name="Otilde" unicode="&#xd5;" horiz-adv-x="821" 
d="M217 845c21.333 28.667 54.667 43 100 43c14.667 0 29 -2 43 -6s32 -10.333 54 -19c18.667 -8 35 -14.167 49 -18.5s28.333 -6.5 43 -6.5c41.333 0 74.666 17 99.999 51v-103c-20.667 -28 -54 -42 -100 -42c-16.667 0 -32.667 2.16699 -48 6.5s-33 10.833 -53 19.5
c-20 8 -36.167 14 -48.5 18s-25.5 6 -39.5 6c-19.333 0 -37.166 -4 -53.499 -12s-31.833 -21.333 -46.5 -40v103zM221.501 30.5c-56.333 30.333 -100.666 73.168 -132.999 128.501s-48.5 118.666 -48.5 189.999s16.167 134.666 48.5 189.999s76.666 98.333 132.999 129
s119.5 46 189.5 46c69.333 0 132.166 -15.333 188.499 -46s100.666 -73.667 132.999 -129s48.5 -118.666 48.5 -189.999s-16.167 -134.5 -48.5 -189.5s-76.666 -97.833 -132.999 -128.5s-119.166 -46 -188.499 -46c-70 0 -133.167 15.167 -189.5 45.5zM533.001 130.502
c36.667 20.333 65.832 49.333 87.499 87s32.5 81.5 32.5 131.5c0 49.333 -10.667 92.833 -32 130.5s-50.333 66.834 -87 87.501s-77.667 31 -123 31s-86.5 -10.333 -123.5 -31s-66.167 -49.834 -87.5 -87.501s-32 -81.167 -32 -130.5c0 -50 10.833 -93.833 32.5 -131.5
s51 -66.667 88 -87s77.833 -30.5 122.5 -30.5s85.334 10.167 122.001 30.5z" />
    <glyph glyph-name="Odieresis" unicode="&#xd6;" horiz-adv-x="821" 
d="M245 771.5c-13.333 13 -20 28.501 -20 46.501c0 18.667 6.66699 34.5 20 47.5s29 19.5 47 19.5s33.5 -6.5 46.5 -19.5s19.5 -28.833 19.5 -47.5s-6.5 -34.334 -19.5 -47.001s-28.5 -19 -46.5 -19s-33.667 6.5 -47 19.5zM482 771.501c-13.333 13 -20 28.501 -20 46.501
c0 18.667 6.66699 34.5 20 47.5s29 19.5 47 19.5s33.5 -6.5 46.5 -19.5s19.5 -28.833 19.5 -47.5s-6.5 -34.334 -19.5 -47.001s-28.5 -19 -46.5 -19s-33.667 6.5 -47 19.5zM221.5 30.502c-56.333 30.333 -100.666 73.168 -132.999 128.501s-48.5 118.666 -48.5 189.999
s16.167 134.666 48.5 189.999s76.666 98.333 132.999 129s119.5 46 189.5 46c69.333 0 132.166 -15.333 188.499 -46s100.666 -73.667 132.999 -129s48.5 -118.666 48.5 -189.999s-16.167 -134.5 -48.5 -189.5s-76.666 -97.833 -132.999 -128.5s-119.166 -46 -188.499 -46
c-70 0 -133.167 15.167 -189.5 45.5zM533 130.504c36.667 20.333 65.832 49.333 87.499 87s32.5 81.5 32.5 131.5c0 49.333 -10.667 92.833 -32 130.5s-50.333 66.834 -87 87.501s-77.667 31 -123 31s-86.5 -10.333 -123.5 -31s-66.167 -49.834 -87.5 -87.501
s-32 -81.167 -32 -130.5c0 -50 10.833 -93.833 32.5 -131.5s51 -66.667 88 -87s77.833 -30.5 122.5 -30.5s85.334 10.167 122.001 30.5z" />
    <glyph glyph-name="multiply" unicode="&#xd7;" horiz-adv-x="387" 
d="M193 232l-80 -80l-72 71l81 81l-82 82l72 71l81 -82l82 83l72 -72l-82 -82l81 -81l-71 -72z" />
    <glyph glyph-name="Oslash" unicode="&#xd8;" horiz-adv-x="821" 
d="M222 30c-56.667 30.667 -101.168 73.6689 -133.501 129.002s-48.5 118.666 -48.5 189.999s16.167 134.666 48.5 189.999s76.666 98.333 132.999 129s119.5 46 189.5 46c26.667 0 54 -2.66699 82 -8l32 78h124l-47 -118c55.333 -30.667 99 -73.5 131 -128.5
s48 -117.833 48 -188.5c0 -71.333 -16.167 -134.5 -48.5 -189.5s-76.666 -97.833 -132.999 -128.5s-119.166 -46 -188.499 -46c-26 0 -53 2.66699 -81 8l-31 -79h-124zM448.999 595.002c-12.667 2 -25.334 2.99902 -38.001 2.99902c-45.333 0 -86.5 -10.333 -123.5 -31
s-66.167 -49.834 -87.5 -87.501s-32 -81.167 -32 -130.5c0 -45.333 8.83301 -85.666 26.5 -120.999s41.834 -63.666 72.501 -84.999zM532.999 130.501c36.667 20.333 65.832 49.333 87.499 87s32.5 81.5 32.5 131.5c0 44 -8.66699 83.5 -26 118.5s-41 63.5 -71 85.5
l-181 -451c14.667 -1.33301 26.667 -2 36 -2c44.667 0 85.334 10.167 122.001 30.5z" />
    <glyph glyph-name="Ugrave" unicode="&#xd9;" horiz-adv-x="707" 
d="M214 916h133l69 -174h-116zM130.5 62.5c-50.333 51.667 -75.5 121.5 -75.5 209.5v427h127v-429c0 -55.333 15.5 -97.5 46.5 -126.5s72.833 -43.5 125.5 -43.5c52 0 93.5 14.5 124.5 43.5s46.5 71.167 46.5 126.5v429h127v-427c0 -88 -25 -157.833 -75 -209.5
s-124.333 -77.5 -223 -77.5s-173.167 25.833 -223.5 77.5z" />
    <glyph glyph-name="Uacute" unicode="&#xda;" horiz-adv-x="707" 
d="M358 916h133l-86 -174h-116zM130.5 62.5c-50.333 51.667 -75.5 121.5 -75.5 209.5v427h127v-429c0 -55.333 15.5 -97.5 46.5 -126.5s72.833 -43.5 125.5 -43.5c52 0 93.5 14.5 124.5 43.5s46.5 71.167 46.5 126.5v429h127v-427c0 -88 -25 -157.833 -75 -209.5
s-124.333 -77.5 -223 -77.5s-173.167 25.833 -223.5 77.5z" />
    <glyph glyph-name="Ucircumflex" unicode="&#xdb;" horiz-adv-x="707" 
d="M298 913h112l146 -171h-126l-76 99l-76 -99h-127zM130.5 62.5c-50.333 51.667 -75.5 121.5 -75.5 209.5v427h127v-429c0 -55.333 15.5 -97.5 46.5 -126.5s72.833 -43.5 125.5 -43.5c52 0 93.5 14.5 124.5 43.5s46.5 71.167 46.5 126.5v429h127v-427
c0 -88 -25 -157.833 -75 -209.5s-124.333 -77.5 -223 -77.5s-173.167 25.833 -223.5 77.5z" />
    <glyph glyph-name="Udieresis" unicode="&#xdc;" horiz-adv-x="707" 
d="M188 771.5c-13.333 13 -20 28.501 -20 46.501c0 18.667 6.66699 34.5 20 47.5s29 19.5 47 19.5s33.5 -6.5 46.5 -19.5s19.5 -28.833 19.5 -47.5s-6.5 -34.334 -19.5 -47.001s-28.5 -19 -46.5 -19s-33.667 6.5 -47 19.5zM425 771.501c-13.333 13 -20 28.501 -20 46.501
c0 18.667 6.66699 34.5 20 47.5s29 19.5 47 19.5s33.5 -6.5 46.5 -19.5s19.5 -28.833 19.5 -47.5s-6.5 -34.334 -19.5 -47.001s-28.5 -19 -46.5 -19s-33.667 6.5 -47 19.5zM130.5 62.502c-50.333 51.667 -75.5 121.5 -75.5 209.5v427h127v-429
c0 -55.333 15.5 -97.5 46.5 -126.5s72.833 -43.5 125.5 -43.5c52 0 93.5 14.5 124.5 43.5s46.5 71.167 46.5 126.5v429h127v-427c0 -88 -25 -157.833 -75 -209.5s-124.333 -77.5 -223 -77.5s-173.167 25.833 -223.5 77.5z" />
    <glyph glyph-name="Yacute" unicode="&#xdd;" horiz-adv-x="726" 
d="M367 916h133l-86 -174h-116zM300 266l-254 433h135l180 -311l185 311h134l-259 -433v-266h-121v266z" />
    <glyph glyph-name="Thorn" unicode="&#xde;" horiz-adv-x="614" 
d="M60 699l127 -0.000976562v-129h161c78 0 138.5 -18.167 181.5 -54.5s64.5 -91.166 64.5 -164.499s-21.5 -128 -64.5 -164s-103.5 -54 -181.5 -54h-161v-133h-127v699zM324 237.999c44.667 0 79.667 8 105 24s38 45.667 38 89c0 44 -12.667 74 -38 90s-60.333 24 -105 24
h-137v-227h137z" />
    <glyph glyph-name="germandbls" unicode="&#xdf;" horiz-adv-x="648" 
d="M250 4l0.000976562 117c27.333 -14 63.666 -21 108.999 -21c37.333 0 66.666 11 87.999 33s32 51 32 87c0 36.667 -11.167 63.167 -33.5 79.5s-55.5 24.5 -99.5 24.5h-57v106h45c64 0 96 32.667 96 98c0 30 -10.5 54 -31.5 72s-49.5 27 -85.5 27
c-87.333 0 -131 -40.333 -131 -121v-506h-127v498c0 76.667 21.667 136.834 65 180.501s107.333 65.5 192 65.5c55.333 0 101.5 -10.167 138.5 -30.5s64.333 -47 82 -80s26.5 -68.167 26.5 -105.5c0 -32 -7.16699 -61.333 -21.5 -88s-34.833 -46.334 -61.5 -59.001
c44 -12.667 77 -34.167 99 -64.5s33 -68.5 33 -114.5c0 -66.667 -19.667 -119.5 -59 -158.5s-95.666 -58.5 -168.999 -58.5c-56.667 0 -100 6.33301 -130 19z" />
    <glyph glyph-name="agrave" unicode="&#xe0;" horiz-adv-x="577" 
d="M176 709h133l69 -174h-116zM95 30.5c-36.667 30.333 -55.001 71.167 -55.001 122.5c0 53.333 17.333 95 52 125s83.334 45 146.001 45c60.667 0 113 -12.333 157 -37v13c0 34 -10.5 58.667 -31.5 74s-54.833 23 -101.5 23c-29.333 0 -58.333 -2.83301 -87 -8.5
s-54 -13.5 -76 -23.5v99c20 9.33301 46.833 17 80.5 23s66.167 9 97.5 9c83.333 0 145 -17.833 185 -53.5s60 -85.167 60 -148.5v-293h-119v47c-20.667 -20 -44.167 -35.333 -70.5 -46s-58.5 -16 -96.5 -16c-57.333 0 -104.333 15.167 -141 45.5zM342.999 93.501
c22.667 11 40 26.167 52 45.5v53c-36.667 26 -78.667 39 -126 39c-67.333 0 -101 -26 -101 -78c0 -25.333 8.5 -44.333 25.5 -57s41.5 -19 73.5 -19c28 0 53.333 5.5 76 16.5z" />
    <glyph glyph-name="aacute" unicode="&#xe1;" horiz-adv-x="577" 
d="M301 709h133l-86 -174h-116zM95 30.5c-36.667 30.333 -55.001 71.167 -55.001 122.5c0 53.333 17.333 95 52 125s83.334 45 146.001 45c60.667 0 113 -12.333 157 -37v13c0 34 -10.5 58.667 -31.5 74s-54.833 23 -101.5 23c-29.333 0 -58.333 -2.83301 -87 -8.5
s-54 -13.5 -76 -23.5v99c20 9.33301 46.833 17 80.5 23s66.167 9 97.5 9c83.333 0 145 -17.833 185 -53.5s60 -85.167 60 -148.5v-293h-119v47c-20.667 -20 -44.167 -35.333 -70.5 -46s-58.5 -16 -96.5 -16c-57.333 0 -104.333 15.167 -141 45.5zM342.999 93.501
c22.667 11 40 26.167 52 45.5v53c-36.667 26 -78.667 39 -126 39c-67.333 0 -101 -26 -101 -78c0 -25.333 8.5 -44.333 25.5 -57s41.5 -19 73.5 -19c28 0 53.333 5.5 76 16.5z" />
    <glyph glyph-name="acircumflex" unicode="&#xe2;" horiz-adv-x="577" 
d="M241 706h112l146 -171h-126l-76 99l-76 -99h-127zM95 30.5c-36.667 30.333 -55.001 71.167 -55.001 122.5c0 53.333 17.333 95 52 125s83.334 45 146.001 45c60.667 0 113 -12.333 157 -37v13c0 34 -10.5 58.667 -31.5 74s-54.833 23 -101.5 23
c-29.333 0 -58.333 -2.83301 -87 -8.5s-54 -13.5 -76 -23.5v99c20 9.33301 46.833 17 80.5 23s66.167 9 97.5 9c83.333 0 145 -17.833 185 -53.5s60 -85.167 60 -148.5v-293h-119v47c-20.667 -20 -44.167 -35.333 -70.5 -46s-58.5 -16 -96.5 -16
c-57.333 0 -104.333 15.167 -141 45.5zM342.999 93.501c22.667 11 40 26.167 52 45.5v53c-36.667 26 -78.667 39 -126 39c-67.333 0 -101 -26 -101 -78c0 -25.333 8.5 -44.333 25.5 -57s41.5 -19 73.5 -19c28 0 53.333 5.5 76 16.5z" />
    <glyph glyph-name="atilde" unicode="&#xe3;" horiz-adv-x="577" 
d="M115 636c21.333 28.667 54.667 43 100 43c14.667 0 29 -2 43 -6s32 -10.333 54 -19c18.667 -8 35 -14.167 49 -18.5s28.333 -6.5 43 -6.5c41.333 0 74.666 17 99.999 51v-103c-20.667 -28 -54 -42 -100 -42c-16.667 0 -32.667 2.16699 -48 6.5s-33 10.833 -53 19.5
c-20 8 -36.167 14 -48.5 18s-25.5 6 -39.5 6c-19.333 0 -37.166 -4 -53.499 -12s-31.833 -21.333 -46.5 -40v103zM95.001 30.5c-36.667 30.333 -55.001 71.167 -55.001 122.5c0 53.333 17.333 95 52 125s83.334 45 146.001 45c60.667 0 113 -12.333 157 -37v13
c0 34 -10.5 58.667 -31.5 74s-54.833 23 -101.5 23c-29.333 0 -58.333 -2.83301 -87 -8.5s-54 -13.5 -76 -23.5v99c20 9.33301 46.833 17 80.5 23s66.167 9 97.5 9c83.333 0 145 -17.833 185 -53.5s60 -85.167 60 -148.5v-293h-119v47
c-20.667 -20 -44.167 -35.333 -70.5 -46s-58.5 -16 -96.5 -16c-57.333 0 -104.333 15.167 -141 45.5zM343 93.501c22.667 11 40 26.167 52 45.5v53c-36.667 26 -78.667 39 -126 39c-67.333 0 -101 -26 -101 -78c0 -25.333 8.5 -44.333 25.5 -57s41.5 -19 73.5 -19
c28 0 53.333 5.5 76 16.5z" />
    <glyph glyph-name="adieresis" unicode="&#xe4;" horiz-adv-x="577" 
d="M126 564.5c-13.333 13 -20 28.501 -20 46.501c0 18.667 6.66699 34.5 20 47.5s29 19.5 47 19.5s33.5 -6.5 46.5 -19.5s19.5 -28.833 19.5 -47.5s-6.5 -34.334 -19.5 -47.001s-28.5 -19 -46.5 -19s-33.667 6.5 -47 19.5zM363 564.501c-13.333 13 -20 28.501 -20 46.501
c0 18.667 6.66699 34.5 20 47.5s29 19.5 47 19.5s33.5 -6.5 46.5 -19.5s19.5 -28.833 19.5 -47.5s-6.5 -34.334 -19.5 -47.001s-28.5 -19 -46.5 -19s-33.667 6.5 -47 19.5zM95 30.502c-36.667 30.333 -55.001 71.167 -55.001 122.5c0 53.333 17.333 95 52 125
s83.334 45 146.001 45c60.667 0 113 -12.333 157 -37v13c0 34 -10.5 58.667 -31.5 74s-54.833 23 -101.5 23c-29.333 0 -58.333 -2.83301 -87 -8.5s-54 -13.5 -76 -23.5v99c20 9.33301 46.833 17 80.5 23s66.167 9 97.5 9c83.333 0 145 -17.833 185 -53.5
s60 -85.167 60 -148.5v-293h-119v47c-20.667 -20 -44.167 -35.333 -70.5 -46s-58.5 -16 -96.5 -16c-57.333 0 -104.333 15.167 -141 45.5zM342.999 93.5029c22.667 11 40 26.167 52 45.5v53c-36.667 26 -78.667 39 -126 39c-67.333 0 -101 -26 -101 -78
c0 -25.333 8.5 -44.333 25.5 -57s41.5 -19 73.5 -19c28 0 53.333 5.5 76 16.5z" />
    <glyph glyph-name="aring" unicode="&#xe5;" horiz-adv-x="577" 
d="M216 571c-24 24 -36 53.333 -36 88s12 64.167 36 88.5s53.333 36.5 88 36.5s64.167 -12.167 88.5 -36.5s36.5 -53.833 36.5 -88.5s-12.167 -64 -36.5 -88s-53.833 -36 -88.5 -36s-64 12 -88 36zM340 623c10 10 15 22 15 36s-5 26 -15 36s-22 15 -36 15s-26 -5 -36 -15
s-15 -22 -15 -36s5 -26 15 -36s22 -15 36 -15s26 5 36 15zM95 30.5c-36.667 30.333 -55.001 71.167 -55.001 122.5c0 53.333 17.333 95 52 125s83.334 45 146.001 45c60.667 0 113 -12.333 157 -37v13c0 34 -10.5 58.667 -31.5 74s-54.833 23 -101.5 23
c-29.333 0 -58.333 -2.83301 -87 -8.5s-54 -13.5 -76 -23.5v99c20 9.33301 46.833 17 80.5 23s66.167 9 97.5 9c83.333 0 145 -17.833 185 -53.5s60 -85.167 60 -148.5v-293h-119v47c-20.667 -20 -44.167 -35.333 -70.5 -46s-58.5 -16 -96.5 -16
c-57.333 0 -104.333 15.167 -141 45.5zM342.999 93.501c22.667 11 40 26.167 52 45.5v53c-36.667 26 -78.667 39 -126 39c-67.333 0 -101 -26 -101 -78c0 -25.333 8.5 -44.333 25.5 -57s41.5 -19 73.5 -19c28 0 53.333 5.5 76 16.5z" />
    <glyph glyph-name="ae" unicode="&#xe6;" horiz-adv-x="969" 
d="M94.5 30c-36.333 30 -54.501 71.001 -54.501 123.001c0 53.333 17.333 95 52 125s83.334 45 146.001 45c60.667 0 113 -12.333 157 -37v13c0 34 -10.5 58.667 -31.5 74s-54.833 23 -101.5 23c-29.333 0 -58.333 -2.83301 -87 -8.5s-54 -13.5 -76 -23.5v99
c20 9.33301 46.833 17 80.5 23s66.167 9 97.5 9c86.667 0 150.667 -23.333 192 -70c22.667 22.667 50.834 40 84.501 52s71.167 18 112.5 18c56 0 103.833 -10.667 143.5 -32s69.5 -50.5 89.5 -87.5s30 -79.167 30 -126.5v-58h-407c8.66699 -71.333 70 -107 184 -107
c30.667 0 62 2.66699 94 8s60 12.666 84 21.999v-97c-22.667 -9.33301 -51.834 -17 -87.501 -23s-71.167 -9 -106.5 -9c-92.667 0 -167.334 25.667 -224.001 77c-27.333 -25.333 -58 -44.5 -92 -57.5s-77.333 -19.5 -130 -19.5c-63.333 0 -113.166 15 -149.499 45z
M809.999 277.001c-1.33301 38 -14.832 67.333 -40.499 88s-60.834 31 -105.501 31c-43.333 0 -77.5 -10.667 -102.5 -32s-38.167 -50.333 -39.5 -87h288zM342.5 92.501c22.333 10.333 39.833 24.833 52.5 43.5v56c-36.667 26 -78.667 39 -126 39
c-67.333 0 -101 -26 -101 -78c0 -25.333 8.5 -44.333 25.5 -57s41.5 -19 73.5 -19c28 0 53.167 5.16699 75.5 15.5z" />
    <glyph glyph-name="ccedilla" unicode="&#xe7;" horiz-adv-x="548" 
d="M376 -12l-15.0029 -39.9971c28.667 -3.33301 50.834 -13.833 66.501 -31.5s23.5 -39.834 23.5 -66.501c0 -31.333 -13 -55.5 -39 -72.5s-61 -25.5 -105 -25.5c-18 0 -35.333 1.16699 -52 3.5s-29.667 5.16602 -39 8.49902l1 69
c7.33301 -3.33301 16.333 -6.16602 27 -8.49902s21 -3.5 31 -3.5c39.333 0 59 13.667 59 41c0 16 -7.83301 28.833 -23.5 38.5s-40.834 14.5 -75.501 14.5l29 74c-69.333 10 -124 36.5 -164 79.5s-60 99.833 -60 170.5c0 53.333 11.833 99.166 35.5 137.499
s56.667 67.666 99 87.999s91.833 30.5 148.5 30.5c74.667 0 134.334 -14.667 179.001 -44v-101c-43.333 30.667 -98.666 46 -165.999 46c-51.333 0 -92.166 -12.833 -122.499 -38.5s-45.5 -65.167 -45.5 -118.5c0 -52.667 15.167 -91.667 45.5 -117s70.5 -38 120.5 -38
c67.333 0 125.333 16 174 48v-100c-35.333 -23.333 -79.333 -38 -132 -44z" />
    <glyph glyph-name="egrave" unicode="&#xe8;" horiz-adv-x="609" 
d="M174 709h133l69 -174h-116zM118 52c-52 44.667 -77.999 107.001 -77.999 187.001c0 78.667 23 141 69 187s111.667 69 197 69c56 0 103.833 -10.667 143.5 -32s69.5 -50.5 89.5 -87.5s30 -79.167 30 -126.5v-58h-409c8.66699 -71.333 70.667 -107 186 -107
c30.667 0 62 2.66699 94 8s60 12.666 84 21.999v-97c-22.667 -9.33301 -51.834 -17 -87.501 -23s-71.167 -9 -106.5 -9c-89.333 0 -160 22.333 -212 67zM450.001 277.001c-1.33301 38 -14.833 67.333 -40.5 88s-60.834 31 -105.501 31c-44 0 -78.667 -10.667 -104 -32
s-38.666 -50.333 -39.999 -87h290z" />
    <glyph glyph-name="eacute" unicode="&#xe9;" horiz-adv-x="609" 
d="M306 709h133l-86 -174h-116zM118 52c-52 44.667 -77.999 107.001 -77.999 187.001c0 78.667 23 141 69 187s111.667 69 197 69c56 0 103.833 -10.667 143.5 -32s69.5 -50.5 89.5 -87.5s30 -79.167 30 -126.5v-58h-409c8.66699 -71.333 70.667 -107 186 -107
c30.667 0 62 2.66699 94 8s60 12.666 84 21.999v-97c-22.667 -9.33301 -51.834 -17 -87.501 -23s-71.167 -9 -106.5 -9c-89.333 0 -160 22.333 -212 67zM450.001 277.001c-1.33301 38 -14.833 67.333 -40.5 88s-60.834 31 -105.501 31c-44 0 -78.667 -10.667 -104 -32
s-38.666 -50.333 -39.999 -87h290z" />
    <glyph glyph-name="ecircumflex" unicode="&#xea;" horiz-adv-x="609" 
d="M258 706h112l146 -171h-126l-76 99l-76 -99h-127zM118 52c-52 44.667 -77.999 107.001 -77.999 187.001c0 78.667 23 141 69 187s111.667 69 197 69c56 0 103.833 -10.667 143.5 -32s69.5 -50.5 89.5 -87.5s30 -79.167 30 -126.5v-58h-409
c8.66699 -71.333 70.667 -107 186 -107c30.667 0 62 2.66699 94 8s60 12.666 84 21.999v-97c-22.667 -9.33301 -51.834 -17 -87.501 -23s-71.167 -9 -106.5 -9c-89.333 0 -160 22.333 -212 67zM450.001 277.001c-1.33301 38 -14.833 67.333 -40.5 88s-60.834 31 -105.501 31
c-44 0 -78.667 -10.667 -104 -32s-38.666 -50.333 -39.999 -87h290z" />
    <glyph glyph-name="edieresis" unicode="&#xeb;" horiz-adv-x="609" 
d="M145 564.5c-13.333 13 -20 28.501 -20 46.501c0 18.667 6.66699 34.5 20 47.5s29 19.5 47 19.5s33.5 -6.5 46.5 -19.5s19.5 -28.833 19.5 -47.5s-6.5 -34.334 -19.5 -47.001s-28.5 -19 -46.5 -19s-33.667 6.5 -47 19.5zM382 564.501c-13.333 13 -20 28.501 -20 46.501
c0 18.667 6.66699 34.5 20 47.5s29 19.5 47 19.5s33.5 -6.5 46.5 -19.5s19.5 -28.833 19.5 -47.5s-6.5 -34.334 -19.5 -47.001s-28.5 -19 -46.5 -19s-33.667 6.5 -47 19.5zM118 52.002c-52 44.667 -77.999 107.001 -77.999 187.001c0 78.667 23 141 69 187
s111.667 69 197 69c56 0 103.833 -10.667 143.5 -32s69.5 -50.5 89.5 -87.5s30 -79.167 30 -126.5v-58h-409c8.66699 -71.333 70.667 -107 186 -107c30.667 0 62 2.66699 94 8s60 12.666 84 21.999v-97c-22.667 -9.33301 -51.834 -17 -87.501 -23s-71.167 -9 -106.5 -9
c-89.333 0 -160 22.333 -212 67zM450.001 277.003c-1.33301 38 -14.833 67.333 -40.5 88s-60.834 31 -105.501 31c-44 0 -78.667 -10.667 -104 -32s-38.666 -50.333 -39.999 -87h290z" />
    <glyph glyph-name="igrave" unicode="&#xec;" horiz-adv-x="248" 
d="M-20 709h133l69 -174h-116zM60 480h128v-480h-128v480z" />
    <glyph glyph-name="iacute" unicode="&#xed;" horiz-adv-x="248" 
d="M133 709h133l-86 -174h-116zM60 480h128v-480h-128v480z" />
    <glyph glyph-name="icircumflex" unicode="&#xee;" horiz-adv-x="248" 
d="M69 706h112l146 -171h-126l-76 99l-76 -99h-127zM60 480h128v-480h-128v480z" />
    <glyph glyph-name="idieresis" unicode="&#xef;" horiz-adv-x="248" 
d="M-41 564.5c-13.333 13 -20 28.501 -20 46.501c0 18.667 6.66699 34.5 20 47.5s29 19.5 47 19.5s33.5 -6.5 46.5 -19.5s19.5 -28.833 19.5 -47.5s-6.5 -34.334 -19.5 -47.001s-28.5 -19 -46.5 -19s-33.667 6.5 -47 19.5zM196 564.501c-13.333 13 -20 28.501 -20 46.501
c0 18.667 6.66699 34.5 20 47.5s29 19.5 47 19.5s33.5 -6.5 46.5 -19.5s19.5 -28.833 19.5 -47.5s-6.5 -34.334 -19.5 -47.001s-28.5 -19 -46.5 -19s-33.667 6.5 -47 19.5zM60 480.002h128v-480h-128v480z" />
    <glyph glyph-name="eth" unicode="&#xf0;" horiz-adv-x="634" 
d="M159.5 15c-39.667 20 -69.498 47.8311 -89.498 83.498s-30 76.5 -30 122.5c0 72 22.667 128.667 68 170s108.666 62 189.999 62c32 0 62.833 -5.33301 92.5 -16s54.5 -26 74.5 -46c-2 60 -15.667 110.333 -41 151l-134 -65v81l79 38
c-22.667 13.333 -48.334 20 -77.001 20c-19.333 0 -41.333 -1.83301 -66 -5.5s-43.667 -8.16699 -57 -13.5v102c14.667 4 34.5 7.5 59.5 10.5s46.167 4.5 63.5 4.5c76.667 0 138.334 -22 185.001 -66l117 57v-81l-71 -35c37.333 -65.333 56 -154.333 56 -267
c0 -73.333 -11.667 -135.166 -35 -185.499s-55.833 -88.166 -97.5 -113.499s-89.834 -38 -144.501 -38c-55.333 0 -102.833 10 -142.5 30zM403.002 121.498c24.667 26.333 37 58.5 37 96.5c0 40 -12.667 72.667 -38 98s-57.333 38 -96 38
c-41.333 0 -75.166 -12.333 -101.499 -37s-39.5 -57.667 -39.5 -99s13.167 -74.333 39.5 -99s60.166 -37 101.499 -37c40 0 72.333 13.167 97 39.5z" />
    <glyph glyph-name="ntilde" unicode="&#xf1;" horiz-adv-x="610" 
d="M101 638c21.333 28.667 54.667 43 100 43c14.667 0 29 -2 43 -6s32 -10.333 54 -19c18.667 -8 35 -14.167 49 -18.5s28.333 -6.5 43 -6.5c41.333 0 74.666 17 99.999 51v-103c-20.667 -28 -54 -42 -100 -42c-16.667 0 -32.667 2.16699 -48 6.5s-33 10.833 -53 19.5
c-20 8 -36.167 14 -48.5 18s-25.5 6 -39.5 6c-19.333 0 -37.166 -4 -53.499 -12s-31.833 -21.333 -46.5 -40v103zM60.001 480h121.999v-65c22.667 27.333 49.667 47.5 81 60.5s64.333 19.5 99 19.5c64.667 0 113 -17.5 145 -52.5s48 -81.5 48 -139.5v-303h-126v291
c0 70 -32.667 105 -98 105c-28.667 0 -55.667 -6.83301 -81 -20.5s-46.666 -34.167 -63.999 -61.5v-314h-126v480z" />
    <glyph glyph-name="ograve" unicode="&#xf2;" horiz-adv-x="642" 
d="M193 709h133l69 -174h-116zM173.5 15.5c-42.333 20.333 -75.167 49.666 -98.5 87.999s-35 83.833 -35 136.5c0 51.333 11.5 96.166 34.5 134.499s55.833 68 98.5 89s92 31.5 148 31.5s105.167 -10.5 147.5 -31.5s75.166 -50.667 98.499 -89s35 -83.166 35 -134.499
c0 -52.667 -11.667 -98.167 -35 -136.5s-56.166 -67.666 -98.499 -87.999s-91.5 -30.5 -147.5 -30.5s-105.167 10.167 -147.5 30.5zM430.999 127.5c27.333 29 41 66.5 41 112.5c0 48.667 -13.5 86.834 -40.5 114.501s-63.833 41.5 -110.5 41.5s-83.5 -13.833 -110.5 -41.5
s-40.5 -65.834 -40.5 -114.501c0 -46 13.667 -83.5 41 -112.5s64 -43.5 110 -43.5s82.667 14.5 110 43.5z" />
    <glyph glyph-name="oacute" unicode="&#xf3;" horiz-adv-x="642" 
d="M329 709h133l-86 -174h-116zM173.5 15.5c-42.333 20.333 -75.167 49.666 -98.5 87.999s-35 83.833 -35 136.5c0 51.333 11.5 96.166 34.5 134.499s55.833 68 98.5 89s92 31.5 148 31.5s105.167 -10.5 147.5 -31.5s75.166 -50.667 98.499 -89s35 -83.166 35 -134.499
c0 -52.667 -11.667 -98.167 -35 -136.5s-56.166 -67.666 -98.499 -87.999s-91.5 -30.5 -147.5 -30.5s-105.167 10.167 -147.5 30.5zM430.999 127.5c27.333 29 41 66.5 41 112.5c0 48.667 -13.5 86.834 -40.5 114.501s-63.833 41.5 -110.5 41.5s-83.5 -13.833 -110.5 -41.5
s-40.5 -65.834 -40.5 -114.501c0 -46 13.667 -83.5 41 -112.5s64 -43.5 110 -43.5s82.667 14.5 110 43.5z" />
    <glyph glyph-name="ocircumflex" unicode="&#xf4;" horiz-adv-x="678" 
d="M302 706h112l146 -171h-126l-76 99l-76 -99h-127zM209.5 15.5c-42.333 20.333 -75.167 49.666 -98.5 87.999s-35 83.833 -35 136.5c0 51.333 11.5 96.166 34.5 134.499s55.833 68 98.5 89s92 31.5 148 31.5s105.167 -10.5 147.5 -31.5s75.166 -50.667 98.499 -89
s35 -83.166 35 -134.499c0 -52.667 -11.667 -98.167 -35 -136.5s-56.166 -67.666 -98.499 -87.999s-91.5 -30.5 -147.5 -30.5s-105.167 10.167 -147.5 30.5zM466.999 127.5c27.333 29 41 66.5 41 112.5c0 48.667 -13.5 86.834 -40.5 114.501s-63.833 41.5 -110.5 41.5
s-83.5 -13.833 -110.5 -41.5s-40.5 -65.834 -40.5 -114.501c0 -46 13.667 -83.5 41 -112.5s64 -43.5 110 -43.5s82.667 14.5 110 43.5z" />
    <glyph glyph-name="otilde" unicode="&#xf5;" horiz-adv-x="670" 
d="M155 651c21.333 28.667 54.667 43 100 43c14.667 0 29 -2 43 -6s32 -10.333 54 -19c18.667 -8 35 -14.167 49 -18.5s28.333 -6.5 43 -6.5c41.333 0 74.666 17 99.999 51v-103c-20.667 -28 -54 -42 -100 -42c-16.667 0 -32.667 2.16699 -48 6.5s-33 10.833 -53 19.5
c-20 8 -36.167 14 -48.5 18s-25.5 6 -39.5 6c-19.333 0 -37.166 -4 -53.499 -12s-31.833 -21.333 -46.5 -40v103zM201.501 15.5c-42.333 20.333 -75.167 49.666 -98.5 87.999s-35 83.833 -35 136.5c0 51.333 11.5 96.166 34.5 134.499s55.833 68 98.5 89s92 31.5 148 31.5
s105.167 -10.5 147.5 -31.5s75.166 -50.667 98.499 -89s35 -83.166 35 -134.499c0 -52.667 -11.667 -98.167 -35 -136.5s-56.166 -67.666 -98.499 -87.999s-91.5 -30.5 -147.5 -30.5s-105.167 10.167 -147.5 30.5zM459 127.5c27.333 29 41 66.5 41 112.5
c0 48.667 -13.5 86.834 -40.5 114.501s-63.833 41.5 -110.5 41.5s-83.5 -13.833 -110.5 -41.5s-40.5 -65.834 -40.5 -114.501c0 -46 13.667 -83.5 41 -112.5s64 -43.5 110 -43.5s82.667 14.5 110 43.5z" />
    <glyph glyph-name="odieresis" unicode="&#xf6;" horiz-adv-x="660" 
d="M174 564.5c-13.333 13 -20 28.501 -20 46.501c0 18.667 6.66699 34.5 20 47.5s29 19.5 47 19.5s33.5 -6.5 46.5 -19.5s19.5 -28.833 19.5 -47.5s-6.5 -34.334 -19.5 -47.001s-28.5 -19 -46.5 -19s-33.667 6.5 -47 19.5zM411 564.501c-13.333 13 -20 28.501 -20 46.501
c0 18.667 6.66699 34.5 20 47.5s29 19.5 47 19.5s33.5 -6.5 46.5 -19.5s19.5 -28.833 19.5 -47.5s-6.5 -34.334 -19.5 -47.001s-28.5 -19 -46.5 -19s-33.667 6.5 -47 19.5zM191.5 15.502c-42.333 20.333 -75.167 49.666 -98.5 87.999s-35 83.833 -35 136.5
c0 51.333 11.5 96.166 34.5 134.499s55.833 68 98.5 89s92 31.5 148 31.5s105.167 -10.5 147.5 -31.5s75.166 -50.667 98.499 -89s35 -83.166 35 -134.499c0 -52.667 -11.667 -98.167 -35 -136.5s-56.166 -67.666 -98.499 -87.999s-91.5 -30.5 -147.5 -30.5
s-105.167 10.167 -147.5 30.5zM448.999 127.502c27.333 29 41 66.5 41 112.5c0 48.667 -13.5 86.834 -40.5 114.501s-63.833 41.5 -110.5 41.5s-83.5 -13.833 -110.5 -41.5s-40.5 -65.834 -40.5 -114.501c0 -46 13.667 -83.5 41 -112.5s64 -43.5 110 -43.5
s82.667 14.5 110 43.5z" />
    <glyph glyph-name="divide" unicode="&#xf7;" horiz-adv-x="412" 
d="M166.5 399c-11 10.667 -16.5 23.667 -16.5 39c0 16 5.5 29.5 16.5 40.5s24.167 16.5 39.5 16.5s28.5 -5.5 39.5 -16.5s16.5 -24.5 16.5 -40.5c0 -15.333 -5.5 -28.333 -16.5 -39s-24.167 -16 -39.5 -16s-28.5 5.33301 -39.5 16zM40 350h332v-101h-332v101zM166.5 120
c-11 10.667 -16.5 23.667 -16.5 39c0 16 5.5 29.5 16.5 40.5s24.167 16.5 39.5 16.5s28.5 -5.5 39.5 -16.5s16.5 -24.5 16.5 -40.5c0 -15.333 -5.5 -28.333 -16.5 -39s-24.167 -16 -39.5 -16s-28.5 5.33301 -39.5 16z" />
    <glyph glyph-name="oslash" unicode="&#xf8;" horiz-adv-x="642" 
d="M167 18c-40.667 20.667 -72.001 50.002 -94.001 88.002s-33 82.667 -33 134s11.5 96.166 34.5 134.499s55.833 68 98.5 89s92 31.5 148 31.5c8.66699 0 21 -0.666992 37 -2l29 73h124l-42 -103c42 -20.667 74.667 -50.334 98 -89.001s35 -83.334 35 -134.001
c0 -52.667 -11.667 -98.167 -35 -136.5s-56.166 -67.666 -98.499 -87.999s-91.5 -30.5 -147.5 -30.5c-10 0 -24.333 0.666992 -43 2l-29 -73h-124zM318.999 396.002c-46 -0.666992 -82.333 -14.832 -109 -42.499s-40 -65.5 -40 -113.5c0 -46.667 13.667 -84.334 41 -113.001
zM320.999 84.0039c46 0 82.667 14.5 110 43.5s41 66.5 41 112.5c0 50.667 -15 90 -45 118l-110 -274h4z" />
    <glyph glyph-name="ugrave" unicode="&#xf9;" horiz-adv-x="610" 
d="M166 709h133l69 -174h-116zM103 37.5c-32 35 -47.999 81.5 -47.999 139.5v303h126v-291c0 -70 32.667 -105 98 -105c28.667 0 55.667 6.83301 81 20.5s46.666 34.167 63.999 61.5v314h126v-480h-122v65c-22.667 -27.333 -49.667 -47.5 -81 -60.5s-64.333 -19.5 -99 -19.5
c-64.667 0 -113 17.5 -145 52.5z" />
    <glyph glyph-name="uacute" unicode="&#xfa;" horiz-adv-x="610" 
d="M305 709h133l-86 -174h-116zM103 37.5c-32 35 -47.999 81.5 -47.999 139.5v303h126v-291c0 -70 32.667 -105 98 -105c28.667 0 55.667 6.83301 81 20.5s46.666 34.167 63.999 61.5v314h126v-480h-122v65c-22.667 -27.333 -49.667 -47.5 -81 -60.5
s-64.333 -19.5 -99 -19.5c-64.667 0 -113 17.5 -145 52.5z" />
    <glyph glyph-name="ucircumflex" unicode="&#xfb;" horiz-adv-x="610" 
d="M242 706h112l146 -171h-126l-76 99l-76 -99h-127zM103 37.5c-32 35 -47.999 81.5 -47.999 139.5v303h126v-291c0 -70 32.667 -105 98 -105c28.667 0 55.667 6.83301 81 20.5s46.666 34.167 63.999 61.5v314h126v-480h-122v65c-22.667 -27.333 -49.667 -47.5 -81 -60.5
s-64.333 -19.5 -99 -19.5c-64.667 0 -113 17.5 -145 52.5z" />
    <glyph glyph-name="udieresis" unicode="&#xfc;" horiz-adv-x="610" 
d="M134 564.5c-13.333 13 -20 28.501 -20 46.501c0 18.667 6.66699 34.5 20 47.5s29 19.5 47 19.5s33.5 -6.5 46.5 -19.5s19.5 -28.833 19.5 -47.5s-6.5 -34.334 -19.5 -47.001s-28.5 -19 -46.5 -19s-33.667 6.5 -47 19.5zM371 564.501c-13.333 13 -20 28.501 -20 46.501
c0 18.667 6.66699 34.5 20 47.5s29 19.5 47 19.5s33.5 -6.5 46.5 -19.5s19.5 -28.833 19.5 -47.5s-6.5 -34.334 -19.5 -47.001s-28.5 -19 -46.5 -19s-33.667 6.5 -47 19.5zM103 37.502c-32 35 -47.999 81.5 -47.999 139.5v303h126v-291c0 -70 32.667 -105 98 -105
c28.667 0 55.667 6.83301 81 20.5s46.666 34.167 63.999 61.5v314h126v-480h-122v65c-22.667 -27.333 -49.667 -47.5 -81 -60.5s-64.333 -19.5 -99 -19.5c-64.667 0 -113 17.5 -145 52.5z" />
    <glyph glyph-name="yacute" unicode="&#xfd;" horiz-adv-x="600" 
d="M313 709h133l-86 -174h-116zM120.5 -194.5c-19 2.33301 -33.835 5.5 -44.502 9.5v96c16.667 -6.66699 37.334 -10 62.001 -10c25.333 0 44.333 5.66699 57 17s23.667 29.333 33 54l19 50l-207 458h127l148 -350l139 350h126l-210 -523
c-21.333 -52.667 -47.166 -91.667 -77.499 -117s-69.5 -38 -117.5 -38c-17.333 0 -35.5 1.16699 -54.5 3.5z" />
    <glyph glyph-name="thorn" unicode="&#xfe;" horiz-adv-x="665" 
d="M60 699l126 0.000976562v-266c22.667 20.667 50.167 36.167 82.5 46.5s66.833 15.5 103.5 15.5c48.667 0 92.167 -10.5 130.5 -31.5s68.333 -50.667 90 -89s32.5 -82.833 32.5 -133.5c0 -50 -10.833 -94.333 -32.5 -133s-51.667 -68.834 -90 -90.501
s-81.833 -32.5 -130.5 -32.5c-36.667 0 -71.167 5.16699 -103.5 15.5s-59.833 25.833 -82.5 46.5v-266h-126v918zM453 128.001c29.333 29.333 44 67.001 44 113.001s-14.667 83.333 -44 112s-66.666 43 -111.999 43c-36 0 -68 -9.66699 -96 -29s-47.667 -45.333 -59 -78v-97
c10.667 -32.667 30.167 -58.834 58.5 -78.501s60.5 -29.5 96.5 -29.5c45.333 0 82.666 14.667 111.999 44z" />
    <glyph glyph-name="ydieresis" unicode="&#xff;" horiz-adv-x="600" 
d="M150 564.5c-13.333 13 -20 28.501 -20 46.501c0 18.667 6.66699 34.5 20 47.5s29 19.5 47 19.5s33.5 -6.5 46.5 -19.5s19.5 -28.833 19.5 -47.5s-6.5 -34.334 -19.5 -47.001s-28.5 -19 -46.5 -19s-33.667 6.5 -47 19.5zM387 564.501c-13.333 13 -20 28.501 -20 46.501
c0 18.667 6.66699 34.5 20 47.5s29 19.5 47 19.5s33.5 -6.5 46.5 -19.5s19.5 -28.833 19.5 -47.5s-6.5 -34.334 -19.5 -47.001s-28.5 -19 -46.5 -19s-33.667 6.5 -47 19.5zM120.5 -194.498c-19 2.33301 -33.835 5.5 -44.502 9.5v96c16.667 -6.66699 37.334 -10 62.001 -10
c25.333 0 44.333 5.66699 57 17s23.667 29.333 33 54l19 50l-207 458h127l148 -350l139 350h126l-210 -523c-21.333 -52.667 -47.166 -91.667 -77.499 -117s-69.5 -38 -117.5 -38c-17.333 0 -35.5 1.16699 -54.5 3.5z" />
    <glyph glyph-name="Amacron" unicode="&#x100;" horiz-adv-x="762" 
d="M220 836h323v-84h-323v84zM320 699h123l279 -699h-129l-64 161h-296l-63 -161h-130zM494 266l-113 297l-113 -297h226z" />
    <glyph glyph-name="amacron" unicode="&#x101;" horiz-adv-x="577" 
d="M144 629h323v-84h-323v84zM95 30.5c-36.667 30.333 -55.001 71.167 -55.001 122.5c0 53.333 17.333 95 52 125s83.334 45 146.001 45c60.667 0 113 -12.333 157 -37v13c0 34 -10.5 58.667 -31.5 74s-54.833 23 -101.5 23c-29.333 0 -58.333 -2.83301 -87 -8.5
s-54 -13.5 -76 -23.5v99c20 9.33301 46.833 17 80.5 23s66.167 9 97.5 9c83.333 0 145 -17.833 185 -53.5s60 -85.167 60 -148.5v-293h-119v47c-20.667 -20 -44.167 -35.333 -70.5 -46s-58.5 -16 -96.5 -16c-57.333 0 -104.333 15.167 -141 45.5zM342.999 93.501
c22.667 11 40 26.167 52 45.5v53c-36.667 26 -78.667 39 -126 39c-67.333 0 -101 -26 -101 -78c0 -25.333 8.5 -44.333 25.5 -57s41.5 -19 73.5 -19c28 0 53.333 5.5 76 16.5z" />
    <glyph glyph-name="Abreve" unicode="&#x102;" horiz-adv-x="762" 
d="M263 783.5c-28.667 27.667 -42.998 64.167 -42.998 109.5h95c0 -22 5.66699 -38.667 17 -50s27.666 -17 48.999 -17s37.666 5.66699 48.999 17s17 28 17 50h95c0 -45.333 -14.333 -81.833 -43 -109.5s-68 -41.5 -118 -41.5s-89.333 13.833 -118 41.5zM320.002 699h123
l279 -699h-129l-64 161h-296l-63 -161h-130zM494.002 266l-113 297l-113 -297h226z" />
    <glyph glyph-name="abreve" unicode="&#x103;" horiz-adv-x="577" 
d="M184 576.5c-28.667 27.667 -42.998 64.167 -42.998 109.5h95c0 -22 5.66699 -38.667 17 -50s27.666 -17 48.999 -17s37.666 5.66699 48.999 17s17 28 17 50h95c0 -45.333 -14.333 -81.833 -43 -109.5s-68 -41.5 -118 -41.5s-89.333 13.833 -118 41.5zM95.002 30.5
c-36.667 30.333 -55.001 71.167 -55.001 122.5c0 53.333 17.333 95 52 125s83.334 45 146.001 45c60.667 0 113 -12.333 157 -37v13c0 34 -10.5 58.667 -31.5 74s-54.833 23 -101.5 23c-29.333 0 -58.333 -2.83301 -87 -8.5s-54 -13.5 -76 -23.5v99
c20 9.33301 46.833 17 80.5 23s66.167 9 97.5 9c83.333 0 145 -17.833 185 -53.5s60 -85.167 60 -148.5v-293h-119v47c-20.667 -20 -44.167 -35.333 -70.5 -46s-58.5 -16 -96.5 -16c-57.333 0 -104.333 15.167 -141 45.5zM343.001 93.501c22.667 11 40 26.167 52 45.5v53
c-36.667 26 -78.667 39 -126 39c-67.333 0 -101 -26 -101 -78c0 -25.333 8.5 -44.333 25.5 -57s41.5 -19 73.5 -19c28 0 53.333 5.5 76 16.5z" />
    <glyph glyph-name="Aogonek" unicode="&#x104;" horiz-adv-x="762" 
d="M635.5 -128.5c7.66699 -7 17.5 -10.499 29.5 -10.499c17.333 0 33.333 3.66699 48 11v-72c-22.667 -8.66699 -51.667 -13 -87 -13c-33.333 0 -60.333 7.83301 -81 23.5s-31 38.5 -31 68.5c0 25.333 6.66699 48.333 20 69s31 38 53 52h6l-64 161h-296l-63 -161h-130
l280 699h123l279 -699h-19c-26.667 -16 -46.5 -31.833 -59.5 -47.5s-19.5 -32.834 -19.5 -51.501c0 -12.667 3.83301 -22.5 11.5 -29.5zM494 266.001l-113 297l-113 -297h226z" />
    <glyph glyph-name="aogonek" unicode="&#x105;" horiz-adv-x="577" 
d="M529 -128l-0.000976562 -71.998c-22.667 -8.66699 -51.667 -13 -87 -13c-33.333 0 -60.333 7.83301 -81 23.5s-31 38.5 -31 68.5c0 25.333 6.66699 48.333 20 69s31 38 53 52v47c-20.667 -20 -44.167 -35.333 -70.5 -46s-58.5 -16 -96.5 -16
c-57.333 0 -104.333 15.167 -141 45.5s-55 71.166 -55 122.499c0 53.333 17.333 95 52 125s83.334 45 146.001 45c60.667 0 113 -12.333 157 -37v13c0 34 -10.5 58.667 -31.5 74s-54.833 23 -101.5 23c-29.333 0 -58.333 -2.83301 -87 -8.5s-54 -13.5 -76 -23.5v99
c20 9.33301 46.833 17 80.5 23s66.167 9 97.5 9c83.333 0 145 -17.833 185 -53.5s60 -85.167 60 -148.5v-293h-3c-26.667 -16 -46.5 -31.833 -59.5 -47.5s-19.5 -32.834 -19.5 -51.501c0 -12.667 3.83301 -22.5 11.5 -29.5s17.5 -10.5 29.5 -10.5
c17.333 0 33.333 3.66699 48 11zM394.999 192.002c-36.667 26 -78.667 39 -126 39c-67.333 0 -101 -26 -101 -78c0 -25.333 8.5 -44.333 25.5 -57s41.5 -19 73.5 -19c28 0 53.333 5.5 76 16.5s40 26.167 52 45.5v53z" />
    <glyph glyph-name="Cacute" unicode="&#x106;" horiz-adv-x="704" 
d="M416 916h133l-86 -174h-116zM219 29.5c-56.667 29.667 -100.672 71.999 -132.005 126.999s-47 119.167 -47 192.5s15.667 137.5 47 192.5s75.333 97.5 132 127.5s121.667 45 195 45c96.667 0 177.334 -23 242.001 -69v-121c-58 49.333 -135 74 -231 74
c-51.333 0 -96.333 -10.167 -135 -30.5s-68.667 -49.166 -90 -86.499s-32 -81.333 -32 -132s10.833 -94.667 32.5 -132s51.834 -66.166 90.501 -86.499s83.334 -30.5 134.001 -30.5c49.333 0 93.333 6.16699 132 18.5s74.334 32.166 107.001 59.499v-121
c-61.333 -48 -144.666 -72 -249.999 -72c-73.333 0 -138.333 14.833 -195 44.5z" />
    <glyph glyph-name="cacute" unicode="&#x107;" horiz-adv-x="548" 
d="M331 709h133l-86 -174h-116zM173.5 15c-42.333 20 -75.1699 49.002 -98.5029 87.002s-35 83.667 -35 137s11.833 99.166 35.5 137.499s56.667 67.666 99 87.999s91.833 30.5 148.5 30.5c74.667 0 134.334 -14.667 179.001 -44v-101
c-43.333 30.667 -98.666 46 -165.999 46c-51.333 0 -92.166 -12.833 -122.499 -38.5s-45.5 -65.167 -45.5 -118.5c0 -52.667 15.167 -91.667 45.5 -117s70.5 -38 120.5 -38c67.333 0 125.333 16 174 48v-100c-24 -16 -51.167 -27.833 -81.5 -35.5s-65.5 -11.5 -105.5 -11.5
c-56 0 -105.167 10 -147.5 30z" />
    <glyph glyph-name="Ccircumflex" unicode="&#x108;" horiz-adv-x="704" 
d="M350 913h112l146 -171h-126l-76 99l-76 -99h-127zM219 29.5c-56.667 29.667 -100.672 71.999 -132.005 126.999s-47 119.167 -47 192.5s15.667 137.5 47 192.5s75.333 97.5 132 127.5s121.667 45 195 45c96.667 0 177.334 -23 242.001 -69v-121
c-58 49.333 -135 74 -231 74c-51.333 0 -96.333 -10.167 -135 -30.5s-68.667 -49.166 -90 -86.499s-32 -81.333 -32 -132s10.833 -94.667 32.5 -132s51.834 -66.166 90.501 -86.499s83.334 -30.5 134.001 -30.5c49.333 0 93.333 6.16699 132 18.5
s74.334 32.166 107.001 59.499v-121c-61.333 -48 -144.666 -72 -249.999 -72c-73.333 0 -138.333 14.833 -195 44.5z" />
    <glyph glyph-name="ccircumflex" unicode="&#x109;" horiz-adv-x="548" 
d="M249 706h112l146 -171h-126l-76 99l-76 -99h-127zM173.5 15c-42.333 20 -75.1699 49.002 -98.5029 87.002s-35 83.667 -35 137s11.833 99.166 35.5 137.499s56.667 67.666 99 87.999s91.833 30.5 148.5 30.5c74.667 0 134.334 -14.667 179.001 -44v-101
c-43.333 30.667 -98.666 46 -165.999 46c-51.333 0 -92.166 -12.833 -122.499 -38.5s-45.5 -65.167 -45.5 -118.5c0 -52.667 15.167 -91.667 45.5 -117s70.5 -38 120.5 -38c67.333 0 125.333 16 174 48v-100c-24 -16 -51.167 -27.833 -81.5 -35.5s-65.5 -11.5 -105.5 -11.5
c-56 0 -105.167 10 -147.5 30z" />
    <glyph glyph-name="Cdotaccent" unicode="&#x10a;" horiz-adv-x="704" 
d="M355 771.5c-13.333 13 -20 28.501 -20 46.501c0 18.667 6.66699 34.5 20 47.5s29 19.5 47 19.5s33.5 -6.5 46.5 -19.5s19.5 -28.833 19.5 -47.5s-6.5 -34.334 -19.5 -47.001s-28.5 -19 -46.5 -19s-33.667 6.5 -47 19.5zM219 29.501
c-56.667 29.667 -100.672 71.999 -132.005 126.999s-47 119.167 -47 192.5s15.667 137.5 47 192.5s75.333 97.5 132 127.5s121.667 45 195 45c96.667 0 177.334 -23 242.001 -69v-121c-58 49.333 -135 74 -231 74c-51.333 0 -96.333 -10.167 -135 -30.5
s-68.667 -49.166 -90 -86.499s-32 -81.333 -32 -132s10.833 -94.667 32.5 -132s51.834 -66.166 90.501 -86.499s83.334 -30.5 134.001 -30.5c49.333 0 93.333 6.16699 132 18.5s74.334 32.166 107.001 59.499v-121c-61.333 -48 -144.666 -72 -249.999 -72
c-73.333 0 -138.333 14.833 -195 44.5z" />
    <glyph glyph-name="cdotaccent" unicode="&#x10b;" horiz-adv-x="548" 
d="M263 554.5c-13.333 13 -20 28.501 -20 46.501c0 18.667 6.66699 34.5 20 47.5s29 19.5 47 19.5s33.5 -6.5 46.5 -19.5s19.5 -28.833 19.5 -47.5s-6.5 -34.334 -19.5 -47.001s-28.5 -19 -46.5 -19s-33.667 6.5 -47 19.5zM173.5 15.001
c-42.333 20 -75.1699 49.002 -98.5029 87.002s-35 83.667 -35 137s11.833 99.166 35.5 137.499s56.667 67.666 99 87.999s91.833 30.5 148.5 30.5c74.667 0 134.334 -14.667 179.001 -44v-101c-43.333 30.667 -98.666 46 -165.999 46
c-51.333 0 -92.166 -12.833 -122.499 -38.5s-45.5 -65.167 -45.5 -118.5c0 -52.667 15.167 -91.667 45.5 -117s70.5 -38 120.5 -38c67.333 0 125.333 16 174 48v-100c-24 -16 -51.167 -27.833 -81.5 -35.5s-65.5 -11.5 -105.5 -11.5c-56 0 -105.167 10 -147.5 30z" />
    <glyph glyph-name="Ccaron" unicode="&#x10c;" horiz-adv-x="704" 
d="M203 913h127l76 -100l76 100h126l-146 -171h-112zM219 29.5c-56.667 29.667 -100.672 71.999 -132.005 126.999s-47 119.167 -47 192.5s15.667 137.5 47 192.5s75.333 97.5 132 127.5s121.667 45 195 45c96.667 0 177.334 -23 242.001 -69v-121
c-58 49.333 -135 74 -231 74c-51.333 0 -96.333 -10.167 -135 -30.5s-68.667 -49.166 -90 -86.499s-32 -81.333 -32 -132s10.833 -94.667 32.5 -132s51.834 -66.166 90.501 -86.499s83.334 -30.5 134.001 -30.5c49.333 0 93.333 6.16699 132 18.5
s74.334 32.166 107.001 59.499v-121c-61.333 -48 -144.666 -72 -249.999 -72c-73.333 0 -138.333 14.833 -195 44.5z" />
    <glyph glyph-name="ccaron" unicode="&#x10d;" horiz-adv-x="548" 
d="M95 706h127l76 -100l76 100h126l-146 -171h-112zM173.5 15c-42.333 20 -75.1699 49.002 -98.5029 87.002s-35 83.667 -35 137s11.833 99.166 35.5 137.499s56.667 67.666 99 87.999s91.833 30.5 148.5 30.5c74.667 0 134.334 -14.667 179.001 -44v-101
c-43.333 30.667 -98.666 46 -165.999 46c-51.333 0 -92.166 -12.833 -122.499 -38.5s-45.5 -65.167 -45.5 -118.5c0 -52.667 15.167 -91.667 45.5 -117s70.5 -38 120.5 -38c67.333 0 125.333 16 174 48v-100c-24 -16 -51.167 -27.833 -81.5 -35.5s-65.5 -11.5 -105.5 -11.5
c-56 0 -105.167 10 -147.5 30z" />
    <glyph glyph-name="Dcaron" unicode="&#x10e;" horiz-adv-x="706" 
d="M128 913h127l76 -100l76 100h126l-146 -171h-112zM60 699h234c76 0 142 -14 198 -42s99 -68 129 -120s45 -113.333 45 -184c0 -116 -33.667 -203.833 -101 -263.5s-161.333 -89.5 -282 -89.5h-223v699zM285 105c81.333 0 143.833 21.835 187.5 65.502
s65.5 104.5 65.5 182.5c0 47.333 -9.66699 89.166 -29 125.499s-47 64.666 -83 84.999s-78.667 30.5 -128 30.5h-111v-489h98z" />
    <glyph glyph-name="dcaron" unicode="&#x10f;" horiz-adv-x="825" 
d="M719 769h106l-91 -186h-93zM162.5 6.5c-38.333 21 -68.333 50.667 -90 89s-32.5 83.166 -32.5 134.499c0 50 10.833 94.333 32.5 133s51.667 68.667 90 90s81.833 32 130.5 32c39.333 0 76 -7.66699 110 -23s59.667 -36.666 77 -63.999v331h126v-739h-122v77
c-20 -29.333 -46.667 -52 -80 -68s-70.333 -24 -111 -24c-48.667 0 -92.167 10.5 -130.5 31.5zM421 101c28 18 47.667 43 59 75v107c-10.667 32 -30.167 57.167 -58.5 75.5s-60.833 27.5 -97.5 27.5c-44.667 0 -81.5 -14.167 -110.5 -42.5s-43.5 -66.5 -43.5 -114.5
c0 -47.333 14.5 -85 43.5 -113s65.833 -42 110.5 -42c36.667 0 69 9 97 27z" />
    <glyph glyph-name="Dcroat" unicode="&#x110;" horiz-adv-x="725" 
d="M79 301h-59v96h59v302h234c76 0 142 -14 198 -42s99 -68 129 -120s45 -113.333 45 -184c0 -116 -33.667 -203.833 -101 -263.5s-161.333 -89.5 -282 -89.5h-223v301zM304 105c81.333 0 143.833 21.835 187.5 65.502s65.5 104.5 65.5 182.5
c0 47.333 -9.66699 89.166 -29 125.499s-47 64.666 -83 84.999s-78.667 30.5 -128 30.5h-111v-197h172v-96h-172v-196h98z" />
    <glyph glyph-name="dcroat" unicode="&#x111;" horiz-adv-x="675" 
d="M162.5 16.5c-38.333 21 -68.334 50.666 -90.001 88.999s-32.5 82.833 -32.5 133.5c0 50 10.833 94.333 32.5 133s51.667 68.834 90 90.501s81.833 32.5 130.5 32.5c78.667 0 140.667 -20.667 186 -62v127h-182v95h182v84h126v-84h50v-95h-50v-560h-122v56
c-27.333 -25.333 -55.666 -43.5 -84.999 -54.5s-64.333 -16.5 -105 -16.5c-48.667 0 -92.167 10.5 -130.5 31.5zM419.999 112.999c28 19.333 47.667 45.332 59 77.999v97c-10.667 32.667 -30.167 58.834 -58.5 78.501s-60.5 29.5 -96.5 29.5
c-45.333 0 -82.666 -14.667 -111.999 -44s-44 -67 -44 -113s14.667 -83.333 44 -112s66.666 -43 111.999 -43c36 0 68 9.66699 96 29z" />
    <glyph glyph-name="Emacron" unicode="&#x112;" horiz-adv-x="573" 
d="M142 836h323v-84h-323v84zM60 699h473v-105h-346v-192h257v-105h-257v-192h346v-105h-473v699z" />
    <glyph glyph-name="emacron" unicode="&#x113;" horiz-adv-x="609" 
d="M151 629h323v-84h-323v84zM118 52c-52 44.667 -77.999 107.001 -77.999 187.001c0 78.667 23 141 69 187s111.667 69 197 69c56 0 103.833 -10.667 143.5 -32s69.5 -50.5 89.5 -87.5s30 -79.167 30 -126.5v-58h-409c8.66699 -71.333 70.667 -107 186 -107
c30.667 0 62 2.66699 94 8s60 12.666 84 21.999v-97c-22.667 -9.33301 -51.834 -17 -87.501 -23s-71.167 -9 -106.5 -9c-89.333 0 -160 22.333 -212 67zM450.001 277.001c-1.33301 38 -14.833 67.333 -40.5 88s-60.834 31 -105.501 31c-44 0 -78.667 -10.667 -104 -32
s-38.666 -50.333 -39.999 -87h290z" />
    <glyph glyph-name="Ebreve" unicode="&#x114;" horiz-adv-x="573" 
d="M192 783.5c-28.667 27.667 -42.998 64.167 -42.998 109.5h95c0 -22 5.66699 -38.667 17 -50s27.666 -17 48.999 -17s37.666 5.66699 48.999 17s17 28 17 50h95c0 -45.333 -14.333 -81.833 -43 -109.5s-68 -41.5 -118 -41.5s-89.333 13.833 -118 41.5zM60.002 699h473
v-105h-346v-192h257v-105h-257v-192h346v-105h-473v699z" />
    <glyph glyph-name="ebreve" unicode="&#x115;" horiz-adv-x="609" 
d="M193 576.5c-28.667 27.667 -42.998 64.167 -42.998 109.5h95c0 -22 5.66699 -38.667 17 -50s27.666 -17 48.999 -17s37.666 5.66699 48.999 17s17 28 17 50h95c0 -45.333 -14.333 -81.833 -43 -109.5s-68 -41.5 -118 -41.5s-89.333 13.833 -118 41.5zM118.002 52
c-52 44.667 -77.999 107.001 -77.999 187.001c0 78.667 23 141 69 187s111.667 69 197 69c56 0 103.833 -10.667 143.5 -32s69.5 -50.5 89.5 -87.5s30 -79.167 30 -126.5v-58h-409c8.66699 -71.333 70.667 -107 186 -107c30.667 0 62 2.66699 94 8s60 12.666 84 21.999v-97
c-22.667 -9.33301 -51.834 -17 -87.501 -23s-71.167 -9 -106.5 -9c-89.333 0 -160 22.333 -212 67zM450.003 277.001c-1.33301 38 -14.833 67.333 -40.5 88s-60.834 31 -105.501 31c-44 0 -78.667 -10.667 -104 -32s-38.666 -50.333 -39.999 -87h290z" />
    <glyph glyph-name="Edotaccent" unicode="&#x116;" horiz-adv-x="573" 
d="M261 771.5c-13.333 13 -20 28.501 -20 46.501c0 18.667 6.66699 34.5 20 47.5s29 19.5 47 19.5s33.5 -6.5 46.5 -19.5s19.5 -28.833 19.5 -47.5s-6.5 -34.334 -19.5 -47.001s-28.5 -19 -46.5 -19s-33.667 6.5 -47 19.5zM60 699.001h473v-105h-346v-192h257v-105h-257
v-192h346v-105h-473v699z" />
    <glyph glyph-name="edotaccent" unicode="&#x117;" horiz-adv-x="609" 
d="M261 564.5c-13.333 13 -20 28.501 -20 46.501c0 18.667 6.66699 34.5 20 47.5s29 19.5 47 19.5s33.5 -6.5 46.5 -19.5s19.5 -28.833 19.5 -47.5s-6.5 -34.334 -19.5 -47.001s-28.5 -19 -46.5 -19s-33.667 6.5 -47 19.5zM118 52.001
c-52 44.667 -77.999 107.001 -77.999 187.001c0 78.667 23 141 69 187s111.667 69 197 69c56 0 103.833 -10.667 143.5 -32s69.5 -50.5 89.5 -87.5s30 -79.167 30 -126.5v-58h-409c8.66699 -71.333 70.667 -107 186 -107c30.667 0 62 2.66699 94 8s60 12.666 84 21.999v-97
c-22.667 -9.33301 -51.834 -17 -87.501 -23s-71.167 -9 -106.5 -9c-89.333 0 -160 22.333 -212 67zM450.001 277.002c-1.33301 38 -14.833 67.333 -40.5 88s-60.834 31 -105.501 31c-44 0 -78.667 -10.667 -104 -32s-38.666 -50.333 -39.999 -87h290z" />
    <glyph glyph-name="Eogonek" unicode="&#x118;" horiz-adv-x="573" 
d="M187 594v-191.999h257v-105h-257v-192h346v-105h-10c-26.667 -16 -46.5 -31.833 -59.5 -47.5s-19.5 -32.834 -19.5 -51.501c0 -12.667 3.83301 -22.5 11.5 -29.5s17.5 -10.5 29.5 -10.5c17.333 0 33.333 3.66699 48 11v-72c-22.667 -8.66699 -51.667 -13 -87 -13
c-33.333 0 -60.333 7.83301 -81 23.5s-31 38.5 -31 68.5c0 25.333 6.66699 48.333 20 69s31 38 53 52h-347v699h473v-105h-346z" />
    <glyph glyph-name="eogonek" unicode="&#x119;" horiz-adv-x="609" 
d="M569 191l-409 0.00195312c8.66699 -71.333 70.667 -107 186 -107c30.667 0 62 2.66699 94 8s60 12.666 84 21.999v-97c-18 -8 -45.333 -15.333 -82 -22c-24 -14.667 -41.833 -29.667 -53.5 -45s-17.5 -31.666 -17.5 -48.999c0 -12.667 3.83301 -22.5 11.5 -29.5
s17.5 -10.5 29.5 -10.5c17.333 0 33.333 3.66699 48 11v-72c-22.667 -8.66699 -51.667 -13 -87 -13c-33.333 0 -60.333 7.83301 -81 23.5s-31 38.5 -31 68.5c0 42 17.667 77.333 53 106c-85.333 3.33301 -152.333 27.166 -201 71.499s-73 105.166 -73 182.499
c0 78.667 23 141 69 187s111.667 69 197 69c56 0 103.833 -10.667 143.5 -32s69.5 -50.5 89.5 -87.5s30 -79.167 30 -126.5v-58zM450 277.002c-1.33301 38 -14.833 67.333 -40.5 88s-60.834 31 -105.501 31c-44 0 -78.667 -10.667 -104 -32s-38.666 -50.333 -39.999 -87h290
z" />
    <glyph glyph-name="Ecaron" unicode="&#x11a;" horiz-adv-x="573" 
d="M112 913h127l76 -100l76 100h126l-146 -171h-112zM60 699h473v-105h-346v-192h257v-105h-257v-192h346v-105h-473v699z" />
    <glyph glyph-name="ecaron" unicode="&#x11b;" horiz-adv-x="609" 
d="M108 706h127l76 -100l76 100h126l-146 -171h-112zM118 52c-52 44.667 -77.999 107.001 -77.999 187.001c0 78.667 23 141 69 187s111.667 69 197 69c56 0 103.833 -10.667 143.5 -32s69.5 -50.5 89.5 -87.5s30 -79.167 30 -126.5v-58h-409
c8.66699 -71.333 70.667 -107 186 -107c30.667 0 62 2.66699 94 8s60 12.666 84 21.999v-97c-22.667 -9.33301 -51.834 -17 -87.501 -23s-71.167 -9 -106.5 -9c-89.333 0 -160 22.333 -212 67zM450.001 277.001c-1.33301 38 -14.833 67.333 -40.5 88s-60.834 31 -105.501 31
c-44 0 -78.667 -10.667 -104 -32s-38.666 -50.333 -39.999 -87h290z" />
    <glyph glyph-name="Gcircumflex" unicode="&#x11c;" horiz-adv-x="713" 
d="M354 913h112l146 -171h-126l-76 99l-76 -99h-127zM219 29.5c-56.667 29.667 -100.666 72.002 -131.999 127.002s-47 119.167 -47 192.5s15.667 137.5 47 192.5s75.333 97.5 132 127.5s121.667 45 195 45c50 0 94.667 -5.33301 134 -16s75 -27.667 107 -51v-121
c-29.333 25.333 -63 43.666 -101 54.999s-81 17 -129 17s-91.5 -10.167 -130.5 -30.5s-69.833 -49.333 -92.5 -87s-34 -81.5 -34 -131.5c0 -50.667 10.667 -94.834 32 -132.501s51 -66.667 89 -87s81.333 -30.5 130 -30.5c51.333 0 93.666 8.66699 126.999 26v157h-118v101
h245v-326c-62 -48 -148.333 -72 -259 -72c-73.333 0 -138.333 14.833 -195 44.5z" />
    <glyph glyph-name="gcircumflex" unicode="&#x11d;" horiz-adv-x="665" 
d="M289 706h112l146 -171h-126l-76 99l-76 -99h-127zM218 -221c-32 6 -58.666 13.998 -79.999 23.998v100c52 -22.667 110.667 -34 176 -34c58.667 0 100.834 12.333 126.501 37s38.5 61.334 38.5 110.001v31c-22.667 -20.667 -49.667 -36.167 -81 -46.5
s-65 -15.5 -101 -15.5c-48.667 0 -92.667 10.833 -132 32.5s-70 51.834 -92 90.501s-33 83 -33 133c0 50.667 10.833 95.167 32.5 133.5s51.667 68 90 89s81.833 31.5 130.5 31.5c40.667 0 75.667 -5.5 105 -16.5s57.666 -29.167 84.999 -54.5v56h122v-451
c0 -82.667 -23.833 -146.5 -71.5 -191.5s-120.834 -67.5 -219.501 -67.5c-32 0 -64 3 -96 9zM420.501 113.498c28.333 19.667 47.833 45.833 58.5 78.5v97c-11.333 32.667 -31 58.667 -59 78s-60 29 -96 29c-45.333 0 -82.666 -14.333 -111.999 -43s-44 -66 -44 -112
s14.667 -83.667 44 -113s66.666 -44 111.999 -44c36 0 68.167 9.83301 96.5 29.5z" />
    <glyph glyph-name="Gbreve" unicode="&#x11e;" horiz-adv-x="713" 
d="M300 783.5c-28.667 27.667 -42.998 64.167 -42.998 109.5h95c0 -22 5.66699 -38.667 17 -50s27.666 -17 48.999 -17s37.666 5.66699 48.999 17s17 28 17 50h95c0 -45.333 -14.333 -81.833 -43 -109.5s-68 -41.5 -118 -41.5s-89.333 13.833 -118 41.5zM219.002 29.5
c-56.667 29.667 -100.666 72.002 -131.999 127.002s-47 119.167 -47 192.5s15.667 137.5 47 192.5s75.333 97.5 132 127.5s121.667 45 195 45c50 0 94.667 -5.33301 134 -16s75 -27.667 107 -51v-121c-29.333 25.333 -63 43.666 -101 54.999s-81 17 -129 17
s-91.5 -10.167 -130.5 -30.5s-69.833 -49.333 -92.5 -87s-34 -81.5 -34 -131.5c0 -50.667 10.667 -94.834 32 -132.501s51 -66.667 89 -87s81.333 -30.5 130 -30.5c51.333 0 93.666 8.66699 126.999 26v157h-118v101h245v-326c-62 -48 -148.333 -72 -259 -72
c-73.333 0 -138.333 14.833 -195 44.5z" />
    <glyph glyph-name="gbreve" unicode="&#x11f;" horiz-adv-x="665" 
d="M223 576.5c-28.667 27.667 -42.998 64.167 -42.998 109.5h95c0 -22 5.66699 -38.667 17 -50s27.666 -17 48.999 -17s37.666 5.66699 48.999 17s17 28 17 50h95c0 -45.333 -14.333 -81.833 -43 -109.5s-68 -41.5 -118 -41.5s-89.333 13.833 -118 41.5zM218.002 -221
c-32 6 -58.666 13.998 -79.999 23.998v100c52 -22.667 110.667 -34 176 -34c58.667 0 100.834 12.333 126.501 37s38.5 61.334 38.5 110.001v31c-22.667 -20.667 -49.667 -36.167 -81 -46.5s-65 -15.5 -101 -15.5c-48.667 0 -92.667 10.833 -132 32.5s-70 51.834 -92 90.501
s-33 83 -33 133c0 50.667 10.833 95.167 32.5 133.5s51.667 68 90 89s81.833 31.5 130.5 31.5c40.667 0 75.667 -5.5 105 -16.5s57.666 -29.167 84.999 -54.5v56h122v-451c0 -82.667 -23.833 -146.5 -71.5 -191.5s-120.834 -67.5 -219.501 -67.5c-32 0 -64 3 -96 9z
M420.503 113.498c28.333 19.667 47.833 45.833 58.5 78.5v97c-11.333 32.667 -31 58.667 -59 78s-60 29 -96 29c-45.333 0 -82.666 -14.333 -111.999 -43s-44 -66 -44 -112s14.667 -83.667 44 -113s66.666 -44 111.999 -44c36 0 68.167 9.83301 96.5 29.5z" />
    <glyph glyph-name="Gdotaccent" unicode="&#x120;" horiz-adv-x="713" 
d="M368 771.5c-13.333 13 -20 28.501 -20 46.501c0 18.667 6.66699 34.5 20 47.5s29 19.5 47 19.5s33.5 -6.5 46.5 -19.5s19.5 -28.833 19.5 -47.5s-6.5 -34.334 -19.5 -47.001s-28.5 -19 -46.5 -19s-33.667 6.5 -47 19.5zM219 29.501
c-56.667 29.667 -100.666 72.002 -131.999 127.002s-47 119.167 -47 192.5s15.667 137.5 47 192.5s75.333 97.5 132 127.5s121.667 45 195 45c50 0 94.667 -5.33301 134 -16s75 -27.667 107 -51v-121c-29.333 25.333 -63 43.666 -101 54.999s-81 17 -129 17
s-91.5 -10.167 -130.5 -30.5s-69.833 -49.333 -92.5 -87s-34 -81.5 -34 -131.5c0 -50.667 10.667 -94.834 32 -132.501s51 -66.667 89 -87s81.333 -30.5 130 -30.5c51.333 0 93.666 8.66699 126.999 26v157h-118v101h245v-326c-62 -48 -148.333 -72 -259 -72
c-73.333 0 -138.333 14.833 -195 44.5z" />
    <glyph glyph-name="gdotaccent" unicode="&#x121;" horiz-adv-x="665" 
d="M298 564.5c-13.333 13 -20 28.501 -20 46.501c0 18.667 6.66699 34.5 20 47.5s29 19.5 47 19.5s33.5 -6.5 46.5 -19.5s19.5 -28.833 19.5 -47.5s-6.5 -34.334 -19.5 -47.001s-28.5 -19 -46.5 -19s-33.667 6.5 -47 19.5zM218 -220.999
c-32 6 -58.666 13.998 -79.999 23.998v100c52 -22.667 110.667 -34 176 -34c58.667 0 100.834 12.333 126.501 37s38.5 61.334 38.5 110.001v31c-22.667 -20.667 -49.667 -36.167 -81 -46.5s-65 -15.5 -101 -15.5c-48.667 0 -92.667 10.833 -132 32.5s-70 51.834 -92 90.501
s-33 83 -33 133c0 50.667 10.833 95.167 32.5 133.5s51.667 68 90 89s81.833 31.5 130.5 31.5c40.667 0 75.667 -5.5 105 -16.5s57.666 -29.167 84.999 -54.5v56h122v-451c0 -82.667 -23.833 -146.5 -71.5 -191.5s-120.834 -67.5 -219.501 -67.5c-32 0 -64 3 -96 9z
M420.501 113.499c28.333 19.667 47.833 45.833 58.5 78.5v97c-11.333 32.667 -31 58.667 -59 78s-60 29 -96 29c-45.333 0 -82.666 -14.333 -111.999 -43s-44 -66 -44 -112s14.667 -83.667 44 -113s66.666 -44 111.999 -44c36 0 68.167 9.83301 96.5 29.5z" />
    <glyph glyph-name="Gcommaaccent" unicode="&#x122;" horiz-adv-x="713" 
d="M219 29.5c-56.667 29.667 -100.666 72.002 -131.999 127.002s-47 119.167 -47 192.5s15.667 137.5 47 192.5s75.333 97.5 132 127.5s121.667 45 195 45c50 0 94.667 -5.33301 134 -16s75 -27.667 107 -51v-121c-29.333 25.333 -63 43.666 -101 54.999s-81 17 -129 17
s-91.5 -10.167 -130.5 -30.5s-69.833 -49.333 -92.5 -87s-34 -81.5 -34 -131.5c0 -50.667 10.667 -94.834 32 -132.501s51 -66.667 89 -87s81.333 -30.5 130 -30.5c51.333 0 93.666 8.66699 126.999 26v157h-118v101h245v-326c-62 -48 -148.333 -72 -259 -72
c-73.333 0 -138.333 14.833 -195 44.5zM369.001 -55.998h131l-98 -203h-115z" />
    <glyph glyph-name="gcommaaccent" unicode="&#x123;" horiz-adv-x="665" 
d="M386 738h115l-82 -203h-131zM218 -221c-32 6 -58.666 13.998 -79.999 23.998v100c52 -22.667 110.667 -34 176 -34c58.667 0 100.834 12.333 126.501 37s38.5 61.334 38.5 110.001v31c-22.667 -20.667 -49.667 -36.167 -81 -46.5s-65 -15.5 -101 -15.5
c-48.667 0 -92.667 10.833 -132 32.5s-70 51.834 -92 90.501s-33 83 -33 133c0 50.667 10.833 95.167 32.5 133.5s51.667 68 90 89s81.833 31.5 130.5 31.5c40.667 0 75.667 -5.5 105 -16.5s57.666 -29.167 84.999 -54.5v56h122v-451c0 -82.667 -23.833 -146.5 -71.5 -191.5
s-120.834 -67.5 -219.501 -67.5c-32 0 -64 3 -96 9zM420.501 113.498c28.333 19.667 47.833 45.833 58.5 78.5v97c-11.333 32.667 -31 58.667 -59 78s-60 29 -96 29c-45.333 0 -82.666 -14.333 -111.999 -43s-44 -66 -44 -112s14.667 -83.667 44 -113
s66.666 -44 111.999 -44c36 0 68.167 9.83301 96.5 29.5z" />
    <glyph glyph-name="Hcircumflex" unicode="&#x124;" horiz-adv-x="709" 
d="M299 913h112l146 -171h-126l-76 99l-76 -99h-127zM60 699h127v-290h336v290h126v-699h-126v304h-336v-304h-127v699z" />
    <glyph glyph-name="hcircumflex" unicode="&#x125;" horiz-adv-x="610" 
d="M211 938h112l146 -171h-126l-76 99l-76 -99h-127zM60 739h125.999v-320c45.333 50.667 104 76 176 76c64.667 0 113 -17.5 145 -52.5s48 -81.5 48 -139.5v-303h-126v291c0 70 -32.667 105 -98 105c-28.667 0 -55.667 -6.83301 -81 -20.5s-46.666 -34.167 -63.999 -61.5
v-314h-126v739z" />
    <glyph glyph-name="Hbar" unicode="&#x126;" horiz-adv-x="726" 
d="M65 499h-45v105h45v95h127v-95h336v95h126v-95h52v-105h-52v-499h-126v304h-336v-304h-127v499zM528 409v90h-336v-90h336z" />
    <glyph glyph-name="hbar" unicode="&#x127;" horiz-adv-x="615" 
d="M65 547l-44.998 -0.000976562v91h45v101h126v-101h152v-91h-152v-130c23.333 26.667 50.166 46.334 80.499 59.001s62.5 19 96.5 19c65.333 0 113.666 -16.667 144.999 -50s47 -79 47 -137v-308h-126v291c0 70 -34 105 -102 105c-59.333 0 -106.333 -27.333 -141 -82
v-314h-126v547z" />
    <glyph glyph-name="Itilde" unicode="&#x128;" horiz-adv-x="253" 
d="M-68 845c21.333 28.667 54.667 43 100 43c14.667 0 29 -2 43 -6s32 -10.333 54 -19c18.667 -8 35 -14.167 49 -18.5s28.333 -6.5 43 -6.5c41.333 0 74.666 17 99.999 51v-103c-20.667 -28 -54 -42 -100 -42c-16.667 0 -32.667 2.16699 -48 6.5s-33 10.833 -53 19.5
c-20 8 -36.167 14 -48.5 18s-25.5 6 -39.5 6c-19.333 0 -37.166 -4 -53.499 -12s-31.833 -21.333 -46.5 -40v103zM63.001 699h127v-699h-127v699z" />
    <glyph glyph-name="itilde" unicode="&#x129;" horiz-adv-x="248" 
d="M-70 636c21.333 28.667 54.667 43 100 43c14.667 0 29 -2 43 -6s32 -10.333 54 -19c18.667 -8 35 -14.167 49 -18.5s28.333 -6.5 43 -6.5c41.333 0 74.666 17 99.999 51v-103c-20.667 -28 -54 -42 -100 -42c-16.667 0 -32.667 2.16699 -48 6.5s-33 10.833 -53 19.5
c-20 8 -36.167 14 -48.5 18s-25.5 6 -39.5 6c-19.333 0 -37.166 -4 -53.499 -12s-31.833 -21.333 -46.5 -40v103zM60.001 480h128v-480h-128v480z" />
    <glyph glyph-name="Imacron" unicode="&#x12a;" horiz-adv-x="253" 
d="M-40 836h332v-84h-332v84zM63 699h127v-699h-127v699z" />
    <glyph glyph-name="imacron" unicode="&#x12b;" horiz-adv-x="248" 
d="M-42 629h332v-84h-332v84zM60 480h128v-480h-128v480z" />
    <glyph glyph-name="Ibreve" unicode="&#x12c;" horiz-adv-x="253" 
d="M8 783.5c-28.667 27.667 -42.998 64.167 -42.998 109.5h95c0 -22 5.66699 -38.667 17 -50s27.666 -17 48.999 -17s37.666 5.66699 48.999 17s17 28 17 50h95c0 -45.333 -14.333 -81.833 -43 -109.5s-68 -41.5 -118 -41.5s-89.333 13.833 -118 41.5zM63.002 699h127v-699
h-127v699z" />
    <glyph glyph-name="ibreve" unicode="&#x12d;" horiz-adv-x="248" 
d="M6 576.5c-28.667 27.667 -42.998 64.167 -42.998 109.5h95c0 -22 5.66699 -38.667 17 -50s27.666 -17 48.999 -17s37.666 5.66699 48.999 17s17 28 17 50h95c0 -45.333 -14.333 -81.833 -43 -109.5s-68 -41.5 -118 -41.5s-89.333 13.833 -118 41.5zM60.002 480h128v-480
h-128v480z" />
    <glyph glyph-name="Iogonek" unicode="&#x12e;" horiz-adv-x="253" 
d="M196 -128v-71.999c-22.667 -8.66699 -51.667 -13 -87 -13c-33.333 0 -60.333 7.83301 -81 23.5s-31 38.5 -31 68.5c0 25.333 6.66699 48.333 20 69s31 38 53 52h-7v699h127v-699h-4c-26.667 -16 -46.5 -31.833 -59.5 -47.5s-19.5 -32.834 -19.5 -51.501
c0 -12.667 3.83301 -22.5 11.5 -29.5s17.5 -10.5 29.5 -10.5c17.333 0 33.333 3.66699 48 11z" />
    <glyph glyph-name="iogonek" unicode="&#x12f;" horiz-adv-x="263" 
d="M80.5 584c-13.667 13.333 -20.5 30 -20.5 50s6.83301 36.833 20.5 50.5s30.5 20.5 50.5 20.5s37 -6.83301 51 -20.5s21 -30.5 21 -50.5s-7 -36.667 -21 -50s-31 -20 -51 -20s-36.833 6.66699 -50.5 20zM122.5 -128.5c7.66699 -7 17.5 -10.499 29.5 -10.499
c17.333 0 33.333 3.66699 48 11v-72c-22.667 -8.66699 -51.667 -13 -87 -13c-33.333 0 -60.333 7.83301 -81 23.5s-31 38.5 -31 68.5c0 25.333 6.66699 48.333 20 69s31 38 53 52h-7v480h128v-480h-5c-26.667 -16 -46.5 -31.833 -59.5 -47.5s-19.5 -32.834 -19.5 -51.501
c0 -12.667 3.83301 -22.5 11.5 -29.5z" />
    <glyph glyph-name="Idotaccent" unicode="&#x130;" horiz-adv-x="253" 
d="M80 771.5c-13.333 13 -20 28.501 -20 46.501c0 18.667 6.66699 34.5 20 47.5s29 19.5 47 19.5s33.5 -6.5 46.5 -19.5s19.5 -28.833 19.5 -47.5s-6.5 -34.334 -19.5 -47.001s-28.5 -19 -46.5 -19s-33.667 6.5 -47 19.5zM63 699.001h127v-699h-127v699z" />
    <glyph glyph-name="dotlessi" unicode="&#x131;" horiz-adv-x="248" 
d="M60 480h128v-480h-128v480z" />
    <glyph glyph-name="IJ" unicode="&#x132;" horiz-adv-x="633" 
d="M63 699h127v-699h-127v699zM318.5 -9.5c-21.667 3.66699 -38.167 8.16699 -49.5 13.5v106c22 -9.33301 49 -14 81 -14c65.333 0 98 31 98 93v510h127v-517c0 -61.333 -17 -109.5 -51 -144.5s-81.667 -52.5 -143 -52.5c-20 0 -40.833 1.83301 -62.5 5.5z" />
    <glyph glyph-name="ij" unicode="&#x133;" horiz-adv-x="474" 
d="M80.5 584c-13.667 13.333 -20.5 30 -20.5 50s6.83301 36.833 20.5 50.5s30.5 20.5 50.5 20.5s37 -6.83301 51 -20.5s21 -30.5 21 -50.5s-7 -36.667 -21 -50s-31 -20 -51 -20s-36.833 6.66699 -50.5 20zM292.5 584c-13.667 13.333 -20.5 30 -20.5 50
c0 19.333 6.83301 35.833 20.5 49.5s30.5 20.5 50.5 20.5c19.333 0 36 -6.83301 50 -20.5s21 -30.167 21 -49.5c0 -20 -6.83301 -36.667 -20.5 -50s-30.5 -20 -50.5 -20s-36.833 6.66699 -50.5 20zM67 480h128v-480h-128v480zM137 -218l0.000976562 102
c18 -8 38.667 -12 62 -12c27.333 0 47.666 6.83301 60.999 20.5s20 35.167 20 64.5v523h126v-536c0 -58 -16.667 -101.667 -50 -131s-78.333 -44 -135 -44c-32 0 -60 4.33301 -84 13z" />
    <glyph glyph-name="Jcircumflex" unicode="&#x134;" horiz-adv-x="384" 
d="M208 913h112l146 -171h-126l-76 99l-76 -99h-127zM69.5 -9.5c-21.667 3.66699 -38.167 8.16699 -49.5 13.5v106c22 -9.33301 49 -14 81 -14c65.333 0 98 31 98 93v510h127v-517c0 -61.333 -17 -109.5 -51 -144.5s-81.667 -52.5 -143 -52.5
c-20 0 -40.833 1.83301 -62.5 5.5z" />
    <glyph glyph-name="jcircumflex" unicode="&#x135;" horiz-adv-x="249" 
d="M70 706h112l146 -171h-126l-76 99l-76 -99h-127zM-80 -218l0.000976562 102c18 -8 38.667 -12 62 -12c27.333 0 47.666 6.83301 60.999 20.5s20 35.167 20 64.5v523h126v-536c0 -58 -16.667 -101.667 -50 -131s-78.333 -44 -135 -44c-32 0 -60 4.33301 -84 13z" />
    <glyph glyph-name="Kcommaaccent" unicode="&#x136;" horiz-adv-x="686" 
d="M60 699h127v-317l287 317h152l-310 -342l330 -357h-152l-307 332v-332h-127v699zM265 -56h131l-98 -203h-115z" />
    <glyph glyph-name="kcommaaccent" unicode="&#x137;" horiz-adv-x="589" 
d="M60 739h126v-470l191 211h148l-214 -235l238 -245h-148l-215 222v-222h-126v739zM219 -56h131l-98 -203h-115z" />
    <glyph glyph-name="kgreenlandic" unicode="&#x138;" horiz-adv-x="589" 
d="M60 480h121v-228l202 228h142l-214 -240l238 -240h-142l-226 229v-229h-121v480z" />
    <glyph glyph-name="Lacute" unicode="&#x139;" horiz-adv-x="543" 
d="M135 916h133l-86 -174h-116zM60 699h127v-594h336v-105h-463v699z" />
    <glyph glyph-name="lacute" unicode="&#x13a;" horiz-adv-x="246" 
d="M135 939h133l-86 -174h-116zM60 739h126v-739h-126v739z" />
    <glyph glyph-name="Lcommaaccent" unicode="&#x13b;" horiz-adv-x="543" 
d="M60 699h127v-594h336v-105h-463v699zM235 -56h131l-98 -203h-115z" />
    <glyph glyph-name="lcommaaccent" unicode="&#x13c;" horiz-adv-x="271" 
d="M87 739h126v-739h-126v739zM85 -56h131l-98 -203h-115z" />
    <glyph glyph-name="Lcaron" unicode="&#x13d;" horiz-adv-x="543" 
d="M367 707h131l-98 -203h-115zM60 699h127v-594h336v-105h-463v699z" />
    <glyph glyph-name="lcaron" unicode="&#x13e;" horiz-adv-x="473" 
d="M312 753h131l-98 -203h-115zM60 739h126v-739h-126v739z" />
    <glyph glyph-name="Ldot" unicode="&#x13f;" horiz-adv-x="543" 
d="M60 699h127v-594h336v-105h-463v699zM332 340.5c-13.333 13 -20 28.501 -20 46.501c0 18.667 6.66699 34.5 20 47.5s29 19.5 47 19.5s33.5 -6.5 46.5 -19.5s19.5 -28.833 19.5 -47.5s-6.5 -34.334 -19.5 -47.001s-28.5 -19 -46.5 -19s-33.667 6.5 -47 19.5z" />
    <glyph glyph-name="ldot" unicode="&#x140;" horiz-adv-x="383" 
d="M60 739h126v-739h-126v739zM260 336.5c-13.333 13 -20 28.501 -20 46.501c0 18.667 6.66699 34.5 20 47.5s29 19.5 47 19.5s33.5 -6.5 46.5 -19.5s19.5 -28.833 19.5 -47.5s-6.5 -34.334 -19.5 -47.001s-28.5 -19 -46.5 -19s-33.667 6.5 -47 19.5z" />
    <glyph glyph-name="Lslash" unicode="&#x141;" horiz-adv-x="587" 
d="M104 283l-94 -42v121l94 42v295h127v-239l155 70v-121l-155 -70v-234h336v-105h-463v283z" />
    <glyph glyph-name="lslash" unicode="&#x142;" horiz-adv-x="396" 
d="M125 277l-115 -51v121l115 51v341h126v-285l135 61v-121l-135 -61v-333h-126v277z" />
    <glyph glyph-name="Nacute" unicode="&#x143;" horiz-adv-x="694" 
d="M347 916h133l-86 -174h-116zM60 699h120l327 -487v487h127v-699h-120l-327 488v-488h-127v699z" />
    <glyph glyph-name="nacute" unicode="&#x144;" horiz-adv-x="610" 
d="M289 709h133l-86 -174h-116zM60 480h121.999v-65c22.667 27.333 49.667 47.5 81 60.5s64.333 19.5 99 19.5c64.667 0 113 -17.5 145 -52.5s48 -81.5 48 -139.5v-303h-126v291c0 70 -32.667 105 -98 105c-28.667 0 -55.667 -6.83301 -81 -20.5
s-46.666 -34.167 -63.999 -61.5v-314h-126v480z" />
    <glyph glyph-name="Ncommaaccent" unicode="&#x145;" horiz-adv-x="694" 
d="M60 699h120l327 -487v487h127v-699h-120l-327 488v-488h-127v699zM289 -56h131l-98 -203h-115z" />
    <glyph glyph-name="ncommaaccent" unicode="&#x146;" horiz-adv-x="610" 
d="M60 480h121.999v-65c22.667 27.333 49.667 47.5 81 60.5s64.333 19.5 99 19.5c64.667 0 113 -17.5 145 -52.5s48 -81.5 48 -139.5v-303h-126v291c0 70 -32.667 105 -98 105c-28.667 0 -55.667 -6.83301 -81 -20.5s-46.666 -34.167 -63.999 -61.5v-314h-126v480z
M253.999 -56h131l-98 -203h-115z" />
    <glyph glyph-name="Ncaron" unicode="&#x147;" horiz-adv-x="694" 
d="M143 913h127l76 -100l76 100h126l-146 -171h-112zM60 699h120l327 -487v487h127v-699h-120l-327 488v-488h-127v699z" />
    <glyph glyph-name="ncaron" unicode="&#x148;" horiz-adv-x="610" 
d="M113 706h127l76 -100l76 100h126l-146 -171h-112zM60 480h121.999v-65c22.667 27.333 49.667 47.5 81 60.5s64.333 19.5 99 19.5c64.667 0 113 -17.5 145 -52.5s48 -81.5 48 -139.5v-303h-126v291c0 70 -32.667 105 -98 105c-28.667 0 -55.667 -6.83301 -81 -20.5
s-46.666 -34.167 -63.999 -61.5v-314h-126v480z" />
    <glyph glyph-name="napostrophe" unicode="&#x149;" horiz-adv-x="732" 
d="M102 707h131l-98 -203h-115zM182 480h121.999v-65c22.667 27.333 49.667 47.5 81 60.5s64.333 19.5 99 19.5c64.667 0 113 -17.5 145 -52.5s48 -81.5 48 -139.5v-303h-126v291c0 70 -32.667 105 -98 105c-28.667 0 -55.667 -6.83301 -81 -20.5
s-46.666 -34.167 -63.999 -61.5v-314h-126v480z" />
    <glyph glyph-name="Eng" unicode="&#x14a;" horiz-adv-x="694" 
d="M634 699l0.000976562 -699v-55c0 -58 -16.667 -101.667 -50 -131s-78.333 -44 -135 -44c-32 0 -60 4.33301 -84 13v102c18 -8 38.667 -12 62 -12c27.333 0 47.666 6.83301 60.999 20.5s20 35.167 20 64.5v51l-321 479v-488h-127v699h120l327 -487v487h127z" />
    <glyph glyph-name="eng" unicode="&#x14b;" horiz-adv-x="610" 
d="M286 -217v102c18 -8 38.667 -12 62 -12c27.333 0 47.666 6.83301 60.999 20.5s20 35.167 20 64.5v333c0 70 -32.667 105 -98 105c-28.667 0 -55.667 -6.83301 -81 -20.5s-46.666 -34.167 -63.999 -61.5v-314h-126v480h122v-65c22.667 27.333 49.667 47.5 81 60.5
s64.333 19.5 99 19.5c64.667 0 113 -17.5 145 -52.5s48 -81.5 48 -139.5v-358c0 -58 -16.667 -101.667 -50 -131s-78.333 -44 -135 -44c-32 0 -60 4.33301 -84 13z" />
    <glyph glyph-name="Omacron" unicode="&#x14c;" horiz-adv-x="821" 
d="M249 836h323v-84h-323v84zM221.5 30.5c-56.333 30.333 -100.666 73.168 -132.999 128.501s-48.5 118.666 -48.5 189.999s16.167 134.666 48.5 189.999s76.666 98.333 132.999 129s119.5 46 189.5 46c69.333 0 132.166 -15.333 188.499 -46s100.666 -73.667 132.999 -129
s48.5 -118.666 48.5 -189.999s-16.167 -134.5 -48.5 -189.5s-76.666 -97.833 -132.999 -128.5s-119.166 -46 -188.499 -46c-70 0 -133.167 15.167 -189.5 45.5zM533 130.502c36.667 20.333 65.832 49.333 87.499 87s32.5 81.5 32.5 131.5c0 49.333 -10.667 92.833 -32 130.5
s-50.333 66.834 -87 87.501s-77.667 31 -123 31s-86.5 -10.333 -123.5 -31s-66.167 -49.834 -87.5 -87.501s-32 -81.167 -32 -130.5c0 -50 10.833 -93.833 32.5 -131.5s51 -66.667 88 -87s77.833 -30.5 122.5 -30.5s85.334 10.167 122.001 30.5z" />
    <glyph glyph-name="omacron" unicode="&#x14d;" horiz-adv-x="642" 
d="M160 629h323v-84h-323v84zM173.5 15.5c-42.333 20.333 -75.167 49.666 -98.5 87.999s-35 83.833 -35 136.5c0 51.333 11.5 96.166 34.5 134.499s55.833 68 98.5 89s92 31.5 148 31.5s105.167 -10.5 147.5 -31.5s75.166 -50.667 98.499 -89s35 -83.166 35 -134.499
c0 -52.667 -11.667 -98.167 -35 -136.5s-56.166 -67.666 -98.499 -87.999s-91.5 -30.5 -147.5 -30.5s-105.167 10.167 -147.5 30.5zM430.999 127.5c27.333 29 41 66.5 41 112.5c0 48.667 -13.5 86.834 -40.5 114.501s-63.833 41.5 -110.5 41.5s-83.5 -13.833 -110.5 -41.5
s-40.5 -65.834 -40.5 -114.501c0 -46 13.667 -83.5 41 -112.5s64 -43.5 110 -43.5s82.667 14.5 110 43.5z" />
    <glyph glyph-name="Obreve" unicode="&#x14e;" horiz-adv-x="821" 
d="M292 783.5c-28.667 27.667 -42.998 64.167 -42.998 109.5h95c0 -22 5.66699 -38.667 17 -50s27.666 -17 48.999 -17s37.666 5.66699 48.999 17s17 28 17 50h95c0 -45.333 -14.333 -81.833 -43 -109.5s-68 -41.5 -118 -41.5s-89.333 13.833 -118 41.5zM221.502 30.5
c-56.333 30.333 -100.666 73.168 -132.999 128.501s-48.5 118.666 -48.5 189.999s16.167 134.666 48.5 189.999s76.666 98.333 132.999 129s119.5 46 189.5 46c69.333 0 132.166 -15.333 188.499 -46s100.666 -73.667 132.999 -129s48.5 -118.666 48.5 -189.999
s-16.167 -134.5 -48.5 -189.5s-76.666 -97.833 -132.999 -128.5s-119.166 -46 -188.499 -46c-70 0 -133.167 15.167 -189.5 45.5zM533.002 130.502c36.667 20.333 65.832 49.333 87.499 87s32.5 81.5 32.5 131.5c0 49.333 -10.667 92.833 -32 130.5
s-50.333 66.834 -87 87.501s-77.667 31 -123 31s-86.5 -10.333 -123.5 -31s-66.167 -49.834 -87.5 -87.501s-32 -81.167 -32 -130.5c0 -50 10.833 -93.833 32.5 -131.5s51 -66.667 88 -87s77.833 -30.5 122.5 -30.5s85.334 10.167 122.001 30.5z" />
    <glyph glyph-name="obreve" unicode="&#x14f;" horiz-adv-x="642" 
d="M203 576.5c-28.667 27.667 -42.998 64.167 -42.998 109.5h95c0 -22 5.66699 -38.667 17 -50s27.666 -17 48.999 -17s37.666 5.66699 48.999 17s17 28 17 50h95c0 -45.333 -14.333 -81.833 -43 -109.5s-68 -41.5 -118 -41.5s-89.333 13.833 -118 41.5zM173.502 15.5
c-42.333 20.333 -75.167 49.666 -98.5 87.999s-35 83.833 -35 136.5c0 51.333 11.5 96.166 34.5 134.499s55.833 68 98.5 89s92 31.5 148 31.5s105.167 -10.5 147.5 -31.5s75.166 -50.667 98.499 -89s35 -83.166 35 -134.499c0 -52.667 -11.667 -98.167 -35 -136.5
s-56.166 -67.666 -98.499 -87.999s-91.5 -30.5 -147.5 -30.5s-105.167 10.167 -147.5 30.5zM431.001 127.5c27.333 29 41 66.5 41 112.5c0 48.667 -13.5 86.834 -40.5 114.501s-63.833 41.5 -110.5 41.5s-83.5 -13.833 -110.5 -41.5s-40.5 -65.834 -40.5 -114.501
c0 -46 13.667 -83.5 41 -112.5s64 -43.5 110 -43.5s82.667 14.5 110 43.5z" />
    <glyph glyph-name="Ohungarumlaut" unicode="&#x150;" horiz-adv-x="821" 
d="M304 916h123l-86 -174h-106zM528 916h122l-86 -174h-106zM221.5 30.5c-56.333 30.333 -100.666 73.168 -132.999 128.501s-48.5 118.666 -48.5 189.999s16.167 134.666 48.5 189.999s76.666 98.333 132.999 129s119.5 46 189.5 46c69.333 0 132.166 -15.333 188.499 -46
s100.666 -73.667 132.999 -129s48.5 -118.666 48.5 -189.999s-16.167 -134.5 -48.5 -189.5s-76.666 -97.833 -132.999 -128.5s-119.166 -46 -188.499 -46c-70 0 -133.167 15.167 -189.5 45.5zM533 130.502c36.667 20.333 65.832 49.333 87.499 87s32.5 81.5 32.5 131.5
c0 49.333 -10.667 92.833 -32 130.5s-50.333 66.834 -87 87.501s-77.667 31 -123 31s-86.5 -10.333 -123.5 -31s-66.167 -49.834 -87.5 -87.501s-32 -81.167 -32 -130.5c0 -50 10.833 -93.833 32.5 -131.5s51 -66.667 88 -87s77.833 -30.5 122.5 -30.5
s85.334 10.167 122.001 30.5z" />
    <glyph glyph-name="ohungarumlaut" unicode="&#x151;" horiz-adv-x="661" 
d="M234 709h123l-86 -174h-106zM458 709h122l-86 -174h-106zM192.5 15.5c-42.333 20.333 -75.167 49.666 -98.5 87.999s-35 83.833 -35 136.5c0 51.333 11.5 96.166 34.5 134.499s55.833 68 98.5 89s92 31.5 148 31.5s105.167 -10.5 147.5 -31.5s75.166 -50.667 98.499 -89
s35 -83.166 35 -134.499c0 -52.667 -11.667 -98.167 -35 -136.5s-56.166 -67.666 -98.499 -87.999s-91.5 -30.5 -147.5 -30.5s-105.167 10.167 -147.5 30.5zM449.999 127.5c27.333 29 41 66.5 41 112.5c0 48.667 -13.5 86.834 -40.5 114.501s-63.833 41.5 -110.5 41.5
s-83.5 -13.833 -110.5 -41.5s-40.5 -65.834 -40.5 -114.501c0 -46 13.667 -83.5 41 -112.5s64 -43.5 110 -43.5s82.667 14.5 110 43.5z" />
    <glyph glyph-name="OE" unicode="&#x152;" horiz-adv-x="894" 
d="M226 42c-58 28 -103.5 68.333 -136.5 121s-49.5 114.667 -49.5 186s16.5 133.5 49.5 186.5s78.5 93.5 136.5 121.5s123.667 42 197 42h431v-105h-300v-192h211v-105h-211v-192h300v-105h-431c-73.333 0 -139 14 -197 42zM427 105l-0.000976562 489.001h-13
c-47.333 0 -89.666 -10 -126.999 -30s-66.5 -48.5 -87.5 -85.5s-31.5 -80.167 -31.5 -129.5c0 -50 10.5 -93.333 31.5 -130s50 -64.834 87 -84.501s79.5 -29.5 127.5 -29.5h13z" />
    <glyph glyph-name="oe" unicode="&#x153;" horiz-adv-x="1029" 
d="M598 191c-2.66699 -16 -5.33105 -27.6641 -7.99805 -34.9971c23.333 -48 82 -72 176 -72c30.667 0 62 2.66699 94 8s60 12.666 84 21.999v-97c-22.667 -9.33301 -51.834 -17 -87.501 -23s-71.167 -9 -106.5 -9c-94 0 -167 24.333 -219 73
c-24.667 -23.333 -54.834 -41.333 -90.501 -54s-75.5 -19 -119.5 -19c-56 0 -105.167 10.167 -147.5 30.5s-75.166 49.666 -98.499 87.999s-35 83.833 -35 136.5c0 51.333 11.5 96.166 34.5 134.499s55.833 68 98.5 89s92 31.5 148 31.5c42.667 0 81.5 -6.16699 116.5 -18.5
s64.833 -29.833 89.5 -52.5c47.333 47.333 113.666 71 198.999 71c56 0 103.833 -10.667 143.5 -32s69.5 -50.5 89.5 -87.5s30 -79.167 30 -126.5v-58h-391zM412.503 111.503c25 18.333 42.167 43.168 51.5 74.501c-2.66699 15.333 -4 33 -4 53c0 18 1.66699 37 5 57
c-9.33301 32 -26.5 56.667 -51.5 74s-55.833 26 -92.5 26c-46.667 0 -83.5 -13.833 -110.5 -41.5s-40.5 -65.834 -40.5 -114.501c0 -46 13.667 -83.5 41 -112.5s64 -43.5 110 -43.5c36 0 66.5 9.16699 91.5 27.5zM638.503 377.005c-23 -12.667 -39.165 -30.667 -48.498 -54
c5.33301 -20 8.66602 -35.333 9.99902 -46h270c-1.33301 38 -14.833 67.333 -40.5 88s-60.834 31 -105.501 31c-34 0 -62.5 -6.33301 -85.5 -19z" />
    <glyph glyph-name="Racute" unicode="&#x154;" horiz-adv-x="634" 
d="M288 916h133l-86 -174h-116zM60 699h292c77.333 0 137 -19 179 -57s63 -93 63 -165c0 -51.333 -12.667 -95 -38 -131s-61.333 -61.667 -108 -77l142 -269h-130l-135 256h-138v-256h-127v699zM329 361c41.333 0 74.667 9.66699 100 29s38 48.333 38 87
c0 78 -46 117 -138 117h-142v-233h142z" />
    <glyph glyph-name="racute" unicode="&#x155;" horiz-adv-x="407" 
d="M135 709h133l-86 -174h-116zM60 480h122.001v-77c19.333 26 46.833 45.333 82.5 58s76.5 19 122.5 19v-96c-48.667 0 -90.834 -7.5 -126.501 -22.5s-60.5 -38.5 -74.5 -70.5v-291h-126v480z" />
    <glyph glyph-name="Rcommaaccent" unicode="&#x156;" horiz-adv-x="634" 
d="M60 699h292c77.333 0 137 -19 179 -57s63 -93 63 -165c0 -51.333 -12.667 -95 -38 -131s-61.333 -61.667 -108 -77l142 -269h-130l-135 256h-138v-256h-127v699zM329 361c41.333 0 74.667 9.66699 100 29s38 48.333 38 87c0 78 -46 117 -138 117h-142v-233h142z
M246.001 -56h131l-98 -203h-115z" />
    <glyph glyph-name="rcommaaccent" unicode="&#x157;" horiz-adv-x="407" 
d="M60 480h122.001v-77c19.333 26 46.833 45.333 82.5 58s76.5 19 122.5 19v-96c-48.667 0 -90.834 -7.5 -126.501 -22.5s-60.5 -38.5 -74.5 -70.5v-291h-126v480zM56.001 -56h131l-98 -203h-115z" />
    <glyph glyph-name="Rcaron" unicode="&#x158;" horiz-adv-x="634" 
d="M68 913h127l76 -100l76 100h126l-146 -171h-112zM60 699h292c77.333 0 137 -19 179 -57s63 -93 63 -165c0 -51.333 -12.667 -95 -38 -131s-61.333 -61.667 -108 -77l142 -269h-130l-135 256h-138v-256h-127v699zM329 361c41.333 0 74.667 9.66699 100 29s38 48.333 38 87
c0 78 -46 117 -138 117h-142v-233h142z" />
    <glyph glyph-name="rcaron" unicode="&#x159;" horiz-adv-x="490" 
d="M19 706h127l76 -100l76 100h126l-146 -171h-112zM143 480h122.001v-77c19.333 26 46.833 45.333 82.5 58s76.5 19 122.5 19v-96c-48.667 0 -90.834 -7.5 -126.501 -22.5s-60.5 -38.5 -74.5 -70.5v-291h-126v480z" />
    <glyph glyph-name="Sacute" unicode="&#x15a;" horiz-adv-x="567" 
d="M289 916h133l-86 -174h-116zM139.5 -3.5c-40.333 7.66699 -73.501 17.8301 -99.501 30.4971v109c33.333 -16 68.333 -28 105 -36s72.667 -12 108 -12c44.667 0 78.667 8.33301 102 25s35 39.667 35 69c0 20.667 -5.33301 37.834 -16 51.501s-26.334 25.667 -47.001 36
s-52.334 23.833 -95.001 40.5c-65.333 26.667 -112.666 56.334 -141.999 89.001s-44 73.334 -44 122.001c0 38 10.333 71.667 31 101s49.667 52 87 68s80.333 24 129 24c40 0 75.5 -3.16699 106.5 -9.5s61.5 -16.166 91.5 -29.499v-106c-58 28 -116.667 42 -176 42
c-42.667 0 -75.667 -7.83301 -99 -23.5s-35 -37.834 -35 -66.501c0 -20.667 5.33301 -37.5 16 -50.5s24.834 -24 42.501 -33s49.5 -23.167 95.5 -42.5c46.667 -19.333 83.5 -38.333 110.5 -57s47.333 -40.5 61 -65.5s20.5 -55.5 20.5 -91.5
c0 -62 -22.333 -110.167 -67 -144.5s-110.667 -51.5 -198 -51.5c-41.333 0 -82.166 3.83301 -122.499 11.5z" />
    <glyph glyph-name="sacute" unicode="&#x15b;" horiz-adv-x="499" 
d="M233 709h133l-86 -174h-116zM136 -3c-39.333 8 -69.999 19.001 -91.999 33.001v107c26 -16 57 -28.833 93 -38.5s70 -14.5 102 -14.5s55.333 2.83301 70 8.5s22 16.167 22 31.5c0 12 -3.83301 21.833 -11.5 29.5s-20 14.667 -37 21s-43.167 14.166 -78.5 23.499
c-40 11.333 -71.5 23 -94.5 35s-40.333 27.167 -52 45.5s-17.5 42.166 -17.5 71.499c0 48 19 84.167 57 108.5s89.333 36.5 154 36.5c33.333 0 66.5 -3.16699 99.5 -9.5s58.833 -15.166 77.5 -26.499v-103c-20 12 -44.333 21.667 -73 29s-58 11 -88 11
c-32.667 0 -57.334 -3.16699 -74.001 -9.5s-25 -18.5 -25 -36.5c0 -12 4.5 -21.5 13.5 -28.5s20.833 -13 35.5 -18s41.334 -12.5 80.001 -22.5c41.333 -11.333 73.666 -23.666 96.999 -36.999s40 -29.333 50 -48s15 -42 15 -70c0 -42.667 -18.167 -76.834 -54.5 -102.501
s-88.833 -38.5 -157.5 -38.5c-34.667 0 -71.667 4 -111 12z" />
    <glyph glyph-name="Scircumflex" unicode="&#x15c;" horiz-adv-x="567" 
d="M221 913h112l146 -171h-126l-76 99l-76 -99h-127zM139.5 -3.5c-40.333 7.66699 -73.501 17.8301 -99.501 30.4971v109c33.333 -16 68.333 -28 105 -36s72.667 -12 108 -12c44.667 0 78.667 8.33301 102 25s35 39.667 35 69c0 20.667 -5.33301 37.834 -16 51.501
s-26.334 25.667 -47.001 36s-52.334 23.833 -95.001 40.5c-65.333 26.667 -112.666 56.334 -141.999 89.001s-44 73.334 -44 122.001c0 38 10.333 71.667 31 101s49.667 52 87 68s80.333 24 129 24c40 0 75.5 -3.16699 106.5 -9.5s61.5 -16.166 91.5 -29.499v-106
c-58 28 -116.667 42 -176 42c-42.667 0 -75.667 -7.83301 -99 -23.5s-35 -37.834 -35 -66.501c0 -20.667 5.33301 -37.5 16 -50.5s24.834 -24 42.501 -33s49.5 -23.167 95.5 -42.5c46.667 -19.333 83.5 -38.333 110.5 -57s47.333 -40.5 61 -65.5s20.5 -55.5 20.5 -91.5
c0 -62 -22.333 -110.167 -67 -144.5s-110.667 -51.5 -198 -51.5c-41.333 0 -82.166 3.83301 -122.499 11.5z" />
    <glyph glyph-name="scircumflex" unicode="&#x15d;" horiz-adv-x="499" 
d="M195 706h112l146 -171h-126l-76 99l-76 -99h-127zM136 -3c-39.333 8 -69.999 19.001 -91.999 33.001v107c26 -16 57 -28.833 93 -38.5s70 -14.5 102 -14.5s55.333 2.83301 70 8.5s22 16.167 22 31.5c0 12 -3.83301 21.833 -11.5 29.5s-20 14.667 -37 21
s-43.167 14.166 -78.5 23.499c-40 11.333 -71.5 23 -94.5 35s-40.333 27.167 -52 45.5s-17.5 42.166 -17.5 71.499c0 48 19 84.167 57 108.5s89.333 36.5 154 36.5c33.333 0 66.5 -3.16699 99.5 -9.5s58.833 -15.166 77.5 -26.499v-103c-20 12 -44.333 21.667 -73 29
s-58 11 -88 11c-32.667 0 -57.334 -3.16699 -74.001 -9.5s-25 -18.5 -25 -36.5c0 -12 4.5 -21.5 13.5 -28.5s20.833 -13 35.5 -18s41.334 -12.5 80.001 -22.5c41.333 -11.333 73.666 -23.666 96.999 -36.999s40 -29.333 50 -48s15 -42 15 -70
c0 -42.667 -18.167 -76.834 -54.5 -102.501s-88.833 -38.5 -157.5 -38.5c-34.667 0 -71.667 4 -111 12z" />
    <glyph glyph-name="Scedilla" unicode="&#x15e;" horiz-adv-x="567" 
d="M474 48.5c-35.333 -33.667 -88 -53.835 -158 -60.502l-15 -40c28.667 -3.33301 50.834 -13.833 66.501 -31.5s23.5 -39.834 23.5 -66.501c0 -31.333 -13 -55.5 -39 -72.5s-61 -25.5 -105 -25.5c-18 0 -35.333 1.16699 -52 3.5s-29.667 5.16602 -39 8.49902l1 69
c7.33301 -3.33301 16.333 -6.16602 27 -8.49902s21 -3.5 31 -3.5c39.333 0 59 13.667 59 41c0 16 -7.83301 28.833 -23.5 38.5s-40.834 14.5 -75.501 14.5l28 73c-32 2.66699 -62.167 7.33398 -90.5 14.001s-52.5 15 -72.5 25v109c33.333 -16 68.333 -28 105 -36
s72.667 -12 108 -12c44.667 0 78.667 8.33301 102 25s35 39.667 35 69c0 20.667 -5.33301 37.834 -16 51.501s-26.334 25.667 -47.001 36s-52.334 23.833 -95.001 40.5c-65.333 26.667 -112.666 56.334 -141.999 89.001s-44 73.334 -44 122.001c0 38 10.333 71.667 31 101
s49.667 52 87 68s80.333 24 129 24c40 0 75.5 -3.16699 106.5 -9.5s61.5 -16.166 91.5 -29.499v-106c-58 28 -116.667 42 -176 42c-42.667 0 -75.667 -7.83301 -99 -23.5s-35 -37.834 -35 -66.501c0 -20.667 5.33301 -37.5 16 -50.5s24.834 -24 42.501 -33
s49.5 -23.167 95.5 -42.5c46.667 -19.333 83.5 -38.333 110.5 -57s47.333 -40.5 61 -65.5s20.5 -55.5 20.5 -91.5c0 -54.667 -17.667 -98.834 -53 -132.501z" />
    <glyph glyph-name="scedilla" unicode="&#x15f;" horiz-adv-x="499" 
d="M414.5 30.5c-29.667 -25 -73.166 -39.832 -130.499 -44.499l-15 -38c28.667 -3.33301 50.834 -13.833 66.501 -31.5s23.5 -39.834 23.5 -66.501c0 -31.333 -13 -55.5 -39 -72.5s-61 -25.5 -105 -25.5c-18 0 -35.333 1.16699 -52 3.5s-29.667 5.16602 -39 8.49902l1 69
c7.33301 -3.33301 16.333 -6.16602 27 -8.49902s21 -3.5 31 -3.5c39.333 0 59 13.667 59 41c0 16 -7.83301 28.833 -23.5 38.5s-40.834 14.5 -75.501 14.5l29 76c-56 8 -98.667 21 -128 39v107c26 -16 57 -28.833 93 -38.5s70 -14.5 102 -14.5s55.333 2.83301 70 8.5
s22 16.167 22 31.5c0 12 -3.83301 21.833 -11.5 29.5s-20 14.667 -37 21s-43.167 14.166 -78.5 23.499c-40 11.333 -71.5 23 -94.5 35s-40.333 27.167 -52 45.5s-17.5 42.166 -17.5 71.499c0 48 19 84.167 57 108.5s89.333 36.5 154 36.5c33.333 0 66.5 -3.16699 99.5 -9.5
s58.833 -15.166 77.5 -26.499v-103c-20 12 -44.333 21.667 -73 29s-58 11 -88 11c-32.667 0 -57.334 -3.16699 -74.001 -9.5s-25 -18.5 -25 -36.5c0 -12 4.5 -21.5 13.5 -28.5s20.833 -13 35.5 -18s41.334 -12.5 80.001 -22.5c41.333 -11.333 73.666 -23.666 96.999 -36.999
s40 -29.333 50 -48s15 -42 15 -70c0 -38.667 -14.833 -70.5 -44.5 -95.5z" />
    <glyph glyph-name="Scaron" unicode="&#x160;" horiz-adv-x="567" 
d="M88 913h127l76 -100l76 100h126l-146 -171h-112zM139.5 -3.5c-40.333 7.66699 -73.501 17.8301 -99.501 30.4971v109c33.333 -16 68.333 -28 105 -36s72.667 -12 108 -12c44.667 0 78.667 8.33301 102 25s35 39.667 35 69c0 20.667 -5.33301 37.834 -16 51.501
s-26.334 25.667 -47.001 36s-52.334 23.833 -95.001 40.5c-65.333 26.667 -112.666 56.334 -141.999 89.001s-44 73.334 -44 122.001c0 38 10.333 71.667 31 101s49.667 52 87 68s80.333 24 129 24c40 0 75.5 -3.16699 106.5 -9.5s61.5 -16.166 91.5 -29.499v-106
c-58 28 -116.667 42 -176 42c-42.667 0 -75.667 -7.83301 -99 -23.5s-35 -37.834 -35 -66.501c0 -20.667 5.33301 -37.5 16 -50.5s24.834 -24 42.501 -33s49.5 -23.167 95.5 -42.5c46.667 -19.333 83.5 -38.333 110.5 -57s47.333 -40.5 61 -65.5s20.5 -55.5 20.5 -91.5
c0 -62 -22.333 -110.167 -67 -144.5s-110.667 -51.5 -198 -51.5c-41.333 0 -82.166 3.83301 -122.499 11.5z" />
    <glyph glyph-name="scaron" unicode="&#x161;" horiz-adv-x="499" 
d="M44 706h127l76 -100l76 100h126l-146 -171h-112zM136 -3c-39.333 8 -69.999 19.001 -91.999 33.001v107c26 -16 57 -28.833 93 -38.5s70 -14.5 102 -14.5s55.333 2.83301 70 8.5s22 16.167 22 31.5c0 12 -3.83301 21.833 -11.5 29.5s-20 14.667 -37 21
s-43.167 14.166 -78.5 23.499c-40 11.333 -71.5 23 -94.5 35s-40.333 27.167 -52 45.5s-17.5 42.166 -17.5 71.499c0 48 19 84.167 57 108.5s89.333 36.5 154 36.5c33.333 0 66.5 -3.16699 99.5 -9.5s58.833 -15.166 77.5 -26.499v-103c-20 12 -44.333 21.667 -73 29
s-58 11 -88 11c-32.667 0 -57.334 -3.16699 -74.001 -9.5s-25 -18.5 -25 -36.5c0 -12 4.5 -21.5 13.5 -28.5s20.833 -13 35.5 -18s41.334 -12.5 80.001 -22.5c41.333 -11.333 73.666 -23.666 96.999 -36.999s40 -29.333 50 -48s15 -42 15 -70
c0 -42.667 -18.167 -76.834 -54.5 -102.501s-88.833 -38.5 -157.5 -38.5c-34.667 0 -71.667 4 -111 12z" />
    <glyph glyph-name="uni0162" unicode="&#x162;" horiz-adv-x="589" 
d="M352 0l-20 -51.999c28.667 -3.33301 50.834 -13.833 66.501 -31.5s23.5 -39.834 23.5 -66.501c0 -31.333 -13 -55.5 -39 -72.5s-61 -25.5 -105 -25.5c-18 0 -35.333 1.16699 -52 3.5s-29.667 5.16602 -39 8.49902l1 69c7.33301 -3.33301 16.333 -6.16602 27 -8.49902
s21 -3.5 31 -3.5c39.333 0 59 13.667 59 41c0 16 -7.83301 28.833 -23.5 38.5s-40.834 14.5 -75.501 14.5l33 85h-8v594h-211v105h549v-105h-211v-594h-6z" />
    <glyph glyph-name="uni0163" unicode="&#x163;" horiz-adv-x="395" 
d="M341.5 -83.5c15.667 -17.667 23.5 -39.832 23.5 -66.499c0 -31.333 -13 -55.5 -39 -72.5s-61 -25.5 -105 -25.5c-18 0 -35.333 1.16699 -52 3.5s-29.667 5.16602 -39 8.49902l1 69c7.33301 -3.33301 16.333 -6.16602 27 -8.49902s21 -3.5 31 -3.5
c39.333 0 59 13.667 59 41c0 16 -7.83301 28.833 -23.5 38.5s-40.834 14.5 -75.501 14.5l32 82c-29.333 11.333 -51.5 30.166 -66.5 56.499s-22.5 59.5 -22.5 99.5v231h-72v96h72v144h126v-144h115v-96h-115v-215c0 -30.667 5.66699 -52.5 17 -65.5s32 -19.5 62 -19.5
c20.667 0 41 4.66699 61 14v-96c-19.333 -8 -42 -13.333 -68 -16l-15 -38c28.667 -3.33301 50.834 -13.833 66.501 -31.5z" />
    <glyph glyph-name="Tcaron" unicode="&#x164;" horiz-adv-x="589" 
d="M92 913h127l76 -100l76 100h126l-146 -171h-112zM231 594h-211v105h549v-105h-211v-594h-127v594z" />
    <glyph glyph-name="tcaron" unicode="&#x165;" horiz-adv-x="491" 
d="M350 788h131l-98 -203h-115zM133 29c-27.333 29.333 -41 70.667 -41 124v231h-72v96h72v144h126v-144h115v-96h-115v-215c0 -30.667 5.66699 -52.5 17 -65.5s32 -19.5 62 -19.5c20.667 0 41 4.66699 61 14v-96c-28.667 -11.333 -63.667 -17 -105 -17
c-52.667 0 -92.667 14.667 -120 44z" />
    <glyph glyph-name="Tbar" unicode="&#x166;" horiz-adv-x="589" 
d="M228 279h-118v107h118v201h-208v112h549v-112h-208v-201h119v-107h-119v-279h-133v279z" />
    <glyph glyph-name="tbar" unicode="&#x167;" horiz-adv-x="389" 
d="M134.5 29c-27.667 29.333 -41.5 70.667 -41.5 124v70h-73v71h73v100h-72v86h72v144h126v-144h116v-86h-116v-100h115v-71h-115v-54c0 -30 6.33301 -51.667 19 -65s33 -20 61 -20c21.333 0 41.333 4.66699 60 14v-96c-28.667 -11.333 -63.667 -17 -105 -17
c-52 0 -91.833 14.667 -119.5 44z" />
    <glyph glyph-name="Utilde" unicode="&#x168;" horiz-adv-x="707" 
d="M164 845c21.333 28.667 54.667 43 100 43c14.667 0 29 -2 43 -6s32 -10.333 54 -19c18.667 -8 35 -14.167 49 -18.5s28.333 -6.5 43 -6.5c41.333 0 74.666 17 99.999 51v-103c-20.667 -28 -54 -42 -100 -42c-16.667 0 -32.667 2.16699 -48 6.5s-33 10.833 -53 19.5
c-20 8 -36.167 14 -48.5 18s-25.5 6 -39.5 6c-19.333 0 -37.166 -4 -53.499 -12s-31.833 -21.333 -46.5 -40v103zM130.501 62.5c-50.333 51.667 -75.5 121.5 -75.5 209.5v427h127v-429c0 -55.333 15.5 -97.5 46.5 -126.5s72.833 -43.5 125.5 -43.5
c52 0 93.5 14.5 124.5 43.5s46.5 71.167 46.5 126.5v429h127v-427c0 -88 -25 -157.833 -75 -209.5s-124.333 -77.5 -223 -77.5s-173.167 25.833 -223.5 77.5z" />
    <glyph glyph-name="utilde" unicode="&#x169;" horiz-adv-x="610" 
d="M113 638c21.333 28.667 54.667 43 100 43c14.667 0 29 -2 43 -6s32 -10.333 54 -19c18.667 -8 35 -14.167 49 -18.5s28.333 -6.5 43 -6.5c41.333 0 74.666 17 99.999 51v-103c-20.667 -28 -54 -42 -100 -42c-16.667 0 -32.667 2.16699 -48 6.5s-33 10.833 -53 19.5
c-20 8 -36.167 14 -48.5 18s-25.5 6 -39.5 6c-19.333 0 -37.166 -4 -53.499 -12s-31.833 -21.333 -46.5 -40v103zM103.001 37.5c-32 35 -47.999 81.5 -47.999 139.5v303h126v-291c0 -70 32.667 -105 98 -105c28.667 0 55.667 6.83301 81 20.5s46.666 34.167 63.999 61.5v314
h126v-480h-122v65c-22.667 -27.333 -49.667 -47.5 -81 -60.5s-64.333 -19.5 -99 -19.5c-64.667 0 -113 17.5 -145 52.5z" />
    <glyph glyph-name="Umacron" unicode="&#x16a;" horiz-adv-x="707" 
d="M192 836h323v-84h-323v84zM130.5 62.5c-50.333 51.667 -75.5 121.5 -75.5 209.5v427h127v-429c0 -55.333 15.5 -97.5 46.5 -126.5s72.833 -43.5 125.5 -43.5c52 0 93.5 14.5 124.5 43.5s46.5 71.167 46.5 126.5v429h127v-427c0 -88 -25 -157.833 -75 -209.5
s-124.333 -77.5 -223 -77.5s-173.167 25.833 -223.5 77.5z" />
    <glyph glyph-name="umacron" unicode="&#x16b;" horiz-adv-x="610" 
d="M140 629h323v-84h-323v84zM103 37.5c-32 35 -47.999 81.5 -47.999 139.5v303h126v-291c0 -70 32.667 -105 98 -105c28.667 0 55.667 6.83301 81 20.5s46.666 34.167 63.999 61.5v314h126v-480h-122v65c-22.667 -27.333 -49.667 -47.5 -81 -60.5s-64.333 -19.5 -99 -19.5
c-64.667 0 -113 17.5 -145 52.5z" />
    <glyph glyph-name="Ubreve" unicode="&#x16c;" horiz-adv-x="707" 
d="M235 783.5c-28.667 27.667 -42.998 64.167 -42.998 109.5h95c0 -22 5.66699 -38.667 17 -50s27.666 -17 48.999 -17s37.666 5.66699 48.999 17s17 28 17 50h95c0 -45.333 -14.333 -81.833 -43 -109.5s-68 -41.5 -118 -41.5s-89.333 13.833 -118 41.5zM130.502 62.5
c-50.333 51.667 -75.5 121.5 -75.5 209.5v427h127v-429c0 -55.333 15.5 -97.5 46.5 -126.5s72.833 -43.5 125.5 -43.5c52 0 93.5 14.5 124.5 43.5s46.5 71.167 46.5 126.5v429h127v-427c0 -88 -25 -157.833 -75 -209.5s-124.333 -77.5 -223 -77.5
s-173.167 25.833 -223.5 77.5z" />
    <glyph glyph-name="ubreve" unicode="&#x16d;" horiz-adv-x="610" 
d="M183 576.5c-28.667 27.667 -42.998 64.167 -42.998 109.5h95c0 -22 5.66699 -38.667 17 -50s27.666 -17 48.999 -17s37.666 5.66699 48.999 17s17 28 17 50h95c0 -45.333 -14.333 -81.833 -43 -109.5s-68 -41.5 -118 -41.5s-89.333 13.833 -118 41.5zM103.002 37.5
c-32 35 -47.999 81.5 -47.999 139.5v303h126v-291c0 -70 32.667 -105 98 -105c28.667 0 55.667 6.83301 81 20.5s46.666 34.167 63.999 61.5v314h126v-480h-122v65c-22.667 -27.333 -49.667 -47.5 -81 -60.5s-64.333 -19.5 -99 -19.5c-64.667 0 -113 17.5 -145 52.5z" />
    <glyph glyph-name="Uring" unicode="&#x16e;" horiz-adv-x="707" 
d="M265 778c-24 24 -36 53.333 -36 88s12 64.167 36 88.5s53.333 36.5 88 36.5s64.167 -12.167 88.5 -36.5s36.5 -53.833 36.5 -88.5s-12.167 -64 -36.5 -88s-53.833 -36 -88.5 -36s-64 12 -88 36zM389 830c10 10 15 22 15 36s-5 26 -15 36s-22 15 -36 15s-26 -5 -36 -15
s-15 -22 -15 -36s5 -26 15 -36s22 -15 36 -15s26 5 36 15zM130.5 62.5c-50.333 51.667 -75.5 121.5 -75.5 209.5v427h127v-429c0 -55.333 15.5 -97.5 46.5 -126.5s72.833 -43.5 125.5 -43.5c52 0 93.5 14.5 124.5 43.5s46.5 71.167 46.5 126.5v429h127v-427
c0 -88 -25 -157.833 -75 -209.5s-124.333 -77.5 -223 -77.5s-173.167 25.833 -223.5 77.5z" />
    <glyph glyph-name="uring" unicode="&#x16f;" horiz-adv-x="610" 
d="M213 571c-24 24 -36 53.333 -36 88s12 64.167 36 88.5s53.333 36.5 88 36.5s64.167 -12.167 88.5 -36.5s36.5 -53.833 36.5 -88.5s-12.167 -64 -36.5 -88s-53.833 -36 -88.5 -36s-64 12 -88 36zM337 623c10 10 15 22 15 36s-5 26 -15 36s-22 15 -36 15s-26 -5 -36 -15
s-15 -22 -15 -36s5 -26 15 -36s22 -15 36 -15s26 5 36 15zM103 37.5c-32 35 -47.999 81.5 -47.999 139.5v303h126v-291c0 -70 32.667 -105 98 -105c28.667 0 55.667 6.83301 81 20.5s46.666 34.167 63.999 61.5v314h126v-480h-122v65
c-22.667 -27.333 -49.667 -47.5 -81 -60.5s-64.333 -19.5 -99 -19.5c-64.667 0 -113 17.5 -145 52.5z" />
    <glyph glyph-name="Uhungarumlaut" unicode="&#x170;" horiz-adv-x="707" 
d="M254 916h123l-86 -174h-106zM478 916h122l-86 -174h-106zM130.5 62.5c-50.333 51.667 -75.5 121.5 -75.5 209.5v427h127v-429c0 -55.333 15.5 -97.5 46.5 -126.5s72.833 -43.5 125.5 -43.5c52 0 93.5 14.5 124.5 43.5s46.5 71.167 46.5 126.5v429h127v-427
c0 -88 -25 -157.833 -75 -209.5s-124.333 -77.5 -223 -77.5s-173.167 25.833 -223.5 77.5z" />
    <glyph glyph-name="uhungarumlaut" unicode="&#x171;" horiz-adv-x="610" 
d="M196 709h123l-86 -174h-106zM420 709h122l-86 -174h-106zM103 37.5c-32 35 -47.999 81.5 -47.999 139.5v303h126v-291c0 -70 32.667 -105 98 -105c28.667 0 55.667 6.83301 81 20.5s46.666 34.167 63.999 61.5v314h126v-480h-122v65
c-22.667 -27.333 -49.667 -47.5 -81 -60.5s-64.333 -19.5 -99 -19.5c-64.667 0 -113 17.5 -145 52.5z" />
    <glyph glyph-name="Uogonek" unicode="&#x172;" horiz-adv-x="707" 
d="M652 699v-427.002c0 -79.333 -20.5 -144.166 -61.5 -194.499s-101.833 -80.166 -182.5 -89.499c-20.667 -14 -35.834 -28 -45.501 -42s-14.5 -29 -14.5 -45c0 -12.667 3.83301 -22.5 11.5 -29.5s17.5 -10.5 29.5 -10.5c17.333 0 33.333 3.66699 48 11v-72
c-22.667 -8.66699 -51.667 -13 -87 -13c-33.333 0 -60.333 7.83301 -81 23.5s-31 38.5 -31 68.5c0 43.333 19 80 57 110c-79.333 10 -139.166 40 -179.499 90s-60.5 114.333 -60.5 193v427h127v-429c0 -55.333 15.5 -97.5 46.5 -126.5s72.833 -43.5 125.5 -43.5
c52 0 93.5 14.5 124.5 43.5s46.5 71.167 46.5 126.5v429h127z" />
    <glyph glyph-name="uogonek" unicode="&#x173;" horiz-adv-x="615" 
d="M555 -128l0.000976562 -71.999c-22.667 -8.66699 -51.667 -13 -87 -13c-33.333 0 -60.333 7.83301 -81 23.5s-31 38.5 -31 68.5c0 25.333 6.66699 48.333 20 69s31 38 53 52h-1v65c-22.667 -27.333 -49.667 -47.5 -81 -60.5s-64.333 -19.5 -99 -19.5
c-64.667 0 -113 17.5 -145 52.5s-48 81.5 -48 139.5v303h126v-291c0 -70 32.667 -105 98 -105c28.667 0 55.667 6.83301 81 20.5s46.666 34.167 63.999 61.5v314h126v-480h-5c-26.667 -16 -46.5 -31.833 -59.5 -47.5s-19.5 -32.834 -19.5 -51.501
c0 -12.667 3.83301 -22.5 11.5 -29.5s17.5 -10.5 29.5 -10.5c17.333 0 33.333 3.66699 48 11z" />
    <glyph glyph-name="Wcircumflex" unicode="&#x174;" horiz-adv-x="1006" 
d="M448 913h112l146 -171h-126l-76 99l-76 -99h-127zM46 699h132l139 -494l137 494h98l137 -494l139 494h132l-199 -699h-118l-140 486l-140 -486h-118z" />
    <glyph glyph-name="wcircumflex" unicode="&#x175;" horiz-adv-x="830" 
d="M360 706h112l146 -171h-126l-76 99l-76 -99h-127zM40 480h126l98 -325l96 325h110l96 -325l98 325h126l-157 -480h-116l-102 326l-102 -326h-116z" />
    <glyph glyph-name="Ycircumflex" unicode="&#x176;" horiz-adv-x="726" 
d="M306 913h112l146 -171h-126l-76 99l-76 -99h-127zM300 266l-254 433h135l180 -311l185 311h134l-259 -433v-266h-121v266z" />
    <glyph glyph-name="ycircumflex" unicode="&#x177;" horiz-adv-x="600" 
d="M261 706h112l146 -171h-126l-76 99l-76 -99h-127zM120.5 -194.5c-19 2.33301 -33.835 5.5 -44.502 9.5v96c16.667 -6.66699 37.334 -10 62.001 -10c25.333 0 44.333 5.66699 57 17s23.667 29.333 33 54l19 50l-207 458h127l148 -350l139 350h126l-210 -523
c-21.333 -52.667 -47.166 -91.667 -77.499 -117s-69.5 -38 -117.5 -38c-17.333 0 -35.5 1.16699 -54.5 3.5z" />
    <glyph glyph-name="Ydieresis" unicode="&#x178;" horiz-adv-x="726" 
d="M196 771.5c-13.333 13 -20 28.501 -20 46.501c0 18.667 6.66699 34.5 20 47.5s29 19.5 47 19.5s33.5 -6.5 46.5 -19.5s19.5 -28.833 19.5 -47.5s-6.5 -34.334 -19.5 -47.001s-28.5 -19 -46.5 -19s-33.667 6.5 -47 19.5zM433 771.501c-13.333 13 -20 28.501 -20 46.501
c0 18.667 6.66699 34.5 20 47.5s29 19.5 47 19.5s33.5 -6.5 46.5 -19.5s19.5 -28.833 19.5 -47.5s-6.5 -34.334 -19.5 -47.001s-28.5 -19 -46.5 -19s-33.667 6.5 -47 19.5zM300 266.002l-254 433h135l180 -311l185 311h134l-259 -433v-266h-121v266z" />
    <glyph glyph-name="Zacute" unicode="&#x179;" horiz-adv-x="619" 
d="M300 916h133l-86 -174h-116zM40 83l366 511h-357v105h512v-83l-365 -511h383v-105h-539v83z" />
    <glyph glyph-name="zacute" unicode="&#x17a;" horiz-adv-x="501" 
d="M248 709h133l-86 -174h-116zM40 79l255 305h-248v96h406v-79l-254 -305h262v-96h-421v79z" />
    <glyph glyph-name="Zdotaccent" unicode="&#x17b;" horiz-adv-x="619" 
d="M252 771.5c-13.333 13 -20 28.501 -20 46.501c0 18.667 6.66699 34.5 20 47.5s29 19.5 47 19.5s33.5 -6.5 46.5 -19.5s19.5 -28.833 19.5 -47.5s-6.5 -34.334 -19.5 -47.001s-28.5 -19 -46.5 -19s-33.667 6.5 -47 19.5zM40 83.001l366 511h-357v105h512v-83l-365 -511
h383v-105h-539v83z" />
    <glyph glyph-name="zdotaccent" unicode="&#x17c;" horiz-adv-x="501" 
d="M204 564.5c-13.333 13 -20 28.501 -20 46.501c0 18.667 6.66699 34.5 20 47.5s29 19.5 47 19.5s33.5 -6.5 46.5 -19.5s19.5 -28.833 19.5 -47.5s-6.5 -34.334 -19.5 -47.001s-28.5 -19 -46.5 -19s-33.667 6.5 -47 19.5zM40 79.001l255 305h-248v96h406v-79l-254 -305h262
v-96h-421v79z" />
    <glyph glyph-name="Zcaron" unicode="&#x17d;" horiz-adv-x="619" 
d="M103 913h127l76 -100l76 100h126l-146 -171h-112zM40 83l366 511h-357v105h512v-83l-365 -511h383v-105h-539v83z" />
    <glyph glyph-name="zcaron" unicode="&#x17e;" horiz-adv-x="501" 
d="M53 706h127l76 -100l76 100h126l-146 -171h-112zM40 79l255 305h-248v96h406v-79l-254 -305h262v-96h-421v79z" />
    <glyph glyph-name="uni018F" unicode="&#x18f;" horiz-adv-x="826" 
d="M207.5 30.5c-55.667 30.333 -97.498 71.832 -125.498 124.499s-42 112.667 -42 180v60h611c-6.66699 66 -36 118.167 -88 156.5s-120.333 57.5 -205 57.5c-43.333 0 -88 -4 -134 -12s-85.667 -18.667 -119 -32v103c32.667 13.333 73.667 24.333 123 33
s98.666 13 147.999 13c86 0 159.667 -14.167 221 -42.5s108.166 -69.666 140.499 -123.999s48.5 -119.833 48.5 -196.5c0 -74 -14.333 -138.5 -43 -193.5s-71.167 -97.5 -127.5 -127.5s-124.5 -45 -204.5 -45s-147.833 15.167 -203.5 45.5zM585.502 144.999
c40.333 38.667 62.5 90.334 66.5 155.001h-490c3.33301 -64.667 25.333 -116.334 66 -155.001s100.667 -58 180 -58c78 0 137.167 19.333 177.5 58z" />
    <glyph glyph-name="florin" unicode="&#x192;" horiz-adv-x="525" 
d="M-95 -216l18.999 102c17.333 -8.66699 37 -13 59 -13c31.333 0 55.166 7 71.499 21s27.833 36 34.5 66l91 434h-77l16 86h80l17 83c26 120.667 100.667 181 224 181c36 0 64.333 -4.66699 85 -14l-19 -102c-16 8 -36.333 12 -61 12c-28.667 0 -51.5 -6.5 -68.5 -19.5
s-28.833 -35.167 -35.5 -66.5l-16 -74h128l-16 -86h-130l-94 -443c-13.333 -63.333 -38.166 -109.333 -74.499 -138s-86.166 -43 -149.499 -43c-34 0 -62 4.66699 -84 14z" />
    <glyph glyph-name="Ohorn" unicode="&#x1a0;" horiz-adv-x="872" 
d="M221.5 30.5c-56.333 30.333 -100.668 73.1699 -133.001 128.503s-48.5 118.666 -48.5 189.999s16.167 134.666 48.5 189.999s76.666 98.333 132.999 129s119.5 46 189.5 46c48 0 93.333 -7.66699 136 -23s80.334 -37 113.001 -65c32.667 0.666992 55 7 67 19
s18 34.333 18 67v35h117v-42c0 -41.333 -11.333 -77.833 -34 -109.5s-53.334 -52.834 -92.001 -63.501c30 -54 45 -115 45 -183c0 -71.333 -16.167 -134.5 -48.5 -189.5s-76.666 -97.833 -132.999 -128.5s-119.166 -46 -188.499 -46c-70 0 -133.167 15.167 -189.5 45.5z
M529.998 136.004c36 20 64.5 48.333 85.5 85s31.5 79.334 31.5 128.001c0 48 -10.333 90.5 -31 127.5s-49 65.5 -85 85.5s-76 30 -120 30s-84.167 -10 -120.5 -30s-64.833 -48.5 -85.5 -85.5s-31 -79.5 -31 -127.5c0 -48.667 10.5 -91.334 31.5 -128.001s49.5 -65 85.5 -85
s76 -30 120 -30c43.333 0 83 10 119 30z" />
    <glyph glyph-name="ohorn" unicode="&#x1a1;" horiz-adv-x="690" 
d="M173.5 15.5c-42.333 20.333 -75.168 49.666 -98.501 87.999s-35 83.833 -35 136.5c0 51.333 11.5 96.166 34.5 134.499s55.833 68 98.5 89s92 31.5 148 31.5c75.333 0 138.333 -19 189 -57c45.333 8 68 36.333 68 85v35h102v-42c0 -35.333 -9.5 -66.666 -28.5 -93.999
s-45.167 -47 -78.5 -59c19.333 -37.333 29 -78.333 29 -123c0 -52.667 -11.667 -98.167 -35 -136.5s-56.166 -67.666 -98.499 -87.999s-91.5 -30.5 -147.5 -30.5s-105.167 10.167 -147.5 30.5zM430.998 127.5c27.333 29 41 66.5 41 112.5
c0 48.667 -13.5 86.834 -40.5 114.501s-63.833 41.5 -110.5 41.5s-83.5 -13.833 -110.5 -41.5s-40.5 -65.834 -40.5 -114.501c0 -46 13.667 -83.5 41 -112.5s64 -43.5 110 -43.5s82.667 14.5 110 43.5z" />
    <glyph glyph-name="Uhorn" unicode="&#x1af;" horiz-adv-x="862" 
d="M130.5 62.5c-50.333 51.667 -75.5 121.5 -75.5 209.5v427h133v-429c0 -55.333 14.5 -96.5 43.5 -123.5s69.833 -40.5 122.5 -40.5c52 0 92.5 13.667 121.5 41s43.5 68.333 43.5 123v429h133v-74c32.667 0 54.667 6.33301 66 19s17 35.334 17 68.001v35h117v-42
c0 -53.333 -16.333 -96.333 -49 -129s-83 -49.334 -151 -50.001v-254c0 -88 -25 -157.833 -75 -209.5s-124.333 -77.5 -223 -77.5s-173.167 25.833 -223.5 77.5z" />
    <glyph glyph-name="uhorn" unicode="&#x1b0;" horiz-adv-x="738" 
d="M103 37.5c-32 35 -47.999 81.5 -47.999 139.5v303h126v-291c0 -70 32.667 -105 98 -105c28.667 0 55.667 6.83301 81 20.5s46.666 34.167 63.999 61.5v314h126v-45c25.333 2.66699 44.333 11.167 57 25.5s19 33.833 19 58.5v39h102v-42c0 -46 -15.5 -84.167 -46.5 -114.5
s-74.833 -46.833 -131.5 -49.5v-352h-122v65c-22.667 -27.333 -49.667 -47.5 -81 -60.5s-64.333 -19.5 -99 -19.5c-64.667 0 -113 17.5 -145 52.5z" />
    <glyph glyph-name="uni01CD" unicode="&#x1cd;" horiz-adv-x="762" 
d="M179 913h127l76 -100l76 100h126l-146 -171h-112zM320 699h123l279 -699h-129l-64 161h-296l-63 -161h-130zM494 266l-113 297l-113 -297h226z" />
    <glyph glyph-name="uni01CE" unicode="&#x1ce;" horiz-adv-x="577" 
d="M108 706h127l76 -100l76 100h126l-146 -171h-112zM95 30.5c-36.667 30.333 -55.001 71.167 -55.001 122.5c0 53.333 17.333 95 52 125s83.334 45 146.001 45c60.667 0 113 -12.333 157 -37v13c0 34 -10.5 58.667 -31.5 74s-54.833 23 -101.5 23
c-29.333 0 -58.333 -2.83301 -87 -8.5s-54 -13.5 -76 -23.5v99c20 9.33301 46.833 17 80.5 23s66.167 9 97.5 9c83.333 0 145 -17.833 185 -53.5s60 -85.167 60 -148.5v-293h-119v47c-20.667 -20 -44.167 -35.333 -70.5 -46s-58.5 -16 -96.5 -16
c-57.333 0 -104.333 15.167 -141 45.5zM342.999 93.501c22.667 11 40 26.167 52 45.5v53c-36.667 26 -78.667 39 -126 39c-67.333 0 -101 -26 -101 -78c0 -25.333 8.5 -44.333 25.5 -57s41.5 -19 73.5 -19c28 0 53.333 5.5 76 16.5z" />
    <glyph glyph-name="uni01CF" unicode="&#x1cf;" horiz-adv-x="247" 
d="M-78 935h127l76 -100l76 100h126l-146 -171h-112zM60 699h127v-699h-127v699z" />
    <glyph glyph-name="uni01D0" unicode="&#x1d0;" horiz-adv-x="248" 
d="M-78 706h127l76 -100l76 100h126l-146 -171h-112zM60 480h128v-480h-128v480z" />
    <glyph glyph-name="uni01D1" unicode="&#x1d1;" horiz-adv-x="821" 
d="M207 913h127l76 -100l76 100h126l-146 -171h-112zM221.5 30.5c-56.333 30.333 -100.666 73.168 -132.999 128.501s-48.5 118.666 -48.5 189.999s16.167 134.666 48.5 189.999s76.666 98.333 132.999 129s119.5 46 189.5 46c69.333 0 132.166 -15.333 188.499 -46
s100.666 -73.667 132.999 -129s48.5 -118.666 48.5 -189.999s-16.167 -134.5 -48.5 -189.5s-76.666 -97.833 -132.999 -128.5s-119.166 -46 -188.499 -46c-70 0 -133.167 15.167 -189.5 45.5zM533 130.502c36.667 20.333 65.832 49.333 87.499 87s32.5 81.5 32.5 131.5
c0 49.333 -10.667 92.833 -32 130.5s-50.333 66.834 -87 87.501s-77.667 31 -123 31s-86.5 -10.333 -123.5 -31s-66.167 -49.834 -87.5 -87.501s-32 -81.167 -32 -130.5c0 -50 10.833 -93.833 32.5 -131.5s51 -66.667 88 -87s77.833 -30.5 122.5 -30.5
s85.334 10.167 122.001 30.5z" />
    <glyph glyph-name="uni01D2" unicode="&#x1d2;" horiz-adv-x="678" 
d="M155 706h127l76 -100l76 100h126l-146 -171h-112zM209.5 15.5c-42.333 20.333 -75.167 49.666 -98.5 87.999s-35 83.833 -35 136.5c0 51.333 11.5 96.166 34.5 134.499s55.833 68 98.5 89s92 31.5 148 31.5s105.167 -10.5 147.5 -31.5s75.166 -50.667 98.499 -89
s35 -83.166 35 -134.499c0 -52.667 -11.667 -98.167 -35 -136.5s-56.166 -67.666 -98.499 -87.999s-91.5 -30.5 -147.5 -30.5s-105.167 10.167 -147.5 30.5zM466.999 127.5c27.333 29 41 66.5 41 112.5c0 48.667 -13.5 86.834 -40.5 114.501s-63.833 41.5 -110.5 41.5
s-83.5 -13.833 -110.5 -41.5s-40.5 -65.834 -40.5 -114.501c0 -46 13.667 -83.5 41 -112.5s64 -43.5 110 -43.5s82.667 14.5 110 43.5z" />
    <glyph glyph-name="uni01D3" unicode="&#x1d3;" horiz-adv-x="707" 
d="M151 913h127l76 -100l76 100h126l-146 -171h-112zM130.5 62.5c-50.333 51.667 -75.5 121.5 -75.5 209.5v427h127v-429c0 -55.333 15.5 -97.5 46.5 -126.5s72.833 -43.5 125.5 -43.5c52 0 93.5 14.5 124.5 43.5s46.5 71.167 46.5 126.5v429h127v-427
c0 -88 -25 -157.833 -75 -209.5s-124.333 -77.5 -223 -77.5s-173.167 25.833 -223.5 77.5z" />
    <glyph glyph-name="uni01D4" unicode="&#x1d4;" horiz-adv-x="610" 
d="M100 706h127l76 -100l76 100h126l-146 -171h-112zM103 37.5c-32 35 -47.999 81.5 -47.999 139.5v303h126v-291c0 -70 32.667 -105 98 -105c28.667 0 55.667 6.83301 81 20.5s46.666 34.167 63.999 61.5v314h126v-480h-122v65c-22.667 -27.333 -49.667 -47.5 -81 -60.5
s-64.333 -19.5 -99 -19.5c-64.667 0 -113 17.5 -145 52.5z" />
    <glyph glyph-name="uni01D5" unicode="&#x1d5;" horiz-adv-x="707" 
d="M192 1013h323v-84h-323v84zM188 771.5c-13.333 13 -20 28.501 -20 46.501c0 18.667 6.66699 34.5 20 47.5s29 19.5 47 19.5s33.5 -6.5 46.5 -19.5s19.5 -28.833 19.5 -47.5s-6.5 -34.334 -19.5 -47.001s-28.5 -19 -46.5 -19s-33.667 6.5 -47 19.5zM425 771.501
c-13.333 13 -20 28.501 -20 46.501c0 18.667 6.66699 34.5 20 47.5s29 19.5 47 19.5s33.5 -6.5 46.5 -19.5s19.5 -28.833 19.5 -47.5s-6.5 -34.334 -19.5 -47.001s-28.5 -19 -46.5 -19s-33.667 6.5 -47 19.5zM130.5 62.502c-50.333 51.667 -75.5 121.5 -75.5 209.5v427h127
v-429c0 -55.333 15.5 -97.5 46.5 -126.5s72.833 -43.5 125.5 -43.5c52 0 93.5 14.5 124.5 43.5s46.5 71.167 46.5 126.5v429h127v-427c0 -88 -25 -157.833 -75 -209.5s-124.333 -77.5 -223 -77.5s-173.167 25.833 -223.5 77.5z" />
    <glyph glyph-name="uni01D6" unicode="&#x1d6;" horiz-adv-x="610" 
d="M142 808h323v-84h-323v84zM138 564.5c-13.333 13 -20 28.501 -20 46.501c0 18.667 6.66699 34.5 20 47.5s29 19.5 47 19.5s33.5 -6.5 46.5 -19.5s19.5 -28.833 19.5 -47.5s-6.5 -34.334 -19.5 -47.001s-28.5 -19 -46.5 -19s-33.667 6.5 -47 19.5zM375 564.501
c-13.333 13 -20 28.501 -20 46.501c0 18.667 6.66699 34.5 20 47.5s29 19.5 47 19.5s33.5 -6.5 46.5 -19.5s19.5 -28.833 19.5 -47.5s-6.5 -34.334 -19.5 -47.001s-28.5 -19 -46.5 -19s-33.667 6.5 -47 19.5zM103 37.502c-32 35 -47.999 81.5 -47.999 139.5v303h126v-291
c0 -70 32.667 -105 98 -105c28.667 0 55.667 6.83301 81 20.5s46.666 34.167 63.999 61.5v314h126v-480h-122v65c-22.667 -27.333 -49.667 -47.5 -81 -60.5s-64.333 -19.5 -99 -19.5c-64.667 0 -113 17.5 -145 52.5z" />
    <glyph glyph-name="uni01D7" unicode="&#x1d7;" horiz-adv-x="707" 
d="M364 992h117l-77 -128h-101zM180 771.5c-13.333 13 -20 28.501 -20 46.501c0 18.667 6.66699 34.5 20 47.5s29 19.5 47 19.5s33.5 -6.5 46.5 -19.5s19.5 -28.833 19.5 -47.5s-6.5 -34.334 -19.5 -47.001s-28.5 -19 -46.5 -19s-33.667 6.5 -47 19.5zM437 771.501
c-13.333 13 -20 28.501 -20 46.501c0 18.667 6.66699 34.5 20 47.5s29 19.5 47 19.5s33.5 -6.5 46.5 -19.5s19.5 -28.833 19.5 -47.5s-6.5 -34.334 -19.5 -47.001s-28.5 -19 -46.5 -19s-33.667 6.5 -47 19.5zM130.5 62.502c-50.333 51.667 -75.5 121.5 -75.5 209.5v427h127
v-429c0 -55.333 15.5 -97.5 46.5 -126.5s72.833 -43.5 125.5 -43.5c52 0 93.5 14.5 124.5 43.5s46.5 71.167 46.5 126.5v429h127v-427c0 -88 -25 -157.833 -75 -209.5s-124.333 -77.5 -223 -77.5s-173.167 25.833 -223.5 77.5z" />
    <glyph glyph-name="uni01D8" unicode="&#x1d8;" horiz-adv-x="610" 
d="M305 785h117l-77 -128h-101zM121 564.5c-13.333 13 -20 28.501 -20 46.501c0 18.667 6.66699 34.5 20 47.5s29 19.5 47 19.5s33.5 -6.5 46.5 -19.5s19.5 -28.833 19.5 -47.5s-6.5 -34.334 -19.5 -47.001s-28.5 -19 -46.5 -19s-33.667 6.5 -47 19.5zM378 564.501
c-13.333 13 -20 28.501 -20 46.501c0 18.667 6.66699 34.5 20 47.5s29 19.5 47 19.5s33.5 -6.5 46.5 -19.5s19.5 -28.833 19.5 -47.5s-6.5 -34.334 -19.5 -47.001s-28.5 -19 -46.5 -19s-33.667 6.5 -47 19.5zM103 37.502c-32 35 -47.999 81.5 -47.999 139.5v303h126v-291
c0 -70 32.667 -105 98 -105c28.667 0 55.667 6.83301 81 20.5s46.666 34.167 63.999 61.5v314h126v-480h-122v65c-22.667 -27.333 -49.667 -47.5 -81 -60.5s-64.333 -19.5 -99 -19.5c-64.667 0 -113 17.5 -145 52.5z" />
    <glyph glyph-name="uni01D9" unicode="&#x1d9;" horiz-adv-x="707" 
d="M183 1000h106l64 -75l64 75h107l-124 -136h-94zM177.5 771c-13 12.667 -19.5 28.333 -19.5 47s6.5 34.5 19.5 47.5s28.5 19.5 46.5 19.5s33.667 -6.5 47 -19.5s20 -28.833 20 -47.5c0 -18 -6.66699 -33.5 -20 -46.5s-29 -19.5 -47 -19.5s-33.5 6.33301 -46.5 19z
M434.5 770.999c-13 12.667 -19.5 28.333 -19.5 47s6.5 34.5 19.5 47.5s28.5 19.5 46.5 19.5s33.667 -6.5 47 -19.5s20 -28.833 20 -47.5c0 -18 -6.66699 -33.5 -20 -46.5s-29 -19.5 -47 -19.5s-33.5 6.33301 -46.5 19zM130.5 62.498c-50.333 51.667 -75.5 121.5 -75.5 209.5
v427h127v-429c0 -55.333 15.5 -97.5 46.5 -126.5s72.833 -43.5 125.5 -43.5c52 0 93.5 14.5 124.5 43.5s46.5 71.167 46.5 126.5v429h127v-427c0 -88 -25 -157.833 -75 -209.5s-124.333 -77.5 -223 -77.5s-173.167 25.833 -223.5 77.5z" />
    <glyph glyph-name="uni01DA" unicode="&#x1da;" horiz-adv-x="610" 
d="M121 793h106l64 -75l64 75h107l-124 -136h-94zM115.5 564c-13 12.667 -19.5 28.333 -19.5 47s6.5 34.5 19.5 47.5s28.5 19.5 46.5 19.5s33.667 -6.5 47 -19.5s20 -28.833 20 -47.5c0 -18 -6.66699 -33.5 -20 -46.5s-29 -19.5 -47 -19.5s-33.5 6.33301 -46.5 19z
M372.5 563.999c-13 12.667 -19.5 28.333 -19.5 47s6.5 34.5 19.5 47.5s28.5 19.5 46.5 19.5s33.667 -6.5 47 -19.5s20 -28.833 20 -47.5c0 -18 -6.66699 -33.5 -20 -46.5s-29 -19.5 -47 -19.5s-33.5 6.33301 -46.5 19zM103 37.498c-32 35 -47.999 81.5 -47.999 139.5v303
h126v-291c0 -70 32.667 -105 98 -105c28.667 0 55.667 6.83301 81 20.5s46.666 34.167 63.999 61.5v314h126v-480h-122v65c-22.667 -27.333 -49.667 -47.5 -81 -60.5s-64.333 -19.5 -99 -19.5c-64.667 0 -113 17.5 -145 52.5z" />
    <glyph glyph-name="uni01DB" unicode="&#x1db;" horiz-adv-x="707" 
d="M230 992h117l61 -128h-101zM180.5 771c-13 12.667 -19.5 28.333 -19.5 47s6.5 34.5 19.5 47.5s28.5 19.5 46.5 19.5s33.667 -6.5 47 -19.5s20 -28.833 20 -47.5c0 -18 -6.66699 -33.5 -20 -46.5s-29 -19.5 -47 -19.5s-33.5 6.33301 -46.5 19zM437.5 770.999
c-13 12.667 -19.5 28.333 -19.5 47s6.5 34.5 19.5 47.5s28.5 19.5 46.5 19.5s33.667 -6.5 47 -19.5s20 -28.833 20 -47.5c0 -18 -6.66699 -33.5 -20 -46.5s-29 -19.5 -47 -19.5s-33.5 6.33301 -46.5 19zM130.5 62.498c-50.333 51.667 -75.5 121.5 -75.5 209.5v427h127v-429
c0 -55.333 15.5 -97.5 46.5 -126.5s72.833 -43.5 125.5 -43.5c52 0 93.5 14.5 124.5 43.5s46.5 71.167 46.5 126.5v429h127v-427c0 -88 -25 -157.833 -75 -209.5s-124.333 -77.5 -223 -77.5s-173.167 25.833 -223.5 77.5z" />
    <glyph glyph-name="uni01DC" unicode="&#x1dc;" horiz-adv-x="610" 
d="M175 785h117l61 -128h-101zM125.5 564c-13 12.667 -19.5 28.333 -19.5 47s6.5 34.5 19.5 47.5s28.5 19.5 46.5 19.5s33.667 -6.5 47 -19.5s20 -28.833 20 -47.5c0 -18 -6.66699 -33.5 -20 -46.5s-29 -19.5 -47 -19.5s-33.5 6.33301 -46.5 19zM382.5 563.999
c-13 12.667 -19.5 28.333 -19.5 47s6.5 34.5 19.5 47.5s28.5 19.5 46.5 19.5s33.667 -6.5 47 -19.5s20 -28.833 20 -47.5c0 -18 -6.66699 -33.5 -20 -46.5s-29 -19.5 -47 -19.5s-33.5 6.33301 -46.5 19zM103 37.498c-32 35 -47.999 81.5 -47.999 139.5v303h126v-291
c0 -70 32.667 -105 98 -105c28.667 0 55.667 6.83301 81 20.5s46.666 34.167 63.999 61.5v314h126v-480h-122v65c-22.667 -27.333 -49.667 -47.5 -81 -60.5s-64.333 -19.5 -99 -19.5c-64.667 0 -113 17.5 -145 52.5z" />
    <glyph glyph-name="Gcaron" unicode="&#x1e6;" horiz-adv-x="713" 
d="M196 913h127l76 -100l76 100h126l-146 -171h-112zM219 29.5c-56.667 29.667 -100.666 72.002 -131.999 127.002s-47 119.167 -47 192.5s15.667 137.5 47 192.5s75.333 97.5 132 127.5s121.667 45 195 45c50 0 94.667 -5.33301 134 -16s75 -27.667 107 -51v-121
c-29.333 25.333 -63 43.666 -101 54.999s-81 17 -129 17s-91.5 -10.167 -130.5 -30.5s-69.833 -49.333 -92.5 -87s-34 -81.5 -34 -131.5c0 -50.667 10.667 -94.834 32 -132.501s51 -66.667 89 -87s81.333 -30.5 130 -30.5c51.333 0 93.666 8.66699 126.999 26v157h-118v101
h245v-326c-62 -48 -148.333 -72 -259 -72c-73.333 0 -138.333 14.833 -195 44.5z" />
    <glyph glyph-name="gcaron" unicode="&#x1e7;" horiz-adv-x="665" 
d="M120 706h127l76 -100l76 100h126l-146 -171h-112zM218 -221c-32 6 -58.666 13.998 -79.999 23.998v100c52 -22.667 110.667 -34 176 -34c58.667 0 100.834 12.333 126.501 37s38.5 61.334 38.5 110.001v31c-22.667 -20.667 -49.667 -36.167 -81 -46.5
s-65 -15.5 -101 -15.5c-48.667 0 -92.667 10.833 -132 32.5s-70 51.834 -92 90.501s-33 83 -33 133c0 50.667 10.833 95.167 32.5 133.5s51.667 68 90 89s81.833 31.5 130.5 31.5c40.667 0 75.667 -5.5 105 -16.5s57.666 -29.167 84.999 -54.5v56h122v-451
c0 -82.667 -23.833 -146.5 -71.5 -191.5s-120.834 -67.5 -219.501 -67.5c-32 0 -64 3 -96 9zM420.501 113.498c28.333 19.667 47.833 45.833 58.5 78.5v97c-11.333 32.667 -31 58.667 -59 78s-60 29 -96 29c-45.333 0 -82.666 -14.333 -111.999 -43s-44 -66 -44 -112
s14.667 -83.667 44 -113s66.666 -44 111.999 -44c36 0 68.167 9.83301 96.5 29.5z" />
    <glyph glyph-name="Aringacute" unicode="&#x1fa;" horiz-adv-x="762" 
d="M439 919h-116l69 139h133zM722 0h-128.998l-64 161h-296l-63 -161h-130l271 676c-16.667 11.333 -29.834 25.833 -39.501 43.5s-14.5 37.167 -14.5 58.5c0 34.667 12 64.167 36 88.5s53.333 36.5 88 36.5s64.167 -12.167 88.5 -36.5s36.5 -53.833 36.5 -88.5
c0 -21.333 -4.83301 -40.833 -14.5 -58.5s-22.834 -32.167 -39.501 -43.5zM345.002 814c-10 -10 -15 -22 -15 -36s5 -26 15 -36s22 -15 36 -15s26 5 36 15s15 22 15 36s-5 26 -15 36s-22 15 -36 15s-26 -5 -36 -15zM494.002 266l-113 297l-113 -297h226z" />
    <glyph glyph-name="aringacute" unicode="&#x1fb;" horiz-adv-x="577" 
d="M316 958h133l-86 -139h-116zM216 571c-24 24 -36 53.333 -36 88s12 64.167 36 88.5s53.333 36.5 88 36.5s64.167 -12.167 88.5 -36.5s36.5 -53.833 36.5 -88.5s-12.167 -64 -36.5 -88s-53.833 -36 -88.5 -36s-64 12 -88 36zM340 623c10 10 15 22 15 36s-5 26 -15 36
s-22 15 -36 15s-26 -5 -36 -15s-15 -22 -15 -36s5 -26 15 -36s22 -15 36 -15s26 5 36 15zM95 30.5c-36.667 30.333 -55.001 71.167 -55.001 122.5c0 53.333 17.333 95 52 125s83.334 45 146.001 45c60.667 0 113 -12.333 157 -37v13c0 34 -10.5 58.667 -31.5 74
s-54.833 23 -101.5 23c-29.333 0 -58.333 -2.83301 -87 -8.5s-54 -13.5 -76 -23.5v99c20 9.33301 46.833 17 80.5 23s66.167 9 97.5 9c83.333 0 145 -17.833 185 -53.5s60 -85.167 60 -148.5v-293h-119v47c-20.667 -20 -44.167 -35.333 -70.5 -46s-58.5 -16 -96.5 -16
c-57.333 0 -104.333 15.167 -141 45.5zM342.999 93.501c22.667 11 40 26.167 52 45.5v53c-36.667 26 -78.667 39 -126 39c-67.333 0 -101 -26 -101 -78c0 -25.333 8.5 -44.333 25.5 -57s41.5 -19 73.5 -19c28 0 53.333 5.5 76 16.5z" />
    <glyph glyph-name="AEacute" unicode="&#x1fc;" horiz-adv-x="924" 
d="M561 916h133l-86 -174h-116zM371 699h513v-105h-311v-192h222v-105h-222v-192h311v-105h-438v171h-191l-79 -171h-136zM446 266v316h-3l-140 -316h143z" />
    <glyph glyph-name="aeacute" unicode="&#x1fd;" horiz-adv-x="969" 
d="M477 709h133l-86 -174h-116zM94.5 30c-36.333 30 -54.501 71.001 -54.501 123.001c0 53.333 17.333 95 52 125s83.334 45 146.001 45c60.667 0 113 -12.333 157 -37v13c0 34 -10.5 58.667 -31.5 74s-54.833 23 -101.5 23c-29.333 0 -58.333 -2.83301 -87 -8.5
s-54 -13.5 -76 -23.5v99c20 9.33301 46.833 17 80.5 23s66.167 9 97.5 9c86.667 0 150.667 -23.333 192 -70c22.667 22.667 50.834 40 84.501 52s71.167 18 112.5 18c56 0 103.833 -10.667 143.5 -32s69.5 -50.5 89.5 -87.5s30 -79.167 30 -126.5v-58h-407
c8.66699 -71.333 70 -107 184 -107c30.667 0 62 2.66699 94 8s60 12.666 84 21.999v-97c-22.667 -9.33301 -51.834 -17 -87.501 -23s-71.167 -9 -106.5 -9c-92.667 0 -167.334 25.667 -224.001 77c-27.333 -25.333 -58 -44.5 -92 -57.5s-77.333 -19.5 -130 -19.5
c-63.333 0 -113.166 15 -149.499 45zM809.999 277.001c-1.33301 38 -14.832 67.333 -40.499 88s-60.834 31 -105.501 31c-43.333 0 -77.5 -10.667 -102.5 -32s-38.167 -50.333 -39.5 -87h288zM342.5 92.501c22.333 10.333 39.833 24.833 52.5 43.5v56
c-36.667 26 -78.667 39 -126 39c-67.333 0 -101 -26 -101 -78c0 -25.333 8.5 -44.333 25.5 -57s41.5 -19 73.5 -19c28 0 53.167 5.16699 75.5 15.5z" />
    <glyph glyph-name="Oslashacute" unicode="&#x1fe;" horiz-adv-x="821" 
d="M419 916h133l-86 -174h-116zM222 30c-56.667 30.667 -101.168 73.6689 -133.501 129.002s-48.5 118.666 -48.5 189.999s16.167 134.666 48.5 189.999s76.666 98.333 132.999 129s119.5 46 189.5 46c26.667 0 54 -2.66699 82 -8l32 78h124l-47 -118
c55.333 -30.667 99 -73.5 131 -128.5s48 -117.833 48 -188.5c0 -71.333 -16.167 -134.5 -48.5 -189.5s-76.666 -97.833 -132.999 -128.5s-119.166 -46 -188.499 -46c-26 0 -53 2.66699 -81 8l-31 -79h-124zM448.999 595.002c-12.667 2 -25.334 2.99902 -38.001 2.99902
c-45.333 0 -86.5 -10.333 -123.5 -31s-66.167 -49.834 -87.5 -87.501s-32 -81.167 -32 -130.5c0 -45.333 8.83301 -85.666 26.5 -120.999s41.834 -63.666 72.501 -84.999zM532.999 130.501c36.667 20.333 65.832 49.333 87.499 87s32.5 81.5 32.5 131.5
c0 44 -8.66699 83.5 -26 118.5s-41 63.5 -71 85.5l-181 -451c14.667 -1.33301 26.667 -2 36 -2c44.667 0 85.334 10.167 122.001 30.5z" />
    <glyph glyph-name="oslashacute" unicode="&#x1ff;" horiz-adv-x="642" 
d="M291 709h133l-86 -174h-116zM167 18c-40.667 20.667 -72.001 50.002 -94.001 88.002s-33 82.667 -33 134s11.5 96.166 34.5 134.499s55.833 68 98.5 89s92 31.5 148 31.5c8.66699 0 21 -0.666992 37 -2l29 73h124l-42 -103c42 -20.667 74.667 -50.334 98 -89.001
s35 -83.334 35 -134.001c0 -52.667 -11.667 -98.167 -35 -136.5s-56.166 -67.666 -98.499 -87.999s-91.5 -30.5 -147.5 -30.5c-10 0 -24.333 0.666992 -43 2l-29 -73h-124zM318.999 396.002c-46 -0.666992 -82.333 -14.832 -109 -42.499s-40 -65.5 -40 -113.5
c0 -46.667 13.667 -84.334 41 -113.001zM320.999 84.0039c46 0 82.667 14.5 110 43.5s41 66.5 41 112.5c0 50.667 -15 90 -45 118l-110 -274h4z" />
    <glyph glyph-name="Scommaaccent" unicode="&#x218;" horiz-adv-x="567" 
d="M139.5 -3.5c-40.333 7.66699 -73.501 17.8301 -99.501 30.4971v109c33.333 -16 68.333 -28 105 -36s72.667 -12 108 -12c44.667 0 78.667 8.33301 102 25s35 39.667 35 69c0 20.667 -5.33301 37.834 -16 51.501s-26.334 25.667 -47.001 36s-52.334 23.833 -95.001 40.5
c-65.333 26.667 -112.666 56.334 -141.999 89.001s-44 73.334 -44 122.001c0 38 10.333 71.667 31 101s49.667 52 87 68s80.333 24 129 24c40 0 75.5 -3.16699 106.5 -9.5s61.5 -16.166 91.5 -29.499v-106c-58 28 -116.667 42 -176 42c-42.667 0 -75.667 -7.83301 -99 -23.5
s-35 -37.834 -35 -66.501c0 -20.667 5.33301 -37.5 16 -50.5s24.834 -24 42.501 -33s49.5 -23.167 95.5 -42.5c46.667 -19.333 83.5 -38.333 110.5 -57s47.333 -40.5 61 -65.5s20.5 -55.5 20.5 -91.5c0 -62 -22.333 -110.167 -67 -144.5s-110.667 -51.5 -198 -51.5
c-41.333 0 -82.166 3.83301 -122.499 11.5zM203.999 -56.0039h131l-98 -203h-115z" />
    <glyph glyph-name="scommaaccent" unicode="&#x219;" horiz-adv-x="499" 
d="M136 -3c-39.333 8 -69.999 19.001 -91.999 33.001v107c26 -16 57 -28.833 93 -38.5s70 -14.5 102 -14.5s55.333 2.83301 70 8.5s22 16.167 22 31.5c0 12 -3.83301 21.833 -11.5 29.5s-20 14.667 -37 21s-43.167 14.166 -78.5 23.499c-40 11.333 -71.5 23 -94.5 35
s-40.333 27.167 -52 45.5s-17.5 42.166 -17.5 71.499c0 48 19 84.167 57 108.5s89.333 36.5 154 36.5c33.333 0 66.5 -3.16699 99.5 -9.5s58.833 -15.166 77.5 -26.499v-103c-20 12 -44.333 21.667 -73 29s-58 11 -88 11c-32.667 0 -57.334 -3.16699 -74.001 -9.5
s-25 -18.5 -25 -36.5c0 -12 4.5 -21.5 13.5 -28.5s20.833 -13 35.5 -18s41.334 -12.5 80.001 -22.5c41.333 -11.333 73.666 -23.666 96.999 -36.999s40 -29.333 50 -48s15 -42 15 -70c0 -42.667 -18.167 -76.834 -54.5 -102.501s-88.833 -38.5 -157.5 -38.5
c-34.667 0 -71.667 4 -111 12zM184.001 -55.999h131l-98 -203h-115z" />
    <glyph glyph-name="uni021A" unicode="&#x21a;" horiz-adv-x="589" 
d="M231 594h-211v105h549v-105h-211v-594h-127v594zM226 -56h131l-98 -203h-115z" />
    <glyph glyph-name="uni021B" unicode="&#x21b;" horiz-adv-x="388" 
d="M133 29c-27.333 29.333 -41 70.667 -41 124v231h-72v96h72v144h126v-144h115v-96h-115v-215c0 -30.667 5.66699 -52.5 17 -65.5s32 -19.5 62 -19.5c20.667 0 41 4.66699 61 14v-96c-28.667 -11.333 -63.667 -17 -105 -17c-52.667 0 -92.667 14.667 -120 44zM178 -55.999
h131l-98 -203h-115z" />
    <glyph glyph-name="uni0237" unicode="&#x237;" horiz-adv-x="249" 
d="M-80 -218l0.000976562 102c18 -8 38.667 -12 62 -12c27.333 0 47.666 6.83301 60.999 20.5s20 35.167 20 64.5v523h126v-536c0 -58 -16.667 -101.667 -50 -131s-78.333 -44 -135 -44c-32 0 -60 4.33301 -84 13z" />
    <glyph glyph-name="uni0251" unicode="&#x251;" horiz-adv-x="665" 
d="M162.5 16.5c-38.333 21 -68.334 50.666 -90.001 88.999s-32.5 82.833 -32.5 133.5c0 50 10.833 94.333 32.5 133s51.667 68.834 90 90.501s81.833 32.5 130.5 32.5c78.667 0 140.667 -20.667 186 -62v47h126v-480h-122v56c-27.333 -25.333 -55.666 -43.5 -84.999 -54.5
s-64.333 -16.5 -105 -16.5c-48.667 0 -92.167 10.5 -130.5 31.5zM419.999 112.999c28 19.333 47.667 45.332 59 77.999v97c-10.667 32.667 -30.167 58.834 -58.5 78.501s-60.5 29.5 -96.5 29.5c-45.333 0 -82.666 -14.667 -111.999 -44s-44 -67 -44 -113
s14.667 -83.333 44 -112s66.666 -43 111.999 -43c36 0 68 9.66699 96 29z" />
    <glyph glyph-name="uni0259" unicode="&#x259;" horiz-adv-x="609" 
d="M159.5 17c-39.667 21.333 -69.501 50.499 -89.501 87.499s-30 79.167 -30 126.5v58h409c-8.66699 71.333 -70.667 107 -186 107c-30.667 0 -62 -2.66699 -94 -8s-60 -12.666 -84 -21.999v97c22.667 9.33301 51.834 17 87.501 23s71.167 9 106.5 9
c89.333 0 160 -22.333 212 -67s78 -107 78 -187c0 -78.667 -23 -141 -69 -187s-111.667 -69 -197 -69c-56 0 -103.833 10.667 -143.5 32zM408.999 115.999c25.333 21.333 38.666 50.333 39.999 87h-290c1.33301 -38 14.833 -67.333 40.5 -88s60.834 -31 105.501 -31
c44 0 78.667 10.667 104 32z" />
    <glyph glyph-name="uni02BB" unicode="&#x2bb;" horiz-adv-x="268" 
d="M120 714h108l-66 -196h-122z" />
    <glyph glyph-name="uni02BC" unicode="&#x2bc;" horiz-adv-x="268" 
d="M106 714h122l-80 -196h-108z" />
    <glyph glyph-name="uni02BE" unicode="&#x2be;" 
d="M-76 615c22.667 0 39.5 4.16699 50.5 12.5s16.5 22.833 16.5 43.5s-5.5 35.167 -16.5 43.5s-27.833 12.5 -50.5 12.5v90c47.333 0 85.166 -12.167 113.499 -36.5s42.5 -60.833 42.5 -109.5s-14.167 -85.167 -42.5 -109.5s-66.166 -36.5 -113.499 -36.5v90z" />
    <glyph glyph-name="uni02BF" unicode="&#x2bf;" 
d="M-33.5 561.5c-28.333 24.333 -42.5 60.833 -42.5 109.5s14.167 85.167 42.5 109.5s66.166 36.5 113.499 36.5v-90c-22.667 0 -39.5 -4.16699 -50.5 -12.5s-16.5 -22.833 -16.5 -43.5s5.5 -35.167 16.5 -43.5s27.833 -12.5 50.5 -12.5v-90
c-47.333 0 -85.166 12.167 -113.499 36.5z" />
    <glyph glyph-name="circumflex" unicode="&#x2c6;" horiz-adv-x="485" 
d="M187 763h112l146 -171h-126l-76 99l-76 -99h-127z" />
    <glyph glyph-name="caron" unicode="&#x2c7;" horiz-adv-x="485" 
d="M40 763h127l76 -100l76 100h126l-146 -171h-112z" />
    <glyph glyph-name="uni02C8" unicode="&#x2c8;" 
d="M-48 761h94v-182h-94v182z" />
    <glyph glyph-name="uni02C9" unicode="&#x2c9;" horiz-adv-x="589" 
d="M128 678h332v-84h-332v84z" />
    <glyph glyph-name="uni02CA" unicode="&#x2ca;" 
d="M-34 758h133l-86 -174h-116z" />
    <glyph glyph-name="uni02CB" unicode="&#x2cb;" 
d="M-18 758h116l-69 -174h-133z" />
    <glyph glyph-name="uni02CC" unicode="&#x2cc;" 
d="M-48 -61h94v-182h-94v182z" />
    <glyph glyph-name="breve" unicode="&#x2d8;" horiz-adv-x="402" 
d="M83 612.5c-28.667 27.667 -42.998 64.167 -42.998 109.5h95c0 -22 5.66699 -38.667 17 -50s27.666 -17 48.999 -17s37.666 5.66699 48.999 17s17 28 17 50h95c0 -45.333 -14.333 -81.833 -43 -109.5s-68 -41.5 -118 -41.5s-89.333 13.833 -118 41.5z" />
    <glyph glyph-name="dotaccent" unicode="&#x2d9;" horiz-adv-x="213" 
d="M60 597.5c-13.333 13 -20 28.501 -20 46.501c0 18.667 6.66699 34.5 20 47.5s29 19.5 47 19.5s33.5 -6.5 46.5 -19.5s19.5 -28.833 19.5 -47.5s-6.5 -34.334 -19.5 -47.001s-28.5 -19 -46.5 -19s-33.667 6.5 -47 19.5z" />
    <glyph glyph-name="ring" unicode="&#x2da;" horiz-adv-x="329" 
d="M76 569c-24 24 -36 53.333 -36 88s12 64.167 36 88.5s53.333 36.5 88 36.5s64.167 -12.167 88.5 -36.5s36.5 -53.833 36.5 -88.5s-12.167 -64 -36.5 -88s-53.833 -36 -88.5 -36s-64 12 -88 36zM200 621c10 10 15 22 15 36s-5 26 -15 36s-22 15 -36 15s-26 -5 -36 -15
s-15 -22 -15 -36s5 -26 15 -36s22 -15 36 -15s26 5 36 15z" />
    <glyph glyph-name="ogonek" unicode="&#x2db;" horiz-adv-x="279" 
d="M71.5 -189.5c-21 15.667 -31.501 38.501 -31.501 68.501c0 25.333 6.66699 48.333 20 69s31 38 53 52h117c-26.667 -16 -46.5 -31.833 -59.5 -47.5s-19.5 -32.834 -19.5 -51.501c0 -12.667 3.83301 -22.5 11.5 -29.5s17.5 -10.5 29.5 -10.5
c16.667 0 32.334 3.66699 47.001 11v-72c-22.667 -8.66699 -51.667 -13 -87 -13c-32.667 0 -59.5 7.83301 -80.5 23.5z" />
    <glyph glyph-name="tilde" unicode="&#x2dc;" horiz-adv-x="469" 
d="M40 695c21.333 28.667 54.667 43 100 43c14.667 0 29 -2 43 -6s32 -10.333 54 -19c18.667 -8 35 -14.167 49 -18.5s28.333 -6.5 43 -6.5c41.333 0 74.666 17 99.999 51v-103c-20.667 -28 -54 -42 -100 -42c-16.667 0 -32.667 2.16699 -48 6.5s-33 10.833 -53 19.5
c-20 8 -36.167 14 -48.5 18s-25.5 6 -39.5 6c-19.333 0 -37.166 -4 -53.499 -12s-31.833 -21.333 -46.5 -40v103z" />
    <glyph glyph-name="hungarumlaut" unicode="&#x2dd;" horiz-adv-x="496" 
d="M110 743h122l-86 -174h-106zM333 743h123l-86 -174h-106z" />
    <glyph glyph-name="gravecomb" unicode="&#x300;" 
d="M-479 758h133l69 -174h-116z" />
    <glyph glyph-name="acutecomb" unicode="&#x301;" 
d="M-300 758h133l-86 -174h-116z" />
    <glyph glyph-name="uni0302" unicode="&#x302;" 
d="M-56 758h112l146 -171h-126l-76 99l-76 -99h-127z" />
    <glyph glyph-name="tildecomb" unicode="&#x303;" 
d="M-503 695c21.333 28.667 54.667 43 100 43c14.667 0 29 -2 43 -6s32 -10.333 54 -19c18.667 -8 35 -14.167 49 -18.5s28.333 -6.5 43 -6.5c41.333 0 74.666 17 99.999 51v-103c-20.667 -28 -54 -42 -100 -42c-16.667 0 -32.667 2.16699 -48 6.5s-33 10.833 -53 19.5
c-20 8 -36.167 14 -48.5 18s-25.5 6 -39.5 6c-19.333 0 -37.166 -4 -53.499 -12s-31.833 -21.333 -46.5 -40v103z" />
    <glyph glyph-name="uni0304" unicode="&#x304;" 
d="M-156 678h323v-84h-323v84z" />
    <glyph glyph-name="uni0306" unicode="&#x306;" 
d="M-118 612.5c-28.667 27.667 -42.998 64.167 -42.998 109.5h95c0 -22 5.66699 -38.667 17 -50s27.666 -17 48.999 -17s37.666 5.66699 48.999 17s17 28 17 50h95c0 -45.333 -14.333 -81.833 -43 -109.5s-68 -41.5 -118 -41.5s-89.333 13.833 -118 41.5z" />
    <glyph glyph-name="uni0307" unicode="&#x307;" 
d="M-47 597.5c-13.333 13 -20 28.501 -20 46.501c0 18.667 6.66699 34.5 20 47.5s29 19.5 47 19.5s33.5 -6.5 46.5 -19.5s19.5 -28.833 19.5 -47.5s-6.5 -34.334 -19.5 -47.001s-28.5 -19 -46.5 -19s-33.667 6.5 -47 19.5z" />
    <glyph glyph-name="uni0308" unicode="&#x308;" 
d="M-166 597.5c-13.333 13 -20 28.501 -20 46.501c0 18.667 6.66699 34.5 20 47.5s29 19.5 47 19.5s33.5 -6.5 46.5 -19.5s19.5 -28.833 19.5 -47.5s-6.5 -34.334 -19.5 -47.001s-28.5 -19 -46.5 -19s-33.667 6.5 -47 19.5zM71 597.501c-13.333 13 -20 28.501 -20 46.501
c0 18.667 6.66699 34.5 20 47.5s29 19.5 47 19.5s33.5 -6.5 46.5 -19.5s19.5 -28.833 19.5 -47.5s-6.5 -34.334 -19.5 -47.001s-28.5 -19 -46.5 -19s-33.667 6.5 -47 19.5z" />
    <glyph glyph-name="hookabovecomb" unicode="&#x309;" 
d="M-410 640c30 0 52.668 3.66992 68.001 11.0029s23 20 23 38c0 13.333 -4.83301 22.833 -14.5 28.5s-25.5 8.5 -47.5 8.5c-8.66699 0 -20.334 -1.33301 -35.001 -4s-25 -5.33398 -31 -8.00098v66c12.667 4 28 7.33301 46 10s35.333 4 52 4c45.333 0 80 -9 104 -27
s36 -42.333 36 -73c0 -24.667 -8 -45.334 -24 -62.001s-38.333 -27.334 -67 -32.001v-34h-110v74z" />
    <glyph glyph-name="uni030A" unicode="&#x30a;" 
d="M-88 569c-24 24 -36 53.333 -36 88s12 64.167 36 88.5s53.333 36.5 88 36.5s64.167 -12.167 88.5 -36.5s36.5 -53.833 36.5 -88.5s-12.167 -64 -36.5 -88s-53.833 -36 -88.5 -36s-64 12 -88 36zM36 621c10 10 15 22 15 36s-5 26 -15 36s-22 15 -36 15s-26 -5 -36 -15
s-15 -22 -15 -36s5 -26 15 -36s22 -15 36 -15s26 5 36 15z" />
    <glyph glyph-name="uni030B" unicode="&#x30b;" 
d="M-149 758h123l-86 -174h-106zM75 758h122l-86 -174h-106z" />
    <glyph glyph-name="uni030C" unicode="&#x30c;" 
d="M-203 758h127l76 -100l76 100h126l-146 -171h-112z" />
    <glyph glyph-name="uni031B" unicode="&#x31b;" 
d="M-90 629c28.667 0 50.667 7.83301 66 23.5s23 35.5 23 59.5v35h101v-42c0 -48 -16.5 -87.333 -49.5 -118s-79.833 -46 -140.5 -46v88z" />
    <glyph glyph-name="dotbelowcomb" unicode="&#x323;" 
d="M-47 -159.5c-13.333 13 -20 28.501 -20 46.501c0 18.667 6.66699 34.5 20 47.5s29 19.5 47 19.5s33.5 -6.5 46.5 -19.5s19.5 -28.833 19.5 -47.5s-6.5 -34.334 -19.5 -47.001s-28.5 -19 -46.5 -19s-33.667 6.5 -47 19.5z" />
    <glyph glyph-name="uni0324" unicode="&#x324;" 
d="M-155 -159.5c-13.333 13 -20 28.501 -20 46.501c0 18.667 6.66699 34.5 20 47.5s29 19.5 47 19.5s33.5 -6.5 46.5 -19.5s19.5 -28.833 19.5 -47.5s-6.5 -34.334 -19.5 -47.001s-28.5 -19 -46.5 -19s-33.667 6.5 -47 19.5zM60 -159.499c-13.333 13 -20 28.501 -20 46.501
c0 18.667 6.66699 34.5 20 47.5s29 19.5 47 19.5s33.5 -6.5 46.5 -19.5s19.5 -28.833 19.5 -47.5s-6.5 -34.334 -19.5 -47.001s-28.5 -19 -46.5 -19s-33.667 6.5 -47 19.5z" />
    <glyph glyph-name="uni0326" unicode="&#x326;" 
d="M-171 -56h131l-98 -203h-115z" />
    <glyph glyph-name="uni0327" unicode="&#x327;" 
d="M-73 -244.5c-16.667 2.33301 -29.667 5.16699 -39 8.5l1 69c7.33301 -3.33301 16.333 -6.16602 27 -8.49902s21 -3.5 31 -3.5c39.333 0 59 13.667 59 41c0 16 -7.83301 28.833 -23.5 38.5s-40.834 14.5 -75.501 14.5l33 85h113l-20 -52
c28.667 -3.33301 50.834 -13.833 66.501 -31.5s23.5 -39.834 23.5 -66.501c0 -31.333 -13 -55.5 -39 -72.5s-61 -25.5 -105 -25.5c-18 0 -35.333 1.16699 -52 3.5z" />
    <glyph glyph-name="uni0328" unicode="&#x328;" 
d="M-65 -189.5c-20.667 15.667 -31 38.501 -31 68.501c0 25.333 6.66699 48.333 20 69s31 38 53 52h116c-26.667 -16 -46.5 -31.833 -59.5 -47.5s-19.5 -32.834 -19.5 -51.501c0 -12.667 3.83301 -22.5 11.5 -29.5s17.5 -10.5 29.5 -10.5c17.333 0 33.333 3.66699 48 11v-72
c-22.667 -8.66699 -51.667 -13 -87 -13c-33.333 0 -60.333 7.83301 -81 23.5z" />
    <glyph glyph-name="uni032E" unicode="&#x32e;" 
d="M-118 -168.5c-28.667 27.667 -42.998 64.167 -42.998 109.5h95c0 -22 5.66699 -38.667 17 -50s27.666 -17 48.999 -17s37.666 5.66699 48.999 17s17 28 17 50h95c0 -45.333 -14.333 -81.833 -43 -109.5s-68 -41.5 -118 -41.5s-89.333 13.833 -118 41.5z" />
    <glyph glyph-name="uni0331" unicode="&#x331;" 
d="M-156 -68h323v-83h-323v83z" />
    <glyph glyph-name="uni0394" unicode="&#x394;" horiz-adv-x="690" 
d="M40 86l250 628h110l250 -628v-86h-610v86zM530 103l-185 473l-186 -473h371z" />
    <glyph glyph-name="uni03A9" unicode="&#x3a9;" horiz-adv-x="818" 
d="M40 105h123c-36 28.667 -65.333 65.167 -88 109.5s-34 91.833 -34 142.5c0 70 15.167 132 45.5 186s73.333 96 129 126s120.167 45 193.5 45s137.833 -15 193.5 -45s98.667 -72 129 -126s45.5 -116 45.5 -186c0 -50.667 -11.333 -98.167 -34 -142.5
s-52 -80.833 -88 -109.5h123v-105h-296v95c111.333 61.333 167 148.666 167 261.999c0 48 -10.333 90.333 -31 127s-49.167 64.834 -85.5 84.501s-77.5 29.5 -123.5 29.5s-87.167 -9.83301 -123.5 -29.5s-64.833 -47.834 -85.5 -84.501s-31 -79 -31 -127
c0 -113.333 55.667 -200.666 167 -261.999v-95h-296v105z" />
    <glyph glyph-name="uni03BC" unicode="&#x3bc;" horiz-adv-x="615" 
d="M60 480l126.001 -0.000976562v-297c0 -33.333 8 -58.166 24 -74.499s40.667 -24.5 74 -24.5c28.667 0 55.667 6.83301 81 20.5s46.666 34.167 63.999 61.5v314h126v-480h-122v65c-22.667 -27.333 -49.667 -47.5 -81 -60.5s-64.333 -19.5 -99 -19.5
c-28 0 -50.333 4.66699 -67 14v-218h-126v699z" />
    <glyph glyph-name="pi" unicode="&#x3c0;" horiz-adv-x="696" 
d="M452 28.5c-30.667 29 -46 72.833 -46 131.5v215h-162v-375h-127v375h-87v105h590v-105h-87v-202c0 -30.667 5.16699 -52.5 15.5 -65.5s28.833 -19.5 55.5 -19.5c23.333 0 44 4 62 12v-102c-24 -8.66699 -52 -13 -84 -13c-56 0 -99.333 14.5 -130 43.5z" />
    <glyph glyph-name="uni0E01" unicode="&#xe01;" horiz-adv-x="650" 
d="M90 326l-50.001 82.999c36.667 46 78.834 81 126.501 105s102.834 36 165.501 36c83.333 0 147.166 -18.667 191.499 -56s66.5 -89 66.5 -155v-339h-127v329c0 41.333 -11 72 -33 92s-54.667 30 -98 30c-32.667 0 -61.5 -4.66699 -86.5 -14
s-48.167 -24.666 -69.5 -45.999l41 -66v-325h-127v326z" />
    <glyph glyph-name="uni0E02" unicode="&#xe02;" horiz-adv-x="597" 
d="M162 10.5c-37.333 17 -65.998 40.6689 -85.998 71.002s-30 64.833 -30 103.5v25c0 23.333 4.83301 44.666 14.5 63.999s23.167 41.333 40.5 66c11.333 16 19.666 28.667 24.999 38s8 18.333 8 27c0 20 -12.333 30 -37 30h-57v100h124c30 0 53.833 -8.5 71.5 -25.5
s26.5 -39.833 26.5 -68.5c0 -20 -3.83301 -38.333 -11.5 -55s-18.834 -37 -33.501 -61s-25.667 -43.833 -33 -59.5s-11 -32.5 -11 -50.5v-25c0 -34 10 -60.167 30 -78.5s50 -27.5 90 -27.5c78 0 117 37 117 111v340h127v-319c0 -70.667 -21.167 -126.834 -63.5 -168.501
s-102.5 -62.5 -180.5 -62.5c-50 0 -93.667 8.5 -131 25.5z" />
    <glyph glyph-name="uni0E03" unicode="&#xe03;" horiz-adv-x="607" 
d="M172 10.5c-37.333 17 -66.001 40.6689 -86.001 71.002s-30 64.833 -30 103.5v29c0 22 6 43.167 18 63.5s28.667 43.166 50 68.499c14 17.333 23.667 30 29 38s8 15.333 8 22v3c-13.333 -6.66699 -28.666 -10 -45.999 -10c-50 0 -75 28 -75 84v52h89v-36
c0 -19.333 9.66699 -29 29 -29c11.333 0 21 4 29 12v53h96v-94c0 -23.333 -4.83301 -45 -14.5 -65s-23.5 -43 -41.5 -69c-14.667 -21.333 -25.667 -39 -33 -53s-11 -28 -11 -42v-22c0 -34 10 -60.167 30 -78.5s50 -27.5 90 -27.5c78 0 117 37 117 111v340h127v-319
c0 -70.667 -21.167 -126.834 -63.5 -168.501s-102.5 -62.5 -180.5 -62.5c-50 0 -93.667 8.5 -131 25.5z" />
    <glyph glyph-name="uni0E04" unicode="&#xe04;" horiz-adv-x="649" 
d="M60 324c0 72 23.834 127.667 71.501 167s112.167 59 193.5 59s145.666 -19.667 192.999 -59s71 -95 71 -167v-324h-127v329c0 40.667 -11.833 71.167 -35.5 91.5s-57.5 30.5 -101.5 30.5s-78 -10 -102 -30s-36 -50.667 -36 -92v-88c8.66699 14 21.5 25.333 38.5 34
s36.833 13 59.5 13h81v-106h-90c-26 0 -47.333 -8.5 -64 -25.5s-25 -37.5 -25 -61.5v-95h-127v324z" />
    <glyph glyph-name="uni0E05" unicode="&#xe05;" horiz-adv-x="649" 
d="M60 371c0 54.667 12.334 98.167 37.001 130.5s63 48.5 115 48.5c26.667 0 49.667 -4.83301 69 -14.5s33.666 -23.834 42.999 -42.501c10.667 18.667 25.5 32.834 44.5 42.501s41.833 14.5 68.5 14.5c52 0 90.333 -16 115 -48s37 -75.667 37 -131v-371h-127v374
c0 28 -3.33301 47.833 -10 59.5s-20 17.5 -40 17.5c-15.333 0 -26.833 -4.5 -34.5 -13.5s-13.5 -23.5 -17.5 -43.5h-71c-4 20 -9.83301 34.5 -17.5 43.5s-19.167 13.5 -34.5 13.5c-19.333 0 -32.5 -5.83301 -39.5 -17.5s-10.5 -31.167 -10.5 -58.5v-134
c8.66699 14 21.5 25.333 38.5 34s36.833 13 59.5 13h81v-106h-90c-26 0 -47.333 -8.5 -64 -25.5s-25 -37.5 -25 -61.5v-95h-127v371z" />
    <glyph glyph-name="uni0E06" unicode="&#xe06;" horiz-adv-x="631" 
d="M264.5 5.5c-32.333 13.667 -61.1699 33.834 -86.5029 60.501v-66h-122v206c0 24 6.16699 46.667 18.5 68s29.166 45.666 50.499 72.999c12 14.667 21 26.5 27 35.5s9 16.833 9 23.5v3c-13.333 -6.66699 -28.666 -10 -45.999 -10c-50 0 -75 28 -75 84v52h89v-36
c0 -19.333 9.66699 -29 29 -29c11.333 0 21 4 29 12v53h96v-94c0 -23.333 -4.83301 -44.833 -14.5 -64.5s-23.5 -43.167 -41.5 -70.5c-14.667 -21.333 -25.667 -39 -33 -53s-11 -28 -11 -42v-45c34.667 -54.667 82.667 -82 144 -82c78.667 0 118 36.667 118 110v341h126
v-347c0 -38 -8.16699 -72.5 -24.5 -103.5s-40.166 -55.333 -71.499 -73s-68.666 -26.5 -111.999 -26.5c-33.333 0 -66.166 6.83301 -98.499 20.5z" />
    <glyph glyph-name="uni0E07" unicode="&#xe07;" horiz-adv-x="629" 
d="M40 468h127l117 -369c56 0 99.167 15.833 129.5 47.5s45.5 76.834 45.5 135.501c0 56.667 -10.333 99 -31 127s-53.667 42 -99 42c-24.667 0 -47.667 -3.33301 -69 -10v97c26 8 56.333 12 91 12c78 0 137.167 -23.667 177.5 -71s60.5 -113 60.5 -197
c0 -58.667 -12.833 -109.334 -38.5 -152.001s-60.167 -75 -103.5 -97s-91.333 -33 -144 -33h-115z" />
    <glyph glyph-name="uni0E08" unicode="&#xe08;" horiz-adv-x="592" 
d="M61 294l126.001 0.000976562l48 -195c56 0 101.167 14.833 135.5 44.5s51.5 71.834 51.5 126.501c0 58.667 -15 103.5 -45 134.5s-79.667 46.5 -149 46.5c-33.333 0 -67.333 -3.33301 -102 -10s-63.334 -15.334 -86.001 -26.001v99c26 11.333 57 20.166 93 26.499
s73 9.5 111 9.5c96.667 0 172.167 -24.333 226.5 -73s81.5 -117.667 81.5 -207c0 -54 -13.333 -101.333 -40 -142s-63 -72.167 -109 -94.5s-96.333 -33.5 -151 -33.5h-118z" />
    <glyph glyph-name="uni0E09" unicode="&#xe09;" horiz-adv-x="616" 
d="M102 38c-34 35.333 -51.0029 83.6689 -51.0029 145.002v122h127v-114c0 -36.667 9 -63.667 27 -81s46 -26 84 -26c29.333 0 56.333 7.16699 81 21.5s44.334 34.5 59.001 60.5v118c0 57.333 -13.333 99.5 -40 126.5s-74.334 40.5 -143.001 40.5
c-35.333 0 -72.666 -3.33301 -111.999 -10s-70.666 -15.334 -93.999 -26.001v99c25.333 10.667 58.5 19.334 99.5 26.001s80.833 10 119.5 10c104 0 179.5 -21.833 226.5 -65.5s70.5 -108.834 70.5 -195.501v-289h-122v66c-20.667 -26.667 -47.167 -46.834 -79.5 -60.501
s-67.166 -20.5 -104.499 -20.5c-64.667 0 -114 17.667 -148 53z" />
    <glyph glyph-name="uni0E0A" unicode="&#xe0a;" horiz-adv-x="591" 
d="M164 10.5c-37.333 17 -66.334 40.668 -87.001 71.001s-31 64.833 -31 103.5v25c0 23.333 5 45 15 65s23.667 42.333 41 67c12 18 20.333 31 25 39s7 16 7 24c0 20 -12.333 30 -37 30h-57v100h124c30 0 53.833 -8.5 71.5 -25.5s26.5 -39.833 26.5 -68.5
c0 -20 -3.83301 -38.333 -11.5 -55s-18.834 -37 -33.501 -61s-25.667 -43.833 -33 -59.5s-11 -32.5 -11 -50.5v-25c0 -33.333 10.5 -59.333 31.5 -78s50.833 -28 89.5 -28c40.667 0 71.834 11.167 93.501 33.5s32.5 55.166 32.5 98.499c0 87.333 -35.667 131 -107 131v67
l102 136h136l-111 -148c38 -18 65.333 -42 82 -72s25 -68 25 -114c0 -44.667 -10.333 -84.5 -31 -119.5s-50.167 -62.333 -88.5 -82s-82.833 -29.5 -133.5 -29.5c-49.333 0 -92.666 8.5 -129.999 25.5z" />
    <glyph glyph-name="uni0E0B" unicode="&#xe0b;" horiz-adv-x="601" 
d="M174 10.5c-37.333 17 -66.3359 40.6689 -87.0029 71.002s-31 64.833 -31 103.5v29c0 22 6 43.167 18 63.5s28.667 43.166 50 68.499c14 17.333 23.667 30 29 38s8 15.333 8 22v3c-13.333 -6.66699 -28.666 -10 -45.999 -10c-50 0 -75 28 -75 84v52h89v-36
c0 -19.333 9.66699 -29 29 -29c11.333 0 21 4 29 12v53h96v-94c0 -23.333 -4.83301 -45 -14.5 -65s-23.5 -43 -41.5 -69c-14.667 -21.333 -25.667 -39 -33 -53s-11 -28 -11 -42v-22c0 -33.333 10.5 -59.333 31.5 -78s50.833 -28 89.5 -28
c40.667 0 71.834 11.167 93.501 33.5s32.5 55.166 32.5 98.499c0 87.333 -35.667 131 -107 131v67l102 136h136l-111 -148c38 -18 65.333 -42 82 -72s25 -68 25 -114c0 -44.667 -10.333 -84.5 -31 -119.5s-50.167 -62.333 -88.5 -82s-82.833 -29.5 -133.5 -29.5
c-49.333 0 -92.666 8.5 -129.999 25.5z" />
    <glyph glyph-name="uni0E0C" unicode="&#xe0c;" horiz-adv-x="998" 
d="M646 4c-30 12.667 -57 32.332 -81 58.999v-63h-122v329c0 42 -10 72.833 -30 92.5s-50.333 29.5 -91 29.5c-30.667 0 -57.667 -4.66699 -81 -14s-45 -24.666 -65 -45.999l41 -66v-172c0 -17.333 3.83301 -29.5 11.5 -36.5s20.5 -10.5 38.5 -10.5h54v-106h-122
c-35.333 0 -62.333 10 -81 30s-28 47.333 -28 82v214l-50 83c36.667 46 77.834 81 123.501 105s98.5 36 158.5 36c80.667 0 142 -18.5 184 -55.5s63 -88.833 63 -155.5v-173c34.667 -54.667 79.667 -82 135 -82c37.333 0 64.666 9 81.999 27s26 45.667 26 83v341h126v-347
c0 -38 -7.66699 -72.5 -23 -103.5s-37.833 -55.333 -67.5 -73s-65.5 -26.5 -107.5 -26.5c-32.667 0 -64 6.33301 -94 19z" />
    <glyph glyph-name="uni0E0D" unicode="&#xe0d;" horiz-adv-x="1011" 
d="M594 -87c-36 7.33301 -65 17.3311 -87 29.998v105c58 -31.333 123.333 -47 196 -47c48 0 83.667 5.16699 107 15.5s35 26.5 35 48.5c0 14.667 -5.33301 28 -16 40c-44 -21.333 -89.667 -32 -137 -32c-82 0 -144 19.5 -186 58.5s-63 93.5 -63 163.5v34
c0 42 -10 72.833 -30 92.5s-50.333 29.5 -91 29.5c-30.667 0 -57.667 -4.66699 -81 -14s-45 -24.666 -65 -45.999l41 -66v-172c0 -17.333 3.66699 -29.5 11 -36.5s19.666 -10.5 36.999 -10.5h56v-106h-122c-35.333 0 -62.333 10 -81 30s-28 47.333 -28 82v214l-50 83
c36.667 46 77.834 81 123.501 105s98.5 36 158.5 36c80.667 0 142 -18.5 184 -55.5s63 -88.833 63 -155.5v-34c0 -45.333 9.5 -78.833 28.5 -100.5s51.5 -32.5 97.5 -32.5c84.667 0 127 44.333 127 133v230h127v-240c0 -41.333 -13 -81.666 -39 -120.999
c34 -30 51 -66.333 51 -109c0 -52 -24 -92.167 -72 -120.5s-110 -42.5 -186 -42.5c-36.667 0 -73 3.66699 -109 11z" />
    <glyph glyph-name="uni0E0E" unicode="&#xe0e;" horiz-adv-x="664" 
d="M173 -123c18.667 16.667 43 29.833 73 39.5s60.333 14.5 91 14.5c58 0 104.667 -11.333 140 -34v432c0 41.333 -11 72 -33 92s-54.667 30 -98 30c-32 0 -60.167 -4.66699 -84.5 -14s-47.166 -23.333 -68.499 -42l58 -69v-213c0 -35.333 -9.5 -63 -28.5 -83
s-45.833 -30 -80.5 -30h-102v106h39c17.333 0 29.166 3.33301 35.499 10s9.5 19 9.5 37v173l-70 83c71.333 94 169 141 293 141c82.667 0 146.167 -18.667 190.5 -56s66.5 -89 66.5 -155v-560h-112c-23.333 18.667 -47.5 32.167 -72.5 40.5s-52.5 12.5 -82.5 12.5
c-30.667 0 -60.5 -5.16699 -89.5 -15.5s-53.833 -24.833 -74.5 -43.5v104z" />
    <glyph glyph-name="uni0E0F" unicode="&#xe0f;" horiz-adv-x="664" 
d="M160.5 -215.5c-19 5.66699 -35.167 13.168 -48.5 22.501v96c28.667 -18.667 62 -28 100 -28c26 0 47.5 5.66699 64.5 17s27.833 28.666 32.5 51.999h70l98 -56v441c0 41.333 -11 72 -33 92s-54.667 30 -98 30c-32 0 -60.167 -4.66699 -84.5 -14
s-47.166 -23.333 -68.499 -42l58 -69v-213c0 -35.333 -9.5 -63 -28.5 -83s-45.833 -30 -80.5 -30h-102v106h39c17.333 0 29.166 3.33301 35.499 10s9.5 19 9.5 37v173l-70 83c71.333 94 169 141 293 141c82.667 0 146.167 -18.667 190.5 -56s66.5 -89 66.5 -155v-560h-121
l-119 68c-13.333 -23.333 -32.333 -41 -57 -53s-53.667 -18 -87 -18c-20.667 0 -40.5 2.83301 -59.5 8.5z" />
    <glyph glyph-name="uni0E10" unicode="&#xe10;" horiz-adv-x="608" 
d="M61 294l126.002 0.000976562l48 -195c55.333 0 100.333 15.833 135 47.5s52 75.167 52 130.5c0 58 -15 101.5 -45 130.5s-79.667 43.5 -149 43.5c-33.333 0 -67.333 -3.33301 -102 -10s-63.334 -15.334 -86.001 -26.001v99c26 11.333 57 20.166 93 26.499s73 9.5 111 9.5
c60 0 112.333 -9.66699 157 -29l47 54h140l-101 -115c43.333 -47.333 65 -108.666 65 -183.999c0 -55.333 -13.333 -104 -40 -146s-62.834 -74.167 -108.501 -96.5s-96.167 -33.5 -151.5 -33.5h-118zM95.502 -215.499c-20.333 5.66699 -36.832 13.168 -49.499 22.501v86
c28.667 -18.667 62 -28 100 -28c26.667 0 47.667 6 63 18s26.666 30.667 33.999 56h62l106 -64v87h126v-183h-115l-123 72c-14 -26.667 -32.333 -45.834 -55 -57.501s-51.334 -17.5 -86.001 -17.5c-21.333 0 -42.166 2.83301 -62.499 8.5z" />
    <glyph glyph-name="uni0E11" unicode="&#xe11;" horiz-adv-x="636" 
d="M71 214c0 22 5 42.999 15 62.999s24 43 42 69c11.333 16.667 19.333 29.167 24 37.5s7 15.833 7 22.5v3c-13.333 -6.66699 -28.666 -10 -45.999 -10c-48.667 0 -73 28 -73 84v52h89v-36c0 -19.333 9.66699 -29 29 -29c11.333 0 21 4 29 12v53h96v-33
c14 14.667 33.667 26.334 59 35.001s50.666 13 75.999 13c105.333 0 158 -60.333 158 -181v-369h-127v384c0 22.667 -5.16699 39.5 -15.5 50.5s-26.166 16.5 -47.499 16.5c-49.333 0 -87 -18.667 -113 -56c-4.66699 -14.667 -9.83398 -27.667 -15.501 -39
s-13.5 -25 -23.5 -41c-12 -20 -21 -37.333 -27 -52s-9 -31.667 -9 -51v-212h-127v214z" />
    <glyph glyph-name="uni0E12" unicode="&#xe12;" horiz-adv-x="1044" 
d="M167.5 16.5c-39.667 21 -70.835 51.999 -93.502 92.999s-34 90.833 -34 149.5c0 60 8.5 112 25.5 156s40.5 77.5 70.5 100.5s64 34.5 102 34.5c48 0 83.333 -19 106 -57c24.667 38 67.334 57 128.001 57c48 0 84 -15.167 108 -45.5s36 -70.833 36 -121.5v-217
c34.667 -54.667 79.334 -82 134.001 -82c37.333 0 64.666 9 81.999 27s26 45.667 26 83v341h126v-347c0 -38 -7.66699 -72.5 -23 -103.5s-37.833 -55.333 -67.5 -73s-65.5 -26.5 -107.5 -26.5c-32.667 0 -64 6.33301 -94 19s-57 32.334 -81 59.001v-63h-122v374
c0 27.333 -3.66699 47 -11 59s-20.666 18 -39.999 18c-31.333 0 -50.666 -19.333 -57.999 -58h-71c-2 19.333 -6.83301 33.833 -14.5 43.5s-19.5 14.5 -35.5 14.5c-27.333 0 -49 -16 -65 -48s-24 -80 -24 -144c0 -56.667 13.667 -100 41 -130s65.333 -45 114 -45
c24.667 0 47.667 3.33301 69 10v-97c-26 -8 -56.333 -12 -91 -12c-50.667 0 -95.834 10.5 -135.501 31.5z" />
    <glyph glyph-name="uni0E13" unicode="&#xe13;" horiz-adv-x="998" 
d="M533.5 11.5c-29.667 17.667 -52.166 41.999 -67.499 72.999s-23 65.5 -23 103.5v141c0 42 -10 72.833 -30 92.5s-50.333 29.5 -91 29.5c-30.667 0 -57.667 -4.66699 -81 -14s-45 -24.666 -65 -45.999l41 -66v-172c0 -17.333 3.83301 -29.5 11.5 -36.5
s20.5 -10.5 38.5 -10.5h54v-106h-122c-35.333 0 -62.333 10 -81 30s-28 47.333 -28 82v214l-50 83c36.667 46 77.834 81 123.501 105s98.5 36 158.5 36c80.667 0 142 -18.5 184 -55.5s63 -88.833 63 -155.5v-145c0 -37.333 8.66699 -65 26 -83s44.666 -27 81.999 -27
c29.333 0 56.166 7.16699 80.499 21.5s42.5 34.5 54.5 60.5v369h126v-535h-122v63c-42 -52 -100.333 -78 -175 -78c-42 0 -77.833 8.83301 -107.5 26.5z" />
    <glyph glyph-name="uni0E14" unicode="&#xe14;" horiz-adv-x="686" 
d="M110.5 53.5c-47 45.667 -70.501 112.501 -70.501 200.501c0 61.333 12.167 114.166 36.5 158.499s59.333 78.333 105 102s99.5 35.5 161.5 35.5c98 0 169.667 -22.667 215 -68s68 -104.333 68 -177v-305h-127v306c0 46.667 -12.167 82.5 -36.5 107.5
s-64.166 37.5 -119.499 37.5c-53.333 0 -95.5 -17.167 -126.5 -51.5s-46.5 -82.833 -46.5 -145.5c0 -57.333 13.333 -100 40 -128s65 -42 115 -42c24.667 0 47.667 3.33301 69 10v-97c-26 -8 -56.333 -12 -91 -12c-81.333 0 -145.5 22.833 -192.5 68.5z" />
    <glyph glyph-name="uni0E15" unicode="&#xe15;" horiz-adv-x="686" 
d="M111 53.5c-47.333 45.667 -71.001 112.5 -71.001 200.5c0 60 8.66699 112.333 26 157s41.333 79 72 103s65 36 103 36c49.333 0 85.333 -19 108 -57c12.667 20 30.667 34.5 54 43.5s49 13.5 77 13.5c48 0 84.333 -15.167 109 -45.5s37 -70.833 37 -121.5v-383h-127v374
c0 26.667 -4 46.167 -12 58.5s-21.667 18.5 -41 18.5c-33.333 0 -53.666 -19.333 -60.999 -58h-71c-4 38.667 -21.333 58 -52 58c-27.333 0 -49.5 -16.833 -66.5 -50.5s-25.5 -82.5 -25.5 -146.5c0 -113.333 51.667 -170 155 -170c24.667 0 47.667 3.33301 69 10v-97
c-26 -8 -56.333 -12 -91 -12c-80.667 0 -144.667 22.833 -192 68.5z" />
    <glyph glyph-name="uni0E16" unicode="&#xe16;" horiz-adv-x="650" 
d="M118 30c-18.667 20 -28.001 47.332 -28.001 81.999v214l-50 83c36.667 46 78.834 81 126.501 105s102.834 36 165.501 36c83.333 0 147.166 -18.667 191.499 -56s66.5 -89 66.5 -155v-339h-127v329c0 41.333 -11 72 -33 92s-54.667 30 -98 30
c-32.667 0 -61.5 -4.66699 -86.5 -14s-48.167 -24.666 -69.5 -45.999l41 -66v-172c0 -17.333 3.83301 -29.5 11.5 -36.5s20.5 -10.5 38.5 -10.5h54v-106h-122c-35.333 0 -62.333 10 -81 30z" />
    <glyph glyph-name="uni0E17" unicode="&#xe17;" horiz-adv-x="635" 
d="M60 535l122.001 -0.000976562v-66c25.333 26.667 54.833 46.834 88.5 60.501s67.5 20.5 101.5 20.5c66 0 116.333 -18.5 151 -55.5s52 -84.5 52 -142.5v-352h-127v346c0 70 -37.333 105 -112 105c-64.667 0 -114.334 -27.333 -149.001 -82v-369h-127v535z" />
    <glyph glyph-name="uni0E18" unicode="&#xe18;" horiz-adv-x="564" 
d="M108 28.5c-44 29 -66.002 68.499 -66.002 118.499v65h125v-56c0 -50.667 39.333 -76 118 -76c75.333 0 113 22.667 113 68c0 19.333 -4.66699 34.333 -14 45s-24 19.334 -44 26.001s-53 15.334 -99 26.001c-67.333 16 -117.666 35.333 -150.999 58s-50 56 -50 100
c0 50 22 87 66 111s100.667 36 170 36c41.333 0 81.666 -4.16699 120.999 -12.5s71 -18.833 95 -31.5v-104c-25.333 15.333 -56.166 27.333 -92.499 36s-72.833 13 -109.5 13c-41.333 0 -72.166 -3 -92.499 -9s-30.5 -19 -30.5 -39c0 -17.333 9.16699 -30.333 27.5 -39
s51.5 -19.334 99.5 -32.001l43 -11c46.667 -12.667 83.167 -26 109.5 -40s45.833 -31.333 58.5 -52s19 -47.667 19 -81c0 -48.667 -20.667 -88 -62 -118s-100.333 -45 -177 -45c-74 0 -133 14.5 -177 43.5z" />
    <glyph glyph-name="uni0E19" unicode="&#xe19;" horiz-adv-x="635" 
d="M156 11.5c-31.333 17.667 -55.1699 42.001 -71.5029 73.001s-24.5 65.5 -24.5 103.5v347h127v-341c0 -73.333 39 -110 117 -110c61.333 0 109.333 27.333 144 82v369h127v-535h-122v66c-25.333 -26.667 -54.166 -46.834 -86.499 -60.501s-65.166 -20.5 -98.499 -20.5
c-43.333 0 -80.666 8.83301 -111.999 26.5z" />
    <glyph glyph-name="uni0E1A" unicode="&#xe1a;" horiz-adv-x="653" 
d="M187.5 14c-40.333 19.333 -71.333 46.166 -93 80.499s-32.5 73.5 -32.5 117.5v323h127v-318c0 -42 11.667 -74.667 35 -98s58 -35 104 -35c45.333 0 79.666 11.667 102.999 35s35 56 35 98v318h127v-323c0 -44 -10.833 -83.167 -32.5 -117.5s-52.5 -61.166 -92.5 -80.499
s-86.667 -29 -140 -29s-100.166 9.66699 -140.499 29z" />
    <glyph glyph-name="uni0E1B" unicode="&#xe1b;" horiz-adv-x="651" 
d="M185.5 14c-40.333 19.333 -71.333 46.166 -93 80.499s-32.5 73.5 -32.5 117.5v323h127v-318c0 -42 11.667 -74.667 35 -98s58 -35 104 -35c45.333 0 79.666 11.667 102.999 35s35 56 35 98v497h127v-502c0 -44 -10.833 -83.167 -32.5 -117.5s-52.5 -61.166 -92.5 -80.499
s-86.667 -29 -140 -29s-100.166 9.66699 -140.499 29z" />
    <glyph glyph-name="uni0E1C" unicode="&#xe1c;" horiz-adv-x="652" 
d="M60 418c0 38 10.167 67 30.5 87s49.5 30 87.5 30h91v-106h-37c-17.333 0 -29.333 -3.66699 -36 -11s-10 -20.333 -10 -39v-199l115 180h50l115 -180v355h126v-535h-114l-152 241l-152 -241h-114v418z" />
    <glyph glyph-name="uni0E1D" unicode="&#xe1d;" horiz-adv-x="652" 
d="M60 418c0 38 10.167 67 30.5 87s49.5 30 87.5 30h91v-106h-37c-17.333 0 -29.333 -3.66699 -36 -11s-10 -20.333 -10 -39v-199l115 180h50l115 -180v534h126v-714h-114l-152 241l-152 -241h-114v418z" />
    <glyph glyph-name="uni0E1E" unicode="&#xe1e;" horiz-adv-x="788" 
d="M30 535h127l86 -359l104 359h94l104 -359l86 359h127l-149 -535h-107l-108 368l-108 -368h-107z" />
    <glyph glyph-name="uni0E1F" unicode="&#xe1f;" horiz-adv-x="761" 
d="M30 535h127l86 -359l104 359h94l104 -359l109 538h127l-172 -714h-107l-108 368l-108 -368h-107z" />
    </font>
</defs>
</svg>
